<svg width="30" height="30" viewBox="0 0 30 30" fill="none" xmlns="http://www.w3.org/2000/svg">
<path d="M20.5 30C21.7355 30 22.8651 29.4394 23.5005 28.5052C24.1359 27.5709 24.1712 26.4187 23.5711 25.4533L20.9589 21.2491C20.853 21.0934 20.6765 21 20.5 21C20.3235 21 20.1117 21.0934 20.0411 21.2491L17.4289 25.4533C16.8288 26.4187 16.8641 27.5398 17.4995 28.5052C18.1349 29.4394 19.2292 30 20.5 30ZM20.5 22.4325L22.618 25.8893C23.0416 26.5433 23.0063 27.3529 22.5827 28.0069C22.1591 28.6609 21.3472 29.0657 20.5 29.0657C19.6528 29.0657 18.8409 28.6609 18.4173 28.0069C17.9937 27.3529 17.9584 26.5744 18.382 25.8893L20.5 22.4325Z" fill="#565656"/>
<path d="M20.4297 28C20.5723 28 20.6673 27.9714 20.7148 27.8857C20.9049 27.6857 21 27.4571 21 27.2286C21 27.1143 20.8574 27 20.6198 27C20.3821 27 20.2396 27.0857 20.2396 27.2286C20.2396 27.3714 20.192 27.5143 20.0495 27.6571C19.9544 27.7714 20.0019 27.8857 20.1445 27.9429C20.2871 27.9714 20.3821 28 20.4297 28Z" fill="#565656"/>
<path d="M13.1573 6H13.8435C13.922 6 14.0004 5.89535 14.0004 5.72093V3.27907C14.0004 3.13954 13.9416 3 13.8435 3H13.1573C13.0788 3 13.0004 3.10465 13.0004 3.27907V5.72093C13.02 5.86047 13.0788 6 13.1573 6ZM13.7063 5.47674H13.3141V3.55814H13.7063V5.47674Z" fill="#565656"/>
<path d="M6.55717 4.00006H22.4436C22.7406 4.00006 23.0004 3.79418 23.0004 3.55888V1.44124C23.0004 1.20594 22.7406 1.00006 22.4436 1.00006H6.55717C6.26022 1.00006 6.0004 1.20594 6.0004 1.44124V3.55888C6.0004 3.79418 6.2231 4.00006 6.55717 4.00006ZM21.8869 3.11771H7.11393V1.88241H21.8869V3.11771Z" fill="#565656"/>
<path d="M12.3632 7H15.636C15.8178 7 15.9996 6.94118 15.9996 6.84314V6.15686C15.9996 6.07843 15.8632 6 15.636 6H12.3632C12.1814 6 11.9996 6.05882 11.9996 6.15686V6.84314C12.0451 6.92157 12.1814 7 12.3632 7ZM15.2723 6.70588H12.6814V6.31373H15.2723V6.70588Z" fill="#565656"/>
<path d="M13.3746 2H15.571C15.7853 2 15.9996 1.89286 15.9996 1.71429V1C15.9996 0.428571 15.3032 0 14.4996 0C13.696 0 12.9996 0.464286 12.9996 1V1.75C12.9996 1.89286 13.1603 2 13.3746 2ZM15.196 1.46429H13.8032V1C13.8032 0.75 14.1246 0.535714 14.4996 0.535714C14.8746 0.535714 15.196 0.75 15.196 1V1.46429Z" fill="#565656"/>
<path d="M16.5861 19H23.4653C23.7505 19 24 18.7324 24 18.4265V13.9912C24 9.59412 20.6495 6 16.5505 6H6.53465C6.2495 6 6 6.26765 6 6.57353V14.1059C6 14.4118 6.2495 14.6794 6.53465 14.6794H16.0515V18.4647C16.0515 18.7706 16.2653 19 16.5861 19ZM22.9307 17.8529H17.0851V14.0676C17.0851 13.7618 16.8356 13.4941 16.5505 13.4941H7.06931V7.14706H16.5861C20.1149 7.14706 22.9663 10.2059 22.9663 13.9912V17.8529H22.9307Z" fill="#565656"/>
<path d="M17.3379 21H23.6613C24.3974 21 24.9996 20.325 24.9996 19.5C24.9996 18.675 24.3974 18 23.6613 18H17.3379C16.6018 18 15.9996 18.675 15.9996 19.5C16.0331 20.325 16.6018 21 17.3379 21ZM23.6613 19.125C23.8286 19.125 23.9959 19.275 23.9959 19.5C23.9959 19.725 23.8621 19.875 23.6613 19.875H17.3379C17.1706 19.875 17.0033 19.725 17.0033 19.5C17.0033 19.275 17.1371 19.125 17.3379 19.125H23.6613Z" fill="#565656"/>
<path d="M13.0004 1.99994H14.0004V3.99994H13.0004V1.99994Z" fill="#565656"/>
</svg>
