<svg width="80" height="80" viewBox="0 0 80 80" fill="none" xmlns="http://www.w3.org/2000/svg">
<g clip-path="url(#clip0_1006_382)">
<path d="M48.6457 32.5291L78.982 1.53357V38.7085L67.1638 50.7892L48.6457 32.5291Z" fill="#008EE3"/>
<path d="M50.0001 1.53357V23.0582L40.0001 14.0896L30.0001 23.0582V1.53357H50.0001Z" fill="#008EE3"/>
<path d="M77.2729 70.5919H53.3093V68.7982H77.2729C77.514 68.7982 77.7453 68.7037 77.9157 68.5355C78.0862 68.3673 78.182 68.1392 78.182 67.9014V38.2063H80.0002V67.9014C80.0002 68.6149 79.7129 69.2993 79.2014 69.8039C78.6899 70.3085 77.9962 70.5919 77.2729 70.5919Z" fill="#025484"/>
<path d="M23.5457 75.8745C22.4521 75.8807 21.3785 75.5857 20.4457 75.0224C19.1321 74.2016 18.1833 72.9194 17.7911 71.435C17.6356 70.8181 17.7064 70.1667 17.9912 69.5964C18.0639 69.4619 18.1366 69.3632 18.2002 69.2556L18.3275 69.0762C20.3457 66.2242 27.2911 56.4574 31.6911 50.4753L33.1639 51.5247C28.773 57.4798 21.8184 67.2377 19.8184 70.0807L19.7002 70.2511L19.6002 70.4126C19.5079 70.6059 19.4886 70.8253 19.5457 71.0314C19.8119 72.0563 20.4615 72.9439 21.3639 73.5157C21.8552 73.8011 22.399 73.9877 22.9639 74.0646C23.5287 74.1416 24.1034 74.1075 24.6548 73.9641C24.8783 73.9111 25.0732 73.7765 25.2002 73.5875L33.9093 60.9597L35.4548 61.9641L26.7457 74.574C26.3647 75.1413 25.78 75.5451 25.1093 75.704C24.5968 75.8216 24.0719 75.8788 23.5457 75.8745V75.8745Z" fill="#025484"/>
<path d="M31.1003 78.1076C30.089 78.1122 29.0979 77.8289 28.2458 77.2915C27.5239 76.8127 26.9286 76.1704 26.5095 75.4184C26.0904 74.6664 25.8597 73.8265 25.8367 72.9686H27.6549C27.6779 73.5272 27.8329 74.0726 28.1076 74.5616C28.3822 75.0505 28.7688 75.4694 29.2367 75.7848C29.7548 76.1041 30.348 76.2852 30.9584 76.3103C31.5687 76.3355 32.1752 76.2038 32.7185 75.9283C32.8403 75.8606 32.9409 75.7614 33.0094 75.6413L40.0003 64.7982L41.5367 65.7579L34.5458 76.6188C34.2973 77.0019 33.9487 77.3117 33.5367 77.5157C32.7829 77.899 31.9483 78.1018 31.1003 78.1076V78.1076Z" fill="#025484"/>
<path d="M38.764 79.2197C37.8628 79.23 36.975 79.0041 36.1913 78.565C35.5593 78.1896 35.0112 77.6916 34.5799 77.1012C34.1486 76.5108 33.8432 75.8402 33.6822 75.1301L35.5004 74.7354C35.5883 75.186 35.7692 75.6139 36.0319 75.9926C36.2946 76.3712 36.6334 76.6925 37.0274 76.9364C37.4213 77.1804 37.8619 77.3418 38.3217 77.4106C38.7816 77.4794 39.2508 77.4541 39.7004 77.3363C39.9178 77.28 40.104 77.1415 40.2185 76.9507L45.5549 68.3229L47.1095 69.2197L41.7276 77.8745C41.3543 78.4691 40.7608 78.897 40.0731 79.0673C39.6438 79.1659 39.2047 79.217 38.764 79.2197V79.2197Z" fill="#025484"/>
<path d="M46.3636 79.3633C45.1535 79.3619 43.9907 78.8993 43.1182 78.0719C42.2457 77.2446 41.7311 76.1167 41.6818 74.9238C41.6818 74.6859 41.7776 74.4578 41.9481 74.2896C42.1186 74.1214 42.3498 74.0269 42.5909 74.0269C42.832 74.0269 43.0633 74.1214 43.2337 74.2896C43.4042 74.4578 43.5 74.6859 43.5 74.9238C43.5209 75.3834 43.6545 75.8312 43.8894 76.2286C44.1243 76.6261 44.4534 76.9614 44.8486 77.2057C45.2438 77.45 45.6931 77.5961 46.1581 77.6313C46.6231 77.6666 47.0898 77.59 47.5182 77.4081C47.7033 77.3303 47.8546 77.1905 47.9455 77.0135L60.5364 52.7982C60.5913 52.6934 60.6666 52.6003 60.758 52.5242C60.8494 52.4481 60.9551 52.3904 61.069 52.3546C61.183 52.3188 61.303 52.3055 61.4222 52.3154C61.5414 52.3254 61.6574 52.3584 61.7636 52.4126C61.8699 52.4667 61.9643 52.541 62.0414 52.6312C62.1186 52.7214 62.177 52.8256 62.2133 52.9381C62.2496 53.0505 62.2631 53.1689 62.253 53.2865C62.2429 53.404 62.2095 53.5185 62.1546 53.6233L49.5364 77.7579C49.2428 78.3099 48.764 78.7442 48.1818 78.9866C47.6066 79.2282 46.9888 79.3562 46.3636 79.3633V79.3633Z" fill="#025484"/>
<path d="M18.6 71H2.72727C2.00396 71 1.31026 70.7123 0.7988 70.2002C0.287337 69.6881 0 68.9935 0 68.2692V2.73077C0 2.00652 0.287337 1.31194 0.7988 0.799824C1.31026 0.287705 2.00396 0 2.72727 0H79.0909C79.332 0 79.5632 0.0959015 79.7337 0.266608C79.9042 0.437314 80 0.668841 80 0.910256C80 1.15167 79.9042 1.3832 79.7337 1.5539C79.5632 1.72461 79.332 1.82051 79.0909 1.82051H2.72727C2.48617 1.82051 2.25494 1.91641 2.08445 2.08712C1.91396 2.25783 1.81818 2.48935 1.81818 2.73077V68.2692C1.81818 68.5106 1.91396 68.7422 2.08445 68.9129C2.25494 69.0836 2.48617 69.1795 2.72727 69.1795H18.6C18.8411 69.1795 19.0723 69.2754 19.2428 69.4461C19.4133 69.6168 19.5091 69.8483 19.5091 70.0897C19.5091 70.3312 19.4133 70.5627 19.2428 70.7334C19.0723 70.9041 18.8411 71 18.6 71Z" fill="#025484"/>
<path d="M23.427 56.1435C23.2209 56.1435 23.0148 56.1435 22.8088 56.1435C21.7022 56.0061 20.6373 55.6404 19.6835 55.0702C18.7296 54.5 17.9081 53.7381 17.2724 52.834C17.1362 52.6378 17.0846 52.3962 17.1289 52.1624C17.1732 51.9287 17.3099 51.7218 17.5088 51.5874L31.927 41.8834C34.3371 40.2576 37.1891 39.3885 40.1088 39.3901L47.6088 38.8341C47.7282 38.8252 47.8481 38.8397 47.9619 38.8766C48.0756 38.9135 48.1808 38.9721 48.2716 39.0492C48.3623 39.1262 48.4368 39.2201 48.4908 39.3256C48.5447 39.431 48.5771 39.5459 48.586 39.6637C48.595 39.7814 48.5803 39.8998 48.5429 40.012C48.5055 40.1242 48.4461 40.228 48.368 40.3175C48.2899 40.4071 48.1947 40.4805 48.0878 40.5338C47.981 40.587 47.8645 40.6189 47.7451 40.6278L40.1815 41.1838C37.5879 41.1652 35.0504 41.9287 32.9088 43.3722L19.327 52.556C20.2704 53.5884 21.5635 54.2454 22.9633 54.4036C23.9299 54.4796 24.8996 54.3 25.7724 53.8834L31.9542 50.2421C32.1593 50.1507 32.3915 50.1375 32.6058 50.2052C32.8202 50.2729 33.0014 50.4167 33.1145 50.6086C33.2277 50.8006 33.2646 51.0271 33.2182 51.2443C33.1718 51.4616 33.0453 51.6541 32.8633 51.7847L26.6361 55.426C25.6348 55.9006 24.5378 56.1459 23.427 56.1435V56.1435Z" fill="#025484"/>
<path d="M63.1177 56.2152L60.6996 53.8385L44.3359 37.695L49.1086 32.9775L49.8087 33.5605L50.445 34.1973L46.9086 37.695L63.0996 53.6592L78.3268 38.0896C78.4974 37.9383 78.7197 37.8562 78.9491 37.8598C79.1785 37.8633 79.3981 37.9524 79.5637 38.109C79.7294 38.2656 79.8289 38.4782 79.8423 38.7042C79.8557 38.9301 79.7819 39.1527 79.6359 39.3273L78.3632 40.6367L63.1177 56.2152Z" fill="#025484"/>
<path d="M66.4818 51.3901L47.3636 32.5471L78.3273 0.914795L79.6364 2.16143L49.9182 32.5202L50.4182 33.0045L67.7727 50.1256L66.4818 51.3901Z" fill="#025484"/>
<path d="M79.0906 1.43494V39.0134" stroke="#025484" stroke-width="3"/>
</g>
<defs>
<clipPath id="clip0_1006_382">
<rect width="80" height="80" fill="white"/>
</clipPath>
</defs>
</svg>
