<svg width="30" height="30" viewBox="0 0 30 30" fill="none" xmlns="http://www.w3.org/2000/svg">
<path fill-rule="evenodd" clip-rule="evenodd" d="M7.04437 15.2456C4.20656 16.5206 2.34375 18.4509 2.34375 20.6653C2.34375 23.0428 4.4925 25.0922 7.68656 26.3559C7.92656 26.4516 8.04469 26.7234 7.95 26.9644C7.85437 27.2053 7.58156 27.3225 7.34156 27.2278C3.72094 25.7953 1.40625 23.3606 1.40625 20.6653C1.40625 17.9231 3.80531 15.45 7.53562 14.0278C7.70344 13.9641 7.89281 14.0016 8.02406 14.1244C8.15438 14.2472 8.20406 14.4338 8.15063 14.6053C8.01656 15.0347 7.93969 15.4434 7.93969 15.8278C7.93969 16.3491 7.99781 16.8562 8.1075 17.3447C8.14875 17.5266 8.07844 17.715 7.92844 17.8247C6.855 18.6159 6.18938 19.5909 6.18938 20.6653C6.18938 21.6966 6.8025 22.6359 7.79906 23.4084C9.42281 24.6675 12.0469 25.47 15 25.47C17.7787 25.47 20.2659 24.7584 21.9047 23.625C22.1175 23.4778 22.41 23.5312 22.5572 23.7441C22.7044 23.9569 22.6509 24.2494 22.4381 24.3966C20.6719 25.6181 17.9963 26.4075 15 26.4075C11.8078 26.4075 8.98031 25.5103 7.22531 24.15C5.97 23.1769 5.25188 21.9637 5.25188 20.6653C5.25188 19.4006 5.93531 18.2147 7.1325 17.2547C7.04719 16.7916 7.00219 16.3153 7.00219 15.8278C7.00219 15.6394 7.01719 15.4444 7.04437 15.2456Z" fill="#333333"/>
<path fill-rule="evenodd" clip-rule="evenodd" d="M22.5506 17.0138C23.3484 17.5875 23.955 18.2522 24.3253 18.9713C24.4434 19.2019 24.3525 19.4841 24.1219 19.6022C23.8922 19.7213 23.6091 19.6303 23.4909 19.3997C23.1487 18.7341 22.5544 18.1331 21.7791 17.6213C21.6206 17.5163 21.5409 17.3269 21.5775 17.1413C21.6591 16.7166 21.7022 16.2769 21.7022 15.8278C21.7022 15.4116 21.6384 14.9494 21.525 14.4544C21.4866 14.2875 21.5428 14.1131 21.6712 13.9988C21.7987 13.8853 21.9787 13.8506 22.14 13.9078C26.0531 15.3094 28.5938 17.8453 28.5938 20.6653C28.5938 22.4456 27.6 24.1059 25.8787 25.44C23.4234 27.3431 19.4662 28.5938 15 28.5938C14.7413 28.5938 14.5312 28.3838 14.5312 28.125C14.5312 27.8663 14.7413 27.6563 15 27.6563C19.2272 27.6563 22.9809 26.5003 25.3041 24.6994C26.7675 23.565 27.6562 22.1794 27.6562 20.6653C27.6562 18.3563 25.635 16.3566 22.5909 15.0872C22.6228 15.3459 22.6397 15.5934 22.6397 15.8278C22.6397 16.2309 22.6097 16.6275 22.5506 17.0138Z" fill="#333333"/>
<path fill-rule="evenodd" clip-rule="evenodd" d="M15.1338 1.52629C14.9838 1.39036 14.7626 1.36786 14.5863 1.46911C14.411 1.57036 14.3201 1.77286 14.3623 1.9716C14.442 2.35129 14.3173 2.81254 14.0895 3.34129C13.6891 4.27129 12.9541 5.36629 12.1123 6.53816C10.8063 8.35785 9.24727 10.3547 8.20758 12.2063C7.47445 13.5132 7.00195 14.7572 7.00195 15.8278C7.00195 20.1432 10.5054 23.6466 14.8207 23.6466C19.136 23.6466 22.6395 20.1432 22.6395 15.8278C22.6395 14.0972 21.6907 11.6607 20.4307 9.27754C18.5688 5.75816 16.0507 2.34942 15.1338 1.52629ZM15.207 2.98504C15.1451 3.2166 15.0598 3.45942 14.9501 3.71254C14.5282 4.69223 13.7604 5.85004 12.8735 7.08473C11.5882 8.87723 10.0488 10.8413 9.02508 12.6657C8.38289 13.8103 7.93945 14.8903 7.93945 15.8278C7.93945 19.6257 11.0229 22.7091 14.8207 22.7091C18.6185 22.7091 21.702 19.6257 21.702 15.8278C21.702 14.2097 20.7795 11.9438 19.602 9.71535C18.1657 7.00035 16.3357 4.34629 15.207 2.98504Z" fill="#333333"/>
<path fill-rule="evenodd" clip-rule="evenodd" d="M16.0117 21.0882C16.3295 21.0376 16.6399 20.9438 16.9408 20.8294C20.1095 19.6304 20.5708 15.9657 20.1517 13.0585C20.1152 12.8026 19.877 12.6244 19.6211 12.661C19.3652 12.6976 19.187 12.9357 19.2236 13.1916C19.4092 14.4798 19.4242 15.9432 19.0352 17.2182C18.6686 18.4201 17.9336 19.4513 16.6089 19.9529C16.368 20.0448 16.1186 20.1216 15.8636 20.1619C15.6086 20.2032 15.4342 20.4432 15.4745 20.6991C15.5158 20.9541 15.7558 21.1285 16.0117 21.0882Z" fill="#333333"/>
</svg>
