<svg width="20" height="20" viewBox="0 0 20 20" fill="none" xmlns="http://www.w3.org/2000/svg">
<path d="M19.9817 16.7401C19.9926 16.7039 20 16.6658 20 16.6256V3.3739C20 3.33349 19.9926 3.29508 19.9814 3.25866C19.9798 3.25367 19.9789 3.24869 19.977 3.2437C19.9622 3.20104 19.9404 3.16263 19.913 3.12896C19.9111 3.12671 19.9109 3.12397 19.9091 3.12172C19.9079 3.12048 19.9065 3.11998 19.9053 3.11873C19.8761 3.08531 19.8415 3.05837 19.8028 3.03816C19.7998 3.03667 19.7975 3.03467 19.7944 3.03317C19.7578 3.01546 19.7179 3.00549 19.6759 3.00249C19.6717 3.00224 19.6678 3.00125 19.6636 3.00125C19.6596 3.001 19.6562 3 19.6522 3H0.34824C0.344296 3 0.340583 3.001 0.336639 3.00125C0.332927 3.0015 0.329215 3.00224 0.325503 3.00249C0.283046 3.00549 0.242445 3.01571 0.205324 3.03367C0.203004 3.03467 0.201148 3.03642 0.198828 3.03742C0.159387 3.05762 0.124355 3.08506 0.0948901 3.11898C0.09373 3.12023 0.092338 3.12048 0.0911779 3.12172C0.0893219 3.12372 0.0890899 3.12646 0.0872339 3.12871C0.0598573 3.16238 0.0378168 3.20104 0.0229685 3.2437C0.0211125 3.24869 0.0201844 3.25367 0.0185604 3.25891C0.00742415 3.29533 0 3.33374 0 3.37415V16.6261C0 16.667 0.00765612 16.7059 0.0190244 16.7428C0.0206484 16.7478 0.0215765 16.7526 0.0232005 16.7575C0.0382808 16.8005 0.0605532 16.8391 0.0881619 16.8728C0.0897859 16.8748 0.09025 16.8773 0.091874 16.8793C0.093266 16.881 0.0951221 16.882 0.0967461 16.8838C0.108114 16.8965 0.120643 16.9077 0.133635 16.9187C0.139435 16.9234 0.144539 16.9292 0.150571 16.9337C0.165884 16.9451 0.182356 16.9544 0.199292 16.9628C0.203468 16.9648 0.207181 16.9681 0.211357 16.9698C0.25335 16.989 0.299518 17 0.348008 17H19.6518C19.7002 17 19.7464 16.9893 19.7884 16.9698C19.7949 16.9668 19.8009 16.9623 19.8072 16.9588C19.8216 16.9511 19.836 16.9431 19.8492 16.9334C19.8562 16.9282 19.8624 16.9214 19.8692 16.9157C19.881 16.9055 19.8926 16.8952 19.9028 16.8835C19.9046 16.8815 19.9067 16.88 19.9086 16.878C19.9104 16.8758 19.9109 16.8728 19.9128 16.8705C19.9399 16.8371 19.9617 16.7987 19.9766 16.7563C19.9789 16.7508 19.98 16.7456 19.9817 16.7401ZM0.696247 4.22248L6.55368 9.97468L0.696247 15.7728V4.22248ZM12.7016 9.69282C12.6775 9.70978 12.6519 9.724 12.6317 9.74795C12.6241 9.75693 12.6215 9.76865 12.6148 9.77813L10.0001 12.3458L1.24517 3.74805H18.7551L12.7016 9.69282ZM7.06966 10.4813L9.76533 13.1285C9.83191 13.1939 9.9159 13.2266 10.0001 13.2266C10.0843 13.2266 10.1683 13.1939 10.2347 13.1285L12.8969 10.5142L18.7534 16.2517H1.24007L7.06966 10.4813ZM13.4131 10.0074L19.304 4.22248V15.7788L13.4131 10.0074Z" fill="#008EE3"/>
</svg>
