<svg width="97" height="80" viewBox="0 0 97 80" fill="none" xmlns="http://www.w3.org/2000/svg">
<path d="M96.0829 55.708V72.5455H86.4729C86.4729 70.8709 85.7979 69.2649 84.5965 68.0808C83.395 66.8967 81.7654 66.2315 80.0663 66.2315C78.3671 66.2315 76.7376 66.8967 75.5361 68.0808C74.3346 69.2649 73.6596 70.8709 73.6596 72.5455H66.1852V37.8182H84.3374L96.0829 55.708ZM88.6085 55.708L82.2018 45.1846H73.6596V55.708H88.6085Z" fill="#008EE3"/>
<path d="M21.4053 73.9091H11.6553C11.3901 73.9091 11.1358 73.7976 10.9482 73.5993C10.7607 73.4009 10.6553 73.1319 10.6553 72.8514V19.9667C10.6553 19.6862 10.7607 19.4172 10.9482 19.2188C11.1358 19.0205 11.3901 18.9091 11.6553 18.9091H21.6553V21.0244H12.6553V71.7937H21.4053V73.9091Z" fill="#025484"/>
<path d="M26.7226 80C25.2534 80 23.8171 79.5681 22.5955 78.759C21.3739 77.9499 20.4217 76.7998 19.8595 75.4543C19.2972 74.1088 19.1501 72.6282 19.4367 71.1998C19.7234 69.7714 20.4309 68.4593 21.4698 67.4295C22.5087 66.3996 23.8323 65.6983 25.2733 65.4142C26.7143 65.1301 28.208 65.2759 29.5654 65.8332C30.9228 66.3906 32.083 67.3344 32.8992 68.5453C33.7155 69.7563 34.1512 71.18 34.1512 72.6363C34.1512 74.5893 33.3685 76.4623 31.9754 77.8432C30.5823 79.2242 28.6928 80 26.7226 80V80ZM26.7226 67.3766C25.6731 67.3766 24.6472 67.6851 23.7747 68.263C22.9021 68.841 22.222 69.6624 21.8204 70.6235C21.4188 71.5846 21.3137 72.6422 21.5184 73.6625C21.7232 74.6828 22.2285 75.62 22.9706 76.3555C23.7127 77.0911 24.6581 77.5921 25.6874 77.795C26.7167 77.998 27.7836 77.8938 28.7532 77.4957C29.7227 77.0976 30.5514 76.4235 31.1345 75.5585C31.7175 74.6935 32.0287 73.6766 32.0287 72.6363C32.0287 71.2414 31.4697 69.9035 30.4746 68.9171C29.4795 67.9307 28.1299 67.3766 26.7226 67.3766Z" fill="#025484"/>
<path d="M20.276 53.4546H3.2178V55.4546H20.276V53.4546Z" fill="#025484"/>
<path d="M73.7055 71.6364H66.1852V73.6364H73.7055V71.6364Z" fill="#025484"/>
<path d="M95.9374 73.6363H86.3742V71.5376H94.8749V56.1017L83.6753 39.0078H66.1852V36.9091H84.249C84.4268 36.9094 84.6017 36.9537 84.7576 37.038C84.9136 37.1224 85.0456 37.244 85.1416 37.3918L96.83 55.2307C96.9405 55.3996 96.9995 55.5963 97 55.7974V72.587C97 72.8653 96.8881 73.1322 96.6888 73.329C96.4895 73.5258 96.2192 73.6363 95.9374 73.6363Z" fill="#025484"/>
<path d="M66.0216 74H33V71.8846H65.0432V21.1154H60V19H66.0216C66.2811 19 66.5299 19.1114 66.7134 19.3098C66.8969 19.5081 67 19.7772 67 20.0577V72.9423C67 73.2228 66.8969 73.4919 66.7134 73.6902C66.5299 73.8886 66.2811 74 66.0216 74Z" fill="#025484"/>
<path d="M80.0336 80C78.5644 80 77.1281 79.5681 75.9065 78.759C74.6849 77.9499 73.7328 76.7998 73.1705 75.4543C72.6083 74.1088 72.4612 72.6282 72.7478 71.1998C73.0344 69.7714 73.7419 68.4593 74.7808 67.4295C75.8197 66.3996 77.1434 65.6983 78.5844 65.4142C80.0254 65.1301 81.519 65.2759 82.8764 65.8332C84.2338 66.3906 85.394 67.3344 86.2102 68.5453C87.0265 69.7563 87.4622 71.18 87.4622 72.6363C87.4622 74.5893 86.6795 76.4623 85.2864 77.8432C83.8933 79.2242 82.0038 80 80.0336 80V80ZM80.0336 67.3766C78.9842 67.3766 77.9583 67.6851 77.0857 68.263C76.2131 68.841 75.533 69.6624 75.1314 70.6235C74.7298 71.5846 74.6247 72.6422 74.8295 73.6625C75.0342 74.6828 75.5395 75.62 76.2816 76.3555C77.0237 77.0911 77.9692 77.5921 78.9984 77.795C80.0277 77.998 81.0946 77.8938 82.0642 77.4957C83.0337 77.0976 83.8624 76.4235 84.4455 75.5585C85.0285 74.6935 85.3397 73.6766 85.3397 72.6363C85.3397 71.2414 84.7807 69.9035 83.7856 68.9171C82.7905 67.9307 81.4409 67.3766 80.0336 67.3766Z" fill="#025484"/>
<path d="M88.5973 56.909H73.6712C73.3884 56.909 73.1173 56.7973 72.9173 56.5984C72.7174 56.3995 72.605 56.1297 72.605 55.8484V45.2424C72.605 44.9611 72.7174 44.6913 72.9173 44.4924C73.1173 44.2935 73.3884 44.1818 73.6712 44.1818H82.2004C82.3854 44.1818 82.5672 44.2297 82.728 44.3208C82.8888 44.412 83.0229 44.5431 83.1173 44.7015L89.5142 55.3075C89.6102 55.4685 89.6616 55.652 89.6632 55.8392C89.6649 56.0264 89.6167 56.2106 89.5235 56.3733C89.4304 56.536 89.2957 56.6712 89.133 56.7653C88.9703 56.8594 88.7855 56.909 88.5973 56.909ZM74.7373 54.7878H86.7102L81.5927 46.303H74.7373V54.7878Z" fill="#025484"/>
<path d="M41.5622 33.6364C49.2104 33.6364 55.4106 27.5312 55.4106 20C55.4106 12.4689 49.2104 6.36365 41.5622 6.36365C33.914 6.36365 27.7139 12.4689 27.7139 20C27.7139 27.5312 33.914 33.6364 41.5622 33.6364Z" fill="#008EE3"/>
<path d="M41.4704 40C37.4799 40 33.579 38.827 30.261 36.6294C26.943 34.4318 24.357 31.3082 22.8299 27.6537C21.3027 23.9991 20.9032 19.9778 21.6817 16.0982C22.4602 12.2186 24.3818 8.65492 27.2035 5.85787C30.0253 3.06082 33.6203 1.15601 37.5342 0.384303C41.448 -0.387401 45.5048 0.00866564 49.1916 1.52242C52.8783 3.03617 56.0294 5.59962 58.2464 8.8886C60.4634 12.1776 61.6468 16.0444 61.6468 20C61.6468 25.3043 59.5211 30.3914 55.7372 34.1421C51.9534 37.8929 46.8215 40 41.4704 40V40ZM41.4704 2.10527C37.8999 2.10527 34.4097 3.15478 31.4409 5.12108C28.4722 7.08738 26.1584 9.88215 24.792 13.152C23.4257 16.4218 23.0682 20.0199 23.7647 23.4911C24.4613 26.9623 26.1806 30.1509 28.7053 32.6535C31.23 35.1561 34.4467 36.8604 37.9485 37.5509C41.4504 38.2414 45.0801 37.887 48.3788 36.5326C51.6775 35.1782 54.4969 32.8846 56.4805 29.9418C58.4642 26.999 59.5229 23.5392 59.5229 20C59.5229 15.254 57.621 10.7024 54.2355 7.34652C50.85 3.9906 46.2582 2.10527 41.4704 2.10527Z" fill="#025484"/>
<path d="M47.8906 21.6364H41.6018C41.3239 21.6364 41.0573 21.5253 40.8607 21.3275C40.6641 21.1298 40.5537 20.8615 40.5537 20.5818V11.0909H42.65V19.5273H47.8906V21.6364Z" fill="#025484"/>
<path d="M20 45.9091H0V47.9091H20V45.9091Z" fill="#025484"/>
<path d="M20.276 38.3636H3.2178V40.3636H20.276V38.3636Z" fill="#025484"/>
</svg>
