<svg width="30" height="30" viewBox="0 0 30 30" fill="none" xmlns="http://www.w3.org/2000/svg">
<g clip-path="url(#clip0_1006_451)">
<path d="M27.8363 0.00186157H27.8295H27.829C27.8275 0.00186157 27.8261 0.00186157 27.8246 0.00186157H27.8241H27.8231C27.7924 0.00186157 27.7621 0.00283446 27.7318 0.00478025C27.2822 0.0311628 20.6648 0.453054 17.0168 2.68939C16.2298 3.17183 15.9818 4.09419 15.8197 5.68212C15.2973 5.15624 14.6645 4.77538 13.875 4.77538C13.3439 4.77538 12.8239 4.96338 12.3704 5.31883C11.0116 6.38426 6.42283 10.2198 4.42306 14.8473C1.96437 20.5363 2.36961 24.7224 2.38815 24.8977C2.39302 24.9436 2.41356 24.9841 2.42283 25.0286C1.04849 26.7874 0.213629 28.0252 0.123277 28.1605C-0.101317 28.4964 -0.0105067 28.9515 0.326355 29.1761C0.451326 29.2591 0.592434 29.2992 0.732054 29.2992C0.968836 29.2992 1.20121 29.1849 1.34232 28.973C1.36332 28.9417 2.13129 27.8045 3.42603 26.1404C3.44263 26.1453 3.4563 26.1566 3.4729 26.1609C3.58322 26.1902 4.18519 26.3347 5.21002 26.3347C8.05735 26.3347 13.9644 25.2302 21.5299 17.8341C28.263 11.2515 29.1843 2.84419 29.2815 1.68205C29.2917 1.61171 29.2971 1.53995 29.2971 1.46669C29.2971 0.657648 28.6448 0.00186157 27.8363 0.00186157ZM20.5052 16.7868C13.2086 23.9197 7.65268 24.8699 5.20911 24.8699C4.90543 24.8699 4.66911 24.8537 4.46409 24.8342C6.9682 21.7673 10.7558 17.6447 15.0073 14.8019C15.3432 14.5758 15.4345 14.1207 15.2089 13.7848C14.9829 13.4488 14.5289 13.3599 14.1934 13.5831C10.0362 16.3629 6.38231 20.2258 3.83476 23.2815C3.91241 21.6702 4.2883 18.8498 5.76667 15.4284C7.63609 11.1022 12.0945 7.39555 13.2731 6.47119C13.4787 6.31003 13.6793 6.23976 13.8737 6.23976C15.1699 6.24021 16.204 9.35209 16.7415 9.35209C16.761 9.35209 16.7796 9.3482 16.7976 9.3399C17.2609 9.12604 17.0725 4.37306 17.7819 3.93795C21.2073 1.83931 27.8286 1.46675 27.8286 1.46675C27.8286 1.46675 27.2793 10.1641 20.5052 16.7868Z" fill="#565656"/>
</g>
<defs>
<clipPath id="clip0_1006_451">
<rect width="30" height="30" fill="white"/>
</clipPath>
</defs>
</svg>
