<svg width="44" height="44" viewBox="0 0 44 44" fill="none" xmlns="http://www.w3.org/2000/svg">
<path d="M22 41.817C32.9147 41.817 41.817 32.9488 41.817 22C41.817 11.0511 32.9488 2.21704 22 2.21704C11.0511 2.21704 2.21704 11.0853 2.21704 22C2.21704 32.9147 11.0853 41.817 22 41.817ZM22 4.97983C31.3798 4.97983 39.0201 12.6201 39.0201 22C39.0201 31.3798 31.3798 39.0201 22 39.0201C12.6201 39.0201 4.97983 31.3798 4.97983 22C4.97983 12.6201 12.6201 4.97983 22 4.97983V4.97983Z" fill="white"/>
<path d="M23.8759 31.8915C24.1487 32.1643 24.4898 32.3008 24.865 32.3008C25.2061 32.3008 25.5813 32.1643 25.8542 31.8915C26.3999 31.3457 26.3999 30.4589 25.8542 29.9132L17.8387 21.8977L25.8542 13.8822C26.3999 13.3364 26.3999 12.4496 25.8542 11.9039C25.3084 11.3581 24.4216 11.3581 23.8759 11.9039L14.8712 20.9085C14.5983 21.1814 14.4619 21.5225 14.4619 21.8977C14.4619 22.2729 14.5983 22.6139 14.8712 22.8868L23.8759 31.8915V31.8915Z" fill="white"/>
</svg>
