<svg width="30" height="30" viewBox="0 0 30 30" fill="none" xmlns="http://www.w3.org/2000/svg">
<g clip-path="url(#clip0_1006_457)">
<path d="M26.5499 11.5877C26.5499 13.7619 25.7031 15.8064 24.1652 17.344L24.9448 18.1236C26.6909 16.3778 27.6527 14.0568 27.6527 11.5879C27.6527 10.6962 27.5272 9.81677 27.2793 8.97435L26.2212 9.28533C26.4393 10.0266 26.5499 10.8013 26.5499 11.5877Z" fill="#565656"/>
<path d="M26.6121 7.3184C26.1821 6.48948 25.6215 5.72718 24.9459 5.05282L24.1669 5.83321C24.7621 6.42717 25.2556 7.09759 25.6335 7.82608L26.6121 7.3184Z" fill="#565656"/>
<path d="M0.000501633 13.6123L4.82665 18.4382L8.87312 14.3905L15.0452 8.22007C15.943 7.3203 17.1388 6.82512 18.4119 6.82512C19.6831 6.82512 20.8791 7.3208 21.7794 8.22058C22.6791 9.12035 23.1745 10.3163 23.1745 11.5878C23.1745 12.8605 22.6791 14.057 21.7794 14.9565L16.3889 20.3474L16.3887 20.3472L11.5618 25.1739L16.3887 30L20.4347 25.9536L20.4349 25.9538L26.6063 19.7825C28.7949 17.5933 30 14.6833 30 11.5878C30 8.49401 28.7947 5.58378 26.6059 3.39422C24.4167 1.20559 21.5068 7.24792e-05 18.412 7.24792e-05C15.3175 7.24792e-05 12.4072 1.20566 10.2179 3.39422L4.82686 8.78633L4.82643 8.7859L0.000501633 13.6123ZM8.09315 13.6113L4.82636 16.8785L1.55935 13.6123L4.82636 10.345L4.87582 10.3945L8.09315 13.6113ZM16.3887 28.4407L13.1215 25.1739L16.3887 21.9068L17.9801 23.4985L19.6551 25.1739L16.3887 28.4407ZM10.997 4.17368C12.9783 2.1933 15.6117 1.10271 18.4119 1.10271C21.2122 1.10271 23.8452 2.1933 25.8261 4.17368C27.8067 6.15499 28.8974 8.78812 28.8974 11.5879C28.8974 14.3888 27.807 17.0222 25.8268 19.0028L20.4349 24.394L17.1684 21.127L22.5591 15.736C23.6673 14.6282 24.2775 13.1548 24.2775 11.5879C24.2775 10.0218 23.6671 8.54922 22.5591 7.44047C21.4504 6.33245 19.9777 5.72233 18.4119 5.72233C16.8434 5.72233 15.3708 6.33316 14.265 7.44097L8.87283 12.8311L5.60603 9.56536L10.997 4.17368Z" fill="#565656"/>
<path d="M8.21252 25.1902L2.72085 29.6768L1.85941 29.0308L5.6641 25.908L1.85941 25.4773L7.17162 20.201L7.85359 20.7753L3.83354 24.7954L8.21252 25.1902Z" fill="#565656" stroke="#565656"/>
</g>
<defs>
<clipPath id="clip0_1006_457">
<rect width="30" height="30" fill="white"/>
</clipPath>
</defs>
</svg>
