<svg width="80" height="80" viewBox="0 0 80 80" fill="none" xmlns="http://www.w3.org/2000/svg">
<path d="M61.25 16.25H58.75V23.75H61.25V16.25Z" fill="#008EE3"/>
<path d="M8.75 17.5H6.25V22.5H8.75V17.5Z" fill="#008EE3"/>
<path d="M61.25 11.25H58.75V13.75H61.25V11.25Z" fill="#008EE3"/>
<path d="M61.25 26.25H58.75V28.75H61.25V26.25Z" fill="#008EE3"/>
<path d="M33.75 28.75C35.7391 28.75 37.6468 27.9598 39.0533 26.5533C40.4598 25.1468 41.25 23.2391 41.25 21.25C41.2533 20.2648 41.0604 19.2888 40.6827 18.3789C40.305 17.4689 39.75 16.6433 39.05 15.95L41.1125 11.8125L38.8875 10.6875L36.9875 14.4375C35.9721 13.9729 34.8666 13.7381 33.75 13.75C31.7609 13.75 29.8532 14.5402 28.4467 15.9467C27.0402 17.3532 26.25 19.2609 26.25 21.25C26.25 23.2391 27.0402 25.1468 28.4467 26.5533C29.8532 27.9598 31.7609 28.75 33.75 28.75V28.75ZM33.75 16.25C34.4813 16.256 35.2025 16.4225 35.8625 16.7375L33.2625 21.925L30.6875 20.2125L29.3125 22.2875L34.2375 25.575L37.8375 18.375C38.426 19.2187 38.7442 20.2213 38.75 21.25C38.75 22.2389 38.4568 23.2056 37.9073 24.0279C37.3579 24.8501 36.577 25.491 35.6634 25.8694C34.7498 26.2478 33.7445 26.3469 32.7745 26.1539C31.8046 25.961 30.9137 25.4848 30.2145 24.7855C29.5152 24.0863 29.039 23.1954 28.8461 22.2255C28.6531 21.2555 28.7522 20.2502 29.1306 19.3366C29.509 18.423 30.1499 17.6421 30.9721 17.0927C31.7944 16.5432 32.7611 16.25 33.75 16.25V16.25Z" fill="#008EE3"/>
<path d="M16.25 6.25V33.75H51.25V6.25H16.25ZM48.75 31.25H18.75V8.75H48.75V31.25Z" fill="#025484"/>
<path d="M72.5 21.25H66.25V7.5C66.25 6.67924 66.0883 5.86651 65.7742 5.10823C65.4602 4.34994 64.9998 3.66095 64.4194 3.08058C63.8391 2.50022 63.1501 2.03984 62.3918 1.72575C61.6335 1.41166 60.8208 1.25 60 1.25H7.5C6.67924 1.25 5.86651 1.41166 5.10823 1.72575C4.34994 2.03984 3.66095 2.50022 3.08058 3.08058C1.90848 4.25269 1.25 5.8424 1.25 7.5V32.5C1.25 34.1576 1.90848 35.7473 3.08058 36.9194C3.66095 37.4998 4.34994 37.9602 5.10823 38.2742C5.86651 38.5883 6.67924 38.75 7.5 38.75H41.25V47.2375C41.251 48.4699 41.6163 49.6746 42.3 50.7L43.125 51.95C43.533 52.5651 43.7504 53.2869 43.75 54.025V72.5C43.75 74.1576 44.4085 75.7473 45.5806 76.9194C46.7527 78.0915 48.3424 78.75 50 78.75H70C71.6576 78.75 73.2473 78.0915 74.4194 76.9194C75.5915 75.7473 76.25 74.1576 76.25 72.5V54.0125C76.2496 53.2744 76.467 52.5526 76.875 51.9375L77.7 50.6875C78.3814 49.6656 78.7466 48.4657 78.75 47.2375V27.5C78.75 25.8424 78.0915 24.2527 76.9194 23.0806C75.7473 21.9085 74.1576 21.25 72.5 21.25V21.25ZM66.25 32.5V28.75H71.25V43.75H48.75V38.75H60C61.6576 38.75 63.2473 38.0915 64.4194 36.9194C65.5915 35.7473 66.25 34.1576 66.25 32.5V32.5ZM13.75 36.25V3.75H53.75V36.25H13.75ZM63.75 7.5V32.5C63.75 33.4946 63.3549 34.4484 62.6516 35.1517C61.9484 35.8549 60.9946 36.25 60 36.25H56.25V3.75H60C60.9946 3.75 61.9484 4.14509 62.6516 4.84835C63.3549 5.55161 63.75 6.50544 63.75 7.5ZM3.75 32.5V7.5C3.75 6.50544 4.14509 5.55161 4.84835 4.84835C5.55161 4.14509 6.50544 3.75 7.5 3.75H11.25V36.25H7.5C6.50544 36.25 5.55161 35.8549 4.84835 35.1517C4.14509 34.4484 3.75 33.4946 3.75 32.5ZM76.25 47.2375C76.2504 47.9756 76.033 48.6974 75.625 49.3125L74.8 50.5625C74.1186 51.5844 73.7534 52.7843 73.75 54.0125V72.5C73.75 73.4946 73.3549 74.4484 72.6516 75.1516C71.9484 75.8549 70.9946 76.25 70 76.25H50C49.0054 76.25 48.0516 75.8549 47.3484 75.1516C46.6451 74.4484 46.25 73.4946 46.25 72.5V54.0125C46.249 52.7801 45.8837 51.5754 45.2 50.55L44.375 49.3C43.967 48.6849 43.7496 47.9631 43.75 47.225V38.75H46.25V46.25H73.75V26.25H66.25V23.75H72.5C73.4946 23.75 74.4484 24.1451 75.1516 24.8483C75.8549 25.5516 76.25 26.5054 76.25 27.5V47.2375Z" fill="#025484"/>
<path d="M48.75 73.75H71.25V51.25H48.75V73.75ZM51.25 53.75H68.75V71.25H51.25V53.75Z" fill="#025484"/>
<path d="M61.25 61.25H58.75V63.75H61.25V61.25Z" fill="#008EE3"/>
<path d="M61.25 56.25H58.75V58.75H61.25V56.25Z" fill="#008EE3"/>
<path d="M61.25 66.25H58.75V68.75H61.25V66.25Z" fill="#008EE3"/>
<path d="M66.25 66.25H63.75V68.75H66.25V66.25Z" fill="#025484"/>
<path d="M66.25 61.25H63.75V63.75H66.25V61.25Z" fill="#008EE3"/>
<path d="M66.25 56.25H63.75V58.75H66.25V56.25Z" fill="#008EE3"/>
<path d="M56.25 56.25H53.75V58.75H56.25V56.25Z" fill="#008EE3"/>
<path d="M56.25 61.25H53.75V63.75H56.25V61.25Z" fill="#008EE3"/>
<path d="M56.25 66.25H53.75V68.75H56.25V66.25Z" fill="#008EE3"/>
<path d="M17.5 46.25C14.2861 46.25 11.1443 47.203 8.47199 48.9886C5.79969 50.7742 3.71689 53.3121 2.48696 56.2814C1.25704 59.2507 0.935237 62.518 1.56225 65.6702C2.18926 68.8224 3.73692 71.7179 6.00952 73.9905C8.28213 76.2631 11.1776 77.8108 14.3298 78.4378C17.482 79.0648 20.7493 78.743 23.7186 77.513C26.6879 76.2831 29.2258 74.2003 31.0114 71.528C32.797 68.8557 33.75 65.7139 33.75 62.5C33.75 58.1902 32.038 54.057 28.9905 51.0095C25.943 47.9621 21.8098 46.25 17.5 46.25V46.25ZM17.5 76.25C14.7805 76.25 12.1221 75.4436 9.86092 73.9327C7.59974 72.4218 5.83737 70.2744 4.79666 67.7619C3.75596 65.2494 3.48366 62.4847 4.01421 59.8175C4.54476 57.1503 5.85432 54.7003 7.77729 52.7773C9.70026 50.8543 12.1503 49.5447 14.8175 49.0142C17.4848 48.4837 20.2494 48.756 22.7619 49.7967C25.2744 50.8374 27.4218 52.5997 28.9327 54.8609C30.4436 57.1221 31.25 59.7805 31.25 62.5C31.25 64.3057 30.8944 66.0937 30.2033 67.7619C29.5123 69.4301 28.4995 70.9459 27.2227 72.2227C25.9459 73.4995 24.4301 74.5123 22.7619 75.2033C21.0937 75.8943 19.3057 76.25 17.5 76.25V76.25Z" fill="#025484"/>
<path d="M20.1302 64.2402C21.2797 64.2402 22.3821 63.7534 23.1949 62.887C24.0077 62.0205 24.4643 60.8454 24.4643 59.6201C24.4643 58.3948 24.0077 57.2196 23.1949 56.3532C22.3821 55.4868 21.2797 55 20.1302 55H13.75V56.3974H15.3862V62.8428H13.75V64.2402H15.3862V66.1572H13.75V67.5546H15.3862V70H16.6971V67.5546H20.632V66.1572H16.6971V64.2402H20.1302ZM16.6971 56.3974H20.1302C20.5272 56.3974 20.9204 56.4807 21.2872 56.6427C21.6539 56.8047 21.9872 57.042 22.2679 57.3413C22.5487 57.6405 22.7714 57.9958 22.9233 58.3868C23.0752 58.7778 23.1534 59.1969 23.1534 59.6201C23.1534 60.0433 23.0752 60.4624 22.9233 60.8534C22.7714 61.2444 22.5487 61.5996 22.2679 61.8989C21.9872 62.1981 21.6539 62.4355 21.2872 62.5975C20.9204 62.7594 20.5272 62.8428 20.1302 62.8428H16.6971V56.3974Z" fill="#008EE3"/>
<path d="M28.75 61.25H26.25V63.75H28.75V61.25Z" fill="#008EE3"/>
<path d="M8.75 61.25H6.25V63.75H8.75V61.25Z" fill="#008EE3"/>
</svg>
