<svg width="20" height="20" viewBox="0 0 20 20" fill="none" xmlns="http://www.w3.org/2000/svg">
<path d="M15.8061 12.3893C15.3966 11.963 14.9028 11.735 14.3793 11.735C13.8601 11.735 13.362 11.9587 12.9357 12.3851L11.6018 13.7147C11.4921 13.6556 11.3823 13.6008 11.2768 13.5459C11.1248 13.4699 10.9813 13.3982 10.8589 13.3222C9.60946 12.5286 8.47397 11.4944 7.38492 10.1563C6.85728 9.48938 6.5027 8.92797 6.24521 8.35812C6.59134 8.04153 6.91215 7.71228 7.22451 7.3957C7.34271 7.27751 7.4609 7.15509 7.57909 7.0369C8.46553 6.15046 8.46553 5.00232 7.57909 4.11588L6.42672 2.96351C6.29586 2.83265 6.16079 2.69758 6.03415 2.5625C5.78089 2.30079 5.51495 2.03064 5.24058 1.77737C4.83113 1.37214 4.34148 1.15686 3.8265 1.15686C3.31152 1.15686 2.81343 1.37214 2.39131 1.77737C2.38709 1.78159 2.38709 1.78159 2.38287 1.78581L0.947684 3.23366C0.407378 3.77396 0.0992355 4.43246 0.0316974 5.19649C-0.0696099 6.42906 0.293408 7.57721 0.572003 8.32857C1.25583 10.1732 2.27734 11.8828 3.80117 13.7147C5.65003 15.9224 7.87457 17.6657 10.4157 18.8941C11.3866 19.3542 12.6824 19.8987 14.1303 19.9916C14.2189 19.9958 14.3118 20 14.3962 20C15.3713 20 16.1902 19.6497 16.8318 18.9532C16.836 18.9447 16.8445 18.9405 16.8487 18.9321C17.0682 18.6661 17.3215 18.4255 17.5874 18.168C17.7689 17.995 17.9546 17.8135 18.1362 17.6235C18.554 17.1887 18.7735 16.6822 18.7735 16.163C18.7735 15.6396 18.5498 15.1373 18.1235 14.7151L15.8061 12.3893ZM17.3173 16.8342C17.313 16.8342 17.313 16.8384 17.3173 16.8342C17.1526 17.0114 16.9838 17.1719 16.8023 17.3491C16.5279 17.6108 16.2493 17.8852 15.9876 18.1934C15.5613 18.6492 15.0589 18.8645 14.4004 18.8645C14.3371 18.8645 14.2696 18.8645 14.2063 18.8603C12.9526 18.7801 11.7876 18.2905 10.9138 17.8726C8.52462 16.716 6.42672 15.0739 4.68339 12.9929C3.24398 11.258 2.28156 9.65401 1.64417 7.93178C1.25161 6.88072 1.10809 6.06182 1.1714 5.28935C1.21362 4.79548 1.40357 4.38603 1.75392 4.03568L3.19333 2.59627C3.40016 2.4021 3.61966 2.29657 3.83494 2.29657C4.10087 2.29657 4.31615 2.45697 4.45123 2.59205C4.45545 2.59627 4.45967 2.60049 4.46389 2.60471C4.72138 2.84531 4.96621 3.09436 5.2237 3.36029C5.35455 3.49537 5.48963 3.63045 5.6247 3.76974L6.77707 4.92211C7.22451 5.36955 7.22451 5.78323 6.77707 6.23067C6.65466 6.35308 6.53647 6.47549 6.41406 6.59368C6.05948 6.9567 5.72179 7.29439 5.35455 7.62364C5.34611 7.63208 5.33767 7.6363 5.33345 7.64475C4.97043 8.00776 5.03797 8.36234 5.11395 8.60294C5.11817 8.61561 5.12239 8.62827 5.12661 8.64093C5.42631 9.36697 5.84842 10.0508 6.49004 10.8655L6.49426 10.8697C7.65929 12.3049 8.88764 13.4235 10.2426 14.2804C10.4157 14.3901 10.593 14.4788 10.7618 14.5632C10.9138 14.6392 11.0573 14.7109 11.1797 14.7869C11.1966 14.7954 11.2135 14.808 11.2304 14.8165C11.3739 14.8882 11.509 14.922 11.6483 14.922C11.9986 14.922 12.2181 14.7025 12.2899 14.6307L13.7335 13.1871C13.877 13.0436 14.105 12.8705 14.3709 12.8705C14.6326 12.8705 14.8479 13.0351 14.9787 13.1787C14.983 13.1829 14.983 13.1829 14.9872 13.1871L17.313 15.5129C17.7478 15.9435 17.7478 16.3867 17.3173 16.8342Z" fill="#008EE3"/>
<path d="M10.8089 4.7574C11.9148 4.94313 12.9195 5.46656 13.7215 6.26857C14.5235 7.07059 15.0427 8.07522 15.2327 9.18116C15.2791 9.45975 15.5197 9.65392 15.7941 9.65392C15.8278 9.65392 15.8574 9.6497 15.8912 9.64548C16.2035 9.59483 16.4104 9.29935 16.3597 8.98698C16.1318 7.64888 15.4986 6.42897 14.5319 5.46233C13.5653 4.49569 12.3454 3.86252 11.0073 3.63458C10.6949 3.58393 10.4037 3.79076 10.3488 4.09891C10.2939 4.40705 10.4965 4.70675 10.8089 4.7574Z" fill="#008EE3"/>
<path d="M19.9769 8.82242C19.6013 6.61899 18.5629 4.61395 16.9673 3.01836C15.3717 1.42277 13.3666 0.384369 11.1632 0.00868772C10.8551 -0.0461871 10.5638 0.16487 10.5089 0.473013C10.4583 0.785377 10.6651 1.07664 10.9775 1.13151C12.9445 1.46498 14.7385 2.39785 16.1653 3.82037C17.592 5.24712 18.5207 7.0411 18.8541 9.00815C18.9006 9.28675 19.1412 9.48092 19.4155 9.48092C19.4493 9.48092 19.4789 9.4767 19.5126 9.47248C19.8208 9.42604 20.0318 9.13056 19.9769 8.82242Z" fill="#008EE3"/>
</svg>
