<svg width="44" height="44" viewBox="0 0 44 44" fill="none" xmlns="http://www.w3.org/2000/svg">
<path d="M22 2.1829C11.0853 2.1829 2.18296 11.0511 2.18296 22C2.18296 32.9488 11.0512 41.7829 22 41.7829C32.9489 41.7829 41.783 32.9147 41.783 22C41.783 11.0852 32.9147 2.1829 22 2.1829ZM22 39.0201C12.6202 39.0201 4.97986 31.3798 4.97986 22C4.97986 12.6201 12.6202 4.9798 22 4.9798C31.3799 4.9798 39.0202 12.6201 39.0202 22C39.0202 31.3798 31.3799 39.0201 22 39.0201V39.0201Z" fill="white"/>
<path d="M20.1241 12.1085C19.8513 11.8356 19.5102 11.6992 19.135 11.6992C18.7939 11.6992 18.4187 11.8356 18.1458 12.1085C17.6001 12.6542 17.6001 13.541 18.1458 14.0868L26.1613 22.1023L18.1458 30.1178C17.6001 30.6635 17.6001 31.5503 18.1458 32.0961C18.6916 32.6418 19.5784 32.6418 20.1241 32.0961L29.1288 23.0914C29.4017 22.8186 29.5381 22.4775 29.5381 22.1023C29.5381 21.7271 29.4017 21.386 29.1288 21.1131L20.1241 12.1085V12.1085Z" fill="white"/>
</svg>
