<svg width="80" height="80" viewBox="0 0 80 80" fill="none" xmlns="http://www.w3.org/2000/svg">
<g clip-path="url(#clip0_1006_352)">
<path d="M78.7532 41.0111H72.9745V26.2096C72.9745 26.1417 72.9678 26.0754 72.9642 26.0085V14.6103C72.9642 13.8352 72.3334 13.207 71.5552 13.207H56.6149L43.6986 0.343202C43.4342 0.0801078 43.0758 -0.067749 42.7021 -0.067749C42.3284 -0.067749 41.9701 0.0800632 41.7057 0.343202L31.9663 10.0429L27.3878 5.4829C26.8374 4.93492 25.9453 4.93492 25.3949 5.4829L17.6301 13.216C17.5788 13.2103 17.5267 13.207 17.4738 13.207H1.47082C0.692578 13.207 0.0617676 13.8352 0.0617676 14.6103V29.5455C0.0617676 29.5913 0.064318 29.6366 0.0686582 29.6812V76.1272C0.0686582 78.2275 1.78439 79.9362 3.89325 79.9362H69.1498C71.2587 79.9362 72.9745 78.2275 72.9745 76.1272V61.3259H78.7532C79.5315 61.3259 80.1623 60.6976 80.1623 59.9225V42.4144C80.1623 41.6394 79.5315 41.0111 78.7532 41.0111ZM70.1461 16.0136V22.5362C69.8279 22.4505 69.4948 22.4006 69.1498 22.4006H65.8459L59.4328 16.0136H70.1461ZM42.7022 3.32012L61.8606 22.4006H57.5838L40.5638 5.44979L42.7022 3.32012ZM38.5709 7.43458L53.5981 22.4006H44.3749L33.9592 12.0275L38.5709 7.43458ZM26.3913 8.45982L29.9736 12.0274L31.9663 14.012L40.3892 22.4006H36.5485L24.471 10.3723L26.3913 8.45982ZM32.5627 22.4006H12.3935L22.4781 12.3571L32.5627 22.4006ZM8.40785 22.4006H3.89325C3.54196 22.4006 3.20329 22.4518 2.87992 22.5405V16.0136H14.821L8.40785 22.4006ZM70.1563 76.1273C70.1563 76.6799 69.7048 77.1296 69.1498 77.1296H3.89325C3.33833 77.1296 2.88681 76.6799 2.88681 76.1273V26.2096C2.88681 25.6569 3.33833 25.2072 3.89325 25.2072H69.1498C69.6702 25.2072 70.0946 25.604 70.1461 26.1087V29.5456C70.1461 29.6006 70.1503 29.6549 70.1564 29.7083V41.0112H57.349C51.7253 41.0112 47.15 45.5676 47.15 51.1684C47.15 56.7693 51.7253 61.326 57.349 61.326H70.1564V76.1273H70.1563ZM77.3442 58.5193H72.9745H70.1564H57.349C53.2793 58.5193 49.9681 55.2216 49.9681 51.1683C49.9681 47.1152 53.2793 43.8178 57.349 43.8178H70.1564H72.9745H77.3442V58.5193Z" fill="#025484"/>
<path d="M57.4159 46.357C54.7521 46.357 52.5848 48.5154 52.5848 51.1684C52.5848 53.8213 54.7521 55.9798 57.4159 55.9798C60.0798 55.9798 62.2471 53.8213 62.2471 51.1684C62.2471 48.5154 60.0798 46.357 57.4159 46.357ZM57.4159 53.1731C56.306 53.1731 55.403 52.2737 55.403 51.1684C55.403 50.063 56.3061 49.1636 57.4159 49.1636C58.5258 49.1636 59.4289 50.063 59.4289 51.1684C59.4289 52.2737 58.5258 53.1731 57.4159 53.1731Z" fill="#008EE3"/>
</g>
<defs>
<clipPath id="clip0_1006_352">
<rect width="80" height="80" fill="white"/>
</clipPath>
</defs>
</svg>
