<svg width="147" height="30" fill="none" xmlns="http://www.w3.org/2000/svg" viewBox="0 0 147 30"><rect width="28" height="28" rx="14" fill="#000"/><path d="M15.793 7.932H14.5c-2.371 0-3.619 1.201-3.619 2.972 0 2.002.862 2.942 2.633 4.143l1.463.985-4.204 6.283H7.632l3.773-5.62c-2.172-1.556-3.388-3.065-3.388-5.621 0-3.203 2.233-5.39 6.468-5.39h4.204V22.3h-2.896V7.932z" fill="#fff"/><path d="M67.346 25.259c.339.122.925.306 1.759.306 2.9 0 4.073-1.989 5.709-5.934L81.326 4h-3.488l-4.413 11.257L68.858 4H65l6.543 15.661c-.649 1.56-1.297 2.63-2.778 2.63-.679 0-1.11-.091-1.42-.213v3.18zM86.915 25.565c1.697 0 2.9-.306 3.796-.949V21.65c-.926.643-2.037 1.04-3.58 1.04-2.624 0-3.704-2.018-3.704-5.2 0-3.334 1.327-5.047 3.735-5.047 1.42 0 2.808.49 3.549.949V10.3c-.772-.428-2.13-.734-3.95-.734-4.691 0-7.13 3.334-7.13 8.014 0 5.139 2.377 7.984 7.284 7.984zM91.793 22.108v3.15s.586.307 1.45.307c3.148 0 3.95-2.203 4.136-7.31l.216-5.507h3.734v12.51h3.672V9.874H94.478l-.309 8.228c-.123 3.273-.34 4.283-1.543 4.283-.525 0-.833-.276-.833-.276zM110.071 30c3.426 0 4.691-2.416 5.741-5.567l4.845-14.56h-3.549l-3.426 11.562-3.425-11.562h-3.858l5.339 16.059c-.401.734-.988 1.193-2.006 1.193-.679 0-1.265-.214-1.667-.612v2.967s.556.52 2.006.52zM122.05 9.873v15.386h3.673v-12.51h5.678V9.872h-9.351zM133.563 9.873v15.386h3.179l5.678-9.513v9.513H146V9.873h-3.179l-5.678 9.513V9.873h-3.58z" fill="#000"/><circle cx="44" cy="14" r="14" fill="#242729"/><path d="M39.766 4.898a6.96 6.96 0 007.478 11.738l10.214-6.507A14.023 14.023 0 0046.961.314l-7.195 4.584z" fill="#FF9D7C"/><path d="M39.766 4.898a6.96 6.96 0 007.478 11.738l10.214-6.507A14.023 14.023 0 0046.961.314l-7.195 4.584z" fill="#FF6432"/><path d="M39.766 4.898a6.96 6.96 0 007.478 11.738l10.214-6.507A14.023 14.023 0 0046.961.314l-7.195 4.584z" fill="url(#paint0_radial)"/><path d="M39.766 4.898a6.96 6.96 0 007.478 11.738l10.214-6.507A14.023 14.023 0 0046.961.314l-7.195 4.584z" fill="url(#paint1_linear)"/><path d="M30.54 17.864l10.218-6.51a6.959 6.959 0 117.478 11.739l-7.207 4.591a14.023 14.023 0 01-10.489-9.82z" fill="#FFE66E"/><path d="M30.54 17.864l10.218-6.51a6.959 6.959 0 117.478 11.739l-7.207 4.591a14.023 14.023 0 01-10.489-9.82z" fill="url(#paint2_linear)"/><defs><linearGradient id="paint1_linear" x1="41.681" y1="15.902" x2="51.391" y2="-7.535" gradientUnits="userSpaceOnUse"><stop stop-color="#FF8140" stop-opacity="0"/><stop offset=".067" stop-color="#FF8140" stop-opacity=".01"/><stop offset=".133" stop-color="#FF8140" stop-opacity=".036"/><stop offset=".2" stop-color="#FF8140" stop-opacity=".082"/><stop offset=".267" stop-color="#FF8140" stop-opacity=".147"/><stop offset=".333" stop-color="#FF8140" stop-opacity=".232"/><stop offset=".4" stop-color="#FF8140" stop-opacity=".332"/><stop offset=".467" stop-color="#FF8140" stop-opacity=".443"/><stop offset=".533" stop-color="#FF8140" stop-opacity=".557"/><stop offset=".6" stop-color="#FF8140" stop-opacity=".668"/><stop offset=".667" stop-color="#FF8140" stop-opacity=".768"/><stop offset=".733" stop-color="#FF8140" stop-opacity=".853"/><stop offset=".8" stop-color="#FF8140" stop-opacity=".918"/><stop offset=".867" stop-color="#FF8140" stop-opacity=".964"/><stop offset=".933" stop-color="#FF8140" stop-opacity=".991"/><stop offset="1" stop-color="#FF8140"/></linearGradient><linearGradient id="paint2_linear" x1="42.098" y1="15.865" x2="32.87" y2="29.041" gradientUnits="userSpaceOnUse"><stop stop-color="#FFD750" stop-opacity="0"/><stop offset="1" stop-color="#FFD750"/></linearGradient><radialGradient id="paint0_radial" cx="0" cy="0" r="1" gradientUnits="userSpaceOnUse" gradientTransform="matrix(13.75189 -9.58735 7.05554 10.12032 40.782 19.506)"><stop stop-color="#CC0700" stop-opacity=".97"/><stop offset=".067" stop-color="#CC0700" stop-opacity=".962"/><stop offset=".133" stop-color="#CC0700" stop-opacity=".936"/><stop offset=".2" stop-color="#CC0700" stop-opacity=".891"/><stop offset=".267" stop-color="#CC0700" stop-opacity=".827"/><stop offset=".333" stop-color="#CC0700" stop-opacity=".745"/><stop offset=".4" stop-color="#CC0700" stop-opacity=".648"/><stop offset=".467" stop-color="#CC0700" stop-opacity=".541"/><stop offset=".533" stop-color="#CC0700" stop-opacity=".429"/><stop offset=".6" stop-color="#CC0700" stop-opacity=".322"/><stop offset=".667" stop-color="#CC0700" stop-opacity=".225"/><stop offset=".733" stop-color="#CC0700" stop-opacity=".143"/><stop offset=".8" stop-color="#CC0700" stop-opacity=".079"/><stop offset=".867" stop-color="#CC0700" stop-opacity=".034"/><stop offset=".933" stop-color="#CC0700" stop-opacity=".01"/><stop offset="1" stop-color="#CC0700" stop-opacity="0"/></radialGradient></defs></svg>