<?xml version="1.0" standalone="no"?>
<!DOCTYPE svg PUBLIC "-//W3C//DTD SVG 20010904//EN"
 "http://www.w3.org/TR/2001/REC-SVG-20010904/DTD/svg10.dtd">
<svg version="1.0" xmlns="http://www.w3.org/2000/svg"
 width="260.000000pt" height="260.000000pt" viewBox="0 0 260.000000 260.000000"
 preserveAspectRatio="xMidYMid meet">
<metadata>
Created by potrace 1.14, written by Peter Selinger 2001-2017
</metadata>
<g transform="translate(0.000000,260.000000) scale(0.100000,-0.100000)"
fill="#000000" stroke="none">
<path d="M0 1300 l0 -1300 1300 0 1300 0 0 1300 0 1300 -1300 0 -1300 0 0
-1300z m914 998 c26 -98 70 -211 185 -472 75 -171 143 -326 150 -343 16 -39
30 -41 60 -9 21 22 22 28 11 61 -16 48 -10 59 52 94 67 39 87 39 118 0 23 -28
29 -30 60 -22 29 8 35 15 44 53 10 42 14 46 54 54 24 5 59 5 84 0 39 -8 43
-12 53 -53 9 -39 15 -46 43 -53 29 -8 35 -5 58 22 14 16 35 30 46 30 21 0 123
-54 133 -70 3 -5 0 -29 -7 -53 -10 -40 -10 -46 10 -67 20 -21 25 -22 61 -12
21 7 45 10 53 7 19 -8 78 -106 78 -130 0 -11 -14 -31 -31 -45 -28 -23 -30 -29
-22 -60 8 -29 15 -35 53 -44 42 -10 45 -14 53 -53 4 -24 4 -62 0 -85 -8 -40
-11 -44 -53 -54 -38 -9 -45 -15 -53 -44 -8 -30 -6 -36 22 -57 17 -14 31 -34
31 -45 0 -22 -54 -123 -71 -134 -6 -3 -30 -1 -54 6 -40 11 -45 10 -66 -11 -20
-20 -21 -26 -12 -62 6 -22 9 -45 7 -52 -7 -17 -107 -75 -131 -75 -12 0 -33 14
-47 30 -23 27 -29 30 -58 22 -28 -7 -34 -14 -43 -53 -10 -41 -14 -45 -53 -53
-25 -5 -60 -5 -84 0 -40 8 -44 12 -52 51 -8 36 -15 44 -44 54 -33 11 -36 10
-59 -20 -28 -36 -52 -38 -102 -12 l-35 19 -29 -44 c-63 -96 -197 -188 -312
-214 -28 -7 -88 -12 -135 -12 -179 1 -340 90 -441 245 -113 173 -109 386 12
782 68 218 207 564 345 855 59 122 70 140 91 140 13 0 25 -6 27 -12z"/>
<path d="M801 2014 c-140 -304 -257 -611 -314 -824 -98 -363 -73 -561 88 -708
31 -28 86 -66 123 -84 60 -29 78 -33 172 -36 87 -3 115 0 164 17 111 39 202
113 259 212 40 68 42 91 13 118 -22 21 -28 22 -61 11 -48 -16 -59 -10 -94 52
-38 66 -39 90 -2 121 27 23 29 28 20 60 -8 30 -14 35 -49 41 -46 7 -60 30 -60
96 0 66 14 89 60 96 35 6 41 11 49 41 9 32 7 37 -20 60 -37 31 -37 53 1 119
l30 54 -19 49 c-11 26 -59 136 -107 242 -48 107 -108 245 -134 307 l-47 113
-72 -157z m-178 -959 c13 -13 13 -21 1 -67 -19 -73 -18 -193 3 -253 22 -67 93
-137 161 -159 47 -16 52 -21 52 -47 0 -26 -3 -29 -30 -29 -45 0 -141 52 -184
100 -56 62 -78 120 -84 221 -7 131 20 249 58 249 5 0 15 -7 23 -15z"/>
<path d="M1661 1628 c-5 -13 -10 -32 -12 -42 -5 -22 -16 -29 -93 -51 l-58 -17
-33 32 c-28 27 -36 30 -54 21 -25 -14 -24 -12 -9 -62 11 -39 11 -39 -40 -90
-53 -53 -66 -56 -124 -34 -13 5 -21 0 -29 -17 -9 -22 -7 -29 21 -57 22 -21 30
-37 25 -49 -3 -9 -11 -37 -18 -62 -15 -60 -21 -67 -68 -75 -35 -6 -39 -10 -39
-35 0 -25 4 -29 39 -35 47 -8 53 -15 68 -75 7 -25 15 -53 18 -62 5 -12 -3 -28
-25 -49 -28 -28 -30 -35 -21 -57 8 -17 16 -22 29 -17 58 22 71 19 124 -34 51
-51 51 -51 40 -90 -15 -50 -16 -48 9 -62 18 -9 26 -6 54 21 l33 32 58 -17 c82
-24 88 -28 95 -64 13 -65 57 -70 74 -9 13 47 20 53 76 66 26 7 54 14 62 18 11
4 28 -5 48 -26 28 -28 35 -30 57 -21 17 8 22 16 17 29 -23 57 -18 76 34 126
50 49 50 49 89 38 51 -15 49 -16 63 9 9 18 6 26 -21 54 l-31 32 17 64 c22 79
26 85 69 93 30 6 35 11 35 36 0 25 -5 30 -35 36 -43 8 -47 14 -69 93 l-17 64
31 32 c28 29 30 36 20 55 -8 14 -17 19 -28 15 -59 -22 -72 -19 -123 31 -52 50
-57 69 -34 126 5 13 0 21 -17 29 -22 9 -29 7 -57 -21 -20 -21 -37 -30 -48 -26
-8 4 -36 11 -62 18 -56 13 -63 19 -76 66 -13 46 -50 57 -64 20z m157 -324
c122 -75 157 -234 79 -351 -109 -163 -351 -145 -433 32 -59 126 -6 270 121
332 70 34 165 28 233 -13z"/>
<path d="M1608 1250 c-132 -70 -130 -253 4 -321 127 -65 281 53 254 195 -21
113 -157 179 -258 126z"/>
</g>
</svg>
