<svg width="72" height="72" viewBox="0 0 72 72" fill="none" xmlns="http://www.w3.org/2000/svg">
<path fill-rule="evenodd" clip-rule="evenodd" d="M33.5092 52.4565L35.5545 51.7747C36.0023 51.6263 36.4928 51.7725 36.7875 52.1393C37.4693 52.9897 38.241 53.7637 39.0892 54.4478C39.4312 54.7222 39.582 55.17 39.4762 55.593C39.4178 55.827 39.3548 56.0588 39.2873 56.286L38.9183 57.3997L38.9048 57.4357C36.4725 63.9675 30.177 68.625 22.8038 68.625C13.3222 68.625 5.625 60.9277 5.625 51.4463C5.625 36.585 20.1915 7.08301 21.8048 3.98026C22.0567 3.49651 22.6215 3.26251 23.1435 3.42676C23.6655 3.59326 23.9918 4.11076 23.9175 4.65301C23.8095 5.44276 24.336 6.95476 25.1393 9.00901C27.2453 14.391 31.4955 22.9568 34.8975 31.5585C35.0573 31.9658 34.9695 32.427 34.668 32.7443C34.371 33.0593 33.921 33.1763 33.5092 33.0435C33.1807 33.5498 32.877 34.074 32.6025 34.6118L34.2157 36.045C34.5667 36.3578 34.6882 36.8573 34.5173 37.2938C34.1167 38.322 33.831 39.3885 33.6623 40.4775C33.5925 40.9433 33.2393 41.3145 32.778 41.4113L30.6652 41.8433C30.6337 42.4485 30.6337 43.0515 30.6652 43.6568L32.778 44.0887C33.2393 44.1855 33.5925 44.5568 33.6623 45.0225C33.831 46.1115 34.1167 47.178 34.5173 48.2062C34.6882 48.6427 34.5667 49.1423 34.2157 49.455L32.6025 50.8883C32.877 51.426 33.1807 51.948 33.5092 52.4565ZM22.356 7.92226C18.2992 16.2585 7.875 39.0465 7.875 51.4463C7.875 59.6857 14.5643 66.375 22.8038 66.375C29.2073 66.375 34.6725 62.334 36.792 56.6662L37.107 55.719C36.5513 55.2308 36.0292 54.7065 35.541 54.1507L33.4125 54.8595C32.9423 55.0147 32.4292 54.8483 32.1413 54.4455C31.3853 53.388 30.7327 52.2607 30.195 51.0773C29.9925 50.6273 30.1028 50.0963 30.4718 49.77L32.1502 48.2805C31.914 47.5808 31.7228 46.8652 31.5765 46.1408L29.3783 45.6885C28.8967 45.5895 28.5345 45.1868 28.485 44.6963C28.3612 43.4025 28.3612 42.0975 28.485 40.8038C28.5345 40.3133 28.8967 39.9105 29.3783 39.8115L31.5765 39.3593C31.7228 38.6348 31.914 37.9215 32.1502 37.2195L30.4718 35.73C30.1028 35.4038 29.9925 34.8728 30.195 34.4228C30.7327 33.2393 31.3853 32.112 32.1413 31.0545C32.1682 31.0163 32.1975 30.9803 32.2267 30.9465C28.935 22.8353 25.0312 14.913 23.0445 9.82801C22.7767 9.14626 22.5472 8.50951 22.356 7.92226Z" fill="#008EE3"/>
<path fill-rule="evenodd" clip-rule="evenodd" d="M45.1196 25.8188L45.5696 23.6206C45.6686 23.1368 46.0714 22.7746 46.5641 22.7273C47.8579 22.6013 49.1606 22.6013 50.4544 22.7273C50.9449 22.7746 51.3476 23.1368 51.4466 23.6206L51.8989 25.8188C52.6234 25.9628 53.3389 26.1541 54.0386 26.3926L55.5281 24.7141C55.8566 24.3451 56.3854 24.2326 56.8354 24.4373C58.0189 24.9751 59.1461 25.6276 60.2059 26.3836C60.6064 26.6693 60.7729 27.1846 60.6176 27.6526L59.9111 29.7811C60.4646 30.2693 60.9889 30.7936 61.4771 31.3493L63.6056 30.6406C64.0736 30.4853 64.5889 30.6518 64.8769 31.0546C65.6306 32.1121 66.2831 33.2393 66.8209 34.4228C67.0256 34.8728 66.9131 35.4038 66.5441 35.7301L64.8679 37.2196C65.1041 37.9193 65.2954 38.6348 65.4394 39.3593L67.6376 39.8116C68.1214 39.9106 68.4836 40.3133 68.5309 40.8038C68.6569 42.0976 68.6569 43.4026 68.5309 44.6963C68.4836 45.1868 68.1214 45.5896 67.6376 45.6886L65.4394 46.1408C65.2954 46.8653 65.1041 47.5786 64.8679 48.2806L66.5441 49.7701C66.9131 50.0963 67.0256 50.6273 66.8209 51.0773C66.2831 52.2608 65.6306 53.3881 64.8769 54.4456C64.5889 54.8483 64.0736 55.0148 63.6056 54.8596L61.4771 54.1508C60.9889 54.7066 60.4669 55.2308 59.9111 55.7191L60.6176 57.8476C60.7729 58.3156 60.6064 58.8308 60.2059 59.1166C59.1461 59.8726 58.0189 60.5251 56.8354 61.0628C56.3854 61.2676 55.8566 61.1551 55.5281 60.7861L54.0386 59.1076C53.3389 59.3461 52.6234 59.5373 51.8989 59.6813L51.4466 61.8796C51.3476 62.3633 50.9449 62.7256 50.4544 62.7728C49.1606 62.8988 47.8579 62.8988 46.5641 62.7728C46.0714 62.7256 45.6686 62.3633 45.5696 61.8796L45.1196 59.6813C44.3929 59.5373 43.6796 59.3461 42.9799 59.1076L41.4904 60.7861C41.1619 61.1551 40.6309 61.2676 40.1831 61.0628C38.9996 60.5251 37.8701 59.8726 36.8126 59.1166C36.4121 58.8308 36.2434 58.3156 36.3986 57.8476L37.1074 55.7191C36.5516 55.2308 36.0296 54.7066 35.5414 54.1508L33.4129 54.8596C32.9426 55.0148 32.4296 54.8483 32.1416 54.4456C31.3856 53.3881 30.7331 52.2608 30.1954 51.0773C29.9929 50.6273 30.1031 50.0963 30.4721 49.7701L32.1506 48.2806C31.9144 47.5808 31.7231 46.8653 31.5769 46.1408L29.3786 45.6886C28.8971 45.5896 28.5349 45.1868 28.4854 44.6963C28.3616 43.4026 28.3616 42.0976 28.4854 40.8038C28.5349 40.3133 28.8971 39.9106 29.3786 39.8116L31.5769 39.3593C31.7231 38.6348 31.9144 37.9216 32.1506 37.2196L30.4721 35.7301C30.1031 35.4038 29.9929 34.8728 30.1954 34.4228C30.7331 33.2393 31.3856 32.1121 32.1416 31.0546C32.4296 30.6518 32.9426 30.4853 33.4129 30.6406L35.5414 31.3493C36.0274 30.7936 36.5516 30.2693 37.1074 29.7811L36.3986 27.6526C36.2434 27.1846 36.4121 26.6693 36.8126 26.3836C37.8701 25.6276 38.9996 24.9751 40.1831 24.4373C40.6309 24.2326 41.1619 24.3451 41.4904 24.7141L42.9799 26.3926C43.6796 26.1541 44.3929 25.9628 45.1196 25.8188ZM49.4149 24.9076C48.8119 24.8761 48.2066 24.8761 47.6036 24.9076L47.1694 27.0203C47.0749 27.4793 46.7014 27.8348 46.2379 27.9046C45.1489 28.0711 44.0801 28.3568 43.0541 28.7573C42.6154 28.9283 42.1159 28.8091 41.8031 28.4558L40.3721 26.8448C39.8344 27.1193 39.3101 27.4208 38.8016 27.7493L39.4834 29.7968C39.6319 30.2423 39.4856 30.7351 39.1189 31.0298C38.2594 31.7183 37.4764 32.5013 36.7879 33.3608C36.4931 33.7276 36.0026 33.8738 35.5549 33.7253L33.5096 33.0436C33.1811 33.5521 32.8774 34.0741 32.6029 34.6118L34.2161 36.0451C34.5671 36.3578 34.6886 36.8573 34.5176 37.2938C34.1171 38.3221 33.8314 39.3886 33.6626 40.4776C33.5929 40.9433 33.2396 41.3146 32.7784 41.4113L30.6656 41.8433C30.6341 42.4486 30.6341 43.0516 30.6656 43.6568L32.7784 44.0888C33.2396 44.1856 33.5929 44.5568 33.6626 45.0226C33.8314 46.1116 34.1171 47.1781 34.5176 48.2063C34.6886 48.6428 34.5671 49.1423 34.2161 49.4551L32.6029 50.8883C32.8774 51.4261 33.1811 51.9481 33.5096 52.4566L35.5549 51.7748C36.0026 51.6263 36.4931 51.7726 36.7879 52.1393C37.4764 52.9988 38.2594 53.7818 39.1189 54.4703C39.4856 54.7651 39.6319 55.2578 39.4834 55.7033L38.8016 57.7508C39.3101 58.0793 39.8344 58.3808 40.3721 58.6553L41.8031 57.0443C42.1159 56.6911 42.6154 56.5718 43.0541 56.7428C44.0801 57.1433 45.1489 57.4291 46.2379 57.5956C46.7014 57.6653 47.0749 58.0208 47.1694 58.4798L47.6036 60.5926C48.2066 60.6241 48.8119 60.6241 49.4149 60.5926L49.8491 58.4798C49.9436 58.0208 50.3149 57.6653 50.7806 57.5956C51.8696 57.4291 52.9384 57.1433 53.9644 56.7428C54.4031 56.5718 54.9004 56.6911 55.2131 57.0443L56.6464 58.6553C57.1841 58.3808 57.7084 58.0793 58.2146 57.7508L57.5351 55.7033C57.3866 55.2578 57.5306 54.7651 57.8996 54.4703C58.7591 53.7818 59.5399 52.9988 60.2284 52.1393C60.5231 51.7726 61.0159 51.6263 61.4614 51.7748L63.5089 52.4566C63.8374 51.9481 64.1389 51.4261 64.4156 50.8883L62.8024 49.4551C62.4491 49.1423 62.3299 48.6428 62.5009 48.2063C62.9014 47.1781 63.1871 46.1116 63.3536 45.0226C63.4256 44.5568 63.7789 44.1856 64.2401 44.0888L66.3529 43.6568C66.3821 43.0516 66.3821 42.4486 66.3529 41.8433L64.2401 41.4113C63.7789 41.3146 63.4256 40.9433 63.3536 40.4776C63.1871 39.3886 62.9014 38.3221 62.5009 37.2938C62.3299 36.8573 62.4491 36.3578 62.8024 36.0451L64.4156 34.6118C64.1389 34.0741 63.8374 33.5521 63.5089 33.0436L61.4614 33.7253C61.0159 33.8738 60.5231 33.7276 60.2284 33.3608C59.5399 32.5013 58.7591 31.7183 57.8996 31.0298C57.5306 30.7351 57.3866 30.2423 57.5351 29.7968L58.2146 27.7493C57.7084 27.4208 57.1841 27.1193 56.6464 26.8448L55.2131 28.4558C54.9004 28.8091 54.4031 28.9283 53.9644 28.7573C52.9384 28.3568 51.8696 28.0711 50.7806 27.9046C50.3149 27.8348 49.9436 27.4793 49.8491 27.0203L49.4149 24.9076ZM48.5081 34.6816C44.0554 34.6816 40.4396 38.2973 40.4396 42.7501C40.4396 47.2028 44.0554 50.8186 48.5081 50.8186C52.9609 50.8186 56.5766 47.2028 56.5766 42.7501C56.5766 38.2973 52.9609 34.6816 48.5081 34.6816ZM48.5081 36.9316C51.7189 36.9316 54.3266 39.5393 54.3266 42.7501C54.3266 45.9608 51.7189 48.5686 48.5081 48.5686C45.2974 48.5686 42.6896 45.9608 42.6896 42.7501C42.6896 39.5393 45.2974 36.9316 48.5081 36.9316Z" fill="#008EE3"/>
<path fill-rule="evenodd" clip-rule="evenodd" d="M12.4406 44.2442C12.4406 44.2442 7.52885 58.2009 19.9354 61.8302C20.5316 62.0034 21.1549 61.6614 21.3303 61.0652C21.5036 60.4689 21.1616 59.8457 20.5654 59.6702C10.2806 56.6619 14.5601 45.0047 14.5601 45.0047C14.7694 44.4197 14.4656 43.7762 13.8806 43.5647C13.2956 43.3554 12.6521 43.6592 12.4406 44.2442Z" fill="#008EE3"/>
</svg>
