<svg width="379" height="72" viewBox="0 0 379 72" fill="none" xmlns="http://www.w3.org/2000/svg">
<path d="M78.7969 51.625H80.2578L83.9844 60.8984L87.7031 51.625H89.1719L84.5469 63H83.4062L78.7969 51.625ZM78.3203 51.625H79.6094L79.8203 58.5625V63H78.3203V51.625ZM88.3516 51.625H89.6406V63H88.1406V58.5625L88.3516 51.625ZM91.6875 58.8672V58.6875C91.6875 58.0781 91.776 57.513 91.9531 56.9922C92.1302 56.4661 92.3854 56.0104 92.7188 55.625C93.0521 55.2344 93.4557 54.9323 93.9297 54.7188C94.4036 54.5 94.9349 54.3906 95.5234 54.3906C96.1172 54.3906 96.651 54.5 97.125 54.7188C97.6042 54.9323 98.0104 55.2344 98.3438 55.625C98.6823 56.0104 98.9401 56.4661 99.1172 56.9922C99.2943 57.513 99.3828 58.0781 99.3828 58.6875V58.8672C99.3828 59.4766 99.2943 60.0417 99.1172 60.5625C98.9401 61.0833 98.6823 61.5391 98.3438 61.9297C98.0104 62.3151 97.6068 62.6172 97.1328 62.8359C96.6641 63.0495 96.1328 63.1562 95.5391 63.1562C94.9453 63.1562 94.4115 63.0495 93.9375 62.8359C93.4635 62.6172 93.0573 62.3151 92.7188 61.9297C92.3854 61.5391 92.1302 61.0833 91.9531 60.5625C91.776 60.0417 91.6875 59.4766 91.6875 58.8672ZM93.1328 58.6875V58.8672C93.1328 59.2891 93.1823 59.6875 93.2812 60.0625C93.3802 60.4323 93.5286 60.7604 93.7266 61.0469C93.9297 61.3333 94.1823 61.5599 94.4844 61.7266C94.7865 61.888 95.138 61.9688 95.5391 61.9688C95.9349 61.9688 96.2812 61.888 96.5781 61.7266C96.8802 61.5599 97.1302 61.3333 97.3281 61.0469C97.526 60.7604 97.6745 60.4323 97.7734 60.0625C97.8776 59.6875 97.9297 59.2891 97.9297 58.8672V58.6875C97.9297 58.2708 97.8776 57.8776 97.7734 57.5078C97.6745 57.1328 97.5234 56.8021 97.3203 56.5156C97.1224 56.224 96.8724 55.9948 96.5703 55.8281C96.2734 55.6615 95.9245 55.5781 95.5234 55.5781C95.1276 55.5781 94.7786 55.6615 94.4766 55.8281C94.1797 55.9948 93.9297 56.224 93.7266 56.5156C93.5286 56.8021 93.3802 57.1328 93.2812 57.5078C93.1823 57.8776 93.1328 58.2708 93.1328 58.6875ZM104.578 61.9688C104.922 61.9688 105.24 61.8984 105.531 61.7578C105.823 61.6172 106.062 61.4245 106.25 61.1797C106.438 60.9297 106.544 60.6458 106.57 60.3281H107.945C107.919 60.8281 107.75 61.2943 107.438 61.7266C107.13 62.1536 106.727 62.5 106.227 62.7656C105.727 63.026 105.177 63.1562 104.578 63.1562C103.943 63.1562 103.388 63.0443 102.914 62.8203C102.445 62.5964 102.055 62.2891 101.742 61.8984C101.435 61.5078 101.203 61.0599 101.047 60.5547C100.896 60.0443 100.82 59.5052 100.82 58.9375V58.6094C100.82 58.0417 100.896 57.5052 101.047 57C101.203 56.4896 101.435 56.0391 101.742 55.6484C102.055 55.2578 102.445 54.9505 102.914 54.7266C103.388 54.5026 103.943 54.3906 104.578 54.3906C105.24 54.3906 105.818 54.526 106.312 54.7969C106.807 55.0625 107.195 55.4271 107.477 55.8906C107.763 56.349 107.919 56.8698 107.945 57.4531H106.57C106.544 57.1042 106.445 56.7891 106.273 56.5078C106.107 56.2266 105.878 56.0026 105.586 55.8359C105.299 55.6641 104.964 55.5781 104.578 55.5781C104.135 55.5781 103.763 55.6667 103.461 55.8438C103.164 56.0156 102.927 56.25 102.75 56.5469C102.578 56.8385 102.453 57.1641 102.375 57.5234C102.302 57.8776 102.266 58.2396 102.266 58.6094V58.9375C102.266 59.3073 102.302 59.6719 102.375 60.0312C102.448 60.3906 102.57 60.7161 102.742 61.0078C102.919 61.2995 103.156 61.5339 103.453 61.7109C103.755 61.8828 104.13 61.9688 104.578 61.9688ZM111.141 54.5469V63H109.695V54.5469H111.141ZM116.688 54.5469L112.68 59.3906H110.656L110.438 58.125H112.094L114.93 54.5469H116.688ZM115.133 63L112.023 59.1719L112.953 58.125L116.969 63H115.133ZM122.195 59.2812H119.422L119.406 58.125H121.672C122.12 58.125 122.492 58.0807 122.789 57.9922C123.091 57.9036 123.318 57.7708 123.469 57.5938C123.62 57.4167 123.695 57.1979 123.695 56.9375C123.695 56.7344 123.651 56.5573 123.562 56.4062C123.479 56.25 123.352 56.1224 123.18 56.0234C123.008 55.9193 122.794 55.8438 122.539 55.7969C122.289 55.7448 121.995 55.7188 121.656 55.7188H119.805V63H118.359V54.5469H121.656C122.193 54.5469 122.674 54.5938 123.102 54.6875C123.534 54.7812 123.901 54.9245 124.203 55.1172C124.51 55.3047 124.745 55.5443 124.906 55.8359C125.068 56.1276 125.148 56.4714 125.148 56.8672C125.148 57.1224 125.096 57.3646 124.992 57.5938C124.888 57.8229 124.734 58.026 124.531 58.2031C124.328 58.3802 124.078 58.526 123.781 58.6406C123.484 58.75 123.143 58.8203 122.758 58.8516L122.195 59.2812ZM122.195 63H118.898L119.617 61.8281H122.195C122.596 61.8281 122.93 61.7786 123.195 61.6797C123.461 61.5755 123.659 61.4297 123.789 61.2422C123.924 61.0495 123.992 60.8203 123.992 60.5547C123.992 60.2891 123.924 60.0625 123.789 59.875C123.659 59.6823 123.461 59.5365 123.195 59.4375C122.93 59.3333 122.596 59.2812 122.195 59.2812H120L120.016 58.125H122.758L123.281 58.5625C123.745 58.599 124.138 58.7135 124.461 58.9062C124.784 59.099 125.029 59.3438 125.195 59.6406C125.362 59.9323 125.445 60.25 125.445 60.5938C125.445 60.9896 125.37 61.3385 125.219 61.6406C125.073 61.9427 124.859 62.1953 124.578 62.3984C124.297 62.5964 123.956 62.7474 123.555 62.8516C123.154 62.9505 122.701 63 122.195 63ZM132.367 61.5547V57.2031C132.367 56.8698 132.299 56.5807 132.164 56.3359C132.034 56.0859 131.836 55.8932 131.57 55.7578C131.305 55.6224 130.977 55.5547 130.586 55.5547C130.221 55.5547 129.901 55.6172 129.625 55.7422C129.354 55.8672 129.141 56.0312 128.984 56.2344C128.833 56.4375 128.758 56.6562 128.758 56.8906H127.312C127.312 56.5885 127.391 56.2891 127.547 55.9922C127.703 55.6953 127.927 55.4271 128.219 55.1875C128.516 54.9427 128.87 54.75 129.281 54.6094C129.698 54.4635 130.161 54.3906 130.672 54.3906C131.286 54.3906 131.828 54.4948 132.297 54.7031C132.771 54.9115 133.141 55.2266 133.406 55.6484C133.677 56.0651 133.812 56.5885 133.812 57.2188V61.1562C133.812 61.4375 133.836 61.737 133.883 62.0547C133.935 62.3724 134.01 62.6458 134.109 62.875V63H132.602C132.529 62.8333 132.471 62.612 132.43 62.3359C132.388 62.0547 132.367 61.7943 132.367 61.5547ZM132.617 57.875L132.633 58.8906H131.172C130.76 58.8906 130.393 58.9245 130.07 58.9922C129.747 59.0547 129.477 59.151 129.258 59.2812C129.039 59.4115 128.872 59.5755 128.758 59.7734C128.643 59.9661 128.586 60.1927 128.586 60.4531C128.586 60.7188 128.646 60.9609 128.766 61.1797C128.885 61.3984 129.065 61.5729 129.305 61.7031C129.549 61.8281 129.849 61.8906 130.203 61.8906C130.646 61.8906 131.036 61.7969 131.375 61.6094C131.714 61.4219 131.982 61.1927 132.18 60.9219C132.383 60.651 132.492 60.388 132.508 60.1328L133.125 60.8281C133.089 61.0469 132.99 61.2891 132.828 61.5547C132.667 61.8203 132.451 62.0755 132.18 62.3203C131.914 62.5599 131.596 62.7604 131.227 62.9219C130.862 63.0781 130.451 63.1562 129.992 63.1562C129.419 63.1562 128.917 63.0443 128.484 62.8203C128.057 62.5964 127.724 62.2969 127.484 61.9219C127.25 61.5417 127.133 61.1172 127.133 60.6484C127.133 60.1953 127.221 59.7969 127.398 59.4531C127.576 59.1042 127.831 58.8151 128.164 58.5859C128.497 58.3516 128.898 58.1745 129.367 58.0547C129.836 57.9349 130.359 57.875 130.938 57.875H132.617ZM141.617 60.7109L145.516 54.5469H146.969V63H145.516V56.8359L141.617 63H140.18V54.5469H141.617V60.7109ZM153.953 51.625H155.414L159.141 60.8984L162.859 51.625H164.328L159.703 63H158.562L153.953 51.625ZM153.477 51.625H154.766L154.977 58.5625V63H153.477V51.625ZM163.508 51.625H164.797V63H163.297V58.5625L163.508 51.625ZM166.844 58.8672V58.6875C166.844 58.0781 166.932 57.513 167.109 56.9922C167.286 56.4661 167.542 56.0104 167.875 55.625C168.208 55.2344 168.612 54.9323 169.086 54.7188C169.56 54.5 170.091 54.3906 170.68 54.3906C171.273 54.3906 171.807 54.5 172.281 54.7188C172.76 54.9323 173.167 55.2344 173.5 55.625C173.839 56.0104 174.096 56.4661 174.273 56.9922C174.451 57.513 174.539 58.0781 174.539 58.6875V58.8672C174.539 59.4766 174.451 60.0417 174.273 60.5625C174.096 61.0833 173.839 61.5391 173.5 61.9297C173.167 62.3151 172.763 62.6172 172.289 62.8359C171.82 63.0495 171.289 63.1562 170.695 63.1562C170.102 63.1562 169.568 63.0495 169.094 62.8359C168.62 62.6172 168.214 62.3151 167.875 61.9297C167.542 61.5391 167.286 61.0833 167.109 60.5625C166.932 60.0417 166.844 59.4766 166.844 58.8672ZM168.289 58.6875V58.8672C168.289 59.2891 168.339 59.6875 168.438 60.0625C168.536 60.4323 168.685 60.7604 168.883 61.0469C169.086 61.3333 169.339 61.5599 169.641 61.7266C169.943 61.888 170.294 61.9688 170.695 61.9688C171.091 61.9688 171.438 61.888 171.734 61.7266C172.036 61.5599 172.286 61.3333 172.484 61.0469C172.682 60.7604 172.831 60.4323 172.93 60.0625C173.034 59.6875 173.086 59.2891 173.086 58.8672V58.6875C173.086 58.2708 173.034 57.8776 172.93 57.5078C172.831 57.1328 172.68 56.8021 172.477 56.5156C172.279 56.224 172.029 55.9948 171.727 55.8281C171.43 55.6615 171.081 55.5781 170.68 55.5781C170.284 55.5781 169.935 55.6615 169.633 55.8281C169.336 55.9948 169.086 56.224 168.883 56.5156C168.685 56.8021 168.536 57.1328 168.438 57.5078C168.339 57.8776 168.289 58.2708 168.289 58.6875ZM179.734 61.9688C180.078 61.9688 180.396 61.8984 180.688 61.7578C180.979 61.6172 181.219 61.4245 181.406 61.1797C181.594 60.9297 181.701 60.6458 181.727 60.3281H183.102C183.076 60.8281 182.906 61.2943 182.594 61.7266C182.286 62.1536 181.883 62.5 181.383 62.7656C180.883 63.026 180.333 63.1562 179.734 63.1562C179.099 63.1562 178.544 63.0443 178.07 62.8203C177.602 62.5964 177.211 62.2891 176.898 61.8984C176.591 61.5078 176.359 61.0599 176.203 60.5547C176.052 60.0443 175.977 59.5052 175.977 58.9375V58.6094C175.977 58.0417 176.052 57.5052 176.203 57C176.359 56.4896 176.591 56.0391 176.898 55.6484C177.211 55.2578 177.602 54.9505 178.07 54.7266C178.544 54.5026 179.099 54.3906 179.734 54.3906C180.396 54.3906 180.974 54.526 181.469 54.7969C181.964 55.0625 182.352 55.4271 182.633 55.8906C182.919 56.349 183.076 56.8698 183.102 57.4531H181.727C181.701 57.1042 181.602 56.7891 181.43 56.5078C181.263 56.2266 181.034 56.0026 180.742 55.8359C180.456 55.6641 180.12 55.5781 179.734 55.5781C179.292 55.5781 178.919 55.6667 178.617 55.8438C178.32 56.0156 178.083 56.25 177.906 56.5469C177.734 56.8385 177.609 57.1641 177.531 57.5234C177.458 57.8776 177.422 58.2396 177.422 58.6094V58.9375C177.422 59.3073 177.458 59.6719 177.531 60.0312C177.604 60.3906 177.727 60.7161 177.898 61.0078C178.076 61.2995 178.312 61.5339 178.609 61.7109C178.911 61.8828 179.286 61.9688 179.734 61.9688ZM186.297 54.5469V63H184.852V54.5469H186.297ZM191.844 54.5469L187.836 59.3906H185.812L185.594 58.125H187.25L190.086 54.5469H191.844ZM190.289 63L187.18 59.1719L188.109 58.125L192.125 63H190.289ZM192.828 58.8672V58.6875C192.828 58.0781 192.917 57.513 193.094 56.9922C193.271 56.4661 193.526 56.0104 193.859 55.625C194.193 55.2344 194.596 54.9323 195.07 54.7188C195.544 54.5 196.076 54.3906 196.664 54.3906C197.258 54.3906 197.792 54.5 198.266 54.7188C198.745 54.9323 199.151 55.2344 199.484 55.625C199.823 56.0104 200.081 56.4661 200.258 56.9922C200.435 57.513 200.523 58.0781 200.523 58.6875V58.8672C200.523 59.4766 200.435 60.0417 200.258 60.5625C200.081 61.0833 199.823 61.5391 199.484 61.9297C199.151 62.3151 198.747 62.6172 198.273 62.8359C197.805 63.0495 197.273 63.1562 196.68 63.1562C196.086 63.1562 195.552 63.0495 195.078 62.8359C194.604 62.6172 194.198 62.3151 193.859 61.9297C193.526 61.5391 193.271 61.0833 193.094 60.5625C192.917 60.0417 192.828 59.4766 192.828 58.8672ZM194.273 58.6875V58.8672C194.273 59.2891 194.323 59.6875 194.422 60.0625C194.521 60.4323 194.669 60.7604 194.867 61.0469C195.07 61.3333 195.323 61.5599 195.625 61.7266C195.927 61.888 196.279 61.9688 196.68 61.9688C197.076 61.9688 197.422 61.888 197.719 61.7266C198.021 61.5599 198.271 61.3333 198.469 61.0469C198.667 60.7604 198.815 60.4323 198.914 60.0625C199.018 59.6875 199.07 59.2891 199.07 58.8672V58.6875C199.07 58.2708 199.018 57.8776 198.914 57.5078C198.815 57.1328 198.664 56.8021 198.461 56.5156C198.263 56.224 198.013 55.9948 197.711 55.8281C197.414 55.6615 197.065 55.5781 196.664 55.5781C196.268 55.5781 195.919 55.6615 195.617 55.8281C195.32 55.9948 195.07 56.224 194.867 56.5156C194.669 56.8021 194.521 57.1328 194.422 57.5078C194.323 57.8776 194.273 58.2708 194.273 58.6875ZM206.305 59.2812H203.531L203.516 58.125H205.781C206.229 58.125 206.602 58.0807 206.898 57.9922C207.201 57.9036 207.427 57.7708 207.578 57.5938C207.729 57.4167 207.805 57.1979 207.805 56.9375C207.805 56.7344 207.76 56.5573 207.672 56.4062C207.589 56.25 207.461 56.1224 207.289 56.0234C207.117 55.9193 206.904 55.8438 206.648 55.7969C206.398 55.7448 206.104 55.7188 205.766 55.7188H203.914V63H202.469V54.5469H205.766C206.302 54.5469 206.784 54.5938 207.211 54.6875C207.643 54.7812 208.01 54.9245 208.312 55.1172C208.62 55.3047 208.854 55.5443 209.016 55.8359C209.177 56.1276 209.258 56.4714 209.258 56.8672C209.258 57.1224 209.206 57.3646 209.102 57.5938C208.997 57.8229 208.844 58.026 208.641 58.2031C208.438 58.3802 208.188 58.526 207.891 58.6406C207.594 58.75 207.253 58.8203 206.867 58.8516L206.305 59.2812ZM206.305 63H203.008L203.727 61.8281H206.305C206.706 61.8281 207.039 61.7786 207.305 61.6797C207.57 61.5755 207.768 61.4297 207.898 61.2422C208.034 61.0495 208.102 60.8203 208.102 60.5547C208.102 60.2891 208.034 60.0625 207.898 59.875C207.768 59.6823 207.57 59.5365 207.305 59.4375C207.039 59.3333 206.706 59.2812 206.305 59.2812H204.109L204.125 58.125H206.867L207.391 58.5625C207.854 58.599 208.247 58.7135 208.57 58.9062C208.893 59.099 209.138 59.3438 209.305 59.6406C209.471 59.9323 209.555 60.25 209.555 60.5938C209.555 60.9896 209.479 61.3385 209.328 61.6406C209.182 61.9427 208.969 62.1953 208.688 62.3984C208.406 62.5964 208.065 62.7474 207.664 62.8516C207.263 62.9505 206.81 63 206.305 63ZM214.875 61.9688C215.219 61.9688 215.536 61.8984 215.828 61.7578C216.12 61.6172 216.359 61.4245 216.547 61.1797C216.734 60.9297 216.841 60.6458 216.867 60.3281H218.242C218.216 60.8281 218.047 61.2943 217.734 61.7266C217.427 62.1536 217.023 62.5 216.523 62.7656C216.023 63.026 215.474 63.1562 214.875 63.1562C214.24 63.1562 213.685 63.0443 213.211 62.8203C212.742 62.5964 212.352 62.2891 212.039 61.8984C211.732 61.5078 211.5 61.0599 211.344 60.5547C211.193 60.0443 211.117 59.5052 211.117 58.9375V58.6094C211.117 58.0417 211.193 57.5052 211.344 57C211.5 56.4896 211.732 56.0391 212.039 55.6484C212.352 55.2578 212.742 54.9505 213.211 54.7266C213.685 54.5026 214.24 54.3906 214.875 54.3906C215.536 54.3906 216.115 54.526 216.609 54.7969C217.104 55.0625 217.492 55.4271 217.773 55.8906C218.06 56.349 218.216 56.8698 218.242 57.4531H216.867C216.841 57.1042 216.742 56.7891 216.57 56.5078C216.404 56.2266 216.174 56.0026 215.883 55.8359C215.596 55.6641 215.26 55.5781 214.875 55.5781C214.432 55.5781 214.06 55.6667 213.758 55.8438C213.461 56.0156 213.224 56.25 213.047 56.5469C212.875 56.8385 212.75 57.1641 212.672 57.5234C212.599 57.8776 212.562 58.2396 212.562 58.6094V58.9375C212.562 59.3073 212.599 59.6719 212.672 60.0312C212.745 60.3906 212.867 60.7161 213.039 61.0078C213.216 61.2995 213.453 61.5339 213.75 61.7109C214.052 61.8828 214.427 61.9688 214.875 61.9688ZM221.438 54.5469V63H219.992V54.5469H221.438ZM226.984 54.5469L222.977 59.3906H220.953L220.734 58.125H222.391L225.227 54.5469H226.984ZM225.43 63L222.32 59.1719L223.25 58.125L227.266 63H225.43ZM233.508 61.5547V57.2031C233.508 56.8698 233.44 56.5807 233.305 56.3359C233.174 56.0859 232.977 55.8932 232.711 55.7578C232.445 55.6224 232.117 55.5547 231.727 55.5547C231.362 55.5547 231.042 55.6172 230.766 55.7422C230.495 55.8672 230.281 56.0312 230.125 56.2344C229.974 56.4375 229.898 56.6562 229.898 56.8906H228.453C228.453 56.5885 228.531 56.2891 228.688 55.9922C228.844 55.6953 229.068 55.4271 229.359 55.1875C229.656 54.9427 230.01 54.75 230.422 54.6094C230.839 54.4635 231.302 54.3906 231.812 54.3906C232.427 54.3906 232.969 54.4948 233.438 54.7031C233.911 54.9115 234.281 55.2266 234.547 55.6484C234.818 56.0651 234.953 56.5885 234.953 57.2188V61.1562C234.953 61.4375 234.977 61.737 235.023 62.0547C235.076 62.3724 235.151 62.6458 235.25 62.875V63H233.742C233.669 62.8333 233.612 62.612 233.57 62.3359C233.529 62.0547 233.508 61.7943 233.508 61.5547ZM233.758 57.875L233.773 58.8906H232.312C231.901 58.8906 231.534 58.9245 231.211 58.9922C230.888 59.0547 230.617 59.151 230.398 59.2812C230.18 59.4115 230.013 59.5755 229.898 59.7734C229.784 59.9661 229.727 60.1927 229.727 60.4531C229.727 60.7188 229.786 60.9609 229.906 61.1797C230.026 61.3984 230.206 61.5729 230.445 61.7031C230.69 61.8281 230.99 61.8906 231.344 61.8906C231.786 61.8906 232.177 61.7969 232.516 61.6094C232.854 61.4219 233.122 61.1927 233.32 60.9219C233.523 60.651 233.633 60.388 233.648 60.1328L234.266 60.8281C234.229 61.0469 234.13 61.2891 233.969 61.5547C233.807 61.8203 233.591 62.0755 233.32 62.3203C233.055 62.5599 232.737 62.7604 232.367 62.9219C232.003 63.0781 231.591 63.1562 231.133 63.1562C230.56 63.1562 230.057 63.0443 229.625 62.8203C229.198 62.5964 228.865 62.2969 228.625 61.9219C228.391 61.5417 228.273 61.1172 228.273 60.6484C228.273 60.1953 228.362 59.7969 228.539 59.4531C228.716 59.1042 228.971 58.8151 229.305 58.5859C229.638 58.3516 230.039 58.1745 230.508 58.0547C230.977 57.9349 231.5 57.875 232.078 57.875H233.758ZM238.938 58.9688H240.5L238.055 63H236.492L238.938 58.9688ZM240.148 54.5469H243.68V63H242.234V55.7188H240.148C239.737 55.7188 239.401 55.7891 239.141 55.9297C238.88 56.0651 238.69 56.2422 238.57 56.4609C238.451 56.6797 238.391 56.9062 238.391 57.1406C238.391 57.3698 238.445 57.5911 238.555 57.8047C238.664 58.013 238.836 58.1849 239.07 58.3203C239.305 58.4557 239.607 58.5234 239.977 58.5234H242.625V59.7109H239.977C239.492 59.7109 239.062 59.6458 238.688 59.5156C238.312 59.3854 237.995 59.2057 237.734 58.9766C237.474 58.7422 237.276 58.4688 237.141 58.1562C237.005 57.8385 236.938 57.4948 236.938 57.125C236.938 56.7552 237.008 56.4141 237.148 56.1016C237.294 55.7891 237.503 55.5156 237.773 55.2812C238.049 55.0469 238.385 54.8672 238.781 54.7422C239.182 54.612 239.638 54.5469 240.148 54.5469ZM249.594 58.8672V58.6875C249.594 58.0781 249.682 57.513 249.859 56.9922C250.036 56.4661 250.292 56.0104 250.625 55.625C250.958 55.2344 251.362 54.9323 251.836 54.7188C252.31 54.5 252.841 54.3906 253.43 54.3906C254.023 54.3906 254.557 54.5 255.031 54.7188C255.51 54.9323 255.917 55.2344 256.25 55.625C256.589 56.0104 256.846 56.4661 257.023 56.9922C257.201 57.513 257.289 58.0781 257.289 58.6875V58.8672C257.289 59.4766 257.201 60.0417 257.023 60.5625C256.846 61.0833 256.589 61.5391 256.25 61.9297C255.917 62.3151 255.513 62.6172 255.039 62.8359C254.57 63.0495 254.039 63.1562 253.445 63.1562C252.852 63.1562 252.318 63.0495 251.844 62.8359C251.37 62.6172 250.964 62.3151 250.625 61.9297C250.292 61.5391 250.036 61.0833 249.859 60.5625C249.682 60.0417 249.594 59.4766 249.594 58.8672ZM251.039 58.6875V58.8672C251.039 59.2891 251.089 59.6875 251.188 60.0625C251.286 60.4323 251.435 60.7604 251.633 61.0469C251.836 61.3333 252.089 61.5599 252.391 61.7266C252.693 61.888 253.044 61.9688 253.445 61.9688C253.841 61.9688 254.188 61.888 254.484 61.7266C254.786 61.5599 255.036 61.3333 255.234 61.0469C255.432 60.7604 255.581 60.4323 255.68 60.0625C255.784 59.6875 255.836 59.2891 255.836 58.8672V58.6875C255.836 58.2708 255.784 57.8776 255.68 57.5078C255.581 57.1328 255.43 56.8021 255.227 56.5156C255.029 56.224 254.779 55.9948 254.477 55.8281C254.18 55.6615 253.831 55.5781 253.43 55.5781C253.034 55.5781 252.685 55.6615 252.383 55.8281C252.086 55.9948 251.836 56.224 251.633 56.5156C251.435 56.8021 251.286 57.1328 251.188 57.5078C251.089 57.8776 251.039 58.2708 251.039 58.6875ZM264.523 50.8672H265.711C265.711 51.3776 265.633 51.7839 265.477 52.0859C265.32 52.3828 265.107 52.612 264.836 52.7734C264.57 52.9349 264.268 53.0573 263.93 53.1406C263.596 53.224 263.25 53.3047 262.891 53.3828C262.443 53.4766 262.026 53.625 261.641 53.8281C261.26 54.026 260.932 54.3073 260.656 54.6719C260.385 55.0365 260.185 55.5104 260.055 56.0938C259.93 56.6771 259.896 57.3984 259.953 58.2578V58.9766H258.766V58.2578C258.766 57.2943 258.857 56.4531 259.039 55.7344C259.227 55.0156 259.49 54.4089 259.828 53.9141C260.167 53.4193 260.568 53.026 261.031 52.7344C261.5 52.4427 262.016 52.2422 262.578 52.1328C262.984 52.0547 263.333 51.9714 263.625 51.8828C263.917 51.7891 264.138 51.6641 264.289 51.5078C264.445 51.3516 264.523 51.138 264.523 50.8672ZM262.812 55.0312C263.365 55.0312 263.857 55.1276 264.289 55.3203C264.721 55.513 265.089 55.7812 265.391 56.125C265.693 56.4688 265.922 56.875 266.078 57.3438C266.24 57.8073 266.32 58.3125 266.32 58.8594V59.0312C266.32 59.6198 266.234 60.1667 266.062 60.6719C265.896 61.1719 265.648 61.6094 265.32 61.9844C264.997 62.3542 264.602 62.6432 264.133 62.8516C263.669 63.0599 263.141 63.1641 262.547 63.1641C261.953 63.1641 261.422 63.0599 260.953 62.8516C260.49 62.6432 260.094 62.3542 259.766 61.9844C259.438 61.6094 259.188 61.1719 259.016 60.6719C258.849 60.1667 258.766 59.6198 258.766 59.0312V58.8594C258.766 58.7292 258.789 58.6016 258.836 58.4766C258.883 58.3516 258.94 58.224 259.008 58.0938C259.081 57.9635 259.146 57.8255 259.203 57.6797C259.396 57.2109 259.659 56.776 259.992 56.375C260.331 55.974 260.734 55.651 261.203 55.4062C261.677 55.1562 262.214 55.0312 262.812 55.0312ZM262.531 56.2109C262 56.2109 261.562 56.3333 261.219 56.5781C260.88 56.8229 260.628 57.1484 260.461 57.5547C260.294 57.9557 260.211 58.3906 260.211 58.8594V59.0312C260.211 59.4271 260.258 59.8021 260.352 60.1562C260.445 60.5104 260.586 60.8255 260.773 61.1016C260.966 61.3724 261.208 61.5859 261.5 61.7422C261.797 61.8984 262.146 61.9766 262.547 61.9766C262.948 61.9766 263.294 61.8984 263.586 61.7422C263.878 61.5859 264.117 61.3724 264.305 61.1016C264.492 60.8255 264.633 60.5104 264.727 60.1562C264.82 59.8021 264.867 59.4271 264.867 59.0312V58.8594C264.867 58.5052 264.82 58.1693 264.727 57.8516C264.633 57.5339 264.49 57.2526 264.297 57.0078C264.109 56.763 263.867 56.5703 263.57 56.4297C263.279 56.2839 262.932 56.2109 262.531 56.2109ZM273.609 54.5469V55.7422H269.523V54.5469H273.609ZM274.883 54.5469V63H273.438V54.5469H274.883ZM269.172 54.5469H270.625L270.406 58.625C270.37 59.2552 270.31 59.8125 270.227 60.2969C270.148 60.776 270.039 61.1875 269.898 61.5312C269.763 61.875 269.591 62.1562 269.383 62.375C269.18 62.5885 268.935 62.7474 268.648 62.8516C268.362 62.9505 268.031 63 267.656 63H267.203V61.7266L267.516 61.7031C267.74 61.6875 267.93 61.6354 268.086 61.5469C268.247 61.4583 268.383 61.3281 268.492 61.1562C268.602 60.9792 268.69 60.7526 268.758 60.4766C268.831 60.2005 268.885 59.8724 268.922 59.4922C268.964 59.112 268.995 58.6693 269.016 58.1641L269.172 54.5469ZM282.195 61.5547V57.2031C282.195 56.8698 282.128 56.5807 281.992 56.3359C281.862 56.0859 281.664 55.8932 281.398 55.7578C281.133 55.6224 280.805 55.5547 280.414 55.5547C280.049 55.5547 279.729 55.6172 279.453 55.7422C279.182 55.8672 278.969 56.0312 278.812 56.2344C278.661 56.4375 278.586 56.6562 278.586 56.8906H277.141C277.141 56.5885 277.219 56.2891 277.375 55.9922C277.531 55.6953 277.755 55.4271 278.047 55.1875C278.344 54.9427 278.698 54.75 279.109 54.6094C279.526 54.4635 279.99 54.3906 280.5 54.3906C281.115 54.3906 281.656 54.4948 282.125 54.7031C282.599 54.9115 282.969 55.2266 283.234 55.6484C283.505 56.0651 283.641 56.5885 283.641 57.2188V61.1562C283.641 61.4375 283.664 61.737 283.711 62.0547C283.763 62.3724 283.839 62.6458 283.938 62.875V63H282.43C282.357 62.8333 282.299 62.612 282.258 62.3359C282.216 62.0547 282.195 61.7943 282.195 61.5547ZM282.445 57.875L282.461 58.8906H281C280.589 58.8906 280.221 58.9245 279.898 58.9922C279.576 59.0547 279.305 59.151 279.086 59.2812C278.867 59.4115 278.701 59.5755 278.586 59.7734C278.471 59.9661 278.414 60.1927 278.414 60.4531C278.414 60.7188 278.474 60.9609 278.594 61.1797C278.714 61.3984 278.893 61.5729 279.133 61.7031C279.378 61.8281 279.677 61.8906 280.031 61.8906C280.474 61.8906 280.865 61.7969 281.203 61.6094C281.542 61.4219 281.81 61.1927 282.008 60.9219C282.211 60.651 282.32 60.388 282.336 60.1328L282.953 60.8281C282.917 61.0469 282.818 61.2891 282.656 61.5547C282.495 61.8203 282.279 62.0755 282.008 62.3203C281.742 62.5599 281.424 62.7604 281.055 62.9219C280.69 63.0781 280.279 63.1562 279.82 63.1562C279.247 63.1562 278.745 63.0443 278.312 62.8203C277.885 62.5964 277.552 62.2969 277.312 61.9219C277.078 61.5417 276.961 61.1172 276.961 60.6484C276.961 60.1953 277.049 59.7969 277.227 59.4531C277.404 59.1042 277.659 58.8151 277.992 58.5859C278.326 58.3516 278.727 58.1745 279.195 58.0547C279.664 57.9349 280.188 57.875 280.766 57.875H282.445ZM289.297 61.9688C289.641 61.9688 289.958 61.8984 290.25 61.7578C290.542 61.6172 290.781 61.4245 290.969 61.1797C291.156 60.9297 291.263 60.6458 291.289 60.3281H292.664C292.638 60.8281 292.469 61.2943 292.156 61.7266C291.849 62.1536 291.445 62.5 290.945 62.7656C290.445 63.026 289.896 63.1562 289.297 63.1562C288.661 63.1562 288.107 63.0443 287.633 62.8203C287.164 62.5964 286.773 62.2891 286.461 61.8984C286.154 61.5078 285.922 61.0599 285.766 60.5547C285.615 60.0443 285.539 59.5052 285.539 58.9375V58.6094C285.539 58.0417 285.615 57.5052 285.766 57C285.922 56.4896 286.154 56.0391 286.461 55.6484C286.773 55.2578 287.164 54.9505 287.633 54.7266C288.107 54.5026 288.661 54.3906 289.297 54.3906C289.958 54.3906 290.536 54.526 291.031 54.7969C291.526 55.0625 291.914 55.4271 292.195 55.8906C292.482 56.349 292.638 56.8698 292.664 57.4531H291.289C291.263 57.1042 291.164 56.7891 290.992 56.5078C290.826 56.2266 290.596 56.0026 290.305 55.8359C290.018 55.6641 289.682 55.5781 289.297 55.5781C288.854 55.5781 288.482 55.6667 288.18 55.8438C287.883 56.0156 287.646 56.25 287.469 56.5469C287.297 56.8385 287.172 57.1641 287.094 57.5234C287.021 57.8776 286.984 58.2396 286.984 58.6094V58.9375C286.984 59.3073 287.021 59.6719 287.094 60.0312C287.167 60.3906 287.289 60.7161 287.461 61.0078C287.638 61.2995 287.875 61.5339 288.172 61.7109C288.474 61.8828 288.849 61.9688 289.297 61.9688ZM297.734 54.5469V63H296.281V54.5469H297.734ZM300.57 54.5469V55.7188H293.5V54.5469H300.57ZM303.18 57.4531H305.719C306.401 57.4531 306.977 57.5729 307.445 57.8125C307.914 58.0469 308.268 58.3724 308.508 58.7891C308.753 59.2005 308.875 59.6693 308.875 60.1953C308.875 60.5859 308.807 60.9531 308.672 61.2969C308.536 61.6354 308.333 61.9323 308.062 62.1875C307.797 62.4427 307.466 62.6432 307.07 62.7891C306.68 62.9297 306.229 63 305.719 63H302.125V54.5469H303.57V61.8125H305.719C306.135 61.8125 306.469 61.737 306.719 61.5859C306.969 61.4349 307.148 61.2396 307.258 61C307.367 60.7604 307.422 60.5104 307.422 60.25C307.422 59.9948 307.367 59.7448 307.258 59.5C307.148 59.2552 306.969 59.0521 306.719 58.8906C306.469 58.724 306.135 58.6406 305.719 58.6406H303.18V57.4531Z" fill="#333333"/>
<path d="M83.126 14.4385H79.8652V12.3818H83.126C83.6299 12.3818 84.04 12.2998 84.3564 12.1357C84.6729 11.9658 84.9043 11.7314 85.0508 11.4326C85.1973 11.1338 85.2705 10.7969 85.2705 10.4219C85.2705 10.041 85.1973 9.68652 85.0508 9.3584C84.9043 9.03027 84.6729 8.7666 84.3564 8.56738C84.04 8.36816 83.6299 8.26855 83.126 8.26855H80.7793V19H78.1426V6.20312H83.126C84.1279 6.20312 84.9863 6.38477 85.7012 6.74805C86.4219 7.10547 86.9727 7.60059 87.3535 8.2334C87.7344 8.86621 87.9248 9.58984 87.9248 10.4043C87.9248 11.2305 87.7344 11.9453 87.3535 12.5488C86.9727 13.1523 86.4219 13.6182 85.7012 13.9463C84.9863 14.2744 84.1279 14.4385 83.126 14.4385ZM93.8398 19.1758C93.1016 19.1758 92.4395 19.0586 91.8535 18.8242C91.2676 18.584 90.7695 18.2529 90.3594 17.8311C89.9551 17.4092 89.6445 16.9199 89.4277 16.3633C89.2109 15.8008 89.1025 15.2031 89.1025 14.5703V14.2188C89.1025 13.498 89.2051 12.8389 89.4102 12.2412C89.6152 11.6436 89.9082 11.125 90.2891 10.6855C90.6758 10.2461 91.1445 9.90918 91.6953 9.6748C92.2461 9.43457 92.8672 9.31445 93.5586 9.31445C94.2324 9.31445 94.8301 9.42578 95.3516 9.64844C95.873 9.87109 96.3096 10.1875 96.6611 10.5977C97.0186 11.0078 97.2881 11.5 97.4697 12.0742C97.6514 12.6426 97.7422 13.2754 97.7422 13.9727V15.0273H90.1836V13.3398H95.2549V13.1465C95.2549 12.7949 95.1904 12.4814 95.0615 12.2061C94.9385 11.9248 94.751 11.7021 94.499 11.5381C94.2471 11.374 93.9248 11.292 93.5322 11.292C93.1982 11.292 92.9111 11.3652 92.6709 11.5117C92.4307 11.6582 92.2344 11.8633 92.082 12.127C91.9355 12.3906 91.8242 12.7012 91.748 13.0586C91.6777 13.4102 91.6426 13.7969 91.6426 14.2188V14.5703C91.6426 14.9512 91.6953 15.3027 91.8008 15.625C91.9121 15.9473 92.0674 16.2256 92.2666 16.46C92.4717 16.6943 92.7178 16.876 93.0049 17.0049C93.2979 17.1338 93.6289 17.1982 93.998 17.1982C94.4551 17.1982 94.8799 17.1104 95.2725 16.9346C95.6709 16.7529 96.0137 16.4805 96.3008 16.1172L97.5312 17.4531C97.332 17.7402 97.0596 18.0156 96.7139 18.2793C96.374 18.543 95.9639 18.7598 95.4834 18.9297C95.0029 19.0938 94.4551 19.1758 93.8398 19.1758ZM104.967 16.0908L107.463 9.49023H109.528L105.819 19H104.114L100.423 9.49023H102.488L104.967 16.0908ZM101.882 9.49023V19H99.3506V9.49023H101.882ZM108.113 19V9.49023H110.645V19H108.113ZM112.455 14.3418V14.1572C112.455 13.46 112.555 12.8184 112.754 12.2324C112.953 11.6406 113.243 11.1279 113.624 10.6943C114.005 10.2607 114.474 9.92383 115.03 9.68359C115.587 9.4375 116.226 9.31445 116.946 9.31445C117.667 9.31445 118.309 9.4375 118.871 9.68359C119.434 9.92383 119.905 10.2607 120.286 10.6943C120.673 11.1279 120.966 11.6406 121.165 12.2324C121.364 12.8184 121.464 13.46 121.464 14.1572V14.3418C121.464 15.0332 121.364 15.6748 121.165 16.2666C120.966 16.8525 120.673 17.3652 120.286 17.8047C119.905 18.2383 119.437 18.5752 118.88 18.8154C118.323 19.0557 117.685 19.1758 116.964 19.1758C116.243 19.1758 115.602 19.0557 115.039 18.8154C114.482 18.5752 114.011 18.2383 113.624 17.8047C113.243 17.3652 112.953 16.8525 112.754 16.2666C112.555 15.6748 112.455 15.0332 112.455 14.3418ZM114.986 14.1572V14.3418C114.986 14.7402 115.021 15.1123 115.092 15.458C115.162 15.8037 115.273 16.1084 115.426 16.3721C115.584 16.6299 115.789 16.832 116.041 16.9785C116.293 17.125 116.601 17.1982 116.964 17.1982C117.315 17.1982 117.617 17.125 117.869 16.9785C118.121 16.832 118.323 16.6299 118.476 16.3721C118.628 16.1084 118.739 15.8037 118.81 15.458C118.886 15.1123 118.924 14.7402 118.924 14.3418V14.1572C118.924 13.7705 118.886 13.4072 118.81 13.0674C118.739 12.7217 118.625 12.417 118.467 12.1533C118.314 11.8838 118.112 11.6729 117.86 11.5205C117.608 11.3682 117.304 11.292 116.946 11.292C116.589 11.292 116.284 11.3682 116.032 11.5205C115.786 11.6729 115.584 11.8838 115.426 12.1533C115.273 12.417 115.162 12.7217 115.092 13.0674C115.021 13.4072 114.986 13.7705 114.986 14.1572ZM129.532 13.3311V15.2998H124.698V13.3311H129.532ZM125.542 9.49023V19H123.011V9.49023H125.542ZM131.246 9.49023V19H128.706V9.49023H131.246ZM138.058 9.49023V19H135.518V9.49023H138.058ZM141.116 9.49023V11.4502H132.503V9.49023H141.116ZM149.413 15.4668L152.604 9.49023H155.135V19H152.604V13.0146L149.413 19H146.882V9.49023H149.413V15.4668ZM165.497 17.1982C165.808 17.1982 166.083 17.1396 166.323 17.0225C166.563 16.8994 166.751 16.7295 166.886 16.5127C167.026 16.29 167.1 16.0293 167.105 15.7305H169.487C169.481 16.3984 169.303 16.9932 168.951 17.5146C168.6 18.0303 168.128 18.4375 167.536 18.7363C166.944 19.0293 166.282 19.1758 165.55 19.1758C164.812 19.1758 164.167 19.0527 163.616 18.8066C163.071 18.5605 162.617 18.2207 162.254 17.7871C161.891 17.3477 161.618 16.8379 161.437 16.2578C161.255 15.6719 161.164 15.0449 161.164 14.377V14.1221C161.164 13.4482 161.255 12.8213 161.437 12.2412C161.618 11.6553 161.891 11.1455 162.254 10.7119C162.617 10.2725 163.071 9.92969 163.616 9.68359C164.161 9.4375 164.8 9.31445 165.532 9.31445C166.312 9.31445 166.994 9.46387 167.58 9.7627C168.172 10.0615 168.635 10.4893 168.969 11.0459C169.309 11.5967 169.481 12.25 169.487 13.0059H167.105C167.1 12.6895 167.032 12.4023 166.903 12.1445C166.78 11.8867 166.599 11.6816 166.358 11.5293C166.124 11.3711 165.834 11.292 165.488 11.292C165.119 11.292 164.817 11.3711 164.583 11.5293C164.349 11.6816 164.167 11.8926 164.038 12.1621C163.909 12.4258 163.818 12.7275 163.766 13.0674C163.719 13.4014 163.695 13.7529 163.695 14.1221V14.377C163.695 14.7461 163.719 15.1006 163.766 15.4404C163.812 15.7803 163.9 16.082 164.029 16.3457C164.164 16.6094 164.349 16.8174 164.583 16.9697C164.817 17.1221 165.122 17.1982 165.497 17.1982ZM175.332 19.1758C174.594 19.1758 173.932 19.0586 173.346 18.8242C172.76 18.584 172.262 18.2529 171.852 17.8311C171.447 17.4092 171.137 16.9199 170.92 16.3633C170.703 15.8008 170.595 15.2031 170.595 14.5703V14.2188C170.595 13.498 170.697 12.8389 170.902 12.2412C171.107 11.6436 171.4 11.125 171.781 10.6855C172.168 10.2461 172.637 9.90918 173.188 9.6748C173.738 9.43457 174.359 9.31445 175.051 9.31445C175.725 9.31445 176.322 9.42578 176.844 9.64844C177.365 9.87109 177.802 10.1875 178.153 10.5977C178.511 11.0078 178.78 11.5 178.962 12.0742C179.144 12.6426 179.234 13.2754 179.234 13.9727V15.0273H171.676V13.3398H176.747V13.1465C176.747 12.7949 176.683 12.4814 176.554 12.2061C176.431 11.9248 176.243 11.7021 175.991 11.5381C175.739 11.374 175.417 11.292 175.024 11.292C174.69 11.292 174.403 11.3652 174.163 11.5117C173.923 11.6582 173.727 11.8633 173.574 12.127C173.428 12.3906 173.316 12.7012 173.24 13.0586C173.17 13.4102 173.135 13.7969 173.135 14.2188V14.5703C173.135 14.9512 173.188 15.3027 173.293 15.625C173.404 15.9473 173.56 16.2256 173.759 16.46C173.964 16.6943 174.21 16.876 174.497 17.0049C174.79 17.1338 175.121 17.1982 175.49 17.1982C175.947 17.1982 176.372 17.1104 176.765 16.9346C177.163 16.7529 177.506 16.4805 177.793 16.1172L179.023 17.4531C178.824 17.7402 178.552 18.0156 178.206 18.2793C177.866 18.543 177.456 18.7598 176.976 18.9297C176.495 19.0938 175.947 19.1758 175.332 19.1758ZM183.207 11.3184V22.6562H180.676V9.49023H183.022L183.207 11.3184ZM189.228 14.1396V14.3242C189.228 15.0156 189.146 15.6572 188.981 16.249C188.823 16.8408 188.589 17.3564 188.278 17.7959C187.968 18.2295 187.581 18.5693 187.118 18.8154C186.661 19.0557 186.134 19.1758 185.536 19.1758C184.956 19.1758 184.452 19.0586 184.024 18.8242C183.597 18.5898 183.236 18.2617 182.943 17.8398C182.656 17.4121 182.425 16.917 182.249 16.3545C182.073 15.792 181.938 15.1885 181.845 14.5439V14.0605C181.938 13.3691 182.073 12.7363 182.249 12.1621C182.425 11.582 182.656 11.0811 182.943 10.6592C183.236 10.2314 183.594 9.90039 184.016 9.66602C184.443 9.43164 184.944 9.31445 185.519 9.31445C186.122 9.31445 186.652 9.42871 187.109 9.65723C187.572 9.88574 187.959 10.2139 188.27 10.6416C188.586 11.0693 188.823 11.5791 188.981 12.1709C189.146 12.7627 189.228 13.4189 189.228 14.1396ZM186.688 14.3242V14.1396C186.688 13.7354 186.652 13.3633 186.582 13.0234C186.518 12.6777 186.412 12.376 186.266 12.1182C186.125 11.8604 185.938 11.6611 185.703 11.5205C185.475 11.374 185.196 11.3008 184.868 11.3008C184.522 11.3008 184.227 11.3564 183.98 11.4678C183.74 11.5791 183.544 11.7402 183.392 11.9512C183.239 12.1621 183.125 12.4141 183.049 12.707C182.973 13 182.926 13.3311 182.908 13.7002V14.9219C182.938 15.3555 183.02 15.7451 183.154 16.0908C183.289 16.4307 183.497 16.7002 183.778 16.8994C184.06 17.0986 184.429 17.1982 184.886 17.1982C185.22 17.1982 185.501 17.125 185.729 16.9785C185.958 16.8262 186.143 16.6182 186.283 16.3545C186.43 16.0908 186.532 15.7861 186.591 15.4404C186.655 15.0947 186.688 14.7227 186.688 14.3242ZM195.538 15.0273H192.559L192.541 13.3662H195.002C195.33 13.3662 195.597 13.334 195.802 13.2695C196.007 13.1992 196.156 13.0967 196.25 12.9619C196.35 12.8213 196.399 12.6514 196.399 12.4521C196.399 12.2764 196.367 12.127 196.303 12.0039C196.244 11.875 196.153 11.7695 196.03 11.6875C195.907 11.6055 195.752 11.5469 195.564 11.5117C195.383 11.4707 195.169 11.4502 194.923 11.4502H193.499V19H190.968V9.49023H194.923C195.544 9.49023 196.101 9.5459 196.593 9.65723C197.085 9.7627 197.504 9.92383 197.85 10.1406C198.201 10.3574 198.468 10.6328 198.649 10.9668C198.837 11.2949 198.931 11.6846 198.931 12.1357C198.931 12.4287 198.863 12.7041 198.729 12.9619C198.6 13.2197 198.406 13.4482 198.148 13.6475C197.891 13.8467 197.571 14.0107 197.19 14.1396C196.815 14.2627 196.382 14.3389 195.89 14.3682L195.538 15.0273ZM195.538 19H191.935L192.805 17.04H195.538C195.849 17.04 196.104 17.002 196.303 16.9258C196.502 16.8496 196.648 16.7383 196.742 16.5918C196.842 16.4395 196.892 16.2578 196.892 16.0469C196.892 15.8418 196.848 15.6631 196.76 15.5107C196.672 15.3584 196.528 15.2412 196.329 15.1592C196.136 15.0713 195.872 15.0273 195.538 15.0273H193.174L193.191 13.3662H195.881L196.496 14.0342C197.164 14.0752 197.715 14.2012 198.148 14.4121C198.582 14.623 198.901 14.8926 199.106 15.2207C199.317 15.543 199.423 15.8975 199.423 16.2842C199.423 16.7354 199.338 17.1309 199.168 17.4707C198.998 17.8105 198.746 18.0947 198.412 18.3232C198.084 18.5459 197.68 18.7158 197.199 18.833C196.719 18.9443 196.165 19 195.538 19ZM203.501 15.4668L206.691 9.49023H209.223V19H206.691V13.0146L203.501 19H200.97V9.49023H203.501V15.4668ZM215.103 17.1982C215.413 17.1982 215.688 17.1396 215.929 17.0225C216.169 16.8994 216.356 16.7295 216.491 16.5127C216.632 16.29 216.705 16.0293 216.711 15.7305H219.093C219.087 16.3984 218.908 16.9932 218.557 17.5146C218.205 18.0303 217.733 18.4375 217.142 18.7363C216.55 19.0293 215.888 19.1758 215.155 19.1758C214.417 19.1758 213.772 19.0527 213.222 18.8066C212.677 18.5605 212.223 18.2207 211.859 17.7871C211.496 17.3477 211.224 16.8379 211.042 16.2578C210.86 15.6719 210.77 15.0449 210.77 14.377V14.1221C210.77 13.4482 210.86 12.8213 211.042 12.2412C211.224 11.6553 211.496 11.1455 211.859 10.7119C212.223 10.2725 212.677 9.92969 213.222 9.68359C213.767 9.4375 214.405 9.31445 215.138 9.31445C215.917 9.31445 216.6 9.46387 217.186 9.7627C217.777 10.0615 218.24 10.4893 218.574 11.0459C218.914 11.5967 219.087 12.25 219.093 13.0059H216.711C216.705 12.6895 216.638 12.4023 216.509 12.1445C216.386 11.8867 216.204 11.6816 215.964 11.5293C215.729 11.3711 215.439 11.292 215.094 11.292C214.725 11.292 214.423 11.3711 214.188 11.5293C213.954 11.6816 213.772 11.8926 213.644 12.1621C213.515 12.4258 213.424 12.7275 213.371 13.0674C213.324 13.4014 213.301 13.7529 213.301 14.1221V14.377C213.301 14.7461 213.324 15.1006 213.371 15.4404C213.418 15.7803 213.506 16.082 213.635 16.3457C213.77 16.6094 213.954 16.8174 214.188 16.9697C214.423 17.1221 214.728 17.1982 215.103 17.1982ZM227.073 13.3311V15.2998H222.239V13.3311H227.073ZM223.083 9.49023V19H220.552V9.49023H223.083ZM228.787 9.49023V19H226.247V9.49023H228.787ZM230.352 14.3418V14.1572C230.352 13.46 230.451 12.8184 230.65 12.2324C230.85 11.6406 231.14 11.1279 231.521 10.6943C231.901 10.2607 232.37 9.92383 232.927 9.68359C233.483 9.4375 234.122 9.31445 234.843 9.31445C235.563 9.31445 236.205 9.4375 236.768 9.68359C237.33 9.92383 237.802 10.2607 238.183 10.6943C238.569 11.1279 238.862 11.6406 239.062 12.2324C239.261 12.8184 239.36 13.46 239.36 14.1572V14.3418C239.36 15.0332 239.261 15.6748 239.062 16.2666C238.862 16.8525 238.569 17.3652 238.183 17.8047C237.802 18.2383 237.333 18.5752 236.776 18.8154C236.22 19.0557 235.581 19.1758 234.86 19.1758C234.14 19.1758 233.498 19.0557 232.936 18.8154C232.379 18.5752 231.907 18.2383 231.521 17.8047C231.14 17.3652 230.85 16.8525 230.65 16.2666C230.451 15.6748 230.352 15.0332 230.352 14.3418ZM232.883 14.1572V14.3418C232.883 14.7402 232.918 15.1123 232.988 15.458C233.059 15.8037 233.17 16.1084 233.322 16.3721C233.48 16.6299 233.686 16.832 233.938 16.9785C234.189 17.125 234.497 17.1982 234.86 17.1982C235.212 17.1982 235.514 17.125 235.766 16.9785C236.018 16.832 236.22 16.6299 236.372 16.3721C236.524 16.1084 236.636 15.8037 236.706 15.458C236.782 15.1123 236.82 14.7402 236.82 14.3418V14.1572C236.82 13.7705 236.782 13.4072 236.706 13.0674C236.636 12.7217 236.521 12.417 236.363 12.1533C236.211 11.8838 236.009 11.6729 235.757 11.5205C235.505 11.3682 235.2 11.292 234.843 11.292C234.485 11.292 234.181 11.3682 233.929 11.5205C233.683 11.6729 233.48 11.8838 233.322 12.1533C233.17 12.417 233.059 12.7217 232.988 13.0674C232.918 13.4072 232.883 13.7705 232.883 14.1572ZM245.293 19.1758C244.555 19.1758 243.893 19.0586 243.307 18.8242C242.721 18.584 242.223 18.2529 241.812 17.8311C241.408 17.4092 241.098 16.9199 240.881 16.3633C240.664 15.8008 240.556 15.2031 240.556 14.5703V14.2188C240.556 13.498 240.658 12.8389 240.863 12.2412C241.068 11.6436 241.361 11.125 241.742 10.6855C242.129 10.2461 242.598 9.90918 243.148 9.6748C243.699 9.43457 244.32 9.31445 245.012 9.31445C245.686 9.31445 246.283 9.42578 246.805 9.64844C247.326 9.87109 247.763 10.1875 248.114 10.5977C248.472 11.0078 248.741 11.5 248.923 12.0742C249.104 12.6426 249.195 13.2754 249.195 13.9727V15.0273H241.637V13.3398H246.708V13.1465C246.708 12.7949 246.644 12.4814 246.515 12.2061C246.392 11.9248 246.204 11.7021 245.952 11.5381C245.7 11.374 245.378 11.292 244.985 11.292C244.651 11.292 244.364 11.3652 244.124 11.5117C243.884 11.6582 243.688 11.8633 243.535 12.127C243.389 12.3906 243.277 12.7012 243.201 13.0586C243.131 13.4102 243.096 13.7969 243.096 14.2188V14.5703C243.096 14.9512 243.148 15.3027 243.254 15.625C243.365 15.9473 243.521 16.2256 243.72 16.46C243.925 16.6943 244.171 16.876 244.458 17.0049C244.751 17.1338 245.082 17.1982 245.451 17.1982C245.908 17.1982 246.333 17.1104 246.726 16.9346C247.124 16.7529 247.467 16.4805 247.754 16.1172L248.984 17.4531C248.785 17.7402 248.513 18.0156 248.167 18.2793C247.827 18.543 247.417 18.7598 246.937 18.9297C246.456 19.0938 245.908 19.1758 245.293 19.1758ZM254.715 14.3418V14.1572C254.715 13.46 254.814 12.8184 255.014 12.2324C255.213 11.6406 255.503 11.1279 255.884 10.6943C256.265 10.2607 256.733 9.92383 257.29 9.68359C257.847 9.4375 258.485 9.31445 259.206 9.31445C259.927 9.31445 260.568 9.4375 261.131 9.68359C261.693 9.92383 262.165 10.2607 262.546 10.6943C262.933 11.1279 263.226 11.6406 263.425 12.2324C263.624 12.8184 263.724 13.46 263.724 14.1572V14.3418C263.724 15.0332 263.624 15.6748 263.425 16.2666C263.226 16.8525 262.933 17.3652 262.546 17.8047C262.165 18.2383 261.696 18.5752 261.14 18.8154C260.583 19.0557 259.944 19.1758 259.224 19.1758C258.503 19.1758 257.861 19.0557 257.299 18.8154C256.742 18.5752 256.271 18.2383 255.884 17.8047C255.503 17.3652 255.213 16.8525 255.014 16.2666C254.814 15.6748 254.715 15.0332 254.715 14.3418ZM257.246 14.1572V14.3418C257.246 14.7402 257.281 15.1123 257.352 15.458C257.422 15.8037 257.533 16.1084 257.686 16.3721C257.844 16.6299 258.049 16.832 258.301 16.9785C258.553 17.125 258.86 17.1982 259.224 17.1982C259.575 17.1982 259.877 17.125 260.129 16.9785C260.381 16.832 260.583 16.6299 260.735 16.3721C260.888 16.1084 260.999 15.8037 261.069 15.458C261.146 15.1123 261.184 14.7402 261.184 14.3418V14.1572C261.184 13.7705 261.146 13.4072 261.069 13.0674C260.999 12.7217 260.885 12.417 260.727 12.1533C260.574 11.8838 260.372 11.6729 260.12 11.5205C259.868 11.3682 259.563 11.292 259.206 11.292C258.849 11.292 258.544 11.3682 258.292 11.5205C258.046 11.6729 257.844 11.8838 257.686 12.1533C257.533 12.417 257.422 12.7217 257.352 13.0674C257.281 13.4072 257.246 13.7705 257.246 14.1572ZM271.106 5.30664H273.154C273.154 5.78125 273.096 6.18848 272.979 6.52832C272.861 6.8623 272.674 7.14941 272.416 7.38965C272.158 7.62402 271.812 7.82324 271.379 7.9873C270.945 8.15137 270.409 8.29199 269.771 8.40918C269.278 8.50879 268.851 8.67285 268.487 8.90137C268.13 9.12988 267.834 9.44336 267.6 9.8418C267.371 10.2344 267.207 10.7324 267.107 11.3359C267.008 11.9336 266.973 12.6543 267.002 13.498V13.9199L265.033 14.1924V13.7705C265.039 12.6221 265.142 11.623 265.341 10.7734C265.546 9.92383 265.836 9.20898 266.211 8.62891C266.586 8.04297 267.037 7.57715 267.564 7.23145C268.092 6.87988 268.678 6.63379 269.322 6.49316C269.756 6.39941 270.102 6.30859 270.359 6.2207C270.623 6.12695 270.813 6.00977 270.931 5.86914C271.048 5.72852 271.106 5.54102 271.106 5.30664ZM269.999 10.0264C270.644 10.0264 271.215 10.1377 271.713 10.3604C272.211 10.5771 272.63 10.8848 272.97 11.2832C273.31 11.6816 273.567 12.1504 273.743 12.6895C273.919 13.2285 274.007 13.8174 274.007 14.4561V14.6406C274.007 15.291 273.907 15.8945 273.708 16.4512C273.515 17.002 273.228 17.4824 272.847 17.8926C272.466 18.3027 271.997 18.6221 271.44 18.8506C270.884 19.0732 270.248 19.1846 269.533 19.1846C268.812 19.1846 268.171 19.0645 267.608 18.8242C267.052 18.5781 266.58 18.2354 266.193 17.7959C265.812 17.3506 265.522 16.832 265.323 16.2402C265.13 15.6426 265.033 14.9922 265.033 14.2891V14.0957C265.033 13.9961 265.077 13.8994 265.165 13.8057C265.259 13.7061 265.367 13.5947 265.49 13.4717C265.619 13.3486 265.733 13.1934 265.833 13.0059C266.185 12.3555 266.568 11.8105 266.984 11.3711C267.4 10.9258 267.854 10.5918 268.347 10.3691C268.845 10.1406 269.396 10.0264 269.999 10.0264ZM269.516 12.0039C269.041 12.0039 268.66 12.1182 268.373 12.3467C268.086 12.5693 267.878 12.8682 267.749 13.2432C267.626 13.6123 267.564 14.0166 267.564 14.4561V14.6406C267.564 14.998 267.6 15.332 267.67 15.6426C267.74 15.9473 267.852 16.2197 268.004 16.46C268.156 16.6943 268.358 16.8789 268.61 17.0137C268.862 17.1426 269.17 17.207 269.533 17.207C269.885 17.207 270.184 17.1426 270.43 17.0137C270.682 16.8789 270.884 16.6943 271.036 16.46C271.188 16.2197 271.3 15.9473 271.37 15.6426C271.44 15.332 271.476 14.998 271.476 14.6406V14.4561C271.476 14.1221 271.44 13.8086 271.37 13.5156C271.3 13.2168 271.188 12.9561 271.036 12.7334C270.884 12.5049 270.682 12.3262 270.43 12.1973C270.178 12.0684 269.873 12.0039 269.516 12.0039ZM279.474 17.1982C279.784 17.1982 280.06 17.1396 280.3 17.0225C280.54 16.8994 280.728 16.7295 280.862 16.5127C281.003 16.29 281.076 16.0293 281.082 15.7305H283.464C283.458 16.3984 283.279 16.9932 282.928 17.5146C282.576 18.0303 282.104 18.4375 281.513 18.7363C280.921 19.0293 280.259 19.1758 279.526 19.1758C278.788 19.1758 278.144 19.0527 277.593 18.8066C277.048 18.5605 276.594 18.2207 276.23 17.7871C275.867 17.3477 275.595 16.8379 275.413 16.2578C275.231 15.6719 275.141 15.0449 275.141 14.377V14.1221C275.141 13.4482 275.231 12.8213 275.413 12.2412C275.595 11.6553 275.867 11.1455 276.23 10.7119C276.594 10.2725 277.048 9.92969 277.593 9.68359C278.138 9.4375 278.776 9.31445 279.509 9.31445C280.288 9.31445 280.971 9.46387 281.557 9.7627C282.148 10.0615 282.611 10.4893 282.945 11.0459C283.285 11.5967 283.458 12.25 283.464 13.0059H281.082C281.076 12.6895 281.009 12.4023 280.88 12.1445C280.757 11.8867 280.575 11.6816 280.335 11.5293C280.101 11.3711 279.811 11.292 279.465 11.292C279.096 11.292 278.794 11.3711 278.56 11.5293C278.325 11.6816 278.144 11.8926 278.015 12.1621C277.886 12.4258 277.795 12.7275 277.742 13.0674C277.695 13.4014 277.672 13.7529 277.672 14.1221V14.377C277.672 14.7461 277.695 15.1006 277.742 15.4404C277.789 15.7803 277.877 16.082 278.006 16.3457C278.141 16.6094 278.325 16.8174 278.56 16.9697C278.794 17.1221 279.099 17.1982 279.474 17.1982ZM291.33 9.49023V11.4766H286.654V9.49023H291.33ZM293.185 9.49023V19H290.653V9.49023H293.185ZM286.021 9.49023H288.509L288.254 14.2891C288.219 14.9746 288.146 15.5781 288.034 16.0996C287.923 16.6211 287.773 17.0664 287.586 17.4355C287.404 17.8047 287.185 18.1064 286.927 18.3408C286.675 18.5693 286.379 18.7363 286.039 18.8418C285.705 18.9473 285.336 19 284.932 19H284.158L284.132 17.0049L284.457 16.9697C284.645 16.9521 284.809 16.8994 284.949 16.8115C285.096 16.7178 285.219 16.5859 285.318 16.416C285.424 16.2402 285.512 16.0205 285.582 15.7568C285.652 15.4873 285.708 15.1709 285.749 14.8076C285.796 14.4443 285.828 14.0254 285.846 13.5508L286.021 9.49023ZM297.966 17.9277L300.488 9.49023H303.204L299.381 20.4326C299.299 20.6729 299.188 20.9307 299.047 21.2061C298.912 21.4814 298.728 21.7422 298.493 21.9883C298.265 22.2402 297.975 22.4453 297.623 22.6035C297.277 22.7617 296.853 22.8408 296.349 22.8408C296.108 22.8408 295.912 22.8262 295.76 22.7969C295.607 22.7676 295.426 22.7266 295.215 22.6738V20.8193C295.279 20.8193 295.347 20.8193 295.417 20.8193C295.487 20.8252 295.555 20.8281 295.619 20.8281C295.953 20.8281 296.226 20.79 296.437 20.7139C296.647 20.6377 296.817 20.5205 296.946 20.3623C297.075 20.21 297.178 20.0107 297.254 19.7646L297.966 17.9277ZM296.911 9.49023L298.977 16.3809L299.337 19.0615L297.614 19.2461L294.195 9.49023H296.911ZM307.572 15.4141L303.617 9.49023H306.755L308.776 13.0762H310.596L310.288 15.4141H307.572ZM308.812 14.9834L306.641 19H303.591L306.746 13.7617L308.812 14.9834ZM312.239 9.49023V19H309.708V9.49023H312.239ZM318.356 9.49023L314.401 15.4141H311.686L311.378 13.0762H313.197L315.21 9.49023H318.356ZM315.324 19L313.153 14.9834L315.298 13.7617L318.436 19H315.324ZM322.188 15.4668L325.379 9.49023H327.91V19H325.379V13.0146L322.188 19H319.657V9.49023H322.188V15.4668ZM334.599 15.0273H331.619L331.602 13.3662H334.062C334.391 13.3662 334.657 13.334 334.862 13.2695C335.067 13.1992 335.217 13.0967 335.311 12.9619C335.41 12.8213 335.46 12.6514 335.46 12.4521C335.46 12.2764 335.428 12.127 335.363 12.0039C335.305 11.875 335.214 11.7695 335.091 11.6875C334.968 11.6055 334.812 11.5469 334.625 11.5117C334.443 11.4707 334.229 11.4502 333.983 11.4502H332.56V19H330.028V9.49023H333.983C334.604 9.49023 335.161 9.5459 335.653 9.65723C336.146 9.7627 336.564 9.92383 336.91 10.1406C337.262 10.3574 337.528 10.6328 337.71 10.9668C337.897 11.2949 337.991 11.6846 337.991 12.1357C337.991 12.4287 337.924 12.7041 337.789 12.9619C337.66 13.2197 337.467 13.4482 337.209 13.6475C336.951 13.8467 336.632 14.0107 336.251 14.1396C335.876 14.2627 335.442 14.3389 334.95 14.3682L334.599 15.0273ZM334.599 19H330.995L331.865 17.04H334.599C334.909 17.04 335.164 17.002 335.363 16.9258C335.562 16.8496 335.709 16.7383 335.803 16.5918C335.902 16.4395 335.952 16.2578 335.952 16.0469C335.952 15.8418 335.908 15.6631 335.82 15.5107C335.732 15.3584 335.589 15.2412 335.39 15.1592C335.196 15.0713 334.933 15.0273 334.599 15.0273H332.234L332.252 13.3662H334.941L335.557 14.0342C336.225 14.0752 336.775 14.2012 337.209 14.4121C337.643 14.623 337.962 14.8926 338.167 15.2207C338.378 15.543 338.483 15.8975 338.483 16.2842C338.483 16.7354 338.398 17.1309 338.229 17.4707C338.059 17.8105 337.807 18.0947 337.473 18.3232C337.145 18.5459 336.74 18.7158 336.26 18.833C335.779 18.9443 335.226 19 334.599 19ZM345.172 16.8555V12.6191C345.172 12.3145 345.122 12.0537 345.022 11.8369C344.923 11.6143 344.768 11.4414 344.557 11.3184C344.352 11.1953 344.085 11.1338 343.757 11.1338C343.476 11.1338 343.232 11.1836 343.027 11.2832C342.822 11.377 342.664 11.5146 342.553 11.6963C342.441 11.8721 342.386 12.0801 342.386 12.3203H339.854C339.854 11.916 339.948 11.5322 340.136 11.1689C340.323 10.8057 340.596 10.4863 340.953 10.2109C341.311 9.92969 341.735 9.70996 342.228 9.55176C342.726 9.39355 343.282 9.31445 343.897 9.31445C344.636 9.31445 345.292 9.4375 345.866 9.68359C346.44 9.92969 346.892 10.2988 347.22 10.791C347.554 11.2832 347.721 11.8984 347.721 12.6367V16.7061C347.721 17.2275 347.753 17.6553 347.817 17.9893C347.882 18.3174 347.976 18.6045 348.099 18.8506V19H345.541C345.418 18.7422 345.324 18.4199 345.26 18.0332C345.201 17.6406 345.172 17.248 345.172 16.8555ZM345.506 13.208L345.523 14.6406H344.108C343.774 14.6406 343.484 14.6787 343.238 14.7549C342.992 14.8311 342.79 14.9395 342.632 15.0801C342.474 15.2148 342.356 15.373 342.28 15.5547C342.21 15.7363 342.175 15.9355 342.175 16.1523C342.175 16.3691 342.225 16.5654 342.324 16.7412C342.424 16.9111 342.567 17.0459 342.755 17.1455C342.942 17.2393 343.162 17.2861 343.414 17.2861C343.795 17.2861 344.126 17.21 344.407 17.0576C344.688 16.9053 344.905 16.7178 345.058 16.4951C345.216 16.2725 345.298 16.0615 345.304 15.8623L345.972 16.9346C345.878 17.1748 345.749 17.4238 345.585 17.6816C345.427 17.9395 345.225 18.1826 344.979 18.4111C344.732 18.6338 344.437 18.8184 344.091 18.9648C343.745 19.1055 343.335 19.1758 342.86 19.1758C342.257 19.1758 341.709 19.0557 341.217 18.8154C340.73 18.5693 340.344 18.2324 340.057 17.8047C339.775 17.3711 339.635 16.8789 339.635 16.3281C339.635 15.8301 339.729 15.3877 339.916 15.001C340.104 14.6143 340.379 14.2891 340.742 14.0254C341.111 13.7559 341.571 13.5537 342.122 13.4189C342.673 13.2783 343.312 13.208 344.038 13.208H345.506ZM356.185 13.3311V15.2998H351.351V13.3311H356.185ZM352.194 9.49023V19H349.663V9.49023H352.194ZM357.898 9.49023V19H355.358V9.49023H357.898ZM362.39 15.4668L365.58 9.49023H368.111V19H365.58V13.0146L362.39 19H359.858V9.49023H362.39V15.4668ZM374.439 19.1758C373.701 19.1758 373.039 19.0586 372.453 18.8242C371.867 18.584 371.369 18.2529 370.959 17.8311C370.555 17.4092 370.244 16.9199 370.027 16.3633C369.811 15.8008 369.702 15.2031 369.702 14.5703V14.2188C369.702 13.498 369.805 12.8389 370.01 12.2412C370.215 11.6436 370.508 11.125 370.889 10.6855C371.275 10.2461 371.744 9.90918 372.295 9.6748C372.846 9.43457 373.467 9.31445 374.158 9.31445C374.832 9.31445 375.43 9.42578 375.951 9.64844C376.473 9.87109 376.909 10.1875 377.261 10.5977C377.618 11.0078 377.888 11.5 378.069 12.0742C378.251 12.6426 378.342 13.2754 378.342 13.9727V15.0273H370.783V13.3398H375.854V13.1465C375.854 12.7949 375.79 12.4814 375.661 12.2061C375.538 11.9248 375.351 11.7021 375.099 11.5381C374.847 11.374 374.524 11.292 374.132 11.292C373.798 11.292 373.511 11.3652 373.271 11.5117C373.03 11.6582 372.834 11.8633 372.682 12.127C372.535 12.3906 372.424 12.7012 372.348 13.0586C372.277 13.4102 372.242 13.7969 372.242 14.2188V14.5703C372.242 14.9512 372.295 15.3027 372.4 15.625C372.512 15.9473 372.667 16.2256 372.866 16.46C373.071 16.6943 373.317 16.876 373.604 17.0049C373.897 17.1338 374.229 17.1982 374.598 17.1982C375.055 17.1982 375.479 17.1104 375.872 16.9346C376.271 16.7529 376.613 16.4805 376.9 16.1172L378.131 17.4531C377.932 17.7402 377.659 18.0156 377.313 18.2793C376.974 18.543 376.563 18.7598 376.083 18.9297C375.603 19.0938 375.055 19.1758 374.439 19.1758Z" fill="#333333"/>
<path d="M89.5596 35.3066V35.4912C89.5596 36.1768 89.4834 36.8066 89.3311 37.3809C89.1846 37.9492 88.9619 38.4443 88.6631 38.8662C88.3643 39.2822 87.998 39.6045 87.5645 39.833C87.1309 40.0615 86.6299 40.1758 86.0615 40.1758C85.5342 40.1758 85.0771 40.0762 84.6904 39.877C84.3096 39.6719 83.9873 39.3877 83.7236 39.0244C83.4658 38.6553 83.2549 38.2275 83.0908 37.7412C82.9326 37.249 82.8154 36.7188 82.7393 36.1504V34.6299C82.8154 34.0205 82.9326 33.4551 83.0908 32.9336C83.249 32.4062 83.457 31.9463 83.7148 31.5537C83.9785 31.1611 84.3008 30.8564 84.6816 30.6396C85.0625 30.4229 85.5166 30.3145 86.0439 30.3145C86.501 30.3145 86.9141 30.3936 87.2832 30.5518C87.6582 30.71 87.9863 30.9355 88.2676 31.2285C88.5547 31.5215 88.792 31.876 88.9795 32.292C89.1729 32.7021 89.3164 33.1621 89.4102 33.6719C89.5098 34.1816 89.5596 34.7266 89.5596 35.3066ZM87.0195 35.4912V35.3066C87.0195 34.9785 86.999 34.665 86.958 34.3662C86.9229 34.0615 86.8643 33.7832 86.7822 33.5312C86.7061 33.2793 86.6035 33.0625 86.4746 32.8809C86.3457 32.6934 86.1904 32.5498 86.0088 32.4502C85.8271 32.3447 85.6191 32.292 85.3848 32.292C84.9746 32.292 84.6377 32.374 84.374 32.5381C84.1162 32.6963 83.9229 32.9248 83.7939 33.2236C83.6709 33.5166 83.6006 33.8623 83.583 34.2607V36.5283C83.6064 36.8682 83.6797 37.1641 83.8027 37.416C83.9316 37.6621 84.125 37.8555 84.3828 37.9961C84.6465 38.1309 84.9863 38.1982 85.4023 38.1982C85.7012 38.1982 85.9531 38.1309 86.1582 37.9961C86.3691 37.8613 86.5361 37.6709 86.6592 37.4248C86.7881 37.1787 86.8789 36.8945 86.9316 36.5723C86.9902 36.2441 87.0195 35.8838 87.0195 35.4912ZM77.5977 35.4912V35.3066C77.5977 34.7266 77.6475 34.1816 77.7471 33.6719C77.8467 33.1621 77.9902 32.7021 78.1777 32.292C78.3711 31.876 78.6084 31.5215 78.8896 31.2285C79.1709 30.9355 79.4961 30.71 79.8652 30.5518C80.2402 30.3936 80.6562 30.3145 81.1133 30.3145C81.6348 30.3145 82.0859 30.4229 82.4668 30.6396C82.8477 30.8564 83.167 31.1611 83.4248 31.5537C83.6826 31.9463 83.8906 32.4062 84.0488 32.9336C84.207 33.4551 84.3271 34.0205 84.4092 34.6299V36.0801C84.3271 36.666 84.207 37.208 84.0488 37.7061C83.8906 38.1982 83.6797 38.6318 83.416 39.0068C83.1582 39.376 82.8389 39.6631 82.458 39.8682C82.0771 40.0732 81.623 40.1758 81.0957 40.1758C80.5332 40.1758 80.0322 40.0615 79.5928 39.833C79.1592 39.6045 78.793 39.2822 78.4941 38.8662C78.2012 38.4443 77.9785 37.9492 77.8262 37.3809C77.6738 36.8066 77.5977 36.1768 77.5977 35.4912ZM80.1289 35.3066V35.4912C80.1289 35.8838 80.1553 36.2441 80.208 36.5723C80.2666 36.8945 80.3574 37.1787 80.4805 37.4248C80.6094 37.665 80.7764 37.8525 80.9814 37.9873C81.1865 38.1221 81.4385 38.1895 81.7373 38.1895C82.1592 38.1895 82.499 38.1191 82.7568 37.9785C83.0205 37.8379 83.2168 37.6387 83.3457 37.3809C83.4746 37.123 83.5449 36.8154 83.5566 36.458V34.2607C83.5449 33.8623 83.4746 33.5166 83.3457 33.2236C83.2227 32.9248 83.0322 32.6963 82.7744 32.5381C82.5166 32.374 82.1768 32.292 81.7549 32.292C81.4561 32.292 81.2012 32.3711 80.9902 32.5293C80.7852 32.6875 80.6182 32.9043 80.4893 33.1797C80.3662 33.4551 80.2754 33.7773 80.2168 34.1465C80.1582 34.5098 80.1289 34.8965 80.1289 35.3066ZM82.291 43.6562V26.5H84.8311V43.6562H82.291ZM93.6729 36.4668L96.8633 30.4902H99.3945V40H96.8633V34.0146L93.6729 40H91.1416V30.4902H93.6729V36.4668ZM107.744 30.4902V32.4766H103.068V30.4902H107.744ZM109.599 30.4902V40H107.067V30.4902H109.599ZM102.436 30.4902H104.923L104.668 35.2891C104.633 35.9746 104.56 36.5781 104.448 37.0996C104.337 37.6211 104.188 38.0664 104 38.4355C103.818 38.8047 103.599 39.1064 103.341 39.3408C103.089 39.5693 102.793 39.7363 102.453 39.8418C102.119 39.9473 101.75 40 101.346 40H100.572L100.546 38.0049L100.871 37.9697C101.059 37.9521 101.223 37.8994 101.363 37.8115C101.51 37.7178 101.633 37.5859 101.732 37.416C101.838 37.2402 101.926 37.0205 101.996 36.7568C102.066 36.4873 102.122 36.1709 102.163 35.8076C102.21 35.4443 102.242 35.0254 102.26 34.5508L102.436 30.4902ZM113.308 33.3115H116.067C116.935 33.3115 117.673 33.4551 118.282 33.7422C118.897 34.0234 119.366 34.416 119.688 34.9199C120.017 35.4238 120.181 36.0068 120.181 36.6689C120.181 37.1494 120.087 37.5947 119.899 38.0049C119.718 38.4092 119.451 38.7607 119.1 39.0596C118.748 39.3584 118.317 39.5898 117.808 39.7539C117.298 39.918 116.718 40 116.067 40H111.726V30.4902H114.266V38.0312H116.067C116.448 38.0312 116.753 37.9697 116.981 37.8467C117.216 37.7178 117.386 37.5508 117.491 37.3457C117.603 37.1406 117.658 36.918 117.658 36.6777C117.658 36.4258 117.603 36.1973 117.491 35.9922C117.386 35.7812 117.216 35.6113 116.981 35.4824C116.753 35.3535 116.448 35.2891 116.067 35.2891H113.308V33.3115ZM125.366 30.4902V40H122.826V30.4902H125.366ZM128.425 30.4902V32.4502H119.812V30.4902H128.425ZM132.248 32.3184V43.6562H129.717V30.4902H132.063L132.248 32.3184ZM138.269 35.1396V35.3242C138.269 36.0156 138.187 36.6572 138.022 37.249C137.864 37.8408 137.63 38.3564 137.319 38.7959C137.009 39.2295 136.622 39.5693 136.159 39.8154C135.702 40.0557 135.175 40.1758 134.577 40.1758C133.997 40.1758 133.493 40.0586 133.065 39.8242C132.638 39.5898 132.277 39.2617 131.984 38.8398C131.697 38.4121 131.466 37.917 131.29 37.3545C131.114 36.792 130.979 36.1885 130.886 35.5439V35.0605C130.979 34.3691 131.114 33.7363 131.29 33.1621C131.466 32.582 131.697 32.0811 131.984 31.6592C132.277 31.2314 132.635 30.9004 133.057 30.666C133.484 30.4316 133.985 30.3145 134.56 30.3145C135.163 30.3145 135.693 30.4287 136.15 30.6572C136.613 30.8857 137 31.2139 137.311 31.6416C137.627 32.0693 137.864 32.5791 138.022 33.1709C138.187 33.7627 138.269 34.4189 138.269 35.1396ZM135.729 35.3242V35.1396C135.729 34.7354 135.693 34.3633 135.623 34.0234C135.559 33.6777 135.453 33.376 135.307 33.1182C135.166 32.8604 134.979 32.6611 134.744 32.5205C134.516 32.374 134.237 32.3008 133.909 32.3008C133.563 32.3008 133.268 32.3564 133.021 32.4678C132.781 32.5791 132.585 32.7402 132.433 32.9512C132.28 33.1621 132.166 33.4141 132.09 33.707C132.014 34 131.967 34.3311 131.949 34.7002V35.9219C131.979 36.3555 132.061 36.7451 132.195 37.0908C132.33 37.4307 132.538 37.7002 132.819 37.8994C133.101 38.0986 133.47 38.1982 133.927 38.1982C134.261 38.1982 134.542 38.125 134.771 37.9785C134.999 37.8262 135.184 37.6182 135.324 37.3545C135.471 37.0908 135.573 36.7861 135.632 36.4404C135.696 36.0947 135.729 35.7227 135.729 35.3242ZM139.438 35.3418V35.1572C139.438 34.46 139.537 33.8184 139.736 33.2324C139.936 32.6406 140.226 32.1279 140.606 31.6943C140.987 31.2607 141.456 30.9238 142.013 30.6836C142.569 30.4375 143.208 30.3145 143.929 30.3145C144.649 30.3145 145.291 30.4375 145.854 30.6836C146.416 30.9238 146.888 31.2607 147.269 31.6943C147.655 32.1279 147.948 32.6406 148.147 33.2324C148.347 33.8184 148.446 34.46 148.446 35.1572V35.3418C148.446 36.0332 148.347 36.6748 148.147 37.2666C147.948 37.8525 147.655 38.3652 147.269 38.8047C146.888 39.2383 146.419 39.5752 145.862 39.8154C145.306 40.0557 144.667 40.1758 143.946 40.1758C143.226 40.1758 142.584 40.0557 142.021 39.8154C141.465 39.5752 140.993 39.2383 140.606 38.8047C140.226 38.3652 139.936 37.8525 139.736 37.2666C139.537 36.6748 139.438 36.0332 139.438 35.3418ZM141.969 35.1572V35.3418C141.969 35.7402 142.004 36.1123 142.074 36.458C142.145 36.8037 142.256 37.1084 142.408 37.3721C142.566 37.6299 142.771 37.832 143.023 37.9785C143.275 38.125 143.583 38.1982 143.946 38.1982C144.298 38.1982 144.6 38.125 144.852 37.9785C145.104 37.832 145.306 37.6299 145.458 37.3721C145.61 37.1084 145.722 36.8037 145.792 36.458C145.868 36.1123 145.906 35.7402 145.906 35.3418V35.1572C145.906 34.7705 145.868 34.4072 145.792 34.0674C145.722 33.7217 145.607 33.417 145.449 33.1533C145.297 32.8838 145.095 32.6729 144.843 32.5205C144.591 32.3682 144.286 32.292 143.929 32.292C143.571 32.292 143.267 32.3682 143.015 32.5205C142.769 32.6729 142.566 32.8838 142.408 33.1533C142.256 33.417 142.145 33.7217 142.074 34.0674C142.004 34.4072 141.969 34.7705 141.969 35.1572ZM154.739 36.0273H151.76L151.742 34.3662H154.203C154.531 34.3662 154.798 34.334 155.003 34.2695C155.208 34.1992 155.357 34.0967 155.451 33.9619C155.551 33.8213 155.601 33.6514 155.601 33.4521C155.601 33.2764 155.568 33.127 155.504 33.0039C155.445 32.875 155.354 32.7695 155.231 32.6875C155.108 32.6055 154.953 32.5469 154.766 32.5117C154.584 32.4707 154.37 32.4502 154.124 32.4502H152.7V40H150.169V30.4902H154.124C154.745 30.4902 155.302 30.5459 155.794 30.6572C156.286 30.7627 156.705 30.9238 157.051 31.1406C157.402 31.3574 157.669 31.6328 157.851 31.9668C158.038 32.2949 158.132 32.6846 158.132 33.1357C158.132 33.4287 158.064 33.7041 157.93 33.9619C157.801 34.2197 157.607 34.4482 157.35 34.6475C157.092 34.8467 156.772 35.0107 156.392 35.1396C156.017 35.2627 155.583 35.3389 155.091 35.3682L154.739 36.0273ZM154.739 40H151.136L152.006 38.04H154.739C155.05 38.04 155.305 38.002 155.504 37.9258C155.703 37.8496 155.85 37.7383 155.943 37.5918C156.043 37.4395 156.093 37.2578 156.093 37.0469C156.093 36.8418 156.049 36.6631 155.961 36.5107C155.873 36.3584 155.729 36.2412 155.53 36.1592C155.337 36.0713 155.073 36.0273 154.739 36.0273H152.375L152.393 34.3662H155.082L155.697 35.0342C156.365 35.0752 156.916 35.2012 157.35 35.4121C157.783 35.623 158.103 35.8926 158.308 36.2207C158.519 36.543 158.624 36.8975 158.624 37.2842C158.624 37.7354 158.539 38.1309 158.369 38.4707C158.199 38.8105 157.947 39.0947 157.613 39.3232C157.285 39.5459 156.881 39.7158 156.4 39.833C155.92 39.9443 155.366 40 154.739 40ZM166.376 30.4902H168.907L168.828 33.6719C168.805 34.6914 168.688 35.5674 168.477 36.2998C168.266 37.0322 167.984 37.6475 167.633 38.1455C167.281 38.6436 166.88 39.042 166.429 39.3408C165.983 39.6338 165.515 39.8535 165.022 40H164.548L164.521 38.0488L164.785 38.0225C165.084 37.7119 165.33 37.4102 165.523 37.1172C165.717 36.8184 165.866 36.5049 165.972 36.1768C166.077 35.8486 166.153 35.4824 166.2 35.0781C166.253 34.6738 166.285 34.2051 166.297 33.6719L166.376 30.4902ZM167.062 30.4902H173.363V40H170.841V32.5205H167.062V30.4902ZM163.968 38.0225H174.726V42.8564H172.194V40H166.561V42.8564H163.968V38.0225ZM182.416 30.4902V32.4766H177.74V30.4902H182.416ZM184.271 30.4902V40H181.739V30.4902H184.271ZM177.107 30.4902H179.595L179.34 35.2891C179.305 35.9746 179.231 36.5781 179.12 37.0996C179.009 37.6211 178.859 38.0664 178.672 38.4355C178.49 38.8047 178.271 39.1064 178.013 39.3408C177.761 39.5693 177.465 39.7363 177.125 39.8418C176.791 39.9473 176.422 40 176.018 40H175.244L175.218 38.0049L175.543 37.9697C175.73 37.9521 175.895 37.8994 176.035 37.8115C176.182 37.7178 176.305 37.5859 176.404 37.416C176.51 37.2402 176.598 37.0205 176.668 36.7568C176.738 36.4873 176.794 36.1709 176.835 35.8076C176.882 35.4443 176.914 35.0254 176.932 34.5508L177.107 30.4902ZM188.278 35.2539H190.845L188.199 40H185.642L188.278 35.2539ZM189.983 30.4902H194.158V40H191.627V32.4502H189.983C189.638 32.4502 189.351 32.5146 189.122 32.6436C188.894 32.7666 188.724 32.9277 188.612 33.127C188.507 33.3203 188.454 33.5195 188.454 33.7246C188.454 33.9238 188.507 34.1172 188.612 34.3047C188.718 34.4922 188.882 34.6475 189.104 34.7705C189.327 34.8936 189.605 34.9551 189.939 34.9551H192.567V36.6777H189.939C189.312 36.6777 188.75 36.6016 188.252 36.4492C187.76 36.2969 187.338 36.0859 186.986 35.8164C186.641 35.541 186.374 35.2217 186.187 34.8584C186.005 34.4893 185.914 34.085 185.914 33.6455C185.914 33.1885 186.008 32.7695 186.195 32.3887C186.383 32.0078 186.652 31.6738 187.004 31.3867C187.355 31.0996 187.78 30.8799 188.278 30.7275C188.782 30.5693 189.351 30.4902 189.983 30.4902ZM205.522 36.0273H202.543L202.525 34.3662H204.986C205.314 34.3662 205.581 34.334 205.786 34.2695C205.991 34.1992 206.141 34.0967 206.234 33.9619C206.334 33.8213 206.384 33.6514 206.384 33.4521C206.384 33.2764 206.352 33.127 206.287 33.0039C206.229 32.875 206.138 32.7695 206.015 32.6875C205.892 32.6055 205.736 32.5469 205.549 32.5117C205.367 32.4707 205.153 32.4502 204.907 32.4502H203.483V40H200.952V30.4902H204.907C205.528 30.4902 206.085 30.5459 206.577 30.6572C207.069 30.7627 207.488 30.9238 207.834 31.1406C208.186 31.3574 208.452 31.6328 208.634 31.9668C208.821 32.2949 208.915 32.6846 208.915 33.1357C208.915 33.4287 208.848 33.7041 208.713 33.9619C208.584 34.2197 208.391 34.4482 208.133 34.6475C207.875 34.8467 207.556 35.0107 207.175 35.1396C206.8 35.2627 206.366 35.3389 205.874 35.3682L205.522 36.0273ZM205.522 40H201.919L202.789 38.04H205.522C205.833 38.04 206.088 38.002 206.287 37.9258C206.486 37.8496 206.633 37.7383 206.727 37.5918C206.826 37.4395 206.876 37.2578 206.876 37.0469C206.876 36.8418 206.832 36.6631 206.744 36.5107C206.656 36.3584 206.513 36.2412 206.313 36.1592C206.12 36.0713 205.856 36.0273 205.522 36.0273H203.158L203.176 34.3662H205.865L206.48 35.0342C207.148 35.0752 207.699 35.2012 208.133 35.4121C208.566 35.623 208.886 35.8926 209.091 36.2207C209.302 36.543 209.407 36.8975 209.407 37.2842C209.407 37.7354 209.322 38.1309 209.152 38.4707C208.982 38.8105 208.73 39.0947 208.396 39.3232C208.068 39.5459 207.664 39.7158 207.184 39.833C206.703 39.9443 206.149 40 205.522 40ZM210.559 35.3418V35.1572C210.559 34.46 210.658 33.8184 210.857 33.2324C211.057 32.6406 211.347 32.1279 211.728 31.6943C212.108 31.2607 212.577 30.9238 213.134 30.6836C213.69 30.4375 214.329 30.3145 215.05 30.3145C215.771 30.3145 216.412 30.4375 216.975 30.6836C217.537 30.9238 218.009 31.2607 218.39 31.6943C218.776 32.1279 219.069 32.6406 219.269 33.2324C219.468 33.8184 219.567 34.46 219.567 35.1572V35.3418C219.567 36.0332 219.468 36.6748 219.269 37.2666C219.069 37.8525 218.776 38.3652 218.39 38.8047C218.009 39.2383 217.54 39.5752 216.983 39.8154C216.427 40.0557 215.788 40.1758 215.067 40.1758C214.347 40.1758 213.705 40.0557 213.143 39.8154C212.586 39.5752 212.114 39.2383 211.728 38.8047C211.347 38.3652 211.057 37.8525 210.857 37.2666C210.658 36.6748 210.559 36.0332 210.559 35.3418ZM213.09 35.1572V35.3418C213.09 35.7402 213.125 36.1123 213.195 36.458C213.266 36.8037 213.377 37.1084 213.529 37.3721C213.688 37.6299 213.893 37.832 214.145 37.9785C214.396 38.125 214.704 38.1982 215.067 38.1982C215.419 38.1982 215.721 38.125 215.973 37.9785C216.225 37.832 216.427 37.6299 216.579 37.3721C216.731 37.1084 216.843 36.8037 216.913 36.458C216.989 36.1123 217.027 35.7402 217.027 35.3418V35.1572C217.027 34.7705 216.989 34.4072 216.913 34.0674C216.843 33.7217 216.729 33.417 216.57 33.1533C216.418 32.8838 216.216 32.6729 215.964 32.5205C215.712 32.3682 215.407 32.292 215.05 32.292C214.692 32.292 214.388 32.3682 214.136 32.5205C213.89 32.6729 213.688 32.8838 213.529 33.1533C213.377 33.417 213.266 33.7217 213.195 34.0674C213.125 34.4072 213.09 34.7705 213.09 35.1572ZM222.204 30.4902H224.735L224.656 33.6719C224.633 34.6914 224.516 35.5674 224.305 36.2998C224.094 37.0322 223.812 37.6475 223.461 38.1455C223.109 38.6436 222.708 39.042 222.257 39.3408C221.812 39.6338 221.343 39.8535 220.851 40H220.376L220.35 38.0488L220.613 38.0225C220.912 37.7119 221.158 37.4102 221.352 37.1172C221.545 36.8184 221.694 36.5049 221.8 36.1768C221.905 35.8486 221.981 35.4824 222.028 35.0781C222.081 34.6738 222.113 34.2051 222.125 33.6719L222.204 30.4902ZM222.89 30.4902H229.191V40H226.669V32.5205H222.89V30.4902ZM219.796 38.0225H230.554V42.8564H228.022V40H222.389V42.8564H219.796V38.0225ZM233.595 33.3115H236.354C237.222 33.3115 237.96 33.4551 238.569 33.7422C239.185 34.0234 239.653 34.416 239.976 34.9199C240.304 35.4238 240.468 36.0068 240.468 36.6689C240.468 37.1494 240.374 37.5947 240.187 38.0049C240.005 38.4092 239.738 38.7607 239.387 39.0596C239.035 39.3584 238.604 39.5898 238.095 39.7539C237.585 39.918 237.005 40 236.354 40H232.013V30.4902H234.553V38.0312H236.354C236.735 38.0312 237.04 37.9697 237.269 37.8467C237.503 37.7178 237.673 37.5508 237.778 37.3457C237.89 37.1406 237.945 36.918 237.945 36.6777C237.945 36.4258 237.89 36.1973 237.778 35.9922C237.673 35.7812 237.503 35.6113 237.269 35.4824C237.04 35.3535 236.735 35.2891 236.354 35.2891H233.595V33.3115ZM244.528 30.4902V40H241.997V30.4902H244.528Z" fill="#32B2FF"/>
<path fill-rule="evenodd" clip-rule="evenodd" d="M33.5092 52.4564L35.5545 51.7747C36.0023 51.6262 36.4928 51.7724 36.7875 52.1392C37.4693 52.9897 38.241 53.7637 39.0892 54.4477C39.4312 54.7222 39.582 55.1699 39.4762 55.5929C39.4178 55.8269 39.3548 56.0587 39.2873 56.2859L38.9183 57.3997L38.9048 57.4357C36.4725 63.9674 30.177 68.6249 22.8038 68.6249C13.3222 68.6249 5.625 60.9277 5.625 51.4462C5.625 36.5849 20.1915 7.08295 21.8048 3.9802C22.0567 3.49645 22.6215 3.26245 23.1435 3.4267C23.6655 3.5932 23.9918 4.1107 23.9175 4.65295C23.8095 5.4427 24.336 6.9547 25.1393 9.00895C27.2453 14.3909 31.4955 22.9567 34.8975 31.5584C35.0573 31.9657 34.9695 32.4269 34.668 32.7442C34.371 33.0592 33.921 33.1762 33.5092 33.0434C33.1807 33.5497 32.877 34.0739 32.6025 34.6117L34.2157 36.0449C34.5667 36.3577 34.6882 36.8572 34.5173 37.2937C34.1167 38.3219 33.831 39.3884 33.6623 40.4774C33.5925 40.9432 33.2393 41.3144 32.778 41.4112L30.6652 41.8432C30.6337 42.4484 30.6337 43.0514 30.6652 43.6567L32.778 44.0887C33.2393 44.1854 33.5925 44.5567 33.6623 45.0224C33.831 46.1114 34.1167 47.1779 34.5173 48.2062C34.6882 48.6427 34.5667 49.1422 34.2157 49.4549L32.6025 50.8882C32.877 51.4259 33.1807 51.9479 33.5092 52.4564ZM22.356 7.9222C18.2992 16.2584 7.875 39.0464 7.875 51.4462C7.875 59.6857 14.5643 66.3749 22.8038 66.3749C29.2073 66.3749 34.6725 62.3339 36.792 56.6662L37.107 55.7189C36.5513 55.2307 36.0292 54.7064 35.541 54.1507L33.4125 54.8594C32.9423 55.0147 32.4292 54.8482 32.1413 54.4454C31.3853 53.3879 30.7327 52.2607 30.195 51.0772C29.9925 50.6272 30.1028 50.0962 30.4718 49.7699L32.1502 48.2804C31.914 47.5807 31.7228 46.8652 31.5765 46.1407L29.3783 45.6884C28.8967 45.5894 28.5345 45.1867 28.485 44.6962C28.3612 43.4024 28.3612 42.0974 28.485 40.8037C28.5345 40.3132 28.8967 39.9104 29.3783 39.8114L31.5765 39.3592C31.7228 38.6347 31.914 37.9214 32.1502 37.2194L30.4718 35.7299C30.1028 35.4037 29.9925 34.8727 30.195 34.4227C30.7327 33.2392 31.3853 32.1119 32.1413 31.0544C32.1682 31.0162 32.1975 30.9802 32.2267 30.9464C28.935 22.8352 25.0312 14.9129 23.0445 9.82795C22.7767 9.1462 22.5472 8.50945 22.356 7.9222Z" fill="#32B2FF"/>
<path fill-rule="evenodd" clip-rule="evenodd" d="M45.1196 25.8188L45.5696 23.6206C45.6686 23.1368 46.0714 22.7746 46.5641 22.7273C47.8579 22.6013 49.1606 22.6013 50.4544 22.7273C50.9449 22.7746 51.3476 23.1368 51.4466 23.6206L51.8989 25.8188C52.6234 25.9628 53.3389 26.1541 54.0386 26.3926L55.5281 24.7141C55.8566 24.3451 56.3854 24.2326 56.8354 24.4373C58.0189 24.9751 59.1461 25.6276 60.2059 26.3836C60.6064 26.6693 60.7729 27.1846 60.6176 27.6526L59.9111 29.7811C60.4646 30.2693 60.9889 30.7936 61.4771 31.3493L63.6056 30.6406C64.0736 30.4853 64.5889 30.6518 64.8769 31.0546C65.6306 32.1121 66.2831 33.2393 66.8209 34.4228C67.0256 34.8728 66.9131 35.4038 66.5441 35.7301L64.8679 37.2196C65.1041 37.9193 65.2954 38.6348 65.4394 39.3593L67.6376 39.8116C68.1214 39.9106 68.4836 40.3133 68.5309 40.8038C68.6569 42.0976 68.6569 43.4026 68.5309 44.6963C68.4836 45.1868 68.1214 45.5896 67.6376 45.6886L65.4394 46.1408C65.2954 46.8653 65.1041 47.5786 64.8679 48.2806L66.5441 49.7701C66.9131 50.0963 67.0256 50.6273 66.8209 51.0773C66.2831 52.2608 65.6306 53.3881 64.8769 54.4456C64.5889 54.8483 64.0736 55.0148 63.6056 54.8596L61.4771 54.1508C60.9889 54.7066 60.4669 55.2308 59.9111 55.7191L60.6176 57.8476C60.7729 58.3156 60.6064 58.8308 60.2059 59.1166C59.1461 59.8726 58.0189 60.5251 56.8354 61.0628C56.3854 61.2676 55.8566 61.1551 55.5281 60.7861L54.0386 59.1076C53.3389 59.3461 52.6234 59.5373 51.8989 59.6813L51.4466 61.8796C51.3476 62.3633 50.9449 62.7256 50.4544 62.7728C49.1606 62.8988 47.8579 62.8988 46.5641 62.7728C46.0714 62.7256 45.6686 62.3633 45.5696 61.8796L45.1196 59.6813C44.3929 59.5373 43.6796 59.3461 42.9799 59.1076L41.4904 60.7861C41.1619 61.1551 40.6309 61.2676 40.1831 61.0628C38.9996 60.5251 37.8701 59.8726 36.8126 59.1166C36.4121 58.8308 36.2434 58.3156 36.3986 57.8476L37.1074 55.7191C36.5516 55.2308 36.0296 54.7066 35.5414 54.1508L33.4129 54.8596C32.9426 55.0148 32.4296 54.8483 32.1416 54.4456C31.3856 53.3881 30.7331 52.2608 30.1954 51.0773C29.9929 50.6273 30.1031 50.0963 30.4721 49.7701L32.1506 48.2806C31.9144 47.5808 31.7231 46.8653 31.5769 46.1408L29.3786 45.6886C28.8971 45.5896 28.5349 45.1868 28.4854 44.6963C28.3616 43.4026 28.3616 42.0976 28.4854 40.8038C28.5349 40.3133 28.8971 39.9106 29.3786 39.8116L31.5769 39.3593C31.7231 38.6348 31.9144 37.9216 32.1506 37.2196L30.4721 35.7301C30.1031 35.4038 29.9929 34.8728 30.1954 34.4228C30.7331 33.2393 31.3856 32.1121 32.1416 31.0546C32.4296 30.6518 32.9426 30.4853 33.4129 30.6406L35.5414 31.3493C36.0274 30.7936 36.5516 30.2693 37.1074 29.7811L36.3986 27.6526C36.2434 27.1846 36.4121 26.6693 36.8126 26.3836C37.8701 25.6276 38.9996 24.9751 40.1831 24.4373C40.6309 24.2326 41.1619 24.3451 41.4904 24.7141L42.9799 26.3926C43.6796 26.1541 44.3929 25.9628 45.1196 25.8188ZM49.4149 24.9076C48.8119 24.8761 48.2066 24.8761 47.6036 24.9076L47.1694 27.0203C47.0749 27.4793 46.7014 27.8348 46.2379 27.9046C45.1489 28.0711 44.0801 28.3568 43.0541 28.7573C42.6154 28.9283 42.1159 28.8091 41.8031 28.4558L40.3721 26.8448C39.8344 27.1193 39.3101 27.4208 38.8016 27.7493L39.4834 29.7968C39.6319 30.2423 39.4856 30.7351 39.1189 31.0298C38.2594 31.7183 37.4764 32.5013 36.7879 33.3608C36.4931 33.7276 36.0026 33.8738 35.5549 33.7253L33.5096 33.0436C33.1811 33.5521 32.8774 34.0741 32.6029 34.6118L34.2161 36.0451C34.5671 36.3578 34.6886 36.8573 34.5176 37.2938C34.1171 38.3221 33.8314 39.3886 33.6626 40.4776C33.5929 40.9433 33.2396 41.3146 32.7784 41.4113L30.6656 41.8433C30.6341 42.4486 30.6341 43.0516 30.6656 43.6568L32.7784 44.0888C33.2396 44.1856 33.5929 44.5568 33.6626 45.0226C33.8314 46.1116 34.1171 47.1781 34.5176 48.2063C34.6886 48.6428 34.5671 49.1423 34.2161 49.4551L32.6029 50.8883C32.8774 51.4261 33.1811 51.9481 33.5096 52.4566L35.5549 51.7748C36.0026 51.6263 36.4931 51.7726 36.7879 52.1393C37.4764 52.9988 38.2594 53.7818 39.1189 54.4703C39.4856 54.7651 39.6319 55.2578 39.4834 55.7033L38.8016 57.7508C39.3101 58.0793 39.8344 58.3808 40.3721 58.6553L41.8031 57.0443C42.1159 56.6911 42.6154 56.5718 43.0541 56.7428C44.0801 57.1433 45.1489 57.4291 46.2379 57.5956C46.7014 57.6653 47.0749 58.0208 47.1694 58.4798L47.6036 60.5926C48.2066 60.6241 48.8119 60.6241 49.4149 60.5926L49.8491 58.4798C49.9436 58.0208 50.3149 57.6653 50.7806 57.5956C51.8696 57.4291 52.9384 57.1433 53.9644 56.7428C54.4031 56.5718 54.9004 56.6911 55.2131 57.0443L56.6464 58.6553C57.1841 58.3808 57.7084 58.0793 58.2146 57.7508L57.5351 55.7033C57.3866 55.2578 57.5306 54.7651 57.8996 54.4703C58.7591 53.7818 59.5399 52.9988 60.2284 52.1393C60.5231 51.7726 61.0159 51.6263 61.4614 51.7748L63.5089 52.4566C63.8374 51.9481 64.1389 51.4261 64.4156 50.8883L62.8024 49.4551C62.4491 49.1423 62.3299 48.6428 62.5009 48.2063C62.9014 47.1781 63.1871 46.1116 63.3536 45.0226C63.4256 44.5568 63.7789 44.1856 64.2401 44.0888L66.3529 43.6568C66.3821 43.0516 66.3821 42.4486 66.3529 41.8433L64.2401 41.4113C63.7789 41.3146 63.4256 40.9433 63.3536 40.4776C63.1871 39.3886 62.9014 38.3221 62.5009 37.2938C62.3299 36.8573 62.4491 36.3578 62.8024 36.0451L64.4156 34.6118C64.1389 34.0741 63.8374 33.5521 63.5089 33.0436L61.4614 33.7253C61.0159 33.8738 60.5231 33.7276 60.2284 33.3608C59.5399 32.5013 58.7591 31.7183 57.8996 31.0298C57.5306 30.7351 57.3866 30.2423 57.5351 29.7968L58.2146 27.7493C57.7084 27.4208 57.1841 27.1193 56.6464 26.8448L55.2131 28.4558C54.9004 28.8091 54.4031 28.9283 53.9644 28.7573C52.9384 28.3568 51.8696 28.0711 50.7806 27.9046C50.3149 27.8348 49.9436 27.4793 49.8491 27.0203L49.4149 24.9076ZM48.5081 34.6816C44.0554 34.6816 40.4396 38.2973 40.4396 42.7501C40.4396 47.2028 44.0554 50.8186 48.5081 50.8186C52.9609 50.8186 56.5766 47.2028 56.5766 42.7501C56.5766 38.2973 52.9609 34.6816 48.5081 34.6816ZM48.5081 36.9316C51.7189 36.9316 54.3266 39.5393 54.3266 42.7501C54.3266 45.9608 51.7189 48.5686 48.5081 48.5686C45.2974 48.5686 42.6896 45.9608 42.6896 42.7501C42.6896 39.5393 45.2974 36.9316 48.5081 36.9316Z" fill="#32B2FF"/>
<path fill-rule="evenodd" clip-rule="evenodd" d="M12.4406 44.2442C12.4406 44.2442 7.52885 58.2009 19.9354 61.8302C20.5316 62.0034 21.1549 61.6614 21.3303 61.0652C21.5036 60.4689 21.1616 59.8457 20.5654 59.6702C10.2806 56.6619 14.5601 45.0047 14.5601 45.0047C14.7694 44.4197 14.4656 43.7762 13.8806 43.5647C13.2956 43.3554 12.6521 43.6592 12.4406 44.2442Z" fill="#32B2FF"/>
</svg>
