<svg width="358" height="34" viewBox="0 0 358 34" fill="none" xmlns="http://www.w3.org/2000/svg">
<path d="M45.9961 3.04688V13H43.9453V4.65332H39.9463V13H37.8955V3.04688H45.9961ZM47.3496 9.37695V9.2334C47.3496 8.69108 47.4271 8.19206 47.582 7.73633C47.737 7.27604 47.9626 6.87728 48.2588 6.54004C48.555 6.2028 48.9196 5.94076 49.3525 5.75391C49.7855 5.5625 50.2822 5.4668 50.8428 5.4668C51.4033 5.4668 51.9023 5.5625 52.3398 5.75391C52.7773 5.94076 53.1442 6.2028 53.4404 6.54004C53.7412 6.87728 53.9691 7.27604 54.124 7.73633C54.279 8.19206 54.3564 8.69108 54.3564 9.2334V9.37695C54.3564 9.91471 54.279 10.4137 54.124 10.874C53.9691 11.3298 53.7412 11.7285 53.4404 12.0703C53.1442 12.4076 52.7796 12.6696 52.3467 12.8564C51.9137 13.0433 51.417 13.1367 50.8564 13.1367C50.2959 13.1367 49.7969 13.0433 49.3594 12.8564C48.9264 12.6696 48.5596 12.4076 48.2588 12.0703C47.9626 11.7285 47.737 11.3298 47.582 10.874C47.4271 10.4137 47.3496 9.91471 47.3496 9.37695ZM49.3184 9.2334V9.37695C49.3184 9.68685 49.3457 9.97624 49.4004 10.2451C49.4551 10.514 49.5417 10.751 49.6602 10.9561C49.7832 11.1566 49.9427 11.3138 50.1387 11.4277C50.3346 11.5417 50.5739 11.5986 50.8564 11.5986C51.1299 11.5986 51.3646 11.5417 51.5605 11.4277C51.7565 11.3138 51.9137 11.1566 52.0322 10.9561C52.1507 10.751 52.2373 10.514 52.292 10.2451C52.3512 9.97624 52.3809 9.68685 52.3809 9.37695V9.2334C52.3809 8.93262 52.3512 8.65007 52.292 8.38574C52.2373 8.11686 52.1484 7.87988 52.0254 7.6748C51.9069 7.46517 51.7497 7.30111 51.5537 7.18262C51.3577 7.06413 51.1208 7.00488 50.8428 7.00488C50.5648 7.00488 50.3278 7.06413 50.1318 7.18262C49.9404 7.30111 49.7832 7.46517 49.6602 7.6748C49.5417 7.87988 49.4551 8.11686 49.4004 8.38574C49.3457 8.65007 49.3184 8.93262 49.3184 9.2334ZM56.4072 5.60352H58.376L58.3145 8.07812C58.2962 8.87109 58.2051 9.55241 58.041 10.1221C57.877 10.6917 57.6582 11.1702 57.3848 11.5576C57.1113 11.945 56.7992 12.2549 56.4482 12.4873C56.1019 12.7152 55.7373 12.8861 55.3545 13H54.9854L54.9648 11.4824L55.1699 11.4619C55.4023 11.2204 55.5938 10.9857 55.7441 10.7578C55.8945 10.5254 56.0107 10.2816 56.0928 10.0264C56.1748 9.77116 56.234 9.48633 56.2705 9.17188C56.3115 8.85742 56.3366 8.49284 56.3457 8.07812L56.4072 5.60352ZM56.9404 5.60352H61.8418V13H59.8799V7.18262H56.9404V5.60352ZM54.5342 11.4619H62.9014V15.2217H60.9326V13H56.5508V15.2217H54.5342V11.4619ZM68.4385 2.34961H70.0312C70.0312 2.71875 69.9857 3.03548 69.8945 3.2998C69.8034 3.55957 69.6576 3.78288 69.457 3.96973C69.2565 4.15202 68.9876 4.30697 68.6504 4.43457C68.3132 4.56217 67.8962 4.67155 67.3994 4.7627C67.0166 4.84017 66.6839 4.96777 66.4014 5.14551C66.1234 5.32324 65.8932 5.56706 65.7109 5.87695C65.5332 6.18229 65.4056 6.56966 65.3281 7.03906C65.2507 7.50391 65.2233 8.06445 65.2461 8.7207V9.04883L63.7148 9.26074V8.93262C63.7194 8.03939 63.7992 7.26237 63.9541 6.60156C64.1136 5.94076 64.3392 5.38477 64.6309 4.93359C64.9225 4.47786 65.2734 4.11556 65.6836 3.84668C66.0938 3.57324 66.5495 3.38184 67.0508 3.27246C67.388 3.19954 67.6569 3.12891 67.8574 3.06055C68.0625 2.98763 68.2106 2.89648 68.3018 2.78711C68.3929 2.67773 68.4385 2.5319 68.4385 2.34961ZM67.5771 6.02051C68.0785 6.02051 68.5228 6.1071 68.9102 6.28027C69.2975 6.44889 69.6234 6.68815 69.8877 6.99805C70.152 7.30794 70.3525 7.67253 70.4893 8.0918C70.626 8.51107 70.6943 8.96908 70.6943 9.46582V9.60938C70.6943 10.1152 70.6169 10.5846 70.4619 11.0176C70.3115 11.446 70.0882 11.8197 69.792 12.1387C69.4958 12.4577 69.1312 12.7061 68.6982 12.8838C68.2653 13.057 67.7708 13.1436 67.2148 13.1436C66.6543 13.1436 66.1553 13.0501 65.7178 12.8633C65.2848 12.6719 64.918 12.4053 64.6172 12.0635C64.321 11.7171 64.0954 11.3138 63.9404 10.8535C63.79 10.3887 63.7148 9.88281 63.7148 9.33594V9.18555C63.7148 9.10807 63.749 9.03288 63.8174 8.95996C63.8903 8.88249 63.9746 8.7959 64.0703 8.7002C64.1706 8.60449 64.2594 8.48372 64.3369 8.33789C64.6104 7.83203 64.9089 7.4082 65.2324 7.06641C65.556 6.72005 65.9092 6.46029 66.292 6.28711C66.6794 6.10938 67.1077 6.02051 67.5771 6.02051ZM67.2012 7.55859C66.832 7.55859 66.5358 7.64746 66.3125 7.8252C66.0892 7.99837 65.9274 8.23079 65.8271 8.52246C65.7314 8.80957 65.6836 9.12402 65.6836 9.46582V9.60938C65.6836 9.88737 65.7109 10.1471 65.7656 10.3887C65.8203 10.6257 65.9069 10.8376 66.0254 11.0244C66.1439 11.2067 66.3011 11.3503 66.4971 11.4551C66.693 11.5553 66.9323 11.6055 67.2148 11.6055C67.4883 11.6055 67.7207 11.5553 67.9121 11.4551C68.1081 11.3503 68.2653 11.2067 68.3838 11.0244C68.5023 10.8376 68.5889 10.6257 68.6436 10.3887C68.6982 10.1471 68.7256 9.88737 68.7256 9.60938V9.46582C68.7256 9.20605 68.6982 8.96224 68.6436 8.73438C68.5889 8.50195 68.5023 8.29915 68.3838 8.12598C68.2653 7.94824 68.1081 7.80924 67.9121 7.70898C67.7161 7.60872 67.4792 7.55859 67.2012 7.55859ZM71.5762 9.37695V9.2334C71.5762 8.69108 71.6536 8.19206 71.8086 7.73633C71.9635 7.27604 72.1891 6.87728 72.4854 6.54004C72.7816 6.2028 73.1462 5.94076 73.5791 5.75391C74.012 5.5625 74.5088 5.4668 75.0693 5.4668C75.6299 5.4668 76.1289 5.5625 76.5664 5.75391C77.0039 5.94076 77.3708 6.2028 77.667 6.54004C77.9678 6.87728 78.1956 7.27604 78.3506 7.73633C78.5055 8.19206 78.583 8.69108 78.583 9.2334V9.37695C78.583 9.91471 78.5055 10.4137 78.3506 10.874C78.1956 11.3298 77.9678 11.7285 77.667 12.0703C77.3708 12.4076 77.0062 12.6696 76.5732 12.8564C76.1403 13.0433 75.6436 13.1367 75.083 13.1367C74.5225 13.1367 74.0234 13.0433 73.5859 12.8564C73.153 12.6696 72.7861 12.4076 72.4854 12.0703C72.1891 11.7285 71.9635 11.3298 71.8086 10.874C71.6536 10.4137 71.5762 9.91471 71.5762 9.37695ZM73.5449 9.2334V9.37695C73.5449 9.68685 73.5723 9.97624 73.627 10.2451C73.6816 10.514 73.7682 10.751 73.8867 10.9561C74.0098 11.1566 74.1693 11.3138 74.3652 11.4277C74.5612 11.5417 74.8005 11.5986 75.083 11.5986C75.3564 11.5986 75.5911 11.5417 75.7871 11.4277C75.9831 11.3138 76.1403 11.1566 76.2588 10.9561C76.3773 10.751 76.4639 10.514 76.5186 10.2451C76.5778 9.97624 76.6074 9.68685 76.6074 9.37695V9.2334C76.6074 8.93262 76.5778 8.65007 76.5186 8.38574C76.4639 8.11686 76.375 7.87988 76.252 7.6748C76.1335 7.46517 75.9762 7.30111 75.7803 7.18262C75.5843 7.06413 75.3473 7.00488 75.0693 7.00488C74.7913 7.00488 74.5544 7.06413 74.3584 7.18262C74.167 7.30111 74.0098 7.46517 73.8867 7.6748C73.7682 7.87988 73.6816 8.11686 73.627 8.38574C73.5723 8.65007 73.5449 8.93262 73.5449 9.2334ZM81.7617 7.02539V15.8438H79.793V5.60352H81.6182L81.7617 7.02539ZM86.4443 9.21973V9.36328C86.4443 9.90104 86.3805 10.4001 86.2529 10.8604C86.1299 11.3206 85.9476 11.7217 85.7061 12.0635C85.4645 12.4007 85.1637 12.665 84.8037 12.8564C84.4482 13.0433 84.0381 13.1367 83.5732 13.1367C83.1221 13.1367 82.7301 13.0456 82.3975 12.8633C82.0648 12.681 81.7845 12.4258 81.5566 12.0977C81.3333 11.765 81.1533 11.3799 81.0166 10.9424C80.8799 10.5049 80.7751 10.0355 80.7021 9.53418V9.1582C80.7751 8.62044 80.8799 8.12826 81.0166 7.68164C81.1533 7.23047 81.3333 6.84082 81.5566 6.5127C81.7845 6.18001 82.0625 5.92253 82.3906 5.74023C82.7233 5.55794 83.113 5.4668 83.5596 5.4668C84.029 5.4668 84.4414 5.55566 84.7969 5.7334C85.1569 5.91113 85.4577 6.16634 85.6992 6.49902C85.9453 6.83171 86.1299 7.22819 86.2529 7.68848C86.3805 8.14876 86.4443 8.65918 86.4443 9.21973ZM84.4688 9.36328V9.21973C84.4688 8.90527 84.4414 8.61589 84.3867 8.35156C84.3366 8.08268 84.2546 7.84798 84.1406 7.64746C84.0312 7.44694 83.8854 7.29199 83.7031 7.18262C83.5254 7.06868 83.3089 7.01172 83.0537 7.01172C82.7848 7.01172 82.5547 7.05501 82.3633 7.1416C82.1764 7.22819 82.0238 7.35352 81.9053 7.51758C81.7868 7.68164 81.6979 7.8776 81.6387 8.10547C81.5794 8.33333 81.543 8.59082 81.5293 8.87793V9.82812C81.5521 10.1654 81.6159 10.4684 81.7207 10.7373C81.8255 11.0016 81.9873 11.2113 82.2061 11.3662C82.4248 11.5212 82.7119 11.5986 83.0674 11.5986C83.3271 11.5986 83.5459 11.5417 83.7236 11.4277C83.9014 11.3092 84.0449 11.1475 84.1543 10.9424C84.2682 10.7373 84.348 10.5003 84.3936 10.2314C84.4437 9.96257 84.4688 9.67318 84.4688 9.36328ZM89.5342 11.3389L89.5273 12.6582C89.5273 13.1641 89.3997 13.6745 89.1445 14.1895C88.8939 14.7044 88.5749 15.126 88.1875 15.4541L87.1621 14.9277C87.276 14.7181 87.3877 14.5085 87.4971 14.2988C87.6064 14.0892 87.6976 13.859 87.7705 13.6084C87.8434 13.3577 87.8799 13.0729 87.8799 12.7539V11.3389H89.5342ZM99.5762 5.60352V7.14844H95.9941V5.60352H99.5762ZM96.5615 5.60352V13H94.5928V5.60352H96.5615ZM101.012 5.60352V13H99.0361V5.60352H101.012ZM102.215 9.37695V9.2334C102.215 8.69108 102.292 8.19206 102.447 7.73633C102.602 7.27604 102.828 6.87728 103.124 6.54004C103.42 6.2028 103.785 5.94076 104.218 5.75391C104.651 5.5625 105.147 5.4668 105.708 5.4668C106.269 5.4668 106.768 5.5625 107.205 5.75391C107.643 5.94076 108.009 6.2028 108.306 6.54004C108.606 6.87728 108.834 7.27604 108.989 7.73633C109.144 8.19206 109.222 8.69108 109.222 9.2334V9.37695C109.222 9.91471 109.144 10.4137 108.989 10.874C108.834 11.3298 108.606 11.7285 108.306 12.0703C108.009 12.4076 107.645 12.6696 107.212 12.8564C106.779 13.0433 106.282 13.1367 105.722 13.1367C105.161 13.1367 104.662 13.0433 104.225 12.8564C103.792 12.6696 103.425 12.4076 103.124 12.0703C102.828 11.7285 102.602 11.3298 102.447 10.874C102.292 10.4137 102.215 9.91471 102.215 9.37695ZM104.184 9.2334V9.37695C104.184 9.68685 104.211 9.97624 104.266 10.2451C104.32 10.514 104.407 10.751 104.525 10.9561C104.648 11.1566 104.808 11.3138 105.004 11.4277C105.2 11.5417 105.439 11.5986 105.722 11.5986C105.995 11.5986 106.23 11.5417 106.426 11.4277C106.622 11.3138 106.779 11.1566 106.897 10.9561C107.016 10.751 107.103 10.514 107.157 10.2451C107.216 9.97624 107.246 9.68685 107.246 9.37695V9.2334C107.246 8.93262 107.216 8.65007 107.157 8.38574C107.103 8.11686 107.014 7.87988 106.891 7.6748C106.772 7.46517 106.615 7.30111 106.419 7.18262C106.223 7.06413 105.986 7.00488 105.708 7.00488C105.43 7.00488 105.193 7.06413 104.997 7.18262C104.806 7.30111 104.648 7.46517 104.525 7.6748C104.407 7.87988 104.32 8.11686 104.266 8.38574C104.211 8.65007 104.184 8.93262 104.184 9.2334ZM113.487 11.5986C113.729 11.5986 113.943 11.5531 114.13 11.4619C114.317 11.3662 114.463 11.234 114.567 11.0654C114.677 10.8923 114.734 10.6895 114.738 10.457H116.591C116.586 10.9766 116.447 11.4391 116.174 11.8447C115.9 12.2458 115.534 12.5625 115.073 12.7949C114.613 13.0228 114.098 13.1367 113.528 13.1367C112.954 13.1367 112.453 13.041 112.024 12.8496C111.601 12.6582 111.247 12.3939 110.965 12.0566C110.682 11.7148 110.47 11.3184 110.329 10.8672C110.188 10.4115 110.117 9.92383 110.117 9.4043V9.20605C110.117 8.68197 110.188 8.19434 110.329 7.74316C110.47 7.28743 110.682 6.89095 110.965 6.55371C111.247 6.21191 111.601 5.94531 112.024 5.75391C112.448 5.5625 112.945 5.4668 113.515 5.4668C114.121 5.4668 114.652 5.58301 115.107 5.81543C115.568 6.04785 115.928 6.38053 116.188 6.81348C116.452 7.24186 116.586 7.75 116.591 8.33789H114.738C114.734 8.0918 114.681 7.86849 114.581 7.66797C114.485 7.46745 114.344 7.30794 114.157 7.18945C113.975 7.06641 113.749 7.00488 113.48 7.00488C113.193 7.00488 112.959 7.06641 112.776 7.18945C112.594 7.30794 112.453 7.47201 112.353 7.68164C112.252 7.88672 112.182 8.12142 112.141 8.38574C112.104 8.64551 112.086 8.91895 112.086 9.20605V9.4043C112.086 9.69141 112.104 9.96712 112.141 10.2314C112.177 10.4958 112.245 10.7305 112.346 10.9355C112.451 11.1406 112.594 11.3024 112.776 11.4209C112.959 11.5394 113.196 11.5986 113.487 11.5986ZM121.499 5.60352V13H119.523V5.60352H121.499ZM123.878 5.60352V7.12793H117.179V5.60352H123.878ZM128.766 11.332V8.03711C128.766 7.80013 128.727 7.59733 128.649 7.42871C128.572 7.25553 128.451 7.12109 128.287 7.02539C128.128 6.92969 127.92 6.88184 127.665 6.88184C127.446 6.88184 127.257 6.92057 127.098 6.99805C126.938 7.07096 126.815 7.17806 126.729 7.31934C126.642 7.45605 126.599 7.61784 126.599 7.80469H124.63C124.63 7.49023 124.703 7.19173 124.849 6.90918C124.994 6.62663 125.206 6.37826 125.484 6.16406C125.762 5.94531 126.093 5.77441 126.476 5.65137C126.863 5.52832 127.296 5.4668 127.774 5.4668C128.349 5.4668 128.859 5.5625 129.306 5.75391C129.752 5.94531 130.103 6.23242 130.358 6.61523C130.618 6.99805 130.748 7.47656 130.748 8.05078V11.2158C130.748 11.6214 130.773 11.9541 130.823 12.2139C130.873 12.4691 130.946 12.6924 131.042 12.8838V13H129.053C128.957 12.7995 128.884 12.5488 128.834 12.248C128.788 11.9427 128.766 11.6374 128.766 11.332ZM129.025 8.49512L129.039 9.60938H127.938C127.679 9.60938 127.453 9.639 127.262 9.69824C127.07 9.75749 126.913 9.8418 126.79 9.95117C126.667 10.056 126.576 10.179 126.517 10.3203C126.462 10.4616 126.435 10.6165 126.435 10.7852C126.435 10.9538 126.473 11.1064 126.551 11.2432C126.628 11.3753 126.74 11.4801 126.886 11.5576C127.032 11.6305 127.202 11.667 127.398 11.667C127.695 11.667 127.952 11.6077 128.171 11.4893C128.39 11.3708 128.558 11.2249 128.677 11.0518C128.8 10.8786 128.864 10.7145 128.868 10.5596L129.388 11.3936C129.315 11.5804 129.215 11.7741 129.087 11.9746C128.964 12.1751 128.807 12.3643 128.615 12.542C128.424 12.7152 128.194 12.8587 127.925 12.9727C127.656 13.082 127.337 13.1367 126.968 13.1367C126.498 13.1367 126.072 13.0433 125.689 12.8564C125.311 12.665 125.01 12.403 124.787 12.0703C124.568 11.7331 124.459 11.3503 124.459 10.9219C124.459 10.5345 124.532 10.1904 124.678 9.88965C124.824 9.58887 125.038 9.33594 125.32 9.13086C125.607 8.92122 125.965 8.764 126.394 8.65918C126.822 8.5498 127.319 8.49512 127.884 8.49512H129.025ZM135.95 9.91016H133.633L133.619 8.61816H135.533C135.788 8.61816 135.996 8.5931 136.155 8.54297C136.315 8.48828 136.431 8.40853 136.504 8.30371C136.581 8.19434 136.62 8.06217 136.62 7.90723C136.62 7.77051 136.595 7.6543 136.545 7.55859C136.499 7.45833 136.429 7.3763 136.333 7.3125C136.237 7.2487 136.117 7.20312 135.971 7.17578C135.829 7.14388 135.663 7.12793 135.472 7.12793H134.364V13H132.396V5.60352H135.472C135.955 5.60352 136.388 5.64681 136.771 5.7334C137.153 5.81543 137.479 5.94076 137.748 6.10938C138.021 6.27799 138.229 6.49219 138.37 6.75195C138.516 7.00716 138.589 7.31022 138.589 7.66113C138.589 7.889 138.536 8.10319 138.432 8.30371C138.331 8.50423 138.181 8.68197 137.98 8.83691C137.78 8.99186 137.532 9.11947 137.235 9.21973C136.944 9.31543 136.606 9.37467 136.224 9.39746L135.95 9.91016ZM135.95 13H133.147L133.824 11.4756H135.95C136.192 11.4756 136.39 11.446 136.545 11.3867C136.7 11.3275 136.814 11.2409 136.887 11.127C136.964 11.0085 137.003 10.8672 137.003 10.7031C137.003 10.5436 136.969 10.4046 136.9 10.2861C136.832 10.1676 136.72 10.0765 136.565 10.0127C136.415 9.94434 136.21 9.91016 135.95 9.91016H134.111L134.125 8.61816H136.217L136.695 9.1377C137.215 9.1696 137.643 9.26758 137.98 9.43164C138.318 9.5957 138.566 9.80534 138.726 10.0605C138.89 10.3112 138.972 10.5869 138.972 10.8877C138.972 11.2386 138.906 11.5462 138.773 11.8105C138.641 12.0749 138.445 12.2959 138.186 12.4736C137.93 12.6468 137.616 12.779 137.242 12.8701C136.868 12.9567 136.438 13 135.95 13ZM142.28 5.60352V13H140.312V5.60352H142.28ZM147.086 5.60352L143.9 10.2314H141.932L141.692 8.41309H142.998L144.591 5.60352H147.086ZM144.68 13L142.861 9.87598L144.577 8.92578L147.318 13H144.68ZM152.049 11.332V8.03711C152.049 7.80013 152.01 7.59733 151.933 7.42871C151.855 7.25553 151.734 7.12109 151.57 7.02539C151.411 6.92969 151.203 6.88184 150.948 6.88184C150.729 6.88184 150.54 6.92057 150.381 6.99805C150.221 7.07096 150.098 7.17806 150.012 7.31934C149.925 7.45605 149.882 7.61784 149.882 7.80469H147.913C147.913 7.49023 147.986 7.19173 148.132 6.90918C148.278 6.62663 148.49 6.37826 148.768 6.16406C149.046 5.94531 149.376 5.77441 149.759 5.65137C150.146 5.52832 150.579 5.4668 151.058 5.4668C151.632 5.4668 152.142 5.5625 152.589 5.75391C153.035 5.94531 153.386 6.23242 153.642 6.61523C153.901 6.99805 154.031 7.47656 154.031 8.05078V11.2158C154.031 11.6214 154.056 11.9541 154.106 12.2139C154.157 12.4691 154.229 12.6924 154.325 12.8838V13H152.336C152.24 12.7995 152.167 12.5488 152.117 12.248C152.072 11.9427 152.049 11.6374 152.049 11.332ZM152.309 8.49512L152.322 9.60938H151.222C150.962 9.60938 150.736 9.639 150.545 9.69824C150.354 9.75749 150.196 9.8418 150.073 9.95117C149.95 10.056 149.859 10.179 149.8 10.3203C149.745 10.4616 149.718 10.6165 149.718 10.7852C149.718 10.9538 149.757 11.1064 149.834 11.2432C149.911 11.3753 150.023 11.4801 150.169 11.5576C150.315 11.6305 150.486 11.667 150.682 11.667C150.978 11.667 151.235 11.6077 151.454 11.4893C151.673 11.3708 151.841 11.2249 151.96 11.0518C152.083 10.8786 152.147 10.7145 152.151 10.5596L152.671 11.3936C152.598 11.5804 152.498 11.7741 152.37 11.9746C152.247 12.1751 152.09 12.3643 151.898 12.542C151.707 12.7152 151.477 12.8587 151.208 12.9727C150.939 13.082 150.62 13.1367 150.251 13.1367C149.782 13.1367 149.355 13.0433 148.973 12.8564C148.594 12.665 148.294 12.403 148.07 12.0703C147.852 11.7331 147.742 11.3503 147.742 10.9219C147.742 10.5345 147.815 10.1904 147.961 9.88965C148.107 9.58887 148.321 9.33594 148.604 9.13086C148.891 8.92122 149.248 8.764 149.677 8.65918C150.105 8.5498 150.602 8.49512 151.167 8.49512H152.309ZM160.997 10.252L163.479 5.60352H165.447V13H163.479V8.34473L160.997 13H159.028V5.60352H160.997V10.252ZM174.949 10.7373L176.891 5.60352H178.497L175.612 13H174.286L171.415 5.60352H173.021L174.949 10.7373ZM172.55 5.60352V13H170.581V5.60352H172.55ZM177.396 13V5.60352H179.365V13H177.396ZM180.773 9.37695V9.2334C180.773 8.69108 180.851 8.19206 181.006 7.73633C181.161 7.27604 181.386 6.87728 181.683 6.54004C181.979 6.2028 182.343 5.94076 182.776 5.75391C183.209 5.5625 183.706 5.4668 184.267 5.4668C184.827 5.4668 185.326 5.5625 185.764 5.75391C186.201 5.94076 186.568 6.2028 186.864 6.54004C187.165 6.87728 187.393 7.27604 187.548 7.73633C187.703 8.19206 187.78 8.69108 187.78 9.2334V9.37695C187.78 9.91471 187.703 10.4137 187.548 10.874C187.393 11.3298 187.165 11.7285 186.864 12.0703C186.568 12.4076 186.203 12.6696 185.771 12.8564C185.338 13.0433 184.841 13.1367 184.28 13.1367C183.72 13.1367 183.221 13.0433 182.783 12.8564C182.35 12.6696 181.983 12.4076 181.683 12.0703C181.386 11.7285 181.161 11.3298 181.006 10.874C180.851 10.4137 180.773 9.91471 180.773 9.37695ZM182.742 9.2334V9.37695C182.742 9.68685 182.77 9.97624 182.824 10.2451C182.879 10.514 182.965 10.751 183.084 10.9561C183.207 11.1566 183.367 11.3138 183.562 11.4277C183.758 11.5417 183.998 11.5986 184.28 11.5986C184.554 11.5986 184.788 11.5417 184.984 11.4277C185.18 11.3138 185.338 11.1566 185.456 10.9561C185.575 10.751 185.661 10.514 185.716 10.2451C185.775 9.97624 185.805 9.68685 185.805 9.37695V9.2334C185.805 8.93262 185.775 8.65007 185.716 8.38574C185.661 8.11686 185.572 7.87988 185.449 7.6748C185.331 7.46517 185.174 7.30111 184.978 7.18262C184.782 7.06413 184.545 7.00488 184.267 7.00488C183.989 7.00488 183.752 7.06413 183.556 7.18262C183.364 7.30111 183.207 7.46517 183.084 7.6748C182.965 7.87988 182.879 8.11686 182.824 8.38574C182.77 8.65007 182.742 8.93262 182.742 9.2334ZM194.056 8.59082V10.1221H190.296V8.59082H194.056ZM190.952 5.60352V13H188.983V5.60352H190.952ZM195.389 5.60352V13H193.413V5.60352H195.389ZM200.687 5.60352V13H198.711V5.60352H200.687ZM203.065 5.60352V7.12793H196.366V5.60352H203.065ZM207.953 11.332V8.03711C207.953 7.80013 207.914 7.59733 207.837 7.42871C207.759 7.25553 207.639 7.12109 207.475 7.02539C207.315 6.92969 207.108 6.88184 206.853 6.88184C206.634 6.88184 206.445 6.92057 206.285 6.99805C206.126 7.07096 206.003 7.17806 205.916 7.31934C205.829 7.45605 205.786 7.61784 205.786 7.80469H203.817C203.817 7.49023 203.89 7.19173 204.036 6.90918C204.182 6.62663 204.394 6.37826 204.672 6.16406C204.95 5.94531 205.28 5.77441 205.663 5.65137C206.05 5.52832 206.483 5.4668 206.962 5.4668C207.536 5.4668 208.047 5.5625 208.493 5.75391C208.94 5.94531 209.291 6.23242 209.546 6.61523C209.806 6.99805 209.936 7.47656 209.936 8.05078V11.2158C209.936 11.6214 209.961 11.9541 210.011 12.2139C210.061 12.4691 210.134 12.6924 210.229 12.8838V13H208.24C208.145 12.7995 208.072 12.5488 208.021 12.248C207.976 11.9427 207.953 11.6374 207.953 11.332ZM208.213 8.49512L208.227 9.60938H207.126C206.866 9.60938 206.641 9.639 206.449 9.69824C206.258 9.75749 206.101 9.8418 205.978 9.95117C205.854 10.056 205.763 10.179 205.704 10.3203C205.649 10.4616 205.622 10.6165 205.622 10.7852C205.622 10.9538 205.661 11.1064 205.738 11.2432C205.816 11.3753 205.927 11.4801 206.073 11.5576C206.219 11.6305 206.39 11.667 206.586 11.667C206.882 11.667 207.14 11.6077 207.358 11.4893C207.577 11.3708 207.746 11.2249 207.864 11.0518C207.987 10.8786 208.051 10.7145 208.056 10.5596L208.575 11.3936C208.502 11.5804 208.402 11.7741 208.274 11.9746C208.151 12.1751 207.994 12.3643 207.803 12.542C207.611 12.7152 207.381 12.8587 207.112 12.9727C206.843 13.082 206.524 13.1367 206.155 13.1367C205.686 13.1367 205.26 13.0433 204.877 12.8564C204.499 12.665 204.198 12.403 203.975 12.0703C203.756 11.7331 203.646 11.3503 203.646 10.9219C203.646 10.5345 203.719 10.1904 203.865 9.88965C204.011 9.58887 204.225 9.33594 204.508 9.13086C204.795 8.92122 205.153 8.764 205.581 8.65918C206.009 8.5498 206.506 8.49512 207.071 8.49512H208.213ZM214.064 10.2109L210.988 5.60352H213.429L215.001 8.39258H216.416L216.177 10.2109H214.064ZM215.028 9.87598L213.34 13H210.968L213.422 8.92578L215.028 9.87598ZM217.694 5.60352V13H215.726V5.60352H217.694ZM222.452 5.60352L219.376 10.2109H217.264L217.024 8.39258H218.439L220.005 5.60352H222.452ZM220.094 13L218.405 9.87598L220.073 8.92578L222.514 13H220.094Z" fill="white"/>
<path d="M235.96 9.34961V9.49316C235.96 10.0264 235.901 10.5163 235.782 10.9629C235.668 11.4049 235.495 11.79 235.263 12.1182C235.03 12.4417 234.745 12.6924 234.408 12.8701C234.071 13.0479 233.681 13.1367 233.239 13.1367C232.829 13.1367 232.474 13.0592 232.173 12.9043C231.877 12.7448 231.626 12.5238 231.421 12.2412C231.22 11.9541 231.056 11.6214 230.929 11.2432C230.806 10.8604 230.715 10.4479 230.655 10.0059V8.82324C230.715 8.34928 230.806 7.90951 230.929 7.50391C231.052 7.09375 231.214 6.736 231.414 6.43066C231.619 6.12533 231.87 5.88835 232.166 5.71973C232.462 5.55111 232.815 5.4668 233.226 5.4668C233.581 5.4668 233.902 5.52832 234.189 5.65137C234.481 5.77441 234.736 5.94987 234.955 6.17773C235.178 6.4056 235.363 6.68132 235.509 7.00488C235.659 7.32389 235.771 7.68164 235.844 8.07812C235.921 8.47461 235.96 8.89844 235.96 9.34961ZM233.984 9.49316V9.34961C233.984 9.0944 233.968 8.85059 233.937 8.61816C233.909 8.38118 233.864 8.16471 233.8 7.96875C233.741 7.77279 233.661 7.60417 233.561 7.46289C233.46 7.31706 233.34 7.2054 233.198 7.12793C233.057 7.0459 232.895 7.00488 232.713 7.00488C232.394 7.00488 232.132 7.06868 231.927 7.19629C231.726 7.31934 231.576 7.49707 231.476 7.72949C231.38 7.95736 231.325 8.22624 231.312 8.53613V10.2998C231.33 10.5641 231.387 10.7943 231.482 10.9902C231.583 11.1816 231.733 11.332 231.934 11.4414C232.139 11.5462 232.403 11.5986 232.727 11.5986C232.959 11.5986 233.155 11.5462 233.314 11.4414C233.479 11.3366 233.608 11.1885 233.704 10.9971C233.804 10.8057 233.875 10.5846 233.916 10.334C233.962 10.0788 233.984 9.7985 233.984 9.49316ZM226.656 9.49316V9.34961C226.656 8.89844 226.695 8.47461 226.772 8.07812C226.85 7.68164 226.962 7.32389 227.107 7.00488C227.258 6.68132 227.442 6.4056 227.661 6.17773C227.88 5.94987 228.133 5.77441 228.42 5.65137C228.712 5.52832 229.035 5.4668 229.391 5.4668C229.796 5.4668 230.147 5.55111 230.443 5.71973C230.74 5.88835 230.988 6.12533 231.188 6.43066C231.389 6.736 231.551 7.09375 231.674 7.50391C231.797 7.90951 231.89 8.34928 231.954 8.82324V9.95117C231.89 10.4069 231.797 10.8285 231.674 11.2158C231.551 11.5986 231.387 11.9359 231.182 12.2275C230.981 12.5146 230.733 12.738 230.437 12.8975C230.14 13.057 229.787 13.1367 229.377 13.1367C228.939 13.1367 228.55 13.0479 228.208 12.8701C227.871 12.6924 227.586 12.4417 227.354 12.1182C227.126 11.79 226.952 11.4049 226.834 10.9629C226.715 10.5163 226.656 10.0264 226.656 9.49316ZM228.625 9.34961V9.49316C228.625 9.7985 228.646 10.0788 228.687 10.334C228.732 10.5846 228.803 10.8057 228.898 10.9971C228.999 11.1839 229.129 11.3298 229.288 11.4346C229.448 11.5394 229.644 11.5918 229.876 11.5918C230.204 11.5918 230.468 11.5371 230.669 11.4277C230.874 11.3184 231.027 11.1634 231.127 10.9629C231.227 10.7624 231.282 10.5231 231.291 10.2451V8.53613C231.282 8.22624 231.227 7.95736 231.127 7.72949C231.031 7.49707 230.883 7.31934 230.683 7.19629C230.482 7.06868 230.218 7.00488 229.89 7.00488C229.657 7.00488 229.459 7.06641 229.295 7.18945C229.135 7.3125 229.006 7.48112 228.905 7.69531C228.81 7.90951 228.739 8.16016 228.693 8.44727C228.648 8.72982 228.625 9.0306 228.625 9.34961ZM230.307 15.8438V2.5H232.282V15.8438H230.307ZM239.159 10.252L241.641 5.60352H243.609V13H241.641V8.34473L239.159 13H237.19V5.60352H239.159V10.252ZM250.104 5.60352V7.14844H246.467V5.60352H250.104ZM251.546 5.60352V13H249.577V5.60352H251.546ZM245.975 5.60352H247.909L247.711 9.33594C247.684 9.86914 247.627 10.3385 247.54 10.7441C247.453 11.1497 247.337 11.4961 247.191 11.7832C247.05 12.0703 246.879 12.305 246.679 12.4873C246.483 12.665 246.253 12.7949 245.988 12.877C245.729 12.959 245.441 13 245.127 13H244.525L244.505 11.4482L244.758 11.4209C244.904 11.4072 245.031 11.3662 245.141 11.2979C245.255 11.2249 245.35 11.1224 245.428 10.9902C245.51 10.8535 245.578 10.6826 245.633 10.4775C245.688 10.2679 245.731 10.0218 245.763 9.73926C245.799 9.45671 245.824 9.13086 245.838 8.76172L245.975 5.60352ZM254.431 7.79785H256.577C257.252 7.79785 257.826 7.90951 258.3 8.13281C258.778 8.35156 259.143 8.6569 259.394 9.04883C259.649 9.44076 259.776 9.89421 259.776 10.4092C259.776 10.7829 259.703 11.1292 259.558 11.4482C259.416 11.7627 259.209 12.0361 258.936 12.2686C258.662 12.501 258.327 12.681 257.931 12.8086C257.534 12.9362 257.083 13 256.577 13H253.2V5.60352H255.176V11.4688H256.577C256.873 11.4688 257.11 11.4209 257.288 11.3252C257.47 11.2249 257.603 11.0951 257.685 10.9355C257.771 10.776 257.814 10.6029 257.814 10.416C257.814 10.2201 257.771 10.0423 257.685 9.88281C257.603 9.71875 257.47 9.58659 257.288 9.48633C257.11 9.38607 256.873 9.33594 256.577 9.33594H254.431V7.79785ZM263.81 5.60352V13H261.834V5.60352H263.81ZM266.188 5.60352V7.12793H259.489V5.60352H266.188ZM269.162 7.02539V15.8438H267.193V5.60352H269.019L269.162 7.02539ZM273.845 9.21973V9.36328C273.845 9.90104 273.781 10.4001 273.653 10.8604C273.53 11.3206 273.348 11.7217 273.106 12.0635C272.865 12.4007 272.564 12.665 272.204 12.8564C271.849 13.0433 271.438 13.1367 270.974 13.1367C270.522 13.1367 270.131 13.0456 269.798 12.8633C269.465 12.681 269.185 12.4258 268.957 12.0977C268.734 11.765 268.554 11.3799 268.417 10.9424C268.28 10.5049 268.175 10.0355 268.103 9.53418V9.1582C268.175 8.62044 268.28 8.12826 268.417 7.68164C268.554 7.23047 268.734 6.84082 268.957 6.5127C269.185 6.18001 269.463 5.92253 269.791 5.74023C270.124 5.55794 270.513 5.4668 270.96 5.4668C271.429 5.4668 271.842 5.55566 272.197 5.7334C272.557 5.91113 272.858 6.16634 273.1 6.49902C273.346 6.83171 273.53 7.22819 273.653 7.68848C273.781 8.14876 273.845 8.65918 273.845 9.21973ZM271.869 9.36328V9.21973C271.869 8.90527 271.842 8.61589 271.787 8.35156C271.737 8.08268 271.655 7.84798 271.541 7.64746C271.432 7.44694 271.286 7.29199 271.104 7.18262C270.926 7.06868 270.709 7.01172 270.454 7.01172C270.185 7.01172 269.955 7.05501 269.764 7.1416C269.577 7.22819 269.424 7.35352 269.306 7.51758C269.187 7.68164 269.098 7.8776 269.039 8.10547C268.98 8.33333 268.943 8.59082 268.93 8.87793V9.82812C268.952 10.1654 269.016 10.4684 269.121 10.7373C269.226 11.0016 269.388 11.2113 269.606 11.3662C269.825 11.5212 270.112 11.5986 270.468 11.5986C270.728 11.5986 270.946 11.5417 271.124 11.4277C271.302 11.3092 271.445 11.1475 271.555 10.9424C271.669 10.7373 271.748 10.5003 271.794 10.2314C271.844 9.96257 271.869 9.67318 271.869 9.36328ZM274.754 9.37695V9.2334C274.754 8.69108 274.831 8.19206 274.986 7.73633C275.141 7.27604 275.367 6.87728 275.663 6.54004C275.959 6.2028 276.324 5.94076 276.757 5.75391C277.19 5.5625 277.687 5.4668 278.247 5.4668C278.808 5.4668 279.307 5.5625 279.744 5.75391C280.182 5.94076 280.549 6.2028 280.845 6.54004C281.146 6.87728 281.373 7.27604 281.528 7.73633C281.683 8.19206 281.761 8.69108 281.761 9.2334V9.37695C281.761 9.91471 281.683 10.4137 281.528 10.874C281.373 11.3298 281.146 11.7285 280.845 12.0703C280.549 12.4076 280.184 12.6696 279.751 12.8564C279.318 13.0433 278.821 13.1367 278.261 13.1367C277.7 13.1367 277.201 13.0433 276.764 12.8564C276.331 12.6696 275.964 12.4076 275.663 12.0703C275.367 11.7285 275.141 11.3298 274.986 10.874C274.831 10.4137 274.754 9.91471 274.754 9.37695ZM276.723 9.2334V9.37695C276.723 9.68685 276.75 9.97624 276.805 10.2451C276.859 10.514 276.946 10.751 277.064 10.9561C277.188 11.1566 277.347 11.3138 277.543 11.4277C277.739 11.5417 277.978 11.5986 278.261 11.5986C278.534 11.5986 278.769 11.5417 278.965 11.4277C279.161 11.3138 279.318 11.1566 279.437 10.9561C279.555 10.751 279.642 10.514 279.696 10.2451C279.756 9.97624 279.785 9.68685 279.785 9.37695V9.2334C279.785 8.93262 279.756 8.65007 279.696 8.38574C279.642 8.11686 279.553 7.87988 279.43 7.6748C279.311 7.46517 279.154 7.30111 278.958 7.18262C278.762 7.06413 278.525 7.00488 278.247 7.00488C277.969 7.00488 277.732 7.06413 277.536 7.18262C277.345 7.30111 277.188 7.46517 277.064 7.6748C276.946 7.87988 276.859 8.11686 276.805 8.38574C276.75 8.65007 276.723 8.93262 276.723 9.2334ZM286.655 9.91016H284.338L284.324 8.61816H286.238C286.493 8.61816 286.701 8.5931 286.86 8.54297C287.02 8.48828 287.136 8.40853 287.209 8.30371C287.286 8.19434 287.325 8.06217 287.325 7.90723C287.325 7.77051 287.3 7.6543 287.25 7.55859C287.204 7.45833 287.134 7.3763 287.038 7.3125C286.942 7.2487 286.822 7.20312 286.676 7.17578C286.535 7.14388 286.368 7.12793 286.177 7.12793H285.069V13H283.101V5.60352H286.177C286.66 5.60352 287.093 5.64681 287.476 5.7334C287.858 5.81543 288.184 5.94076 288.453 6.10938C288.727 6.27799 288.934 6.49219 289.075 6.75195C289.221 7.00716 289.294 7.31022 289.294 7.66113C289.294 7.889 289.242 8.10319 289.137 8.30371C289.036 8.50423 288.886 8.68197 288.686 8.83691C288.485 8.99186 288.237 9.11947 287.94 9.21973C287.649 9.31543 287.312 9.37467 286.929 9.39746L286.655 9.91016ZM286.655 13H283.853L284.529 11.4756H286.655C286.897 11.4756 287.095 11.446 287.25 11.3867C287.405 11.3275 287.519 11.2409 287.592 11.127C287.669 11.0085 287.708 10.8672 287.708 10.7031C287.708 10.5436 287.674 10.4046 287.605 10.2861C287.537 10.1676 287.425 10.0765 287.271 10.0127C287.12 9.94434 286.915 9.91016 286.655 9.91016H284.816L284.83 8.61816H286.922L287.4 9.1377C287.92 9.1696 288.348 9.26758 288.686 9.43164C289.023 9.5957 289.271 9.80534 289.431 10.0605C289.595 10.3112 289.677 10.5869 289.677 10.8877C289.677 11.2386 289.611 11.5462 289.479 11.8105C289.346 12.0749 289.15 12.2959 288.891 12.4736C288.635 12.6468 288.321 12.779 287.947 12.8701C287.574 12.9567 287.143 13 286.655 13ZM295.706 5.60352H297.675L297.613 8.07812C297.595 8.87109 297.504 9.55241 297.34 10.1221C297.176 10.6917 296.957 11.1702 296.684 11.5576C296.41 11.945 296.098 12.2549 295.747 12.4873C295.401 12.7152 295.036 12.8861 294.653 13H294.284L294.264 11.4824L294.469 11.4619C294.701 11.2204 294.893 10.9857 295.043 10.7578C295.193 10.5254 295.31 10.2816 295.392 10.0264C295.474 9.77116 295.533 9.48633 295.569 9.17188C295.61 8.85742 295.635 8.49284 295.645 8.07812L295.706 5.60352ZM296.239 5.60352H301.141V13H299.179V7.18262H296.239V5.60352ZM293.833 11.4619H302.2V15.2217H300.231V13H295.85V15.2217H293.833V11.4619ZM308.182 5.60352V7.14844H304.545V5.60352H308.182ZM309.624 5.60352V13H307.655V5.60352H309.624ZM304.053 5.60352H305.987L305.789 9.33594C305.762 9.86914 305.705 10.3385 305.618 10.7441C305.532 11.1497 305.415 11.4961 305.27 11.7832C305.128 12.0703 304.957 12.305 304.757 12.4873C304.561 12.665 304.331 12.7949 304.066 12.877C303.807 12.959 303.52 13 303.205 13H302.604L302.583 11.4482L302.836 11.4209C302.982 11.4072 303.109 11.3662 303.219 11.2979C303.333 11.2249 303.428 11.1224 303.506 10.9902C303.588 10.8535 303.656 10.6826 303.711 10.4775C303.766 10.2679 303.809 10.0218 303.841 9.73926C303.877 9.45671 303.902 9.13086 303.916 8.76172L304.053 5.60352ZM312.741 9.30859H314.737L312.68 13H310.69L312.741 9.30859ZM314.067 5.60352H317.314V13H315.346V7.12793H314.067C313.799 7.12793 313.575 7.17806 313.397 7.27832C313.22 7.37402 313.088 7.49935 313.001 7.6543C312.919 7.80469 312.878 7.95964 312.878 8.11914C312.878 8.27409 312.919 8.42448 313.001 8.57031C313.083 8.71615 313.211 8.83691 313.384 8.93262C313.557 9.02832 313.773 9.07617 314.033 9.07617H316.077V10.416H314.033C313.546 10.416 313.108 10.3568 312.721 10.2383C312.338 10.1198 312.01 9.95573 311.736 9.74609C311.467 9.5319 311.26 9.28353 311.114 9.00098C310.973 8.71387 310.902 8.39941 310.902 8.05762C310.902 7.70215 310.975 7.3763 311.121 7.08008C311.267 6.78385 311.477 6.52409 311.75 6.30078C312.023 6.07747 312.354 5.90658 312.741 5.78809C313.133 5.66504 313.575 5.60352 314.067 5.60352ZM326.153 9.91016H323.836L323.822 8.61816H325.736C325.992 8.61816 326.199 8.5931 326.358 8.54297C326.518 8.48828 326.634 8.40853 326.707 8.30371C326.785 8.19434 326.823 8.06217 326.823 7.90723C326.823 7.77051 326.798 7.6543 326.748 7.55859C326.702 7.45833 326.632 7.3763 326.536 7.3125C326.44 7.2487 326.32 7.20312 326.174 7.17578C326.033 7.14388 325.866 7.12793 325.675 7.12793H324.567V13H322.599V5.60352H325.675C326.158 5.60352 326.591 5.64681 326.974 5.7334C327.356 5.81543 327.682 5.94076 327.951 6.10938C328.225 6.27799 328.432 6.49219 328.573 6.75195C328.719 7.00716 328.792 7.31022 328.792 7.66113C328.792 7.889 328.74 8.10319 328.635 8.30371C328.535 8.50423 328.384 8.68197 328.184 8.83691C327.983 8.99186 327.735 9.11947 327.438 9.21973C327.147 9.31543 326.81 9.37467 326.427 9.39746L326.153 9.91016ZM326.153 13H323.351L324.027 11.4756H326.153C326.395 11.4756 326.593 11.446 326.748 11.3867C326.903 11.3275 327.017 11.2409 327.09 11.127C327.167 11.0085 327.206 10.8672 327.206 10.7031C327.206 10.5436 327.172 10.4046 327.104 10.2861C327.035 10.1676 326.924 10.0765 326.769 10.0127C326.618 9.94434 326.413 9.91016 326.153 9.91016H324.314L324.328 8.61816H326.42L326.898 9.1377C327.418 9.1696 327.846 9.26758 328.184 9.43164C328.521 9.5957 328.769 9.80534 328.929 10.0605C329.093 10.3112 329.175 10.5869 329.175 10.8877C329.175 11.2386 329.109 11.5462 328.977 11.8105C328.844 12.0749 328.648 12.2959 328.389 12.4736C328.133 12.6468 327.819 12.779 327.445 12.8701C327.072 12.9567 326.641 13 326.153 13ZM330.07 9.37695V9.2334C330.07 8.69108 330.148 8.19206 330.303 7.73633C330.458 7.27604 330.683 6.87728 330.979 6.54004C331.276 6.2028 331.64 5.94076 332.073 5.75391C332.506 5.5625 333.003 5.4668 333.563 5.4668C334.124 5.4668 334.623 5.5625 335.061 5.75391C335.498 5.94076 335.865 6.2028 336.161 6.54004C336.462 6.87728 336.69 7.27604 336.845 7.73633C337 8.19206 337.077 8.69108 337.077 9.2334V9.37695C337.077 9.91471 337 10.4137 336.845 10.874C336.69 11.3298 336.462 11.7285 336.161 12.0703C335.865 12.4076 335.5 12.6696 335.067 12.8564C334.634 13.0433 334.138 13.1367 333.577 13.1367C333.017 13.1367 332.518 13.0433 332.08 12.8564C331.647 12.6696 331.28 12.4076 330.979 12.0703C330.683 11.7285 330.458 11.3298 330.303 10.874C330.148 10.4137 330.07 9.91471 330.07 9.37695ZM332.039 9.2334V9.37695C332.039 9.68685 332.066 9.97624 332.121 10.2451C332.176 10.514 332.262 10.751 332.381 10.9561C332.504 11.1566 332.663 11.3138 332.859 11.4277C333.055 11.5417 333.295 11.5986 333.577 11.5986C333.851 11.5986 334.085 11.5417 334.281 11.4277C334.477 11.3138 334.634 11.1566 334.753 10.9561C334.871 10.751 334.958 10.514 335.013 10.2451C335.072 9.97624 335.102 9.68685 335.102 9.37695V9.2334C335.102 8.93262 335.072 8.65007 335.013 8.38574C334.958 8.11686 334.869 7.87988 334.746 7.6748C334.628 7.46517 334.47 7.30111 334.274 7.18262C334.078 7.06413 333.841 7.00488 333.563 7.00488C333.285 7.00488 333.049 7.06413 332.853 7.18262C332.661 7.30111 332.504 7.46517 332.381 7.6748C332.262 7.87988 332.176 8.11686 332.121 8.38574C332.066 8.65007 332.039 8.93262 332.039 9.2334ZM339.128 5.60352H341.097L341.035 8.07812C341.017 8.87109 340.926 9.55241 340.762 10.1221C340.598 10.6917 340.379 11.1702 340.105 11.5576C339.832 11.945 339.52 12.2549 339.169 12.4873C338.823 12.7152 338.458 12.8861 338.075 13H337.706L337.686 11.4824L337.891 11.4619C338.123 11.2204 338.314 10.9857 338.465 10.7578C338.615 10.5254 338.731 10.2816 338.813 10.0264C338.896 9.77116 338.955 9.48633 338.991 9.17188C339.032 8.85742 339.057 8.49284 339.066 8.07812L339.128 5.60352ZM339.661 5.60352H344.562V13H342.601V7.18262H339.661V5.60352ZM337.255 11.4619H345.622V15.2217H343.653V13H339.271V15.2217H337.255V11.4619ZM347.987 7.79785H350.134C350.808 7.79785 351.382 7.90951 351.856 8.13281C352.335 8.35156 352.7 8.6569 352.95 9.04883C353.205 9.44076 353.333 9.89421 353.333 10.4092C353.333 10.7829 353.26 11.1292 353.114 11.4482C352.973 11.7627 352.766 12.0361 352.492 12.2686C352.219 12.501 351.884 12.681 351.487 12.8086C351.091 12.9362 350.64 13 350.134 13H346.757V5.60352H348.732V11.4688H350.134C350.43 11.4688 350.667 11.4209 350.845 11.3252C351.027 11.2249 351.159 11.0951 351.241 10.9355C351.328 10.776 351.371 10.6029 351.371 10.416C351.371 10.2201 351.328 10.0423 351.241 9.88281C351.159 9.71875 351.027 9.58659 350.845 9.48633C350.667 9.38607 350.43 9.33594 350.134 9.33594H347.987V7.79785ZM356.491 5.60352V13H354.522V5.60352H356.491Z" fill="#008EE3"/>
<path d="M41.7646 27.4521H39.2285V25.8525H41.7646C42.1566 25.8525 42.4756 25.7887 42.7217 25.6611C42.9678 25.529 43.1478 25.3467 43.2617 25.1143C43.3757 24.8818 43.4326 24.6198 43.4326 24.3281C43.4326 24.0319 43.3757 23.7562 43.2617 23.501C43.1478 23.2458 42.9678 23.0407 42.7217 22.8857C42.4756 22.7308 42.1566 22.6533 41.7646 22.6533H39.9395V31H37.8887V21.0469H41.7646C42.5439 21.0469 43.2116 21.1882 43.7676 21.4707C44.3281 21.7487 44.7565 22.1338 45.0527 22.626C45.349 23.1182 45.4971 23.681 45.4971 24.3145C45.4971 24.957 45.349 25.513 45.0527 25.9824C44.7565 26.4518 44.3281 26.8141 43.7676 27.0693C43.2116 27.3245 42.5439 27.4521 41.7646 27.4521ZM50.0977 31.1367C49.5234 31.1367 49.0085 31.0456 48.5527 30.8633C48.097 30.6764 47.7096 30.4189 47.3906 30.0908C47.0762 29.7627 46.8346 29.3822 46.666 28.9492C46.4974 28.5117 46.4131 28.0469 46.4131 27.5547V27.2812C46.4131 26.7207 46.4928 26.208 46.6523 25.7432C46.8118 25.2783 47.0397 24.875 47.3359 24.5332C47.6367 24.1914 48.0013 23.9294 48.4297 23.7471C48.8581 23.5602 49.3411 23.4668 49.8789 23.4668C50.403 23.4668 50.8678 23.5534 51.2734 23.7266C51.679 23.8997 52.0186 24.1458 52.292 24.4648C52.57 24.7839 52.7796 25.1667 52.9209 25.6133C53.0622 26.0553 53.1328 26.5475 53.1328 27.0898V27.9102H47.2539V26.5977H51.1982V26.4473C51.1982 26.1738 51.1481 25.93 51.0479 25.7158C50.9521 25.4971 50.8063 25.3239 50.6104 25.1963C50.4144 25.0687 50.1637 25.0049 49.8584 25.0049C49.5986 25.0049 49.3753 25.0618 49.1885 25.1758C49.0016 25.2897 48.849 25.4492 48.7305 25.6543C48.6165 25.8594 48.5299 26.1009 48.4707 26.3789C48.416 26.6523 48.3887 26.9531 48.3887 27.2812V27.5547C48.3887 27.8509 48.4297 28.1243 48.5117 28.375C48.5983 28.6257 48.7191 28.8421 48.874 29.0244C49.0335 29.2067 49.2249 29.348 49.4482 29.4482C49.6761 29.5485 49.9336 29.5986 50.2207 29.5986C50.5762 29.5986 50.9066 29.5303 51.2119 29.3936C51.5218 29.2523 51.7884 29.0404 52.0117 28.7578L52.9688 29.7969C52.8138 30.0202 52.6019 30.2344 52.333 30.4395C52.0687 30.6445 51.7497 30.8132 51.376 30.9453C51.0023 31.0729 50.5762 31.1367 50.0977 31.1367ZM58.752 28.7373L60.6934 23.6035H62.2998L59.415 31H58.0889L55.2178 23.6035H56.8242L58.752 28.7373ZM56.3525 23.6035V31H54.3838V23.6035H56.3525ZM61.1992 31V23.6035H63.168V31H61.1992ZM64.5762 27.377V27.2334C64.5762 26.6911 64.6536 26.1921 64.8086 25.7363C64.9635 25.276 65.1891 24.8773 65.4854 24.54C65.7816 24.2028 66.1462 23.9408 66.5791 23.7539C67.012 23.5625 67.5088 23.4668 68.0693 23.4668C68.6299 23.4668 69.1289 23.5625 69.5664 23.7539C70.0039 23.9408 70.3708 24.2028 70.667 24.54C70.9678 24.8773 71.1956 25.276 71.3506 25.7363C71.5055 26.1921 71.583 26.6911 71.583 27.2334V27.377C71.583 27.9147 71.5055 28.4137 71.3506 28.874C71.1956 29.3298 70.9678 29.7285 70.667 30.0703C70.3708 30.4076 70.0062 30.6696 69.5732 30.8564C69.1403 31.0433 68.6436 31.1367 68.083 31.1367C67.5225 31.1367 67.0234 31.0433 66.5859 30.8564C66.153 30.6696 65.7861 30.4076 65.4854 30.0703C65.1891 29.7285 64.9635 29.3298 64.8086 28.874C64.6536 28.4137 64.5762 27.9147 64.5762 27.377ZM66.5449 27.2334V27.377C66.5449 27.6868 66.5723 27.9762 66.627 28.2451C66.6816 28.514 66.7682 28.751 66.8867 28.9561C67.0098 29.1566 67.1693 29.3138 67.3652 29.4277C67.5612 29.5417 67.8005 29.5986 68.083 29.5986C68.3564 29.5986 68.5911 29.5417 68.7871 29.4277C68.9831 29.3138 69.1403 29.1566 69.2588 28.9561C69.3773 28.751 69.4639 28.514 69.5186 28.2451C69.5778 27.9762 69.6074 27.6868 69.6074 27.377V27.2334C69.6074 26.9326 69.5778 26.6501 69.5186 26.3857C69.4639 26.1169 69.375 25.8799 69.252 25.6748C69.1335 25.4652 68.9762 25.3011 68.7803 25.1826C68.5843 25.0641 68.3473 25.0049 68.0693 25.0049C67.7913 25.0049 67.5544 25.0641 67.3584 25.1826C67.167 25.3011 67.0098 25.4652 66.8867 25.6748C66.7682 25.8799 66.6816 26.1169 66.627 26.3857C66.5723 26.6501 66.5449 26.9326 66.5449 27.2334ZM77.8584 26.5908V28.1221H74.0986V26.5908H77.8584ZM74.7549 23.6035V31H72.7861V23.6035H74.7549ZM79.1914 23.6035V31H77.2158V23.6035H79.1914ZM84.4893 23.6035V31H82.5137V23.6035H84.4893ZM86.8682 23.6035V25.1279H80.1689V23.6035H86.8682ZM93.3213 28.252L95.8027 23.6035H97.7715V31H95.8027V26.3447L93.3213 31H91.3525V23.6035H93.3213V28.252ZM105.831 29.5986C106.073 29.5986 106.287 29.5531 106.474 29.4619C106.66 29.3662 106.806 29.234 106.911 29.0654C107.021 28.8923 107.077 28.6895 107.082 28.457H108.935C108.93 28.9766 108.791 29.4391 108.518 29.8447C108.244 30.2458 107.877 30.5625 107.417 30.7949C106.957 31.0228 106.442 31.1367 105.872 31.1367C105.298 31.1367 104.797 31.041 104.368 30.8496C103.944 30.6582 103.591 30.3939 103.309 30.0566C103.026 29.7148 102.814 29.3184 102.673 28.8672C102.532 28.4115 102.461 27.9238 102.461 27.4043V27.2061C102.461 26.682 102.532 26.1943 102.673 25.7432C102.814 25.2874 103.026 24.891 103.309 24.5537C103.591 24.2119 103.944 23.9453 104.368 23.7539C104.792 23.5625 105.289 23.4668 105.858 23.4668C106.465 23.4668 106.995 23.583 107.451 23.8154C107.911 24.0479 108.271 24.3805 108.531 24.8135C108.796 25.2419 108.93 25.75 108.935 26.3379H107.082C107.077 26.0918 107.025 25.8685 106.925 25.668C106.829 25.4674 106.688 25.3079 106.501 25.1895C106.319 25.0664 106.093 25.0049 105.824 25.0049C105.537 25.0049 105.302 25.0664 105.12 25.1895C104.938 25.3079 104.797 25.472 104.696 25.6816C104.596 25.8867 104.525 26.1214 104.484 26.3857C104.448 26.6455 104.43 26.9189 104.43 27.2061V27.4043C104.43 27.6914 104.448 27.9671 104.484 28.2314C104.521 28.4958 104.589 28.7305 104.689 28.9355C104.794 29.1406 104.938 29.3024 105.12 29.4209C105.302 29.5394 105.539 29.5986 105.831 29.5986ZM113.48 31.1367C112.906 31.1367 112.391 31.0456 111.936 30.8633C111.48 30.6764 111.092 30.4189 110.773 30.0908C110.459 29.7627 110.217 29.3822 110.049 28.9492C109.88 28.5117 109.796 28.0469 109.796 27.5547V27.2812C109.796 26.7207 109.876 26.208 110.035 25.7432C110.195 25.2783 110.423 24.875 110.719 24.5332C111.02 24.1914 111.384 23.9294 111.812 23.7471C112.241 23.5602 112.724 23.4668 113.262 23.4668C113.786 23.4668 114.251 23.5534 114.656 23.7266C115.062 23.8997 115.401 24.1458 115.675 24.4648C115.953 24.7839 116.162 25.1667 116.304 25.6133C116.445 26.0553 116.516 26.5475 116.516 27.0898V27.9102H110.637V26.5977H114.581V26.4473C114.581 26.1738 114.531 25.93 114.431 25.7158C114.335 25.4971 114.189 25.3239 113.993 25.1963C113.797 25.0687 113.547 25.0049 113.241 25.0049C112.981 25.0049 112.758 25.0618 112.571 25.1758C112.384 25.2897 112.232 25.4492 112.113 25.6543C111.999 25.8594 111.913 26.1009 111.854 26.3789C111.799 26.6523 111.771 26.9531 111.771 27.2812V27.5547C111.771 27.8509 111.812 28.1243 111.895 28.375C111.981 28.6257 112.102 28.8421 112.257 29.0244C112.416 29.2067 112.608 29.348 112.831 29.4482C113.059 29.5485 113.316 29.5986 113.604 29.5986C113.959 29.5986 114.289 29.5303 114.595 29.3936C114.905 29.2523 115.171 29.0404 115.395 28.7578L116.352 29.7969C116.197 30.0202 115.985 30.2344 115.716 30.4395C115.451 30.6445 115.132 30.8132 114.759 30.9453C114.385 31.0729 113.959 31.1367 113.48 31.1367ZM119.605 25.0254V33.8438H117.637V23.6035H119.462L119.605 25.0254ZM124.288 27.2197V27.3633C124.288 27.901 124.224 28.4001 124.097 28.8604C123.974 29.3206 123.791 29.7217 123.55 30.0635C123.308 30.4007 123.007 30.665 122.647 30.8564C122.292 31.0433 121.882 31.1367 121.417 31.1367C120.966 31.1367 120.574 31.0456 120.241 30.8633C119.909 30.681 119.628 30.4258 119.4 30.0977C119.177 29.765 118.997 29.3799 118.86 28.9424C118.724 28.5049 118.619 28.0355 118.546 27.5342V27.1582C118.619 26.6204 118.724 26.1283 118.86 25.6816C118.997 25.2305 119.177 24.8408 119.4 24.5127C119.628 24.18 119.906 23.9225 120.234 23.7402C120.567 23.5579 120.957 23.4668 121.403 23.4668C121.873 23.4668 122.285 23.5557 122.641 23.7334C123.001 23.9111 123.301 24.1663 123.543 24.499C123.789 24.8317 123.974 25.2282 124.097 25.6885C124.224 26.1488 124.288 26.6592 124.288 27.2197ZM122.312 27.3633V27.2197C122.312 26.9053 122.285 26.6159 122.23 26.3516C122.18 26.0827 122.098 25.848 121.984 25.6475C121.875 25.4469 121.729 25.292 121.547 25.1826C121.369 25.0687 121.153 25.0117 120.897 25.0117C120.629 25.0117 120.398 25.055 120.207 25.1416C120.02 25.2282 119.868 25.3535 119.749 25.5176C119.631 25.6816 119.542 25.8776 119.482 26.1055C119.423 26.3333 119.387 26.5908 119.373 26.8779V27.8281C119.396 28.1654 119.46 28.4684 119.564 28.7373C119.669 29.0016 119.831 29.2113 120.05 29.3662C120.269 29.5212 120.556 29.5986 120.911 29.5986C121.171 29.5986 121.39 29.5417 121.567 29.4277C121.745 29.3092 121.889 29.1475 121.998 28.9424C122.112 28.7373 122.192 28.5003 122.237 28.2314C122.287 27.9626 122.312 27.6732 122.312 27.3633ZM129.196 27.9102H126.879L126.865 26.6182H128.779C129.035 26.6182 129.242 26.5931 129.401 26.543C129.561 26.4883 129.677 26.4085 129.75 26.3037C129.827 26.1943 129.866 26.0622 129.866 25.9072C129.866 25.7705 129.841 25.6543 129.791 25.5586C129.745 25.4583 129.675 25.3763 129.579 25.3125C129.483 25.2487 129.363 25.2031 129.217 25.1758C129.076 25.1439 128.909 25.1279 128.718 25.1279H127.61V31H125.642V23.6035H128.718C129.201 23.6035 129.634 23.6468 130.017 23.7334C130.399 23.8154 130.725 23.9408 130.994 24.1094C131.268 24.278 131.475 24.4922 131.616 24.752C131.762 25.0072 131.835 25.3102 131.835 25.6611C131.835 25.889 131.783 26.1032 131.678 26.3037C131.577 26.5042 131.427 26.682 131.227 26.8369C131.026 26.9919 130.778 27.1195 130.481 27.2197C130.19 27.3154 129.853 27.3747 129.47 27.3975L129.196 27.9102ZM129.196 31H126.394L127.07 29.4756H129.196C129.438 29.4756 129.636 29.446 129.791 29.3867C129.946 29.3275 130.06 29.2409 130.133 29.127C130.21 29.0085 130.249 28.8672 130.249 28.7031C130.249 28.5436 130.215 28.4046 130.146 28.2861C130.078 28.1676 129.966 28.0765 129.812 28.0127C129.661 27.9443 129.456 27.9102 129.196 27.9102H127.357L127.371 26.6182H129.463L129.941 27.1377C130.461 27.1696 130.889 27.2676 131.227 27.4316C131.564 27.5957 131.812 27.8053 131.972 28.0605C132.136 28.3112 132.218 28.5869 132.218 28.8877C132.218 29.2386 132.152 29.5462 132.02 29.8105C131.887 30.0749 131.691 30.2959 131.432 30.4736C131.176 30.6468 130.862 30.779 130.488 30.8701C130.115 30.9567 129.684 31 129.196 31ZM135.39 28.252L137.871 23.6035H139.84V31H137.871V26.3447L135.39 31H133.421V23.6035H135.39V28.252ZM144.413 29.5986C144.655 29.5986 144.869 29.5531 145.056 29.4619C145.243 29.3662 145.388 29.234 145.493 29.0654C145.603 28.8923 145.66 28.6895 145.664 28.457H147.517C147.512 28.9766 147.373 29.4391 147.1 29.8447C146.826 30.2458 146.459 30.5625 145.999 30.7949C145.539 31.0228 145.024 31.1367 144.454 31.1367C143.88 31.1367 143.379 31.041 142.95 30.8496C142.526 30.6582 142.173 30.3939 141.891 30.0566C141.608 29.7148 141.396 29.3184 141.255 28.8672C141.114 28.4115 141.043 27.9238 141.043 27.4043V27.2061C141.043 26.682 141.114 26.1943 141.255 25.7432C141.396 25.2874 141.608 24.891 141.891 24.5537C142.173 24.2119 142.526 23.9453 142.95 23.7539C143.374 23.5625 143.871 23.4668 144.44 23.4668C145.047 23.4668 145.577 23.583 146.033 23.8154C146.493 24.0479 146.854 24.3805 147.113 24.8135C147.378 25.2419 147.512 25.75 147.517 26.3379H145.664C145.66 26.0918 145.607 25.8685 145.507 25.668C145.411 25.4674 145.27 25.3079 145.083 25.1895C144.901 25.0664 144.675 25.0049 144.406 25.0049C144.119 25.0049 143.884 25.0664 143.702 25.1895C143.52 25.3079 143.379 25.472 143.278 25.6816C143.178 25.8867 143.107 26.1214 143.066 26.3857C143.03 26.6455 143.012 26.9189 143.012 27.2061V27.4043C143.012 27.6914 143.03 27.9671 143.066 28.2314C143.103 28.4958 143.171 28.7305 143.271 28.9355C143.376 29.1406 143.52 29.3024 143.702 29.4209C143.884 29.5394 144.121 29.5986 144.413 29.5986ZM153.724 26.5908V28.1221H149.964V26.5908H153.724ZM150.62 23.6035V31H148.651V23.6035H150.62ZM155.057 23.6035V31H153.081V23.6035H155.057ZM156.273 27.377V27.2334C156.273 26.6911 156.351 26.1921 156.506 25.7363C156.661 25.276 156.886 24.8773 157.183 24.54C157.479 24.2028 157.843 23.9408 158.276 23.7539C158.709 23.5625 159.206 23.4668 159.767 23.4668C160.327 23.4668 160.826 23.5625 161.264 23.7539C161.701 23.9408 162.068 24.2028 162.364 24.54C162.665 24.8773 162.893 25.276 163.048 25.7363C163.203 26.1921 163.28 26.6911 163.28 27.2334V27.377C163.28 27.9147 163.203 28.4137 163.048 28.874C162.893 29.3298 162.665 29.7285 162.364 30.0703C162.068 30.4076 161.703 30.6696 161.271 30.8564C160.838 31.0433 160.341 31.1367 159.78 31.1367C159.22 31.1367 158.721 31.0433 158.283 30.8564C157.85 30.6696 157.483 30.4076 157.183 30.0703C156.886 29.7285 156.661 29.3298 156.506 28.874C156.351 28.4137 156.273 27.9147 156.273 27.377ZM158.242 27.2334V27.377C158.242 27.6868 158.27 27.9762 158.324 28.2451C158.379 28.514 158.465 28.751 158.584 28.9561C158.707 29.1566 158.867 29.3138 159.062 29.4277C159.258 29.5417 159.498 29.5986 159.78 29.5986C160.054 29.5986 160.288 29.5417 160.484 29.4277C160.68 29.3138 160.838 29.1566 160.956 28.9561C161.075 28.751 161.161 28.514 161.216 28.2451C161.275 27.9762 161.305 27.6868 161.305 27.377V27.2334C161.305 26.9326 161.275 26.6501 161.216 26.3857C161.161 26.1169 161.072 25.8799 160.949 25.6748C160.831 25.4652 160.674 25.3011 160.478 25.1826C160.282 25.0641 160.045 25.0049 159.767 25.0049C159.489 25.0049 159.252 25.0641 159.056 25.1826C158.864 25.3011 158.707 25.4652 158.584 25.6748C158.465 25.8799 158.379 26.1169 158.324 26.3857C158.27 26.6501 158.242 26.9326 158.242 27.2334ZM167.895 31.1367C167.32 31.1367 166.805 31.0456 166.35 30.8633C165.894 30.6764 165.507 30.4189 165.188 30.0908C164.873 29.7627 164.632 29.3822 164.463 28.9492C164.294 28.5117 164.21 28.0469 164.21 27.5547V27.2812C164.21 26.7207 164.29 26.208 164.449 25.7432C164.609 25.2783 164.837 24.875 165.133 24.5332C165.434 24.1914 165.798 23.9294 166.227 23.7471C166.655 23.5602 167.138 23.4668 167.676 23.4668C168.2 23.4668 168.665 23.5534 169.07 23.7266C169.476 23.8997 169.815 24.1458 170.089 24.4648C170.367 24.7839 170.576 25.1667 170.718 25.6133C170.859 26.0553 170.93 26.5475 170.93 27.0898V27.9102H165.051V26.5977H168.995V26.4473C168.995 26.1738 168.945 25.93 168.845 25.7158C168.749 25.4971 168.603 25.3239 168.407 25.1963C168.211 25.0687 167.961 25.0049 167.655 25.0049C167.396 25.0049 167.172 25.0618 166.985 25.1758C166.799 25.2897 166.646 25.4492 166.527 25.6543C166.413 25.8594 166.327 26.1009 166.268 26.3789C166.213 26.6523 166.186 26.9531 166.186 27.2812V27.5547C166.186 27.8509 166.227 28.1243 166.309 28.375C166.395 28.6257 166.516 28.8421 166.671 29.0244C166.83 29.2067 167.022 29.348 167.245 29.4482C167.473 29.5485 167.73 29.5986 168.018 29.5986C168.373 29.5986 168.703 29.5303 169.009 29.3936C169.319 29.2523 169.585 29.0404 169.809 28.7578L170.766 29.7969C170.611 30.0202 170.399 30.2344 170.13 30.4395C169.866 30.6445 169.547 30.8132 169.173 30.9453C168.799 31.0729 168.373 31.1367 167.895 31.1367ZM175.223 27.377V27.2334C175.223 26.6911 175.3 26.1921 175.455 25.7363C175.61 25.276 175.836 24.8773 176.132 24.54C176.428 24.2028 176.793 23.9408 177.226 23.7539C177.659 23.5625 178.155 23.4668 178.716 23.4668C179.276 23.4668 179.775 23.5625 180.213 23.7539C180.65 23.9408 181.017 24.2028 181.313 24.54C181.614 24.8773 181.842 25.276 181.997 25.7363C182.152 26.1921 182.229 26.6911 182.229 27.2334V27.377C182.229 27.9147 182.152 28.4137 181.997 28.874C181.842 29.3298 181.614 29.7285 181.313 30.0703C181.017 30.4076 180.653 30.6696 180.22 30.8564C179.787 31.0433 179.29 31.1367 178.729 31.1367C178.169 31.1367 177.67 31.0433 177.232 30.8564C176.799 30.6696 176.433 30.4076 176.132 30.0703C175.836 29.7285 175.61 29.3298 175.455 28.874C175.3 28.4137 175.223 27.9147 175.223 27.377ZM177.191 27.2334V27.377C177.191 27.6868 177.219 27.9762 177.273 28.2451C177.328 28.514 177.415 28.751 177.533 28.9561C177.656 29.1566 177.816 29.3138 178.012 29.4277C178.208 29.5417 178.447 29.5986 178.729 29.5986C179.003 29.5986 179.238 29.5417 179.434 29.4277C179.63 29.3138 179.787 29.1566 179.905 28.9561C180.024 28.751 180.11 28.514 180.165 28.2451C180.224 27.9762 180.254 27.6868 180.254 27.377V27.2334C180.254 26.9326 180.224 26.6501 180.165 26.3857C180.11 26.1169 180.021 25.8799 179.898 25.6748C179.78 25.4652 179.623 25.3011 179.427 25.1826C179.231 25.0641 178.994 25.0049 178.716 25.0049C178.438 25.0049 178.201 25.0641 178.005 25.1826C177.813 25.3011 177.656 25.4652 177.533 25.6748C177.415 25.8799 177.328 26.1169 177.273 26.3857C177.219 26.6501 177.191 26.9326 177.191 27.2334ZM187.972 20.3496H189.564C189.564 20.7188 189.519 21.0355 189.428 21.2998C189.337 21.5596 189.191 21.7829 188.99 21.9697C188.79 22.152 188.521 22.307 188.184 22.4346C187.846 22.5622 187.429 22.6715 186.933 22.7627C186.55 22.8402 186.217 22.9678 185.935 23.1455C185.657 23.3232 185.426 23.5671 185.244 23.877C185.066 24.1823 184.939 24.5697 184.861 25.0391C184.784 25.5039 184.757 26.0645 184.779 26.7207V27.0488L183.248 27.2607V26.9326C183.253 26.0394 183.332 25.2624 183.487 24.6016C183.647 23.9408 183.872 23.3848 184.164 22.9336C184.456 22.4779 184.807 22.1156 185.217 21.8467C185.627 21.5732 186.083 21.3818 186.584 21.2725C186.921 21.1995 187.19 21.1289 187.391 21.0605C187.596 20.9876 187.744 20.8965 187.835 20.7871C187.926 20.6777 187.972 20.5319 187.972 20.3496ZM187.11 24.0205C187.612 24.0205 188.056 24.1071 188.443 24.2803C188.831 24.4489 189.157 24.6882 189.421 24.998C189.685 25.3079 189.886 25.6725 190.022 26.0918C190.159 26.5111 190.228 26.9691 190.228 27.4658V27.6094C190.228 28.1152 190.15 28.5846 189.995 29.0176C189.845 29.446 189.621 29.8197 189.325 30.1387C189.029 30.4577 188.664 30.7061 188.231 30.8838C187.799 31.057 187.304 31.1436 186.748 31.1436C186.188 31.1436 185.688 31.0501 185.251 30.8633C184.818 30.6719 184.451 30.4053 184.15 30.0635C183.854 29.7171 183.629 29.3138 183.474 28.8535C183.323 28.3887 183.248 27.8828 183.248 27.3359V27.1855C183.248 27.1081 183.282 27.0329 183.351 26.96C183.424 26.8825 183.508 26.7959 183.604 26.7002C183.704 26.6045 183.793 26.4837 183.87 26.3379C184.144 25.832 184.442 25.4082 184.766 25.0664C185.089 24.7201 185.442 24.4603 185.825 24.2871C186.213 24.1094 186.641 24.0205 187.11 24.0205ZM186.734 25.5586C186.365 25.5586 186.069 25.6475 185.846 25.8252C185.622 25.9984 185.461 26.2308 185.36 26.5225C185.265 26.8096 185.217 27.124 185.217 27.4658V27.6094C185.217 27.8874 185.244 28.1471 185.299 28.3887C185.354 28.6257 185.44 28.8376 185.559 29.0244C185.677 29.2067 185.834 29.3503 186.03 29.4551C186.226 29.5553 186.465 29.6055 186.748 29.6055C187.021 29.6055 187.254 29.5553 187.445 29.4551C187.641 29.3503 187.799 29.2067 187.917 29.0244C188.035 28.8376 188.122 28.6257 188.177 28.3887C188.231 28.1471 188.259 27.8874 188.259 27.6094V27.4658C188.259 27.2061 188.231 26.9622 188.177 26.7344C188.122 26.502 188.035 26.2992 187.917 26.126C187.799 25.9482 187.641 25.8092 187.445 25.709C187.249 25.6087 187.012 25.5586 186.734 25.5586ZM194.479 29.5986C194.721 29.5986 194.935 29.5531 195.122 29.4619C195.309 29.3662 195.455 29.234 195.56 29.0654C195.669 28.8923 195.726 28.6895 195.73 28.457H197.583C197.578 28.9766 197.439 29.4391 197.166 29.8447C196.893 30.2458 196.526 30.5625 196.065 30.7949C195.605 31.0228 195.09 31.1367 194.521 31.1367C193.946 31.1367 193.445 31.041 193.017 30.8496C192.593 30.6582 192.24 30.3939 191.957 30.0566C191.674 29.7148 191.463 29.3184 191.321 28.8672C191.18 28.4115 191.109 27.9238 191.109 27.4043V27.2061C191.109 26.682 191.18 26.1943 191.321 25.7432C191.463 25.2874 191.674 24.891 191.957 24.5537C192.24 24.2119 192.593 23.9453 193.017 23.7539C193.44 23.5625 193.937 23.4668 194.507 23.4668C195.113 23.4668 195.644 23.583 196.1 23.8154C196.56 24.0479 196.92 24.3805 197.18 24.8135C197.444 25.2419 197.578 25.75 197.583 26.3379H195.73C195.726 26.0918 195.674 25.8685 195.573 25.668C195.478 25.4674 195.336 25.3079 195.149 25.1895C194.967 25.0664 194.742 25.0049 194.473 25.0049C194.186 25.0049 193.951 25.0664 193.769 25.1895C193.586 25.3079 193.445 25.472 193.345 25.6816C193.244 25.8867 193.174 26.1214 193.133 26.3857C193.096 26.6455 193.078 26.9189 193.078 27.2061V27.4043C193.078 27.6914 193.096 27.9671 193.133 28.2314C193.169 28.4958 193.238 28.7305 193.338 28.9355C193.443 29.1406 193.586 29.3024 193.769 29.4209C193.951 29.5394 194.188 29.5986 194.479 29.5986ZM203.701 23.6035V25.1484H200.064V23.6035H203.701ZM205.144 23.6035V31H203.175V23.6035H205.144ZM199.572 23.6035H201.507L201.309 27.3359C201.281 27.8691 201.224 28.3385 201.138 28.7441C201.051 29.1497 200.935 29.4961 200.789 29.7832C200.648 30.0703 200.477 30.305 200.276 30.4873C200.08 30.665 199.85 30.7949 199.586 30.877C199.326 30.959 199.039 31 198.725 31H198.123L198.103 29.4482L198.355 29.4209C198.501 29.4072 198.629 29.3662 198.738 29.2979C198.852 29.2249 198.948 29.1224 199.025 28.9902C199.107 28.8535 199.176 28.6826 199.23 28.4775C199.285 28.2679 199.328 28.0218 199.36 27.7393C199.397 27.4567 199.422 27.1309 199.436 26.7617L199.572 23.6035ZM208.862 30.166L210.824 23.6035H212.937L209.963 32.1143C209.899 32.3011 209.812 32.5016 209.703 32.7158C209.598 32.93 209.455 33.1328 209.272 33.3242C209.095 33.5202 208.869 33.6797 208.596 33.8027C208.327 33.9258 207.996 33.9873 207.604 33.9873C207.418 33.9873 207.265 33.9759 207.146 33.9531C207.028 33.9303 206.887 33.8984 206.723 33.8574V32.415C206.773 32.415 206.825 32.415 206.88 32.415C206.935 32.4196 206.987 32.4219 207.037 32.4219C207.297 32.4219 207.509 32.3923 207.673 32.333C207.837 32.2738 207.969 32.1826 208.069 32.0596C208.17 31.9411 208.249 31.7861 208.309 31.5947L208.862 30.166ZM208.042 23.6035L209.648 28.9629L209.929 31.0479L208.589 31.1914L205.93 23.6035H208.042ZM216.334 28.2109L213.258 23.6035H215.698L217.271 26.3926H218.686L218.446 28.2109H216.334ZM217.298 27.876L215.609 31H213.237L215.691 26.9258L217.298 27.876ZM219.964 23.6035V31H217.995V23.6035H219.964ZM224.722 23.6035L221.646 28.2109H219.533L219.294 26.3926H220.709L222.274 23.6035H224.722ZM222.363 31L220.675 27.876L222.343 26.9258L224.783 31H222.363ZM227.702 28.252L230.184 23.6035H232.152V31H230.184V26.3447L227.702 31H225.733V23.6035H227.702V28.252ZM237.354 27.9102H235.037L235.023 26.6182H236.938C237.193 26.6182 237.4 26.5931 237.56 26.543C237.719 26.4883 237.835 26.4085 237.908 26.3037C237.986 26.1943 238.024 26.0622 238.024 25.9072C238.024 25.7705 237.999 25.6543 237.949 25.5586C237.904 25.4583 237.833 25.3763 237.737 25.3125C237.642 25.2487 237.521 25.2031 237.375 25.1758C237.234 25.1439 237.067 25.1279 236.876 25.1279H235.769V31H233.8V23.6035H236.876C237.359 23.6035 237.792 23.6468 238.175 23.7334C238.558 23.8154 238.883 23.9408 239.152 24.1094C239.426 24.278 239.633 24.4922 239.774 24.752C239.92 25.0072 239.993 25.3102 239.993 25.6611C239.993 25.889 239.941 26.1032 239.836 26.3037C239.736 26.5042 239.585 26.682 239.385 26.8369C239.184 26.9919 238.936 27.1195 238.64 27.2197C238.348 27.3154 238.011 27.3747 237.628 27.3975L237.354 27.9102ZM237.354 31H234.552L235.229 29.4756H237.354C237.596 29.4756 237.794 29.446 237.949 29.3867C238.104 29.3275 238.218 29.2409 238.291 29.127C238.368 29.0085 238.407 28.8672 238.407 28.7031C238.407 28.5436 238.373 28.4046 238.305 28.2861C238.236 28.1676 238.125 28.0765 237.97 28.0127C237.819 27.9443 237.614 27.9102 237.354 27.9102H235.516L235.529 26.6182H237.621L238.1 27.1377C238.619 27.1696 239.048 27.2676 239.385 27.4316C239.722 27.5957 239.97 27.8053 240.13 28.0605C240.294 28.3112 240.376 28.5869 240.376 28.8877C240.376 29.2386 240.31 29.5462 240.178 29.8105C240.046 30.0749 239.85 30.2959 239.59 30.4736C239.335 30.6468 239.02 30.779 238.646 30.8701C238.273 30.9567 237.842 31 237.354 31ZM245.578 29.332V26.0371C245.578 25.8001 245.539 25.5973 245.462 25.4287C245.384 25.2555 245.264 25.1211 245.1 25.0254C244.94 24.9297 244.733 24.8818 244.478 24.8818C244.259 24.8818 244.07 24.9206 243.91 24.998C243.751 25.071 243.628 25.1781 243.541 25.3193C243.454 25.4561 243.411 25.6178 243.411 25.8047H241.442C241.442 25.4902 241.515 25.1917 241.661 24.9092C241.807 24.6266 242.019 24.3783 242.297 24.1641C242.575 23.9453 242.905 23.7744 243.288 23.6514C243.675 23.5283 244.108 23.4668 244.587 23.4668C245.161 23.4668 245.672 23.5625 246.118 23.7539C246.565 23.9453 246.916 24.2324 247.171 24.6152C247.431 24.998 247.561 25.4766 247.561 26.0508V29.2158C247.561 29.6214 247.586 29.9541 247.636 30.2139C247.686 30.4691 247.759 30.6924 247.854 30.8838V31H245.865C245.77 30.7995 245.697 30.5488 245.646 30.248C245.601 29.9427 245.578 29.6374 245.578 29.332ZM245.838 26.4951L245.852 27.6094H244.751C244.491 27.6094 244.266 27.639 244.074 27.6982C243.883 27.7575 243.726 27.8418 243.603 27.9512C243.479 28.056 243.388 28.179 243.329 28.3203C243.274 28.4616 243.247 28.6165 243.247 28.7852C243.247 28.9538 243.286 29.1064 243.363 29.2432C243.441 29.3753 243.552 29.4801 243.698 29.5576C243.844 29.6305 244.015 29.667 244.211 29.667C244.507 29.667 244.765 29.6077 244.983 29.4893C245.202 29.3708 245.371 29.2249 245.489 29.0518C245.612 28.8786 245.676 28.7145 245.681 28.5596L246.2 29.3936C246.127 29.5804 246.027 29.7741 245.899 29.9746C245.776 30.1751 245.619 30.3643 245.428 30.542C245.236 30.7152 245.006 30.8587 244.737 30.9727C244.468 31.082 244.149 31.1367 243.78 31.1367C243.311 31.1367 242.885 31.0433 242.502 30.8564C242.124 30.665 241.823 30.403 241.6 30.0703C241.381 29.7331 241.271 29.3503 241.271 28.9219C241.271 28.5345 241.344 28.1904 241.49 27.8896C241.636 27.5889 241.85 27.3359 242.133 27.1309C242.42 26.9212 242.778 26.764 243.206 26.6592C243.634 26.5498 244.131 26.4951 244.696 26.4951H245.838ZM254.144 26.5908V28.1221H250.384V26.5908H254.144ZM251.04 23.6035V31H249.071V23.6035H251.04ZM255.477 23.6035V31H253.501V23.6035H255.477ZM258.97 28.252L261.451 23.6035H263.42V31H261.451V26.3447L258.97 31H257.001V23.6035H258.97V28.252ZM268.342 31.1367C267.768 31.1367 267.253 31.0456 266.797 30.8633C266.341 30.6764 265.954 30.4189 265.635 30.0908C265.32 29.7627 265.079 29.3822 264.91 28.9492C264.742 28.5117 264.657 28.0469 264.657 27.5547V27.2812C264.657 26.7207 264.737 26.208 264.896 25.7432C265.056 25.2783 265.284 24.875 265.58 24.5332C265.881 24.1914 266.245 23.9294 266.674 23.7471C267.102 23.5602 267.585 23.4668 268.123 23.4668C268.647 23.4668 269.112 23.5534 269.518 23.7266C269.923 23.8997 270.263 24.1458 270.536 24.4648C270.814 24.7839 271.024 25.1667 271.165 25.6133C271.306 26.0553 271.377 26.5475 271.377 27.0898V27.9102H265.498V26.5977H269.442V26.4473C269.442 26.1738 269.392 25.93 269.292 25.7158C269.196 25.4971 269.05 25.3239 268.854 25.1963C268.659 25.0687 268.408 25.0049 268.103 25.0049C267.843 25.0049 267.619 25.0618 267.433 25.1758C267.246 25.2897 267.093 25.4492 266.975 25.6543C266.861 25.8594 266.774 26.1009 266.715 26.3789C266.66 26.6523 266.633 26.9531 266.633 27.2812V27.5547C266.633 27.8509 266.674 28.1243 266.756 28.375C266.842 28.6257 266.963 28.8421 267.118 29.0244C267.278 29.2067 267.469 29.348 267.692 29.4482C267.92 29.5485 268.178 29.5986 268.465 29.5986C268.82 29.5986 269.151 29.5303 269.456 29.3936C269.766 29.2523 270.033 29.0404 270.256 28.7578L271.213 29.7969C271.058 30.0202 270.846 30.2344 270.577 30.4395C270.313 30.6445 269.994 30.8132 269.62 30.9453C269.246 31.0729 268.82 31.1367 268.342 31.1367Z" fill="white"/>
<path fill-rule="evenodd" clip-rule="evenodd" d="M14.893 23.3139L15.802 23.0109C16.001 22.9449 16.219 23.0099 16.35 23.1729C16.653 23.5509 16.996 23.8949 17.373 24.1989C17.525 24.3209 17.592 24.5199 17.545 24.7079C17.519 24.8119 17.491 24.9149 17.461 25.0159L17.297 25.5109L17.291 25.5269C16.21 28.4299 13.412 30.4999 10.135 30.4999C5.921 30.4999 2.5 27.0789 2.5 22.8649C2.5 16.2599 8.974 3.14795 9.691 1.76895C9.803 1.55395 10.054 1.44995 10.286 1.52295C10.518 1.59695 10.663 1.82695 10.63 2.06795C10.582 2.41895 10.816 3.09095 11.173 4.00395C12.109 6.39595 13.998 10.203 15.51 14.0259C15.581 14.207 15.542 14.412 15.408 14.5529C15.276 14.693 15.076 14.7449 14.893 14.6859C14.747 14.9109 14.612 15.144 14.49 15.3829L15.207 16.0199C15.363 16.1589 15.417 16.3809 15.341 16.575C15.163 17.0319 15.036 17.5059 14.961 17.9899C14.93 18.1969 14.773 18.3619 14.568 18.4049L13.629 18.5969C13.615 18.8659 13.615 19.1339 13.629 19.4029L14.568 19.5949C14.773 19.6379 14.93 19.8029 14.961 20.0099C15.036 20.4939 15.163 20.9679 15.341 21.4249C15.417 21.6189 15.363 21.8409 15.207 21.9799L14.49 22.6169C14.612 22.8559 14.747 23.0879 14.893 23.3139ZM9.936 3.52095C8.133 7.22595 3.5 17.3539 3.5 22.8649C3.5 26.5269 6.473 29.4999 10.135 29.4999C12.981 29.4999 15.41 27.7039 16.352 25.1849L16.492 24.7639C16.245 24.5469 16.013 24.3139 15.796 24.0669L14.85 24.3819C14.641 24.4509 14.413 24.3769 14.285 24.1979C13.949 23.7279 13.659 23.2269 13.42 22.7009C13.33 22.5009 13.379 22.2649 13.543 22.1199L14.289 21.4579C14.184 21.1469 14.099 20.8289 14.034 20.5069L13.057 20.3059C12.843 20.2619 12.682 20.0829 12.66 19.8649C12.605 19.2899 12.605 18.7099 12.66 18.1349C12.682 17.9169 12.843 17.7379 13.057 17.6939L14.034 17.4929C14.099 17.1709 14.184 16.8539 14.289 16.5419L13.543 15.8799C13.379 15.735 13.33 15.4989 13.42 15.2989C13.659 14.7729 13.949 14.2719 14.285 13.8019C14.297 13.785 14.31 13.7689 14.323 13.7539C12.86 10.1489 11.125 6.62795 10.242 4.36795C10.123 4.06495 10.021 3.78195 9.936 3.52095Z" fill="white"/>
<path fill-rule="evenodd" clip-rule="evenodd" d="M20.0534 11.4751L20.2534 10.4981C20.2974 10.2831 20.4764 10.1221 20.6954 10.1011C21.2704 10.0451 21.8494 10.0451 22.4244 10.1011C22.6424 10.1221 22.8214 10.2831 22.8654 10.4981L23.0664 11.4751C23.3884 11.5391 23.7064 11.6241 24.0174 11.7301L24.6794 10.9841C24.8254 10.8201 25.0604 10.7701 25.2604 10.8611C25.7864 11.1001 26.2874 11.3901 26.7584 11.7261C26.9364 11.8531 27.0104 12.0821 26.9414 12.2901L26.6274 13.2361C26.8734 13.4531 27.1064 13.6861 27.3234 13.9331L28.2694 13.6181C28.4774 13.5491 28.7064 13.6231 28.8344 13.8021C29.1694 14.2721 29.4594 14.7731 29.6984 15.2991C29.7894 15.4991 29.7394 15.7351 29.5754 15.8801L28.8304 16.5421C28.9354 16.8531 29.0204 17.1711 29.0844 17.4931L30.0614 17.6941C30.2764 17.7381 30.4374 17.9171 30.4584 18.1351C30.5144 18.7101 30.5144 19.2901 30.4584 19.8651C30.4374 20.0831 30.2764 20.2621 30.0614 20.3061L29.0844 20.5071C29.0204 20.8291 28.9354 21.1461 28.8304 21.4581L29.5754 22.1201C29.7394 22.2651 29.7894 22.5011 29.6984 22.7011C29.4594 23.2271 29.1694 23.7281 28.8344 24.1981C28.7064 24.3771 28.4774 24.4511 28.2694 24.3821L27.3234 24.0671C27.1064 24.3141 26.8744 24.5471 26.6274 24.7641L26.9414 25.7101C27.0104 25.9181 26.9364 26.1471 26.7584 26.2741C26.2874 26.6101 25.7864 26.9001 25.2604 27.1391C25.0604 27.2301 24.8254 27.1801 24.6794 27.0161L24.0174 26.2701C23.7064 26.3761 23.3884 26.4611 23.0664 26.5251L22.8654 27.5021C22.8214 27.7171 22.6424 27.8781 22.4244 27.8991C21.8494 27.9551 21.2704 27.9551 20.6954 27.8991C20.4764 27.8781 20.2974 27.7171 20.2534 27.5021L20.0534 26.5251C19.7304 26.4611 19.4134 26.3761 19.1024 26.2701L18.4404 27.0161C18.2944 27.1801 18.0584 27.2301 17.8594 27.1391C17.3334 26.9001 16.8314 26.6101 16.3614 26.2741C16.1834 26.1471 16.1084 25.9181 16.1774 25.7101L16.4924 24.7641C16.2454 24.5471 16.0134 24.3141 15.7964 24.0671L14.8504 24.3821C14.6414 24.4511 14.4134 24.3771 14.2854 24.1981C13.9494 23.7281 13.6594 23.2271 13.4204 22.7011C13.3304 22.5011 13.3794 22.2651 13.5434 22.1201L14.2894 21.4581C14.1844 21.1471 14.0994 20.8291 14.0344 20.5071L13.0574 20.3061C12.8434 20.2621 12.6824 20.0831 12.6604 19.8651C12.6054 19.2901 12.6054 18.7101 12.6604 18.1351C12.6824 17.9171 12.8434 17.7381 13.0574 17.6941L14.0344 17.4931C14.0994 17.1711 14.1844 16.8541 14.2894 16.5421L13.5434 15.8801C13.3794 15.7351 13.3304 15.4991 13.4204 15.2991C13.6594 14.7731 13.9494 14.2721 14.2854 13.8021C14.4134 13.6231 14.6414 13.5491 14.8504 13.6181L15.7964 13.9331C16.0124 13.6861 16.2454 13.4531 16.4924 13.2361L16.1774 12.2901C16.1084 12.0821 16.1834 11.8531 16.3614 11.7261C16.8314 11.3901 17.3334 11.1001 17.8594 10.8611C18.0584 10.7701 18.2944 10.8201 18.4404 10.9841L19.1024 11.7301C19.4134 11.6241 19.7304 11.5391 20.0534 11.4751ZM21.9624 11.0701C21.6944 11.0561 21.4254 11.0561 21.1574 11.0701L20.9644 12.0091C20.9224 12.2131 20.7564 12.3711 20.5504 12.4021C20.0664 12.4761 19.5914 12.6031 19.1354 12.7811C18.9404 12.8571 18.7184 12.8041 18.5794 12.6471L17.9434 11.9311C17.7044 12.0531 17.4714 12.1871 17.2454 12.3331L17.5484 13.2431C17.6144 13.4411 17.5494 13.6601 17.3864 13.7911C17.0044 14.0971 16.6564 14.4451 16.3504 14.8271C16.2194 14.9901 16.0014 15.0551 15.8024 14.9891L14.8934 14.6861C14.7474 14.9121 14.6124 15.1441 14.4904 15.3831L15.2074 16.0201C15.3634 16.1591 15.4174 16.3811 15.3414 16.5751C15.1634 17.0321 15.0364 17.5061 14.9614 17.9901C14.9304 18.1971 14.7734 18.3621 14.5684 18.4051L13.6294 18.5971C13.6154 18.8661 13.6154 19.1341 13.6294 19.4031L14.5684 19.5951C14.7734 19.6381 14.9304 19.8031 14.9614 20.0101C15.0364 20.4941 15.1634 20.9681 15.3414 21.4251C15.4174 21.6191 15.3634 21.8411 15.2074 21.9801L14.4904 22.6171C14.6124 22.8561 14.7474 23.0881 14.8934 23.3141L15.8024 23.0111C16.0014 22.9451 16.2194 23.0101 16.3504 23.1731C16.6564 23.5551 17.0044 23.9031 17.3864 24.2091C17.5494 24.3401 17.6144 24.5591 17.5484 24.7571L17.2454 25.6671C17.4714 25.8131 17.7044 25.9471 17.9434 26.0691L18.5794 25.3531C18.7184 25.1961 18.9404 25.1431 19.1354 25.2191C19.5914 25.3971 20.0664 25.5241 20.5504 25.5981C20.7564 25.6291 20.9224 25.7871 20.9644 25.9911L21.1574 26.9301C21.4254 26.9441 21.6944 26.9441 21.9624 26.9301L22.1554 25.9911C22.1974 25.7871 22.3624 25.6291 22.5694 25.5981C23.0534 25.5241 23.5284 25.3971 23.9844 25.2191C24.1794 25.1431 24.4004 25.1961 24.5394 25.3531L25.1764 26.0691C25.4154 25.9471 25.6484 25.8131 25.8734 25.6671L25.5714 24.7571C25.5054 24.5591 25.5694 24.3401 25.7334 24.2091C26.1154 23.9031 26.4624 23.5551 26.7684 23.1731C26.8994 23.0101 27.1184 22.9451 27.3164 23.0111L28.2264 23.3141C28.3724 23.0881 28.5064 22.8561 28.6294 22.6171L27.9124 21.9801C27.7554 21.8411 27.7024 21.6191 27.7784 21.4251C27.9564 20.9681 28.0834 20.4941 28.1574 20.0101C28.1894 19.8031 28.3464 19.6381 28.5514 19.5951L29.4904 19.4031C29.5034 19.1341 29.5034 18.8661 29.4904 18.5971L28.5514 18.4051C28.3464 18.3621 28.1894 18.1971 28.1574 17.9901C28.0834 17.5061 27.9564 17.0321 27.7784 16.5751C27.7024 16.3811 27.7554 16.1591 27.9124 16.0201L28.6294 15.3831C28.5064 15.1441 28.3724 14.9121 28.2264 14.6861L27.3164 14.9891C27.1184 15.0551 26.8994 14.9901 26.7684 14.8271C26.4624 14.4451 26.1154 14.0971 25.7334 13.7911C25.5694 13.6601 25.5054 13.4411 25.5714 13.2431L25.8734 12.3331C25.6484 12.1871 25.4154 12.0531 25.1764 11.9311L24.5394 12.6471C24.4004 12.8041 24.1794 12.8571 23.9844 12.7811C23.5284 12.6031 23.0534 12.4761 22.5694 12.4021C22.3624 12.3711 22.1974 12.2131 22.1554 12.0091L21.9624 11.0701ZM21.5594 15.4141C19.5804 15.4141 17.9734 17.0211 17.9734 19.0001C17.9734 20.9791 19.5804 22.5861 21.5594 22.5861C23.5384 22.5861 25.1454 20.9791 25.1454 19.0001C25.1454 17.0211 23.5384 15.4141 21.5594 15.4141ZM21.5594 16.4141C22.9864 16.4141 24.1454 17.5731 24.1454 19.0001C24.1454 20.4271 22.9864 21.5861 21.5594 21.5861C20.1324 21.5861 18.9734 20.4271 18.9734 19.0001C18.9734 17.5731 20.1324 16.4141 21.5594 16.4141Z" fill="white"/>
<path fill-rule="evenodd" clip-rule="evenodd" d="M5.52883 19.664C5.52883 19.664 3.34583 25.867 8.85983 27.48C9.12483 27.557 9.40183 27.405 9.47983 27.14C9.55683 26.875 9.40483 26.598 9.13983 26.52C4.56883 25.183 6.47083 20.002 6.47083 20.002C6.56383 19.742 6.42883 19.456 6.16883 19.362C5.90883 19.269 5.62283 19.404 5.52883 19.664Z" fill="white"/>
</svg>
