<svg width="274" height="32" viewBox="0 0 274 32" fill="none" xmlns="http://www.w3.org/2000/svg">
<path d="M50.9961 3.04688V13H48.9453V4.65332H44.9463V13H42.8955V3.04688H50.9961ZM52.3496 9.37695V9.2334C52.3496 8.69108 52.4271 8.19206 52.582 7.73633C52.737 7.27604 52.9626 6.87728 53.2588 6.54004C53.555 6.2028 53.9196 5.94076 54.3525 5.75391C54.7855 5.5625 55.2822 5.4668 55.8428 5.4668C56.4033 5.4668 56.9023 5.5625 57.3398 5.75391C57.7773 5.94076 58.1442 6.2028 58.4404 6.54004C58.7412 6.87728 58.9691 7.27604 59.124 7.73633C59.279 8.19206 59.3564 8.69108 59.3564 9.2334V9.37695C59.3564 9.91471 59.279 10.4137 59.124 10.874C58.9691 11.3298 58.7412 11.7285 58.4404 12.0703C58.1442 12.4076 57.7796 12.6696 57.3467 12.8564C56.9137 13.0433 56.417 13.1367 55.8564 13.1367C55.2959 13.1367 54.7969 13.0433 54.3594 12.8564C53.9264 12.6696 53.5596 12.4076 53.2588 12.0703C52.9626 11.7285 52.737 11.3298 52.582 10.874C52.4271 10.4137 52.3496 9.91471 52.3496 9.37695ZM54.3184 9.2334V9.37695C54.3184 9.68685 54.3457 9.97624 54.4004 10.2451C54.4551 10.514 54.5417 10.751 54.6602 10.9561C54.7832 11.1566 54.9427 11.3138 55.1387 11.4277C55.3346 11.5417 55.5739 11.5986 55.8564 11.5986C56.1299 11.5986 56.3646 11.5417 56.5605 11.4277C56.7565 11.3138 56.9137 11.1566 57.0322 10.9561C57.1507 10.751 57.2373 10.514 57.292 10.2451C57.3512 9.97624 57.3809 9.68685 57.3809 9.37695V9.2334C57.3809 8.93262 57.3512 8.65007 57.292 8.38574C57.2373 8.11686 57.1484 7.87988 57.0254 7.6748C56.9069 7.46517 56.7497 7.30111 56.5537 7.18262C56.3577 7.06413 56.1208 7.00488 55.8428 7.00488C55.5648 7.00488 55.3278 7.06413 55.1318 7.18262C54.9404 7.30111 54.7832 7.46517 54.6602 7.6748C54.5417 7.87988 54.4551 8.11686 54.4004 8.38574C54.3457 8.65007 54.3184 8.93262 54.3184 9.2334ZM63.6221 11.5986C63.8636 11.5986 64.0778 11.5531 64.2646 11.4619C64.4515 11.3662 64.5973 11.234 64.7021 11.0654C64.8115 10.8923 64.8685 10.6895 64.873 10.457H66.7256C66.721 10.9766 66.582 11.4391 66.3086 11.8447C66.0352 12.2458 65.6683 12.5625 65.208 12.7949C64.7477 13.0228 64.2327 13.1367 63.6631 13.1367C63.0889 13.1367 62.5876 13.041 62.1592 12.8496C61.7354 12.6582 61.3822 12.3939 61.0996 12.0566C60.8171 11.7148 60.6051 11.3184 60.4639 10.8672C60.3226 10.4115 60.252 9.92383 60.252 9.4043V9.20605C60.252 8.68197 60.3226 8.19434 60.4639 7.74316C60.6051 7.28743 60.8171 6.89095 61.0996 6.55371C61.3822 6.21191 61.7354 5.94531 62.1592 5.75391C62.583 5.5625 63.0798 5.4668 63.6494 5.4668C64.2555 5.4668 64.7865 5.58301 65.2422 5.81543C65.7025 6.04785 66.0625 6.38053 66.3223 6.81348C66.5866 7.24186 66.721 7.75 66.7256 8.33789H64.873C64.8685 8.0918 64.8161 7.86849 64.7158 7.66797C64.6201 7.46745 64.4788 7.30794 64.292 7.18945C64.1097 7.06641 63.8841 7.00488 63.6152 7.00488C63.3281 7.00488 63.0934 7.06641 62.9111 7.18945C62.7288 7.30794 62.5876 7.47201 62.4873 7.68164C62.387 7.88672 62.3164 8.12142 62.2754 8.38574C62.2389 8.64551 62.2207 8.91895 62.2207 9.20605V9.4043C62.2207 9.69141 62.2389 9.96712 62.2754 10.2314C62.3118 10.4958 62.3802 10.7305 62.4805 10.9355C62.5853 11.1406 62.7288 11.3024 62.9111 11.4209C63.0934 11.5394 63.3304 11.5986 63.6221 11.5986ZM71.6338 5.60352V13H69.6582V5.60352H71.6338ZM74.0127 5.60352V7.12793H67.3135V5.60352H74.0127ZM78.9004 11.332V8.03711C78.9004 7.80013 78.8617 7.59733 78.7842 7.42871C78.7067 7.25553 78.5859 7.12109 78.4219 7.02539C78.2624 6.92969 78.055 6.88184 77.7998 6.88184C77.5811 6.88184 77.3919 6.92057 77.2324 6.99805C77.0729 7.07096 76.9499 7.17806 76.8633 7.31934C76.7767 7.45605 76.7334 7.61784 76.7334 7.80469H74.7646C74.7646 7.49023 74.8376 7.19173 74.9834 6.90918C75.1292 6.62663 75.3411 6.37826 75.6191 6.16406C75.8971 5.94531 76.2275 5.77441 76.6104 5.65137C76.9977 5.52832 77.4307 5.4668 77.9092 5.4668C78.4834 5.4668 78.9938 5.5625 79.4404 5.75391C79.887 5.94531 80.238 6.23242 80.4932 6.61523C80.7529 6.99805 80.8828 7.47656 80.8828 8.05078V11.2158C80.8828 11.6214 80.9079 11.9541 80.958 12.2139C81.0081 12.4691 81.0811 12.6924 81.1768 12.8838V13H79.1875C79.0918 12.7995 79.0189 12.5488 78.9688 12.248C78.9232 11.9427 78.9004 11.6374 78.9004 11.332ZM79.1602 8.49512L79.1738 9.60938H78.0732C77.8135 9.60938 77.5879 9.639 77.3965 9.69824C77.2051 9.75749 77.0479 9.8418 76.9248 9.95117C76.8018 10.056 76.7106 10.179 76.6514 10.3203C76.5967 10.4616 76.5693 10.6165 76.5693 10.7852C76.5693 10.9538 76.6081 11.1064 76.6855 11.2432C76.763 11.3753 76.8747 11.4801 77.0205 11.5576C77.1663 11.6305 77.3372 11.667 77.5332 11.667C77.8294 11.667 78.0869 11.6077 78.3057 11.4893C78.5244 11.3708 78.693 11.2249 78.8115 11.0518C78.9346 10.8786 78.9984 10.7145 79.0029 10.5596L79.5225 11.3936C79.4495 11.5804 79.3493 11.7741 79.2217 11.9746C79.0986 12.1751 78.9414 12.3643 78.75 12.542C78.5586 12.7152 78.3285 12.8587 78.0596 12.9727C77.7907 13.082 77.4717 13.1367 77.1025 13.1367C76.6331 13.1367 76.207 13.0433 75.8242 12.8564C75.446 12.665 75.1452 12.403 74.9219 12.0703C74.7031 11.7331 74.5938 11.3503 74.5938 10.9219C74.5938 10.5345 74.6667 10.1904 74.8125 9.88965C74.9583 9.58887 75.1725 9.33594 75.4551 9.13086C75.7422 8.92122 76.0999 8.764 76.5283 8.65918C76.9567 8.5498 77.4535 8.49512 78.0186 8.49512H79.1602ZM86.085 9.91016H83.7676L83.7539 8.61816H85.668C85.9232 8.61816 86.1305 8.5931 86.29 8.54297C86.4495 8.48828 86.5658 8.40853 86.6387 8.30371C86.7161 8.19434 86.7549 8.06217 86.7549 7.90723C86.7549 7.77051 86.7298 7.6543 86.6797 7.55859C86.6341 7.45833 86.5635 7.3763 86.4678 7.3125C86.3721 7.2487 86.2513 7.20312 86.1055 7.17578C85.9642 7.14388 85.7979 7.12793 85.6064 7.12793H84.499V13H82.5303V5.60352H85.6064C86.0895 5.60352 86.5225 5.64681 86.9053 5.7334C87.2881 5.81543 87.6139 5.94076 87.8828 6.10938C88.1562 6.27799 88.3636 6.49219 88.5049 6.75195C88.6507 7.00716 88.7236 7.31022 88.7236 7.66113C88.7236 7.889 88.6712 8.10319 88.5664 8.30371C88.4661 8.50423 88.3158 8.68197 88.1152 8.83691C87.9147 8.99186 87.6663 9.11947 87.3701 9.21973C87.0785 9.31543 86.7412 9.37467 86.3584 9.39746L86.085 9.91016ZM86.085 13H83.2822L83.959 11.4756H86.085C86.3265 11.4756 86.5247 11.446 86.6797 11.3867C86.8346 11.3275 86.9486 11.2409 87.0215 11.127C87.099 11.0085 87.1377 10.8672 87.1377 10.7031C87.1377 10.5436 87.1035 10.4046 87.0352 10.2861C86.9668 10.1676 86.8551 10.0765 86.7002 10.0127C86.5498 9.94434 86.3447 9.91016 86.085 9.91016H84.2461L84.2598 8.61816H86.3516L86.8301 9.1377C87.3496 9.1696 87.778 9.26758 88.1152 9.43164C88.4525 9.5957 88.7008 9.80534 88.8604 10.0605C89.0244 10.3112 89.1064 10.5869 89.1064 10.8877C89.1064 11.2386 89.0404 11.5462 88.9082 11.8105C88.776 12.0749 88.5801 12.2959 88.3203 12.4736C88.0651 12.6468 87.7507 12.779 87.377 12.8701C87.0033 12.9567 86.5726 13 86.085 13ZM92.415 5.60352V13H90.4463V5.60352H92.415ZM97.2207 5.60352L94.0352 10.2314H92.0664L91.8271 8.41309H93.1328L94.7256 5.60352H97.2207ZM94.8145 13L92.9961 9.87598L94.7119 8.92578L97.4531 13H94.8145ZM102.184 11.332V8.03711C102.184 7.80013 102.145 7.59733 102.067 7.42871C101.99 7.25553 101.869 7.12109 101.705 7.02539C101.546 6.92969 101.338 6.88184 101.083 6.88184C100.864 6.88184 100.675 6.92057 100.516 6.99805C100.356 7.07096 100.233 7.17806 100.146 7.31934C100.06 7.45605 100.017 7.61784 100.017 7.80469H98.0479C98.0479 7.49023 98.1208 7.19173 98.2666 6.90918C98.4124 6.62663 98.6243 6.37826 98.9023 6.16406C99.1803 5.94531 99.5107 5.77441 99.8936 5.65137C100.281 5.52832 100.714 5.4668 101.192 5.4668C101.767 5.4668 102.277 5.5625 102.724 5.75391C103.17 5.94531 103.521 6.23242 103.776 6.61523C104.036 6.99805 104.166 7.47656 104.166 8.05078V11.2158C104.166 11.6214 104.191 11.9541 104.241 12.2139C104.291 12.4691 104.364 12.6924 104.46 12.8838V13H102.471C102.375 12.7995 102.302 12.5488 102.252 12.248C102.206 11.9427 102.184 11.6374 102.184 11.332ZM102.443 8.49512L102.457 9.60938H101.356C101.097 9.60938 100.871 9.639 100.68 9.69824C100.488 9.75749 100.331 9.8418 100.208 9.95117C100.085 10.056 99.9938 10.179 99.9346 10.3203C99.8799 10.4616 99.8525 10.6165 99.8525 10.7852C99.8525 10.9538 99.8913 11.1064 99.9688 11.2432C100.046 11.3753 100.158 11.4801 100.304 11.5576C100.45 11.6305 100.62 11.667 100.816 11.667C101.113 11.667 101.37 11.6077 101.589 11.4893C101.808 11.3708 101.976 11.2249 102.095 11.0518C102.218 10.8786 102.282 10.7145 102.286 10.5596L102.806 11.3936C102.733 11.5804 102.632 11.7741 102.505 11.9746C102.382 12.1751 102.225 12.3643 102.033 12.542C101.842 12.7152 101.612 12.8587 101.343 12.9727C101.074 13.082 100.755 13.1367 100.386 13.1367C99.9163 13.1367 99.4902 13.0433 99.1074 12.8564C98.7292 12.665 98.4284 12.403 98.2051 12.0703C97.9863 11.7331 97.877 11.3503 97.877 10.9219C97.877 10.5345 97.9499 10.1904 98.0957 9.88965C98.2415 9.58887 98.4557 9.33594 98.7383 9.13086C99.0254 8.92122 99.3831 8.764 99.8115 8.65918C100.24 8.5498 100.737 8.49512 101.302 8.49512H102.443ZM107.55 11.3389L107.543 12.6582C107.543 13.1641 107.415 13.6745 107.16 14.1895C106.91 14.7044 106.59 15.126 106.203 15.4541L105.178 14.9277C105.292 14.7181 105.403 14.5085 105.513 14.2988C105.622 14.0892 105.713 13.859 105.786 13.6084C105.859 13.3577 105.896 13.0729 105.896 12.7539V11.3389H107.55ZM114.584 7.02539V15.8438H112.615V5.60352H114.44L114.584 7.02539ZM119.267 9.21973V9.36328C119.267 9.90104 119.203 10.4001 119.075 10.8604C118.952 11.3206 118.77 11.7217 118.528 12.0635C118.287 12.4007 117.986 12.665 117.626 12.8564C117.271 13.0433 116.86 13.1367 116.396 13.1367C115.944 13.1367 115.552 13.0456 115.22 12.8633C114.887 12.681 114.607 12.4258 114.379 12.0977C114.156 11.765 113.976 11.3799 113.839 10.9424C113.702 10.5049 113.597 10.0355 113.524 9.53418V9.1582C113.597 8.62044 113.702 8.12826 113.839 7.68164C113.976 7.23047 114.156 6.84082 114.379 6.5127C114.607 6.18001 114.885 5.92253 115.213 5.74023C115.546 5.55794 115.935 5.4668 116.382 5.4668C116.851 5.4668 117.264 5.55566 117.619 5.7334C117.979 5.91113 118.28 6.16634 118.521 6.49902C118.768 6.83171 118.952 7.22819 119.075 7.68848C119.203 8.14876 119.267 8.65918 119.267 9.21973ZM117.291 9.36328V9.21973C117.291 8.90527 117.264 8.61589 117.209 8.35156C117.159 8.08268 117.077 7.84798 116.963 7.64746C116.854 7.44694 116.708 7.29199 116.525 7.18262C116.348 7.06868 116.131 7.01172 115.876 7.01172C115.607 7.01172 115.377 7.05501 115.186 7.1416C114.999 7.22819 114.846 7.35352 114.728 7.51758C114.609 7.68164 114.52 7.8776 114.461 8.10547C114.402 8.33333 114.365 8.59082 114.352 8.87793V9.82812C114.374 10.1654 114.438 10.4684 114.543 10.7373C114.648 11.0016 114.81 11.2113 115.028 11.3662C115.247 11.5212 115.534 11.5986 115.89 11.5986C116.149 11.5986 116.368 11.5417 116.546 11.4277C116.724 11.3092 116.867 11.1475 116.977 10.9424C117.09 10.7373 117.17 10.5003 117.216 10.2314C117.266 9.96257 117.291 9.67318 117.291 9.36328ZM123.895 13.1367C123.32 13.1367 122.805 13.0456 122.35 12.8633C121.894 12.6764 121.507 12.4189 121.188 12.0908C120.873 11.7627 120.632 11.3822 120.463 10.9492C120.294 10.5117 120.21 10.0469 120.21 9.55469V9.28125C120.21 8.7207 120.29 8.20801 120.449 7.74316C120.609 7.27832 120.837 6.875 121.133 6.5332C121.434 6.19141 121.798 5.92936 122.227 5.74707C122.655 5.56022 123.138 5.4668 123.676 5.4668C124.2 5.4668 124.665 5.55339 125.07 5.72656C125.476 5.89974 125.815 6.14583 126.089 6.46484C126.367 6.78385 126.576 7.16667 126.718 7.61328C126.859 8.05534 126.93 8.54753 126.93 9.08984V9.91016H121.051V8.59766H124.995V8.44727C124.995 8.17383 124.945 7.93001 124.845 7.71582C124.749 7.49707 124.603 7.32389 124.407 7.19629C124.211 7.06868 123.961 7.00488 123.655 7.00488C123.396 7.00488 123.172 7.06185 122.985 7.17578C122.799 7.28971 122.646 7.44922 122.527 7.6543C122.413 7.85938 122.327 8.10091 122.268 8.37891C122.213 8.65234 122.186 8.95312 122.186 9.28125V9.55469C122.186 9.85091 122.227 10.1243 122.309 10.375C122.395 10.6257 122.516 10.8421 122.671 11.0244C122.83 11.2067 123.022 11.348 123.245 11.4482C123.473 11.5485 123.73 11.5986 124.018 11.5986C124.373 11.5986 124.703 11.5303 125.009 11.3936C125.319 11.2523 125.585 11.0404 125.809 10.7578L126.766 11.7969C126.611 12.0202 126.399 12.2344 126.13 12.4395C125.866 12.6445 125.547 12.8132 125.173 12.9453C124.799 13.0729 124.373 13.1367 123.895 13.1367ZM132.549 10.7373L134.49 5.60352H136.097L133.212 13H131.886L129.015 5.60352H130.621L132.549 10.7373ZM130.149 5.60352V13H128.181V5.60352H130.149ZM134.996 13V5.60352H136.965V13H134.996ZM138.373 9.37695V9.2334C138.373 8.69108 138.451 8.19206 138.605 7.73633C138.76 7.27604 138.986 6.87728 139.282 6.54004C139.578 6.2028 139.943 5.94076 140.376 5.75391C140.809 5.5625 141.306 5.4668 141.866 5.4668C142.427 5.4668 142.926 5.5625 143.363 5.75391C143.801 5.94076 144.168 6.2028 144.464 6.54004C144.765 6.87728 144.993 7.27604 145.147 7.73633C145.302 8.19206 145.38 8.69108 145.38 9.2334V9.37695C145.38 9.91471 145.302 10.4137 145.147 10.874C144.993 11.3298 144.765 11.7285 144.464 12.0703C144.168 12.4076 143.803 12.6696 143.37 12.8564C142.937 13.0433 142.44 13.1367 141.88 13.1367C141.319 13.1367 140.82 13.0433 140.383 12.8564C139.95 12.6696 139.583 12.4076 139.282 12.0703C138.986 11.7285 138.76 11.3298 138.605 10.874C138.451 10.4137 138.373 9.91471 138.373 9.37695ZM140.342 9.2334V9.37695C140.342 9.68685 140.369 9.97624 140.424 10.2451C140.479 10.514 140.565 10.751 140.684 10.9561C140.807 11.1566 140.966 11.3138 141.162 11.4277C141.358 11.5417 141.597 11.5986 141.88 11.5986C142.153 11.5986 142.388 11.5417 142.584 11.4277C142.78 11.3138 142.937 11.1566 143.056 10.9561C143.174 10.751 143.261 10.514 143.315 10.2451C143.375 9.97624 143.404 9.68685 143.404 9.37695V9.2334C143.404 8.93262 143.375 8.65007 143.315 8.38574C143.261 8.11686 143.172 7.87988 143.049 7.6748C142.93 7.46517 142.773 7.30111 142.577 7.18262C142.381 7.06413 142.144 7.00488 141.866 7.00488C141.588 7.00488 141.351 7.06413 141.155 7.18262C140.964 7.30111 140.807 7.46517 140.684 7.6748C140.565 7.87988 140.479 8.11686 140.424 8.38574C140.369 8.65007 140.342 8.93262 140.342 9.2334ZM151.655 8.59082V10.1221H147.896V8.59082H151.655ZM148.552 5.60352V13H146.583V5.60352H148.552ZM152.988 5.60352V13H151.013V5.60352H152.988ZM158.286 5.60352V13H156.311V5.60352H158.286ZM160.665 5.60352V7.12793H153.966V5.60352H160.665ZM167.118 10.252L169.6 5.60352H171.568V13H169.6V8.34473L167.118 13H165.149V5.60352H167.118V10.252ZM179.628 11.5986C179.869 11.5986 180.084 11.5531 180.271 11.4619C180.457 11.3662 180.603 11.234 180.708 11.0654C180.817 10.8923 180.874 10.6895 180.879 10.457H182.731C182.727 10.9766 182.588 11.4391 182.314 11.8447C182.041 12.2458 181.674 12.5625 181.214 12.7949C180.754 13.0228 180.239 13.1367 179.669 13.1367C179.095 13.1367 178.593 13.041 178.165 12.8496C177.741 12.6582 177.388 12.3939 177.105 12.0566C176.823 11.7148 176.611 11.3184 176.47 10.8672C176.328 10.4115 176.258 9.92383 176.258 9.4043V9.20605C176.258 8.68197 176.328 8.19434 176.47 7.74316C176.611 7.28743 176.823 6.89095 177.105 6.55371C177.388 6.21191 177.741 5.94531 178.165 5.75391C178.589 5.5625 179.086 5.4668 179.655 5.4668C180.261 5.4668 180.792 5.58301 181.248 5.81543C181.708 6.04785 182.068 6.38053 182.328 6.81348C182.592 7.24186 182.727 7.75 182.731 8.33789H180.879C180.874 8.0918 180.822 7.86849 180.722 7.66797C180.626 7.46745 180.485 7.30794 180.298 7.18945C180.116 7.06641 179.89 7.00488 179.621 7.00488C179.334 7.00488 179.099 7.06641 178.917 7.18945C178.735 7.30794 178.593 7.47201 178.493 7.68164C178.393 7.88672 178.322 8.12142 178.281 8.38574C178.245 8.64551 178.227 8.91895 178.227 9.20605V9.4043C178.227 9.69141 178.245 9.96712 178.281 10.2314C178.318 10.4958 178.386 10.7305 178.486 10.9355C178.591 11.1406 178.735 11.3024 178.917 11.4209C179.099 11.5394 179.336 11.5986 179.628 11.5986ZM187.277 13.1367C186.703 13.1367 186.188 13.0456 185.732 12.8633C185.277 12.6764 184.889 12.4189 184.57 12.0908C184.256 11.7627 184.014 11.3822 183.846 10.9492C183.677 10.5117 183.593 10.0469 183.593 9.55469V9.28125C183.593 8.7207 183.673 8.20801 183.832 7.74316C183.992 7.27832 184.219 6.875 184.516 6.5332C184.816 6.19141 185.181 5.92936 185.609 5.74707C186.038 5.56022 186.521 5.4668 187.059 5.4668C187.583 5.4668 188.048 5.55339 188.453 5.72656C188.859 5.89974 189.198 6.14583 189.472 6.46484C189.75 6.78385 189.959 7.16667 190.101 7.61328C190.242 8.05534 190.312 8.54753 190.312 9.08984V9.91016H184.434V8.59766H188.378V8.44727C188.378 8.17383 188.328 7.93001 188.228 7.71582C188.132 7.49707 187.986 7.32389 187.79 7.19629C187.594 7.06868 187.343 7.00488 187.038 7.00488C186.778 7.00488 186.555 7.06185 186.368 7.17578C186.181 7.28971 186.029 7.44922 185.91 7.6543C185.796 7.85938 185.71 8.10091 185.65 8.37891C185.596 8.65234 185.568 8.95312 185.568 9.28125V9.55469C185.568 9.85091 185.609 10.1243 185.691 10.375C185.778 10.6257 185.899 10.8421 186.054 11.0244C186.213 11.2067 186.405 11.348 186.628 11.4482C186.856 11.5485 187.113 11.5986 187.4 11.5986C187.756 11.5986 188.086 11.5303 188.392 11.3936C188.701 11.2523 188.968 11.0404 189.191 10.7578L190.148 11.7969C189.993 12.0202 189.782 12.2344 189.513 12.4395C189.248 12.6445 188.929 12.8132 188.556 12.9453C188.182 13.0729 187.756 13.1367 187.277 13.1367ZM193.402 7.02539V15.8438H191.434V5.60352H193.259L193.402 7.02539ZM198.085 9.21973V9.36328C198.085 9.90104 198.021 10.4001 197.894 10.8604C197.771 11.3206 197.588 11.7217 197.347 12.0635C197.105 12.4007 196.804 12.665 196.444 12.8564C196.089 13.0433 195.679 13.1367 195.214 13.1367C194.763 13.1367 194.371 13.0456 194.038 12.8633C193.705 12.681 193.425 12.4258 193.197 12.0977C192.974 11.765 192.794 11.3799 192.657 10.9424C192.521 10.5049 192.416 10.0355 192.343 9.53418V9.1582C192.416 8.62044 192.521 8.12826 192.657 7.68164C192.794 7.23047 192.974 6.84082 193.197 6.5127C193.425 6.18001 193.703 5.92253 194.031 5.74023C194.364 5.55794 194.754 5.4668 195.2 5.4668C195.67 5.4668 196.082 5.55566 196.438 5.7334C196.798 5.91113 197.098 6.16634 197.34 6.49902C197.586 6.83171 197.771 7.22819 197.894 7.68848C198.021 8.14876 198.085 8.65918 198.085 9.21973ZM196.109 9.36328V9.21973C196.109 8.90527 196.082 8.61589 196.027 8.35156C195.977 8.08268 195.895 7.84798 195.781 7.64746C195.672 7.44694 195.526 7.29199 195.344 7.18262C195.166 7.06868 194.95 7.01172 194.694 7.01172C194.425 7.01172 194.195 7.05501 194.004 7.1416C193.817 7.22819 193.664 7.35352 193.546 7.51758C193.427 7.68164 193.339 7.8776 193.279 8.10547C193.22 8.33333 193.184 8.59082 193.17 8.87793V9.82812C193.193 10.1654 193.257 10.4684 193.361 10.7373C193.466 11.0016 193.628 11.2113 193.847 11.3662C194.065 11.5212 194.353 11.5986 194.708 11.5986C194.968 11.5986 195.187 11.5417 195.364 11.4277C195.542 11.3092 195.686 11.1475 195.795 10.9424C195.909 10.7373 195.989 10.5003 196.034 10.2314C196.084 9.96257 196.109 9.67318 196.109 9.36328ZM202.993 9.91016H200.676L200.662 8.61816H202.576C202.831 8.61816 203.039 8.5931 203.198 8.54297C203.358 8.48828 203.474 8.40853 203.547 8.30371C203.624 8.19434 203.663 8.06217 203.663 7.90723C203.663 7.77051 203.638 7.6543 203.588 7.55859C203.542 7.45833 203.472 7.3763 203.376 7.3125C203.28 7.2487 203.16 7.20312 203.014 7.17578C202.872 7.14388 202.706 7.12793 202.515 7.12793H201.407V13H199.438V5.60352H202.515C202.998 5.60352 203.431 5.64681 203.813 5.7334C204.196 5.81543 204.522 5.94076 204.791 6.10938C205.064 6.27799 205.272 6.49219 205.413 6.75195C205.559 7.00716 205.632 7.31022 205.632 7.66113C205.632 7.889 205.579 8.10319 205.475 8.30371C205.374 8.50423 205.224 8.68197 205.023 8.83691C204.823 8.99186 204.575 9.11947 204.278 9.21973C203.987 9.31543 203.649 9.37467 203.267 9.39746L202.993 9.91016ZM202.993 13H200.19L200.867 11.4756H202.993C203.235 11.4756 203.433 11.446 203.588 11.3867C203.743 11.3275 203.857 11.2409 203.93 11.127C204.007 11.0085 204.046 10.8672 204.046 10.7031C204.046 10.5436 204.012 10.4046 203.943 10.2861C203.875 10.1676 203.763 10.0765 203.608 10.0127C203.458 9.94434 203.253 9.91016 202.993 9.91016H201.154L201.168 8.61816H203.26L203.738 9.1377C204.258 9.1696 204.686 9.26758 205.023 9.43164C205.361 9.5957 205.609 9.80534 205.769 10.0605C205.933 10.3112 206.015 10.5869 206.015 10.8877C206.015 11.2386 205.949 11.5462 205.816 11.8105C205.684 12.0749 205.488 12.2959 205.229 12.4736C204.973 12.6468 204.659 12.779 204.285 12.8701C203.911 12.9567 203.481 13 202.993 13ZM209.187 10.252L211.668 5.60352H213.637V13H211.668V8.34473L209.187 13H207.218V5.60352H209.187V10.252ZM218.21 11.5986C218.451 11.5986 218.666 11.5531 218.853 11.4619C219.039 11.3662 219.185 11.234 219.29 11.0654C219.399 10.8923 219.456 10.6895 219.461 10.457H221.313C221.309 10.9766 221.17 11.4391 220.896 11.8447C220.623 12.2458 220.256 12.5625 219.796 12.7949C219.336 13.0228 218.821 13.1367 218.251 13.1367C217.677 13.1367 217.175 13.041 216.747 12.8496C216.323 12.6582 215.97 12.3939 215.688 12.0566C215.405 11.7148 215.193 11.3184 215.052 10.8672C214.91 10.4115 214.84 9.92383 214.84 9.4043V9.20605C214.84 8.68197 214.91 8.19434 215.052 7.74316C215.193 7.28743 215.405 6.89095 215.688 6.55371C215.97 6.21191 216.323 5.94531 216.747 5.75391C217.171 5.5625 217.668 5.4668 218.237 5.4668C218.843 5.4668 219.374 5.58301 219.83 5.81543C220.29 6.04785 220.65 6.38053 220.91 6.81348C221.174 7.24186 221.309 7.75 221.313 8.33789H219.461C219.456 8.0918 219.404 7.86849 219.304 7.66797C219.208 7.46745 219.067 7.30794 218.88 7.18945C218.698 7.06641 218.472 7.00488 218.203 7.00488C217.916 7.00488 217.681 7.06641 217.499 7.18945C217.317 7.30794 217.175 7.47201 217.075 7.68164C216.975 7.88672 216.904 8.12142 216.863 8.38574C216.827 8.64551 216.809 8.91895 216.809 9.20605V9.4043C216.809 9.69141 216.827 9.96712 216.863 10.2314C216.9 10.4958 216.968 10.7305 217.068 10.9355C217.173 11.1406 217.317 11.3024 217.499 11.4209C217.681 11.5394 217.918 11.5986 218.21 11.5986ZM227.521 8.59082V10.1221H223.761V8.59082H227.521ZM224.417 5.60352V13H222.448V5.60352H224.417ZM228.854 5.60352V13H226.878V5.60352H228.854ZM230.07 9.37695V9.2334C230.07 8.69108 230.148 8.19206 230.303 7.73633C230.458 7.27604 230.683 6.87728 230.979 6.54004C231.276 6.2028 231.64 5.94076 232.073 5.75391C232.506 5.5625 233.003 5.4668 233.563 5.4668C234.124 5.4668 234.623 5.5625 235.061 5.75391C235.498 5.94076 235.865 6.2028 236.161 6.54004C236.462 6.87728 236.69 7.27604 236.845 7.73633C237 8.19206 237.077 8.69108 237.077 9.2334V9.37695C237.077 9.91471 237 10.4137 236.845 10.874C236.69 11.3298 236.462 11.7285 236.161 12.0703C235.865 12.4076 235.5 12.6696 235.067 12.8564C234.634 13.0433 234.138 13.1367 233.577 13.1367C233.017 13.1367 232.518 13.0433 232.08 12.8564C231.647 12.6696 231.28 12.4076 230.979 12.0703C230.683 11.7285 230.458 11.3298 230.303 10.874C230.148 10.4137 230.07 9.91471 230.07 9.37695ZM232.039 9.2334V9.37695C232.039 9.68685 232.066 9.97624 232.121 10.2451C232.176 10.514 232.262 10.751 232.381 10.9561C232.504 11.1566 232.663 11.3138 232.859 11.4277C233.055 11.5417 233.295 11.5986 233.577 11.5986C233.851 11.5986 234.085 11.5417 234.281 11.4277C234.477 11.3138 234.634 11.1566 234.753 10.9561C234.871 10.751 234.958 10.514 235.013 10.2451C235.072 9.97624 235.102 9.68685 235.102 9.37695V9.2334C235.102 8.93262 235.072 8.65007 235.013 8.38574C234.958 8.11686 234.869 7.87988 234.746 7.6748C234.628 7.46517 234.47 7.30111 234.274 7.18262C234.078 7.06413 233.841 7.00488 233.563 7.00488C233.285 7.00488 233.049 7.06413 232.853 7.18262C232.661 7.30111 232.504 7.46517 232.381 7.6748C232.262 7.87988 232.176 8.11686 232.121 8.38574C232.066 8.65007 232.039 8.93262 232.039 9.2334ZM241.691 13.1367C241.117 13.1367 240.602 13.0456 240.146 12.8633C239.691 12.6764 239.303 12.4189 238.984 12.0908C238.67 11.7627 238.428 11.3822 238.26 10.9492C238.091 10.5117 238.007 10.0469 238.007 9.55469V9.28125C238.007 8.7207 238.087 8.20801 238.246 7.74316C238.406 7.27832 238.633 6.875 238.93 6.5332C239.23 6.19141 239.595 5.92936 240.023 5.74707C240.452 5.56022 240.935 5.4668 241.473 5.4668C241.997 5.4668 242.462 5.55339 242.867 5.72656C243.273 5.89974 243.612 6.14583 243.886 6.46484C244.164 6.78385 244.373 7.16667 244.515 7.61328C244.656 8.05534 244.727 8.54753 244.727 9.08984V9.91016H238.848V8.59766H242.792V8.44727C242.792 8.17383 242.742 7.93001 242.642 7.71582C242.546 7.49707 242.4 7.32389 242.204 7.19629C242.008 7.06868 241.757 7.00488 241.452 7.00488C241.192 7.00488 240.969 7.06185 240.782 7.17578C240.595 7.28971 240.443 7.44922 240.324 7.6543C240.21 7.85938 240.124 8.10091 240.064 8.37891C240.01 8.65234 239.982 8.95312 239.982 9.28125V9.55469C239.982 9.85091 240.023 10.1243 240.105 10.375C240.192 10.6257 240.313 10.8421 240.468 11.0244C240.627 11.2067 240.819 11.348 241.042 11.4482C241.27 11.5485 241.527 11.5986 241.814 11.5986C242.17 11.5986 242.5 11.5303 242.806 11.3936C243.116 11.2523 243.382 11.0404 243.605 10.7578L244.562 11.7969C244.408 12.0202 244.196 12.2344 243.927 12.4395C243.662 12.6445 243.343 12.8132 242.97 12.9453C242.596 13.0729 242.17 13.1367 241.691 13.1367ZM42.4512 25.377V25.2334C42.4512 24.6911 42.5286 24.1921 42.6836 23.7363C42.8385 23.276 43.0641 22.8773 43.3604 22.54C43.6566 22.2028 44.0212 21.9408 44.4541 21.7539C44.887 21.5625 45.3838 21.4668 45.9443 21.4668C46.5049 21.4668 47.0039 21.5625 47.4414 21.7539C47.8789 21.9408 48.2458 22.2028 48.542 22.54C48.8428 22.8773 49.0706 23.276 49.2256 23.7363C49.3805 24.1921 49.458 24.6911 49.458 25.2334V25.377C49.458 25.9147 49.3805 26.4137 49.2256 26.874C49.0706 27.3298 48.8428 27.7285 48.542 28.0703C48.2458 28.4076 47.8812 28.6696 47.4482 28.8564C47.0153 29.0433 46.5186 29.1367 45.958 29.1367C45.3975 29.1367 44.8984 29.0433 44.4609 28.8564C44.028 28.6696 43.6611 28.4076 43.3604 28.0703C43.0641 27.7285 42.8385 27.3298 42.6836 26.874C42.5286 26.4137 42.4512 25.9147 42.4512 25.377ZM44.4199 25.2334V25.377C44.4199 25.6868 44.4473 25.9762 44.502 26.2451C44.5566 26.514 44.6432 26.751 44.7617 26.9561C44.8848 27.1566 45.0443 27.3138 45.2402 27.4277C45.4362 27.5417 45.6755 27.5986 45.958 27.5986C46.2314 27.5986 46.4661 27.5417 46.6621 27.4277C46.8581 27.3138 47.0153 27.1566 47.1338 26.9561C47.2523 26.751 47.3389 26.514 47.3936 26.2451C47.4528 25.9762 47.4824 25.6868 47.4824 25.377V25.2334C47.4824 24.9326 47.4528 24.6501 47.3936 24.3857C47.3389 24.1169 47.25 23.8799 47.127 23.6748C47.0085 23.4652 46.8512 23.3011 46.6553 23.1826C46.4593 23.0641 46.2223 23.0049 45.9443 23.0049C45.6663 23.0049 45.4294 23.0641 45.2334 23.1826C45.042 23.3011 44.8848 23.4652 44.7617 23.6748C44.6432 23.8799 44.5566 24.1169 44.502 24.3857C44.4473 24.6501 44.4199 24.9326 44.4199 25.2334ZM55.2002 18.3496H56.793C56.793 18.7188 56.7474 19.0355 56.6562 19.2998C56.5651 19.5596 56.4193 19.7829 56.2188 19.9697C56.0182 20.152 55.7493 20.307 55.4121 20.4346C55.0749 20.5622 54.6579 20.6715 54.1611 20.7627C53.7783 20.8402 53.4456 20.9678 53.1631 21.1455C52.8851 21.3232 52.6549 21.5671 52.4727 21.877C52.2949 22.1823 52.1673 22.5697 52.0898 23.0391C52.0124 23.5039 51.985 24.0645 52.0078 24.7207V25.0488L50.4766 25.2607V24.9326C50.4811 24.0394 50.5609 23.2624 50.7158 22.6016C50.8753 21.9408 51.1009 21.3848 51.3926 20.9336C51.6842 20.4779 52.0352 20.1156 52.4453 19.8467C52.8555 19.5732 53.3112 19.3818 53.8125 19.2725C54.1497 19.1995 54.4186 19.1289 54.6191 19.0605C54.8242 18.9876 54.9723 18.8965 55.0635 18.7871C55.1546 18.6777 55.2002 18.5319 55.2002 18.3496ZM54.3389 22.0205C54.8402 22.0205 55.2845 22.1071 55.6719 22.2803C56.0592 22.4489 56.3851 22.6882 56.6494 22.998C56.9137 23.3079 57.1143 23.6725 57.251 24.0918C57.3877 24.5111 57.4561 24.9691 57.4561 25.4658V25.6094C57.4561 26.1152 57.3786 26.5846 57.2236 27.0176C57.0732 27.446 56.8499 27.8197 56.5537 28.1387C56.2575 28.4577 55.8929 28.7061 55.46 28.8838C55.027 29.057 54.5326 29.1436 53.9766 29.1436C53.416 29.1436 52.917 29.0501 52.4795 28.8633C52.0465 28.6719 51.6797 28.4053 51.3789 28.0635C51.0827 27.7171 50.8571 27.3138 50.7021 26.8535C50.5518 26.3887 50.4766 25.8828 50.4766 25.3359V25.1855C50.4766 25.1081 50.5107 25.0329 50.5791 24.96C50.652 24.8825 50.7363 24.7959 50.832 24.7002C50.9323 24.6045 51.0212 24.4837 51.0986 24.3379C51.3721 23.832 51.6706 23.4082 51.9941 23.0664C52.3177 22.7201 52.6709 22.4603 53.0537 22.2871C53.4411 22.1094 53.8695 22.0205 54.3389 22.0205ZM53.9629 23.5586C53.5938 23.5586 53.2975 23.6475 53.0742 23.8252C52.8509 23.9984 52.6891 24.2308 52.5889 24.5225C52.4932 24.8096 52.4453 25.124 52.4453 25.4658V25.6094C52.4453 25.8874 52.4727 26.1471 52.5273 26.3887C52.582 26.6257 52.6686 26.8376 52.7871 27.0244C52.9056 27.2067 53.0628 27.3503 53.2588 27.4551C53.4548 27.5553 53.694 27.6055 53.9766 27.6055C54.25 27.6055 54.4824 27.5553 54.6738 27.4551C54.8698 27.3503 55.027 27.2067 55.1455 27.0244C55.264 26.8376 55.3506 26.6257 55.4053 26.3887C55.46 26.1471 55.4873 25.8874 55.4873 25.6094V25.4658C55.4873 25.2061 55.46 24.9622 55.4053 24.7344C55.3506 24.502 55.264 24.2992 55.1455 24.126C55.027 23.9482 54.8698 23.8092 54.6738 23.709C54.4779 23.6087 54.2409 23.5586 53.9629 23.5586ZM61.708 27.5986C61.9495 27.5986 62.1637 27.5531 62.3506 27.4619C62.5374 27.3662 62.6833 27.234 62.7881 27.0654C62.8975 26.8923 62.9544 26.6895 62.959 26.457H64.8115C64.807 26.9766 64.668 27.4391 64.3945 27.8447C64.1211 28.2458 63.7542 28.5625 63.2939 28.7949C62.8337 29.0228 62.3187 29.1367 61.749 29.1367C61.1748 29.1367 60.6735 29.041 60.2451 28.8496C59.8213 28.6582 59.4681 28.3939 59.1855 28.0566C58.903 27.7148 58.6911 27.3184 58.5498 26.8672C58.4085 26.4115 58.3379 25.9238 58.3379 25.4043V25.2061C58.3379 24.682 58.4085 24.1943 58.5498 23.7432C58.6911 23.2874 58.903 22.891 59.1855 22.5537C59.4681 22.2119 59.8213 21.9453 60.2451 21.7539C60.6689 21.5625 61.1657 21.4668 61.7354 21.4668C62.3415 21.4668 62.8724 21.583 63.3281 21.8154C63.7884 22.0479 64.1484 22.3805 64.4082 22.8135C64.6725 23.2419 64.807 23.75 64.8115 24.3379H62.959C62.9544 24.0918 62.902 23.8685 62.8018 23.668C62.7061 23.4674 62.5648 23.3079 62.3779 23.1895C62.1956 23.0664 61.9701 23.0049 61.7012 23.0049C61.4141 23.0049 61.1794 23.0664 60.9971 23.1895C60.8148 23.3079 60.6735 23.472 60.5732 23.6816C60.473 23.8867 60.4023 24.1214 60.3613 24.3857C60.3249 24.6455 60.3066 24.9189 60.3066 25.2061V25.4043C60.3066 25.6914 60.3249 25.9671 60.3613 26.2314C60.3978 26.4958 60.4661 26.7305 60.5664 26.9355C60.6712 27.1406 60.8148 27.3024 60.9971 27.4209C61.1794 27.5394 61.4163 27.5986 61.708 27.5986ZM70.9297 21.6035V23.1484H67.293V21.6035H70.9297ZM72.3721 21.6035V29H70.4033V21.6035H72.3721ZM66.8008 21.6035H68.7354L68.5371 25.3359C68.5098 25.8691 68.4528 26.3385 68.3662 26.7441C68.2796 27.1497 68.1634 27.4961 68.0176 27.7832C67.8763 28.0703 67.7054 28.305 67.5049 28.4873C67.3089 28.665 67.0788 28.7949 66.8145 28.877C66.5547 28.959 66.2676 29 65.9531 29H65.3516L65.3311 27.4482L65.584 27.4209C65.7298 27.4072 65.8574 27.3662 65.9668 27.2979C66.0807 27.2249 66.1764 27.1224 66.2539 26.9902C66.3359 26.8535 66.4043 26.6826 66.459 26.4775C66.5137 26.2679 66.557 26.0218 66.5889 25.7393C66.6253 25.4567 66.6504 25.1309 66.6641 24.7617L66.8008 21.6035ZM76.0908 28.166L78.0527 21.6035H80.165L77.1914 30.1143C77.1276 30.3011 77.041 30.5016 76.9316 30.7158C76.8268 30.93 76.6833 31.1328 76.501 31.3242C76.3232 31.5202 76.0977 31.6797 75.8242 31.8027C75.5553 31.9258 75.2249 31.9873 74.833 31.9873C74.6462 31.9873 74.4935 31.9759 74.375 31.9531C74.2565 31.9303 74.1152 31.8984 73.9512 31.8574V30.415C74.0013 30.415 74.0537 30.415 74.1084 30.415C74.1631 30.4196 74.2155 30.4219 74.2656 30.4219C74.5254 30.4219 74.7373 30.3923 74.9014 30.333C75.0654 30.2738 75.1976 30.1826 75.2979 30.0596C75.3981 29.9411 75.4779 29.7861 75.5371 29.5947L76.0908 28.166ZM75.2705 21.6035L76.877 26.9629L77.1572 29.0479L75.8174 29.1914L73.1582 21.6035H75.2705ZM83.5625 26.2109L80.4863 21.6035H82.9268L84.499 24.3926H85.9141L85.6748 26.2109H83.5625ZM84.5264 25.876L82.8379 29H80.4658L82.9199 24.9258L84.5264 25.876ZM87.1924 21.6035V29H85.2236V21.6035H87.1924ZM91.9502 21.6035L88.874 26.2109H86.7617L86.5225 24.3926H87.9375L89.5029 21.6035H91.9502ZM89.5918 29L87.9033 25.876L89.5713 24.9258L92.0117 29H89.5918ZM94.9307 26.252L97.4121 21.6035H99.3809V29H97.4121V24.3447L94.9307 29H92.9619V21.6035H94.9307V26.252ZM104.583 25.9102H102.266L102.252 24.6182H104.166C104.421 24.6182 104.629 24.5931 104.788 24.543C104.948 24.4883 105.064 24.4085 105.137 24.3037C105.214 24.1943 105.253 24.0622 105.253 23.9072C105.253 23.7705 105.228 23.6543 105.178 23.5586C105.132 23.4583 105.062 23.3763 104.966 23.3125C104.87 23.2487 104.749 23.2031 104.604 23.1758C104.462 23.1439 104.296 23.1279 104.104 23.1279H102.997V29H101.028V21.6035H104.104C104.588 21.6035 105.021 21.6468 105.403 21.7334C105.786 21.8154 106.112 21.9408 106.381 22.1094C106.654 22.278 106.862 22.4922 107.003 22.752C107.149 23.0072 107.222 23.3102 107.222 23.6611C107.222 23.889 107.169 24.1032 107.064 24.3037C106.964 24.5042 106.814 24.682 106.613 24.8369C106.413 24.9919 106.164 25.1195 105.868 25.2197C105.576 25.3154 105.239 25.3747 104.856 25.3975L104.583 25.9102ZM104.583 29H101.78L102.457 27.4756H104.583C104.825 27.4756 105.023 27.446 105.178 27.3867C105.333 27.3275 105.447 27.2409 105.52 27.127C105.597 27.0085 105.636 26.8672 105.636 26.7031C105.636 26.5436 105.602 26.4046 105.533 26.2861C105.465 26.1676 105.353 26.0765 105.198 26.0127C105.048 25.9443 104.843 25.9102 104.583 25.9102H102.744L102.758 24.6182H104.85L105.328 25.1377C105.848 25.1696 106.276 25.2676 106.613 25.4316C106.951 25.5957 107.199 25.8053 107.358 26.0605C107.522 26.3112 107.604 26.5869 107.604 26.8877C107.604 27.2386 107.538 27.5462 107.406 27.8105C107.274 28.0749 107.078 28.2959 106.818 28.4736C106.563 28.6468 106.249 28.779 105.875 28.8701C105.501 28.9567 105.071 29 104.583 29ZM112.807 27.332V24.0371C112.807 23.8001 112.768 23.5973 112.69 23.4287C112.613 23.2555 112.492 23.1211 112.328 23.0254C112.169 22.9297 111.961 22.8818 111.706 22.8818C111.487 22.8818 111.298 22.9206 111.139 22.998C110.979 23.071 110.856 23.1781 110.77 23.3193C110.683 23.4561 110.64 23.6178 110.64 23.8047H108.671C108.671 23.4902 108.744 23.1917 108.89 22.9092C109.035 22.6266 109.247 22.3783 109.525 22.1641C109.803 21.9453 110.134 21.7744 110.517 21.6514C110.904 21.5283 111.337 21.4668 111.815 21.4668C112.39 21.4668 112.9 21.5625 113.347 21.7539C113.793 21.9453 114.144 22.2324 114.399 22.6152C114.659 22.998 114.789 23.4766 114.789 24.0508V27.2158C114.789 27.6214 114.814 27.9541 114.864 28.2139C114.914 28.4691 114.987 28.6924 115.083 28.8838V29H113.094C112.998 28.7995 112.925 28.5488 112.875 28.248C112.829 27.9427 112.807 27.6374 112.807 27.332ZM113.066 24.4951L113.08 25.6094H111.979C111.72 25.6094 111.494 25.639 111.303 25.6982C111.111 25.7575 110.954 25.8418 110.831 25.9512C110.708 26.056 110.617 26.179 110.558 26.3203C110.503 26.4616 110.476 26.6165 110.476 26.7852C110.476 26.9538 110.514 27.1064 110.592 27.2432C110.669 27.3753 110.781 27.4801 110.927 27.5576C111.073 27.6305 111.243 27.667 111.439 27.667C111.736 27.667 111.993 27.6077 112.212 27.4893C112.431 27.3708 112.599 27.2249 112.718 27.0518C112.841 26.8786 112.905 26.7145 112.909 26.5596L113.429 27.3936C113.356 27.5804 113.256 27.7741 113.128 27.9746C113.005 28.1751 112.848 28.3643 112.656 28.542C112.465 28.7152 112.235 28.8587 111.966 28.9727C111.697 29.082 111.378 29.1367 111.009 29.1367C110.539 29.1367 110.113 29.0433 109.73 28.8564C109.352 28.665 109.051 28.403 108.828 28.0703C108.609 27.7331 108.5 27.3503 108.5 26.9219C108.5 26.5345 108.573 26.1904 108.719 25.8896C108.865 25.5889 109.079 25.3359 109.361 25.1309C109.648 24.9212 110.006 24.764 110.435 24.6592C110.863 24.5498 111.36 24.4951 111.925 24.4951H113.066ZM121.372 24.5908V26.1221H117.612V24.5908H121.372ZM118.269 21.6035V29H116.3V21.6035H118.269ZM122.705 21.6035V29H120.729V21.6035H122.705ZM126.198 26.252L128.68 21.6035H130.648V29H128.68V24.3447L126.198 29H124.229V21.6035H126.198V26.252ZM135.57 29.1367C134.996 29.1367 134.481 29.0456 134.025 28.8633C133.57 28.6764 133.182 28.4189 132.863 28.0908C132.549 27.7627 132.307 27.3822 132.139 26.9492C131.97 26.5117 131.886 26.0469 131.886 25.5547V25.2812C131.886 24.7207 131.965 24.208 132.125 23.7432C132.285 23.2783 132.512 22.875 132.809 22.5332C133.109 22.1914 133.474 21.9294 133.902 21.7471C134.331 21.5602 134.814 21.4668 135.352 21.4668C135.876 21.4668 136.34 21.5534 136.746 21.7266C137.152 21.8997 137.491 22.1458 137.765 22.4648C138.043 22.7839 138.252 23.1667 138.394 23.6133C138.535 24.0553 138.605 24.5475 138.605 25.0898V25.9102H132.727V24.5977H136.671V24.4473C136.671 24.1738 136.621 23.93 136.521 23.7158C136.425 23.4971 136.279 23.3239 136.083 23.1963C135.887 23.0687 135.636 23.0049 135.331 23.0049C135.071 23.0049 134.848 23.0618 134.661 23.1758C134.474 23.2897 134.322 23.4492 134.203 23.6543C134.089 23.8594 134.003 24.1009 133.943 24.3789C133.889 24.6523 133.861 24.9531 133.861 25.2812V25.5547C133.861 25.8509 133.902 26.1243 133.984 26.375C134.071 26.6257 134.192 26.8421 134.347 27.0244C134.506 27.2067 134.698 27.348 134.921 27.4482C135.149 27.5485 135.406 27.5986 135.693 27.5986C136.049 27.5986 136.379 27.5303 136.685 27.3936C136.994 27.2523 137.261 27.0404 137.484 26.7578L138.441 27.7969C138.286 28.0202 138.075 28.2344 137.806 28.4395C137.541 28.6445 137.222 28.8132 136.849 28.9453C136.475 29.0729 136.049 29.1367 135.57 29.1367Z" fill="white"/>
<path d="M152.216 25.3496V25.4932C152.216 26.0264 152.157 26.5163 152.038 26.9629C151.924 27.4049 151.751 27.79 151.519 28.1182C151.286 28.4417 151.001 28.6924 150.664 28.8701C150.327 29.0479 149.937 29.1367 149.495 29.1367C149.085 29.1367 148.729 29.0592 148.429 28.9043C148.132 28.7448 147.882 28.5238 147.677 28.2412C147.476 27.9541 147.312 27.6214 147.185 27.2432C147.062 26.8604 146.97 26.4479 146.911 26.0059V24.8232C146.97 24.3493 147.062 23.9095 147.185 23.5039C147.308 23.0938 147.469 22.736 147.67 22.4307C147.875 22.1253 148.126 21.8883 148.422 21.7197C148.718 21.5511 149.071 21.4668 149.481 21.4668C149.837 21.4668 150.158 21.5283 150.445 21.6514C150.737 21.7744 150.992 21.9499 151.211 22.1777C151.434 22.4056 151.619 22.6813 151.765 23.0049C151.915 23.3239 152.027 23.6816 152.1 24.0781C152.177 24.4746 152.216 24.8984 152.216 25.3496ZM150.24 25.4932V25.3496C150.24 25.0944 150.224 24.8506 150.192 24.6182C150.165 24.3812 150.119 24.1647 150.056 23.9688C149.996 23.7728 149.917 23.6042 149.816 23.4629C149.716 23.3171 149.595 23.2054 149.454 23.1279C149.313 23.0459 149.151 23.0049 148.969 23.0049C148.65 23.0049 148.388 23.0687 148.183 23.1963C147.982 23.3193 147.832 23.4971 147.731 23.7295C147.636 23.9574 147.581 24.2262 147.567 24.5361V26.2998C147.586 26.5641 147.643 26.7943 147.738 26.9902C147.839 27.1816 147.989 27.332 148.189 27.4414C148.395 27.5462 148.659 27.5986 148.982 27.5986C149.215 27.5986 149.411 27.5462 149.57 27.4414C149.734 27.3366 149.864 27.1885 149.96 26.9971C150.06 26.8057 150.131 26.5846 150.172 26.334C150.217 26.0788 150.24 25.7985 150.24 25.4932ZM142.912 25.4932V25.3496C142.912 24.8984 142.951 24.4746 143.028 24.0781C143.106 23.6816 143.217 23.3239 143.363 23.0049C143.514 22.6813 143.698 22.4056 143.917 22.1777C144.136 21.9499 144.389 21.7744 144.676 21.6514C144.967 21.5283 145.291 21.4668 145.646 21.4668C146.052 21.4668 146.403 21.5511 146.699 21.7197C146.995 21.8883 147.244 22.1253 147.444 22.4307C147.645 22.736 147.807 23.0938 147.93 23.5039C148.053 23.9095 148.146 24.3493 148.21 24.8232V25.9512C148.146 26.4069 148.053 26.8285 147.93 27.2158C147.807 27.5986 147.643 27.9359 147.438 28.2275C147.237 28.5146 146.989 28.738 146.692 28.8975C146.396 29.057 146.043 29.1367 145.633 29.1367C145.195 29.1367 144.806 29.0479 144.464 28.8701C144.127 28.6924 143.842 28.4417 143.609 28.1182C143.382 27.79 143.208 27.4049 143.09 26.9629C142.971 26.5163 142.912 26.0264 142.912 25.4932ZM144.881 25.3496V25.4932C144.881 25.7985 144.901 26.0788 144.942 26.334C144.988 26.5846 145.059 26.8057 145.154 26.9971C145.255 27.1839 145.384 27.3298 145.544 27.4346C145.703 27.5394 145.899 27.5918 146.132 27.5918C146.46 27.5918 146.724 27.5371 146.925 27.4277C147.13 27.3184 147.283 27.1634 147.383 26.9629C147.483 26.7624 147.538 26.5231 147.547 26.2451V24.5361C147.538 24.2262 147.483 23.9574 147.383 23.7295C147.287 23.4971 147.139 23.3193 146.938 23.1963C146.738 23.0687 146.474 23.0049 146.146 23.0049C145.913 23.0049 145.715 23.0664 145.551 23.1895C145.391 23.3125 145.261 23.4811 145.161 23.6953C145.065 23.9095 144.995 24.1602 144.949 24.4473C144.904 24.7298 144.881 25.0306 144.881 25.3496ZM146.562 31.8438V18.5H148.538V31.8438H146.562ZM155.415 26.252L157.896 21.6035H159.865V29H157.896V24.3447L155.415 29H153.446V21.6035H155.415V26.252ZM166.359 21.6035V23.1484H162.723V21.6035H166.359ZM167.802 21.6035V29H165.833V21.6035H167.802ZM162.23 21.6035H164.165L163.967 25.3359C163.939 25.8691 163.882 26.3385 163.796 26.7441C163.709 27.1497 163.593 27.4961 163.447 27.7832C163.306 28.0703 163.135 28.305 162.935 28.4873C162.739 28.665 162.508 28.7949 162.244 28.877C161.984 28.959 161.697 29 161.383 29H160.781L160.761 27.4482L161.014 27.4209C161.16 27.4072 161.287 27.3662 161.396 27.2979C161.51 27.2249 161.606 27.1224 161.684 26.9902C161.766 26.8535 161.834 26.6826 161.889 26.4775C161.943 26.2679 161.987 26.0218 162.019 25.7393C162.055 25.4567 162.08 25.1309 162.094 24.7617L162.23 21.6035ZM170.687 23.7979H172.833C173.507 23.7979 174.082 23.9095 174.556 24.1328C175.034 24.3516 175.399 24.6569 175.649 25.0488C175.905 25.4408 176.032 25.8942 176.032 26.4092C176.032 26.7829 175.959 27.1292 175.813 27.4482C175.672 27.7627 175.465 28.0361 175.191 28.2686C174.918 28.501 174.583 28.681 174.187 28.8086C173.79 28.9362 173.339 29 172.833 29H169.456V21.6035H171.432V27.4688H172.833C173.129 27.4688 173.366 27.4209 173.544 27.3252C173.726 27.2249 173.858 27.0951 173.94 26.9355C174.027 26.776 174.07 26.6029 174.07 26.416C174.07 26.2201 174.027 26.0423 173.94 25.8828C173.858 25.7188 173.726 25.5866 173.544 25.4863C173.366 25.3861 173.129 25.3359 172.833 25.3359H170.687V23.7979ZM180.065 21.6035V29H178.09V21.6035H180.065ZM182.444 21.6035V23.1279H175.745V21.6035H182.444ZM185.418 23.0254V31.8438H183.449V21.6035H185.274L185.418 23.0254ZM190.101 25.2197V25.3633C190.101 25.901 190.037 26.4001 189.909 26.8604C189.786 27.3206 189.604 27.7217 189.362 28.0635C189.121 28.4007 188.82 28.665 188.46 28.8564C188.104 29.0433 187.694 29.1367 187.229 29.1367C186.778 29.1367 186.386 29.0456 186.054 28.8633C185.721 28.681 185.441 28.4258 185.213 28.0977C184.99 27.765 184.81 27.3799 184.673 26.9424C184.536 26.5049 184.431 26.0355 184.358 25.5342V25.1582C184.431 24.6204 184.536 24.1283 184.673 23.6816C184.81 23.2305 184.99 22.8408 185.213 22.5127C185.441 22.18 185.719 21.9225 186.047 21.7402C186.38 21.5579 186.769 21.4668 187.216 21.4668C187.685 21.4668 188.098 21.5557 188.453 21.7334C188.813 21.9111 189.114 22.1663 189.355 22.499C189.602 22.8317 189.786 23.2282 189.909 23.6885C190.037 24.1488 190.101 24.6592 190.101 25.2197ZM188.125 25.3633V25.2197C188.125 24.9053 188.098 24.6159 188.043 24.3516C187.993 24.0827 187.911 23.848 187.797 23.6475C187.688 23.4469 187.542 23.292 187.359 23.1826C187.182 23.0687 186.965 23.0117 186.71 23.0117C186.441 23.0117 186.211 23.055 186.02 23.1416C185.833 23.2282 185.68 23.3535 185.562 23.5176C185.443 23.6816 185.354 23.8776 185.295 24.1055C185.236 24.3333 185.199 24.5908 185.186 24.8779V25.8281C185.208 26.1654 185.272 26.4684 185.377 26.7373C185.482 27.0016 185.644 27.2113 185.862 27.3662C186.081 27.5212 186.368 27.5986 186.724 27.5986C186.983 27.5986 187.202 27.5417 187.38 27.4277C187.558 27.3092 187.701 27.1475 187.811 26.9424C187.924 26.7373 188.004 26.5003 188.05 26.2314C188.1 25.9626 188.125 25.6732 188.125 25.3633ZM191.01 25.377V25.2334C191.01 24.6911 191.087 24.1921 191.242 23.7363C191.397 23.276 191.623 22.8773 191.919 22.54C192.215 22.2028 192.58 21.9408 193.013 21.7539C193.446 21.5625 193.942 21.4668 194.503 21.4668C195.063 21.4668 195.562 21.5625 196 21.7539C196.438 21.9408 196.804 22.2028 197.101 22.54C197.401 22.8773 197.629 23.276 197.784 23.7363C197.939 24.1921 198.017 24.6911 198.017 25.2334V25.377C198.017 25.9147 197.939 26.4137 197.784 26.874C197.629 27.3298 197.401 27.7285 197.101 28.0703C196.804 28.4076 196.44 28.6696 196.007 28.8564C195.574 29.0433 195.077 29.1367 194.517 29.1367C193.956 29.1367 193.457 29.0433 193.02 28.8564C192.587 28.6696 192.22 28.4076 191.919 28.0703C191.623 27.7285 191.397 27.3298 191.242 26.874C191.087 26.4137 191.01 25.9147 191.01 25.377ZM192.979 25.2334V25.377C192.979 25.6868 193.006 25.9762 193.061 26.2451C193.115 26.514 193.202 26.751 193.32 26.9561C193.443 27.1566 193.603 27.3138 193.799 27.4277C193.995 27.5417 194.234 27.5986 194.517 27.5986C194.79 27.5986 195.025 27.5417 195.221 27.4277C195.417 27.3138 195.574 27.1566 195.692 26.9561C195.811 26.751 195.897 26.514 195.952 26.2451C196.011 25.9762 196.041 25.6868 196.041 25.377V25.2334C196.041 24.9326 196.011 24.6501 195.952 24.3857C195.897 24.1169 195.809 23.8799 195.686 23.6748C195.567 23.4652 195.41 23.3011 195.214 23.1826C195.018 23.0641 194.781 23.0049 194.503 23.0049C194.225 23.0049 193.988 23.0641 193.792 23.1826C193.601 23.3011 193.443 23.4652 193.32 23.6748C193.202 23.8799 193.115 24.1169 193.061 24.3857C193.006 24.6501 192.979 24.9326 192.979 25.2334ZM202.911 25.9102H200.594L200.58 24.6182H202.494C202.749 24.6182 202.957 24.5931 203.116 24.543C203.276 24.4883 203.392 24.4085 203.465 24.3037C203.542 24.1943 203.581 24.0622 203.581 23.9072C203.581 23.7705 203.556 23.6543 203.506 23.5586C203.46 23.4583 203.39 23.3763 203.294 23.3125C203.198 23.2487 203.077 23.2031 202.932 23.1758C202.79 23.1439 202.624 23.1279 202.433 23.1279H201.325V29H199.356V21.6035H202.433C202.916 21.6035 203.349 21.6468 203.731 21.7334C204.114 21.8154 204.44 21.9408 204.709 22.1094C204.982 22.278 205.19 22.4922 205.331 22.752C205.477 23.0072 205.55 23.3102 205.55 23.6611C205.55 23.889 205.497 24.1032 205.393 24.3037C205.292 24.5042 205.142 24.682 204.941 24.8369C204.741 24.9919 204.493 25.1195 204.196 25.2197C203.905 25.3154 203.567 25.3747 203.185 25.3975L202.911 25.9102ZM202.911 29H200.108L200.785 27.4756H202.911C203.153 27.4756 203.351 27.446 203.506 27.3867C203.661 27.3275 203.775 27.2409 203.848 27.127C203.925 27.0085 203.964 26.8672 203.964 26.7031C203.964 26.5436 203.93 26.4046 203.861 26.2861C203.793 26.1676 203.681 26.0765 203.526 26.0127C203.376 25.9443 203.171 25.9102 202.911 25.9102H201.072L201.086 24.6182H203.178L203.656 25.1377C204.176 25.1696 204.604 25.2676 204.941 25.4316C205.279 25.5957 205.527 25.8053 205.687 26.0605C205.851 26.3112 205.933 26.5869 205.933 26.8877C205.933 27.2386 205.867 27.5462 205.734 27.8105C205.602 28.0749 205.406 28.2959 205.146 28.4736C204.891 28.6468 204.577 28.779 204.203 28.8701C203.829 28.9567 203.399 29 202.911 29ZM211.962 21.6035H213.931L213.869 24.0781C213.851 24.8711 213.76 25.5524 213.596 26.1221C213.432 26.6917 213.213 27.1702 212.939 27.5576C212.666 27.945 212.354 28.2549 212.003 28.4873C211.657 28.7152 211.292 28.8861 210.909 29H210.54L210.52 27.4824L210.725 27.4619C210.957 27.2204 211.148 26.9857 211.299 26.7578C211.449 26.5254 211.565 26.2816 211.647 26.0264C211.729 25.7712 211.789 25.4863 211.825 25.1719C211.866 24.8574 211.891 24.4928 211.9 24.0781L211.962 21.6035ZM212.495 21.6035H217.396V29H215.435V23.1826H212.495V21.6035ZM210.089 27.4619H218.456V31.2217H216.487V29H212.105V31.2217H210.089V27.4619ZM224.438 21.6035V23.1484H220.801V21.6035H224.438ZM225.88 21.6035V29H223.911V21.6035H225.88ZM220.309 21.6035H222.243L222.045 25.3359C222.018 25.8691 221.961 26.3385 221.874 26.7441C221.787 27.1497 221.671 27.4961 221.525 27.7832C221.384 28.0703 221.213 28.305 221.013 28.4873C220.817 28.665 220.587 28.7949 220.322 28.877C220.062 28.959 219.775 29 219.461 29H218.859L218.839 27.4482L219.092 27.4209C219.238 27.4072 219.365 27.3662 219.475 27.2979C219.589 27.2249 219.684 27.1224 219.762 26.9902C219.844 26.8535 219.912 26.6826 219.967 26.4775C220.021 26.2679 220.065 26.0218 220.097 25.7393C220.133 25.4567 220.158 25.1309 220.172 24.7617L220.309 21.6035ZM228.997 25.3086H230.993L228.936 29H226.946L228.997 25.3086ZM230.323 21.6035H233.57V29H231.602V23.1279H230.323C230.054 23.1279 229.831 23.1781 229.653 23.2783C229.476 23.374 229.343 23.4993 229.257 23.6543C229.175 23.8047 229.134 23.9596 229.134 24.1191C229.134 24.2741 229.175 24.4245 229.257 24.5703C229.339 24.7161 229.466 24.8369 229.64 24.9326C229.813 25.0283 230.029 25.0762 230.289 25.0762H232.333V26.416H230.289C229.801 26.416 229.364 26.3568 228.977 26.2383C228.594 26.1198 228.266 25.9557 227.992 25.7461C227.723 25.5319 227.516 25.2835 227.37 25.001C227.229 24.7139 227.158 24.3994 227.158 24.0576C227.158 23.7021 227.231 23.3763 227.377 23.0801C227.523 22.7839 227.732 22.5241 228.006 22.3008C228.279 22.0775 228.61 21.9066 228.997 21.7881C229.389 21.665 229.831 21.6035 230.323 21.6035ZM242.409 25.9102H240.092L240.078 24.6182H241.992C242.247 24.6182 242.455 24.5931 242.614 24.543C242.774 24.4883 242.89 24.4085 242.963 24.3037C243.04 24.1943 243.079 24.0622 243.079 23.9072C243.079 23.7705 243.054 23.6543 243.004 23.5586C242.958 23.4583 242.888 23.3763 242.792 23.3125C242.696 23.2487 242.576 23.2031 242.43 23.1758C242.288 23.1439 242.122 23.1279 241.931 23.1279H240.823V29H238.854V21.6035H241.931C242.414 21.6035 242.847 21.6468 243.229 21.7334C243.612 21.8154 243.938 21.9408 244.207 22.1094C244.48 22.278 244.688 22.4922 244.829 22.752C244.975 23.0072 245.048 23.3102 245.048 23.6611C245.048 23.889 244.995 24.1032 244.891 24.3037C244.79 24.5042 244.64 24.682 244.439 24.8369C244.239 24.9919 243.991 25.1195 243.694 25.2197C243.403 25.3154 243.065 25.3747 242.683 25.3975L242.409 25.9102ZM242.409 29H239.606L240.283 27.4756H242.409C242.651 27.4756 242.849 27.446 243.004 27.3867C243.159 27.3275 243.273 27.2409 243.346 27.127C243.423 27.0085 243.462 26.8672 243.462 26.7031C243.462 26.5436 243.428 26.4046 243.359 26.2861C243.291 26.1676 243.179 26.0765 243.024 26.0127C242.874 25.9443 242.669 25.9102 242.409 25.9102H240.57L240.584 24.6182H242.676L243.154 25.1377C243.674 25.1696 244.102 25.2676 244.439 25.4316C244.777 25.5957 245.025 25.8053 245.185 26.0605C245.349 26.3112 245.431 26.5869 245.431 26.8877C245.431 27.2386 245.365 27.5462 245.232 27.8105C245.1 28.0749 244.904 28.2959 244.645 28.4736C244.389 28.6468 244.075 28.779 243.701 28.8701C243.327 28.9567 242.897 29 242.409 29ZM246.326 25.377V25.2334C246.326 24.6911 246.404 24.1921 246.559 23.7363C246.714 23.276 246.939 22.8773 247.235 22.54C247.532 22.2028 247.896 21.9408 248.329 21.7539C248.762 21.5625 249.259 21.4668 249.819 21.4668C250.38 21.4668 250.879 21.5625 251.316 21.7539C251.754 21.9408 252.121 22.2028 252.417 22.54C252.718 22.8773 252.946 23.276 253.101 23.7363C253.256 24.1921 253.333 24.6911 253.333 25.2334V25.377C253.333 25.9147 253.256 26.4137 253.101 26.874C252.946 27.3298 252.718 27.7285 252.417 28.0703C252.121 28.4076 251.756 28.6696 251.323 28.8564C250.89 29.0433 250.394 29.1367 249.833 29.1367C249.272 29.1367 248.773 29.0433 248.336 28.8564C247.903 28.6696 247.536 28.4076 247.235 28.0703C246.939 27.7285 246.714 27.3298 246.559 26.874C246.404 26.4137 246.326 25.9147 246.326 25.377ZM248.295 25.2334V25.377C248.295 25.6868 248.322 25.9762 248.377 26.2451C248.432 26.514 248.518 26.751 248.637 26.9561C248.76 27.1566 248.919 27.3138 249.115 27.4277C249.311 27.5417 249.55 27.5986 249.833 27.5986C250.106 27.5986 250.341 27.5417 250.537 27.4277C250.733 27.3138 250.89 27.1566 251.009 26.9561C251.127 26.751 251.214 26.514 251.269 26.2451C251.328 25.9762 251.357 25.6868 251.357 25.377V25.2334C251.357 24.9326 251.328 24.6501 251.269 24.3857C251.214 24.1169 251.125 23.8799 251.002 23.6748C250.883 23.4652 250.726 23.3011 250.53 23.1826C250.334 23.0641 250.097 23.0049 249.819 23.0049C249.541 23.0049 249.304 23.0641 249.108 23.1826C248.917 23.3011 248.76 23.4652 248.637 23.6748C248.518 23.8799 248.432 24.1169 248.377 24.3857C248.322 24.6501 248.295 24.9326 248.295 25.2334ZM255.384 21.6035H257.353L257.291 24.0781C257.273 24.8711 257.182 25.5524 257.018 26.1221C256.854 26.6917 256.635 27.1702 256.361 27.5576C256.088 27.945 255.776 28.2549 255.425 28.4873C255.078 28.7152 254.714 28.8861 254.331 29H253.962L253.941 27.4824L254.146 27.4619C254.379 27.2204 254.57 26.9857 254.721 26.7578C254.871 26.5254 254.987 26.2816 255.069 26.0264C255.151 25.7712 255.211 25.4863 255.247 25.1719C255.288 24.8574 255.313 24.4928 255.322 24.0781L255.384 21.6035ZM255.917 21.6035H260.818V29H258.856V23.1826H255.917V21.6035ZM253.511 27.4619H261.878V31.2217H259.909V29H255.527V31.2217H253.511V27.4619ZM264.243 23.7979H266.39C267.064 23.7979 267.638 23.9095 268.112 24.1328C268.591 24.3516 268.955 24.6569 269.206 25.0488C269.461 25.4408 269.589 25.8942 269.589 26.4092C269.589 26.7829 269.516 27.1292 269.37 27.4482C269.229 27.7627 269.021 28.0361 268.748 28.2686C268.475 28.501 268.14 28.681 267.743 28.8086C267.347 28.9362 266.896 29 266.39 29H263.013V21.6035H264.988V27.4688H266.39C266.686 27.4688 266.923 27.4209 267.101 27.3252C267.283 27.2249 267.415 27.0951 267.497 26.9355C267.584 26.776 267.627 26.6029 267.627 26.416C267.627 26.2201 267.584 26.0423 267.497 25.8828C267.415 25.7188 267.283 25.5866 267.101 25.4863C266.923 25.3861 266.686 25.3359 266.39 25.3359H264.243V23.7979ZM272.747 21.6035V29H270.778V21.6035H272.747Z" fill="#008EE3"/>
<path fill-rule="evenodd" clip-rule="evenodd" d="M14.893 23.3139L15.802 23.0109C16.001 22.9449 16.219 23.0099 16.35 23.1729C16.653 23.5509 16.996 23.8949 17.373 24.1989C17.525 24.3209 17.592 24.5199 17.545 24.7079C17.519 24.8119 17.491 24.9149 17.461 25.0159L17.297 25.5109L17.291 25.5269C16.21 28.4299 13.412 30.4999 10.135 30.4999C5.921 30.4999 2.5 27.0789 2.5 22.8649C2.5 16.2599 8.974 3.14795 9.691 1.76895C9.803 1.55395 10.054 1.44995 10.286 1.52295C10.518 1.59695 10.663 1.82695 10.63 2.06795C10.582 2.41895 10.816 3.09095 11.173 4.00395C12.109 6.39595 13.998 10.203 15.51 14.0259C15.581 14.207 15.542 14.412 15.408 14.5529C15.276 14.693 15.076 14.7449 14.893 14.6859C14.747 14.9109 14.612 15.144 14.49 15.3829L15.207 16.0199C15.363 16.1589 15.417 16.3809 15.341 16.575C15.163 17.0319 15.036 17.5059 14.961 17.9899C14.93 18.1969 14.773 18.3619 14.568 18.4049L13.629 18.5969C13.615 18.8659 13.615 19.1339 13.629 19.4029L14.568 19.5949C14.773 19.6379 14.93 19.8029 14.961 20.0099C15.036 20.4939 15.163 20.9679 15.341 21.4249C15.417 21.6189 15.363 21.8409 15.207 21.9799L14.49 22.6169C14.612 22.8559 14.747 23.0879 14.893 23.3139ZM9.936 3.52095C8.133 7.22595 3.5 17.3539 3.5 22.8649C3.5 26.5269 6.473 29.4999 10.135 29.4999C12.981 29.4999 15.41 27.7039 16.352 25.1849L16.492 24.7639C16.245 24.5469 16.013 24.3139 15.796 24.0669L14.85 24.3819C14.641 24.4509 14.413 24.3769 14.285 24.1979C13.949 23.7279 13.659 23.2269 13.42 22.7009C13.33 22.5009 13.379 22.2649 13.543 22.1199L14.289 21.4579C14.184 21.1469 14.099 20.8289 14.034 20.5069L13.057 20.3059C12.843 20.2619 12.682 20.0829 12.66 19.8649C12.605 19.2899 12.605 18.7099 12.66 18.1349C12.682 17.9169 12.843 17.7379 13.057 17.6939L14.034 17.4929C14.099 17.1709 14.184 16.8539 14.289 16.5419L13.543 15.8799C13.379 15.735 13.33 15.4989 13.42 15.2989C13.659 14.7729 13.949 14.2719 14.285 13.8019C14.297 13.785 14.31 13.7689 14.323 13.7539C12.86 10.1489 11.125 6.62795 10.242 4.36795C10.123 4.06495 10.021 3.78195 9.936 3.52095Z" fill="white"/>
<path fill-rule="evenodd" clip-rule="evenodd" d="M20.0534 11.4751L20.2534 10.4981C20.2974 10.2831 20.4764 10.1221 20.6954 10.1011C21.2704 10.0451 21.8494 10.0451 22.4244 10.1011C22.6424 10.1221 22.8214 10.2831 22.8654 10.4981L23.0664 11.4751C23.3884 11.5391 23.7064 11.6241 24.0174 11.7301L24.6794 10.9841C24.8254 10.8201 25.0604 10.7701 25.2604 10.8611C25.7864 11.1001 26.2874 11.3901 26.7584 11.7261C26.9364 11.8531 27.0104 12.0821 26.9414 12.2901L26.6274 13.2361C26.8734 13.4531 27.1064 13.6861 27.3234 13.9331L28.2694 13.6181C28.4774 13.5491 28.7064 13.6231 28.8344 13.8021C29.1694 14.2721 29.4594 14.7731 29.6984 15.2991C29.7894 15.4991 29.7394 15.7351 29.5754 15.8801L28.8304 16.5421C28.9354 16.8531 29.0204 17.1711 29.0844 17.4931L30.0614 17.6941C30.2764 17.7381 30.4374 17.9171 30.4584 18.1351C30.5144 18.7101 30.5144 19.2901 30.4584 19.8651C30.4374 20.0831 30.2764 20.2621 30.0614 20.3061L29.0844 20.5071C29.0204 20.8291 28.9354 21.1461 28.8304 21.4581L29.5754 22.1201C29.7394 22.2651 29.7894 22.5011 29.6984 22.7011C29.4594 23.2271 29.1694 23.7281 28.8344 24.1981C28.7064 24.3771 28.4774 24.4511 28.2694 24.3821L27.3234 24.0671C27.1064 24.3141 26.8744 24.5471 26.6274 24.7641L26.9414 25.7101C27.0104 25.9181 26.9364 26.1471 26.7584 26.2741C26.2874 26.6101 25.7864 26.9001 25.2604 27.1391C25.0604 27.2301 24.8254 27.1801 24.6794 27.0161L24.0174 26.2701C23.7064 26.3761 23.3884 26.4611 23.0664 26.5251L22.8654 27.5021C22.8214 27.7171 22.6424 27.8781 22.4244 27.8991C21.8494 27.9551 21.2704 27.9551 20.6954 27.8991C20.4764 27.8781 20.2974 27.7171 20.2534 27.5021L20.0534 26.5251C19.7304 26.4611 19.4134 26.3761 19.1024 26.2701L18.4404 27.0161C18.2944 27.1801 18.0584 27.2301 17.8594 27.1391C17.3334 26.9001 16.8314 26.6101 16.3614 26.2741C16.1834 26.1471 16.1084 25.9181 16.1774 25.7101L16.4924 24.7641C16.2454 24.5471 16.0134 24.3141 15.7964 24.0671L14.8504 24.3821C14.6414 24.4511 14.4134 24.3771 14.2854 24.1981C13.9494 23.7281 13.6594 23.2271 13.4204 22.7011C13.3304 22.5011 13.3794 22.2651 13.5434 22.1201L14.2894 21.4581C14.1844 21.1471 14.0994 20.8291 14.0344 20.5071L13.0574 20.3061C12.8434 20.2621 12.6824 20.0831 12.6604 19.8651C12.6054 19.2901 12.6054 18.7101 12.6604 18.1351C12.6824 17.9171 12.8434 17.7381 13.0574 17.6941L14.0344 17.4931C14.0994 17.1711 14.1844 16.8541 14.2894 16.5421L13.5434 15.8801C13.3794 15.7351 13.3304 15.4991 13.4204 15.2991C13.6594 14.7731 13.9494 14.2721 14.2854 13.8021C14.4134 13.6231 14.6414 13.5491 14.8504 13.6181L15.7964 13.9331C16.0124 13.6861 16.2454 13.4531 16.4924 13.2361L16.1774 12.2901C16.1084 12.0821 16.1834 11.8531 16.3614 11.7261C16.8314 11.3901 17.3334 11.1001 17.8594 10.8611C18.0584 10.7701 18.2944 10.8201 18.4404 10.9841L19.1024 11.7301C19.4134 11.6241 19.7304 11.5391 20.0534 11.4751ZM21.9624 11.0701C21.6944 11.0561 21.4254 11.0561 21.1574 11.0701L20.9644 12.0091C20.9224 12.2131 20.7564 12.3711 20.5504 12.4021C20.0664 12.4761 19.5914 12.6031 19.1354 12.7811C18.9404 12.8571 18.7184 12.8041 18.5794 12.6471L17.9434 11.9311C17.7044 12.0531 17.4714 12.1871 17.2454 12.3331L17.5484 13.2431C17.6144 13.4411 17.5494 13.6601 17.3864 13.7911C17.0044 14.0971 16.6564 14.4451 16.3504 14.8271C16.2194 14.9901 16.0014 15.0551 15.8024 14.9891L14.8934 14.6861C14.7474 14.9121 14.6124 15.1441 14.4904 15.3831L15.2074 16.0201C15.3634 16.1591 15.4174 16.3811 15.3414 16.5751C15.1634 17.0321 15.0364 17.5061 14.9614 17.9901C14.9304 18.1971 14.7734 18.3621 14.5684 18.4051L13.6294 18.5971C13.6154 18.8661 13.6154 19.1341 13.6294 19.4031L14.5684 19.5951C14.7734 19.6381 14.9304 19.8031 14.9614 20.0101C15.0364 20.4941 15.1634 20.9681 15.3414 21.4251C15.4174 21.6191 15.3634 21.8411 15.2074 21.9801L14.4904 22.6171C14.6124 22.8561 14.7474 23.0881 14.8934 23.3141L15.8024 23.0111C16.0014 22.9451 16.2194 23.0101 16.3504 23.1731C16.6564 23.5551 17.0044 23.9031 17.3864 24.2091C17.5494 24.3401 17.6144 24.5591 17.5484 24.7571L17.2454 25.6671C17.4714 25.8131 17.7044 25.9471 17.9434 26.0691L18.5794 25.3531C18.7184 25.1961 18.9404 25.1431 19.1354 25.2191C19.5914 25.3971 20.0664 25.5241 20.5504 25.5981C20.7564 25.6291 20.9224 25.7871 20.9644 25.9911L21.1574 26.9301C21.4254 26.9441 21.6944 26.9441 21.9624 26.9301L22.1554 25.9911C22.1974 25.7871 22.3624 25.6291 22.5694 25.5981C23.0534 25.5241 23.5284 25.3971 23.9844 25.2191C24.1794 25.1431 24.4004 25.1961 24.5394 25.3531L25.1764 26.0691C25.4154 25.9471 25.6484 25.8131 25.8734 25.6671L25.5714 24.7571C25.5054 24.5591 25.5694 24.3401 25.7334 24.2091C26.1154 23.9031 26.4624 23.5551 26.7684 23.1731C26.8994 23.0101 27.1184 22.9451 27.3164 23.0111L28.2264 23.3141C28.3724 23.0881 28.5064 22.8561 28.6294 22.6171L27.9124 21.9801C27.7554 21.8411 27.7024 21.6191 27.7784 21.4251C27.9564 20.9681 28.0834 20.4941 28.1574 20.0101C28.1894 19.8031 28.3464 19.6381 28.5514 19.5951L29.4904 19.4031C29.5034 19.1341 29.5034 18.8661 29.4904 18.5971L28.5514 18.4051C28.3464 18.3621 28.1894 18.1971 28.1574 17.9901C28.0834 17.5061 27.9564 17.0321 27.7784 16.5751C27.7024 16.3811 27.7554 16.1591 27.9124 16.0201L28.6294 15.3831C28.5064 15.1441 28.3724 14.9121 28.2264 14.6861L27.3164 14.9891C27.1184 15.0551 26.8994 14.9901 26.7684 14.8271C26.4624 14.4451 26.1154 14.0971 25.7334 13.7911C25.5694 13.6601 25.5054 13.4411 25.5714 13.2431L25.8734 12.3331C25.6484 12.1871 25.4154 12.0531 25.1764 11.9311L24.5394 12.6471C24.4004 12.8041 24.1794 12.8571 23.9844 12.7811C23.5284 12.6031 23.0534 12.4761 22.5694 12.4021C22.3624 12.3711 22.1974 12.2131 22.1554 12.0091L21.9624 11.0701ZM21.5594 15.4141C19.5804 15.4141 17.9734 17.0211 17.9734 19.0001C17.9734 20.9791 19.5804 22.5861 21.5594 22.5861C23.5384 22.5861 25.1454 20.9791 25.1454 19.0001C25.1454 17.0211 23.5384 15.4141 21.5594 15.4141ZM21.5594 16.4141C22.9864 16.4141 24.1454 17.5731 24.1454 19.0001C24.1454 20.4271 22.9864 21.5861 21.5594 21.5861C20.1324 21.5861 18.9734 20.4271 18.9734 19.0001C18.9734 17.5731 20.1324 16.4141 21.5594 16.4141Z" fill="white"/>
<path fill-rule="evenodd" clip-rule="evenodd" d="M5.52883 19.664C5.52883 19.664 3.34583 25.867 8.85983 27.48C9.12483 27.557 9.40183 27.405 9.47983 27.14C9.55683 26.875 9.40483 26.598 9.13983 26.52C4.56883 25.183 6.47083 20.002 6.47083 20.002C6.56383 19.742 6.42883 19.456 6.16883 19.362C5.90883 19.269 5.62283 19.404 5.52883 19.664Z" fill="white"/>
</svg>
