<svg width="277" height="32" viewBox="0 0 277 32" fill="none" xmlns="http://www.w3.org/2000/svg">
<path d="M44.9395 9.49316V13H42.8887V3.04688H46.7715C47.5189 3.04688 48.1751 3.18359 48.7402 3.45703C49.3099 3.73047 49.7474 4.12012 50.0527 4.62598C50.3581 5.12728 50.5107 5.69922 50.5107 6.3418C50.5107 7.31706 50.1758 8.08724 49.5059 8.65234C48.8405 9.21289 47.9176 9.49316 46.7373 9.49316H44.9395ZM44.9395 7.83203H46.7715C47.3138 7.83203 47.7262 7.70443 48.0088 7.44922C48.2959 7.19401 48.4395 6.82943 48.4395 6.35547C48.4395 5.86784 48.2959 5.47363 48.0088 5.17285C47.7217 4.87207 47.3252 4.71712 46.8193 4.70801H44.9395V7.83203ZM55.1045 13.1367C54.0199 13.1367 53.1357 12.804 52.4521 12.1387C51.7731 11.4733 51.4336 10.5869 51.4336 9.47949V9.28809C51.4336 8.54525 51.5771 7.88216 51.8643 7.29883C52.1514 6.71094 52.557 6.25977 53.0811 5.94531C53.6097 5.6263 54.2113 5.4668 54.8857 5.4668C55.8975 5.4668 56.6927 5.78581 57.2715 6.42383C57.8548 7.06185 58.1465 7.96647 58.1465 9.1377V9.94434H53.4365C53.5003 10.4274 53.6917 10.8148 54.0107 11.1064C54.3343 11.3981 54.7422 11.5439 55.2344 11.5439C55.9954 11.5439 56.5902 11.2682 57.0186 10.7168L57.9893 11.8037C57.693 12.223 57.292 12.5511 56.7861 12.7881C56.2803 13.0205 55.7197 13.1367 55.1045 13.1367ZM54.8789 7.06641C54.487 7.06641 54.168 7.19857 53.9219 7.46289C53.6803 7.72721 53.5254 8.10547 53.457 8.59766H56.2051V8.44043C56.196 8.00293 56.0775 7.66569 55.8496 7.42871C55.6217 7.18717 55.2982 7.06641 54.8789 7.06641ZM63.7793 10.6689L65.7139 5.60352H68.1885V13H66.2129V8.46094L64.4424 13H63.1162L61.3799 8.53613V13H59.4043V5.60352H61.8584L63.7793 10.6689ZM69.6035 9.2334C69.6035 8.49967 69.7448 7.8457 70.0273 7.27148C70.3099 6.69727 70.7155 6.25293 71.2441 5.93848C71.7773 5.62402 72.3949 5.4668 73.0967 5.4668C74.0947 5.4668 74.9082 5.77214 75.5371 6.38281C76.1706 6.99349 76.5238 7.82292 76.5967 8.87109L76.6104 9.37695C76.6104 10.5117 76.2936 11.4232 75.6602 12.1113C75.0267 12.7949 74.1768 13.1367 73.1104 13.1367C72.0439 13.1367 71.1917 12.7949 70.5537 12.1113C69.9202 11.4277 69.6035 10.498 69.6035 9.32227V9.2334ZM71.5791 9.37695C71.5791 10.0788 71.7113 10.6165 71.9756 10.9902C72.2399 11.3594 72.6182 11.5439 73.1104 11.5439C73.5889 11.5439 73.9626 11.3617 74.2314 10.9971C74.5003 10.6279 74.6348 10.04 74.6348 9.2334C74.6348 8.54525 74.5003 8.01204 74.2314 7.63379C73.9626 7.25553 73.5843 7.06641 73.0967 7.06641C72.6136 7.06641 72.2399 7.25553 71.9756 7.63379C71.7113 8.00749 71.5791 8.58854 71.5791 9.37695ZM84.2393 13H82.2568V10.1562H79.8027V13H77.8271V5.60352H79.8027V8.57031H82.2568V5.60352H84.2393V13ZM91.9092 7.18945H89.5371V13H87.5547V7.18945H85.2236V5.60352H91.9092V7.18945ZM100.851 5.60352H102.826V13H100.851V8.43359L98.376 13H96.3936V5.60352H98.376V10.1631L100.851 5.60352ZM110.899 11.5439C111.264 11.5439 111.56 11.4437 111.788 11.2432C112.016 11.0426 112.134 10.776 112.144 10.4434H113.996C113.992 10.9447 113.855 11.4049 113.586 11.8242C113.317 12.2389 112.948 12.5625 112.479 12.7949C112.014 13.0228 111.499 13.1367 110.934 13.1367C109.876 13.1367 109.042 12.8018 108.432 12.1318C107.821 11.4574 107.516 10.5277 107.516 9.34277V9.21289C107.516 8.07357 107.819 7.16439 108.425 6.48535C109.031 5.80632 109.863 5.4668 110.92 5.4668C111.845 5.4668 112.586 5.73112 113.142 6.25977C113.702 6.78385 113.987 7.4834 113.996 8.3584H112.144C112.134 7.97559 112.016 7.66569 111.788 7.42871C111.56 7.18717 111.259 7.06641 110.886 7.06641C110.425 7.06641 110.077 7.23503 109.84 7.57227C109.607 7.90495 109.491 8.44727 109.491 9.19922V9.4043C109.491 10.1654 109.607 10.7122 109.84 11.0449C110.072 11.3776 110.425 11.5439 110.899 11.5439ZM118.528 13.1367C117.444 13.1367 116.56 12.804 115.876 12.1387C115.197 11.4733 114.857 10.5869 114.857 9.47949V9.28809C114.857 8.54525 115.001 7.88216 115.288 7.29883C115.575 6.71094 115.981 6.25977 116.505 5.94531C117.034 5.6263 117.635 5.4668 118.31 5.4668C119.321 5.4668 120.117 5.78581 120.695 6.42383C121.279 7.06185 121.57 7.96647 121.57 9.1377V9.94434H116.86C116.924 10.4274 117.116 10.8148 117.435 11.1064C117.758 11.3981 118.166 11.5439 118.658 11.5439C119.419 11.5439 120.014 11.2682 120.442 10.7168L121.413 11.8037C121.117 12.223 120.716 12.5511 120.21 12.7881C119.704 13.0205 119.144 13.1367 118.528 13.1367ZM118.303 7.06641C117.911 7.06641 117.592 7.19857 117.346 7.46289C117.104 7.72721 116.949 8.10547 116.881 8.59766H119.629V8.44043C119.62 8.00293 119.501 7.66569 119.273 7.42871C119.046 7.18717 118.722 7.06641 118.303 7.06641ZM129.356 9.37012C129.356 10.5094 129.097 11.4232 128.577 12.1113C128.062 12.7949 127.365 13.1367 126.485 13.1367C125.738 13.1367 125.134 12.877 124.674 12.3574V15.8438H122.698V5.60352H124.53L124.599 6.32812C125.077 5.75391 125.701 5.4668 126.472 5.4668C127.383 5.4668 128.092 5.80404 128.598 6.47852C129.104 7.15299 129.356 8.08268 129.356 9.26758V9.37012ZM127.381 9.22656C127.381 8.53841 127.258 8.00749 127.012 7.63379C126.77 7.26009 126.417 7.07324 125.952 7.07324C125.332 7.07324 124.906 7.31022 124.674 7.78418V10.8125C124.915 11.3001 125.346 11.5439 125.966 11.5439C126.909 11.5439 127.381 10.7715 127.381 9.22656ZM130.717 13V5.60352H133.807C134.814 5.60352 135.586 5.78125 136.124 6.13672C136.662 6.49219 136.931 7.0026 136.931 7.66797C136.931 8.00977 136.817 8.31738 136.589 8.59082C136.366 8.8597 136.037 9.06706 135.604 9.21289C136.133 9.31315 136.548 9.51139 136.849 9.80762C137.154 10.0993 137.307 10.4593 137.307 10.8877C137.307 11.5758 137.047 12.0999 136.527 12.46C136.012 12.82 135.263 13 134.278 13H130.717ZM132.692 9.93066V11.4209H134.285C134.982 11.4209 135.331 11.1771 135.331 10.6895C135.331 10.1927 134.998 9.93978 134.333 9.93066H132.692ZM132.692 8.60449H133.916C134.609 8.59538 134.955 8.37207 134.955 7.93457C134.955 7.66569 134.859 7.47428 134.668 7.36035C134.481 7.24642 134.194 7.18945 133.807 7.18945H132.692V8.60449ZM142.974 5.60352H144.949V13H142.974V8.43359L140.499 13H138.517V5.60352H140.499V10.1631L142.974 5.60352ZM149.536 11.5439C149.901 11.5439 150.197 11.4437 150.425 11.2432C150.653 11.0426 150.771 10.776 150.78 10.4434H152.633C152.628 10.9447 152.492 11.4049 152.223 11.8242C151.954 12.2389 151.585 12.5625 151.115 12.7949C150.65 13.0228 150.135 13.1367 149.57 13.1367C148.513 13.1367 147.679 12.8018 147.068 12.1318C146.458 11.4574 146.152 10.5277 146.152 9.34277V9.21289C146.152 8.07357 146.455 7.16439 147.062 6.48535C147.668 5.80632 148.499 5.4668 149.557 5.4668C150.482 5.4668 151.222 5.73112 151.778 6.25977C152.339 6.78385 152.624 7.4834 152.633 8.3584H150.78C150.771 7.97559 150.653 7.66569 150.425 7.42871C150.197 7.18717 149.896 7.06641 149.522 7.06641C149.062 7.06641 148.714 7.23503 148.477 7.57227C148.244 7.90495 148.128 8.44727 148.128 9.19922V9.4043C148.128 10.1654 148.244 10.7122 148.477 11.0449C148.709 11.3776 149.062 11.5439 149.536 11.5439ZM160.173 13H158.19V10.1562H155.736V13H153.761V5.60352H155.736V8.57031H158.19V5.60352H160.173V13ZM161.396 9.2334C161.396 8.49967 161.538 7.8457 161.82 7.27148C162.103 6.69727 162.508 6.25293 163.037 5.93848C163.57 5.62402 164.188 5.4668 164.89 5.4668C165.888 5.4668 166.701 5.77214 167.33 6.38281C167.964 6.99349 168.317 7.82292 168.39 8.87109L168.403 9.37695C168.403 10.5117 168.087 11.4232 167.453 12.1113C166.82 12.7949 165.97 13.1367 164.903 13.1367C163.837 13.1367 162.985 12.7949 162.347 12.1113C161.713 11.4277 161.396 10.498 161.396 9.32227V9.2334ZM163.372 9.37695C163.372 10.0788 163.504 10.6165 163.769 10.9902C164.033 11.3594 164.411 11.5439 164.903 11.5439C165.382 11.5439 165.756 11.3617 166.024 10.9971C166.293 10.6279 166.428 10.04 166.428 9.2334C166.428 8.54525 166.293 8.01204 166.024 7.63379C165.756 7.25553 165.377 7.06641 164.89 7.06641C164.407 7.06641 164.033 7.25553 163.769 7.63379C163.504 8.00749 163.372 8.58854 163.372 9.37695ZM173.024 13.1367C171.94 13.1367 171.056 12.804 170.372 12.1387C169.693 11.4733 169.354 10.5869 169.354 9.47949V9.28809C169.354 8.54525 169.497 7.88216 169.784 7.29883C170.071 6.71094 170.477 6.25977 171.001 5.94531C171.53 5.6263 172.131 5.4668 172.806 5.4668C173.817 5.4668 174.613 5.78581 175.191 6.42383C175.775 7.06185 176.066 7.96647 176.066 9.1377V9.94434H171.356C171.42 10.4274 171.612 10.8148 171.931 11.1064C172.254 11.3981 172.662 11.5439 173.154 11.5439C173.915 11.5439 174.51 11.2682 174.938 10.7168L175.909 11.8037C175.613 12.223 175.212 12.5511 174.706 12.7881C174.2 13.0205 173.64 13.1367 173.024 13.1367ZM172.799 7.06641C172.407 7.06641 172.088 7.19857 171.842 7.46289C171.6 7.72721 171.445 8.10547 171.377 8.59766H174.125V8.44043C174.116 8.00293 173.997 7.66569 173.77 7.42871C173.542 7.18717 173.218 7.06641 172.799 7.06641ZM180.373 9.2334C180.373 8.49967 180.514 7.8457 180.797 7.27148C181.079 6.69727 181.485 6.25293 182.014 5.93848C182.547 5.62402 183.164 5.4668 183.866 5.4668C184.864 5.4668 185.678 5.77214 186.307 6.38281C186.94 6.99349 187.293 7.82292 187.366 8.87109L187.38 9.37695C187.38 10.5117 187.063 11.4232 186.43 12.1113C185.796 12.7949 184.946 13.1367 183.88 13.1367C182.813 13.1367 181.961 12.7949 181.323 12.1113C180.69 11.4277 180.373 10.498 180.373 9.32227V9.2334ZM182.349 9.37695C182.349 10.0788 182.481 10.6165 182.745 10.9902C183.009 11.3594 183.388 11.5439 183.88 11.5439C184.358 11.5439 184.732 11.3617 185.001 10.9971C185.27 10.6279 185.404 10.04 185.404 9.2334C185.404 8.54525 185.27 8.01204 185.001 7.63379C184.732 7.25553 184.354 7.06641 183.866 7.06641C183.383 7.06641 183.009 7.25553 182.745 7.63379C182.481 8.00749 182.349 8.58854 182.349 9.37695ZM192.268 6.01367C193.215 6.01367 193.972 6.32812 194.537 6.95703C195.102 7.58594 195.385 8.44043 195.385 9.52051V9.61621C195.385 10.6826 195.07 11.5371 194.441 12.1797C193.812 12.8223 192.967 13.1436 191.905 13.1436C190.839 13.1436 189.989 12.7972 189.355 12.1045C188.727 11.4072 188.412 10.4616 188.412 9.26758V8.93945C188.421 7.27604 188.701 5.97493 189.253 5.03613C189.809 4.09277 190.643 3.49805 191.755 3.25195C192.338 3.12435 192.714 2.99902 192.883 2.87598C193.051 2.74837 193.136 2.57292 193.136 2.34961H194.735C194.735 3.0651 194.542 3.60286 194.154 3.96289C193.771 4.32292 193.088 4.60091 192.104 4.79688C191.52 4.91536 191.06 5.14551 190.723 5.4873C190.385 5.8291 190.158 6.3099 190.039 6.92969C190.668 6.31901 191.411 6.01367 192.268 6.01367ZM191.892 7.61328C191.422 7.61328 191.053 7.77051 190.784 8.08496C190.52 8.39941 190.388 8.90983 190.388 9.61621C190.388 10.2451 190.518 10.7259 190.777 11.0586C191.037 11.3867 191.413 11.5508 191.905 11.5508C192.384 11.5508 192.753 11.389 193.013 11.0654C193.272 10.7419 193.405 10.2656 193.409 9.63672V9.47266C193.409 8.86654 193.275 8.40625 193.006 8.0918C192.742 7.77279 192.37 7.61328 191.892 7.61328ZM199.644 11.5439C200.008 11.5439 200.304 11.4437 200.532 11.2432C200.76 11.0426 200.879 10.776 200.888 10.4434H202.74C202.736 10.9447 202.599 11.4049 202.33 11.8242C202.061 12.2389 201.692 12.5625 201.223 12.7949C200.758 13.0228 200.243 13.1367 199.678 13.1367C198.62 13.1367 197.786 12.8018 197.176 12.1318C196.565 11.4574 196.26 10.5277 196.26 9.34277V9.21289C196.26 8.07357 196.563 7.16439 197.169 6.48535C197.775 5.80632 198.607 5.4668 199.664 5.4668C200.589 5.4668 201.33 5.73112 201.886 6.25977C202.446 6.78385 202.731 7.4834 202.74 8.3584H200.888C200.879 7.97559 200.76 7.66569 200.532 7.42871C200.304 7.18717 200.004 7.06641 199.63 7.06641C199.17 7.06641 198.821 7.23503 198.584 7.57227C198.352 7.90495 198.235 8.44727 198.235 9.19922V9.4043C198.235 10.1654 198.352 10.7122 198.584 11.0449C198.816 11.3776 199.17 11.5439 199.644 11.5439ZM210.301 5.60352V13H208.325V7.20312H206.582L206.459 9.48633C206.382 10.7031 206.142 11.5895 205.741 12.1455C205.34 12.7015 204.743 12.9863 203.95 13H203.28L203.26 11.3936L203.506 11.373C203.861 11.3457 204.121 11.1361 204.285 10.7441C204.449 10.3522 204.552 9.68457 204.593 8.74121L204.729 5.60352H210.301ZM214.587 10.2041L215.954 5.60352H218.073L215.1 14.1484L214.936 14.5381C214.493 15.5042 213.764 15.9873 212.748 15.9873C212.461 15.9873 212.169 15.944 211.873 15.8574V14.3604L212.174 14.3672C212.548 14.3672 212.826 14.3102 213.008 14.1963C213.195 14.0824 213.34 13.8932 213.445 13.6289L213.678 13.0205L211.087 5.60352H213.213L214.587 10.2041ZM225.969 10.2588H225.073V13H223.098V10.2588H222.216L220.746 13H218.36L220.691 9.13086L218.388 5.60352H220.835L222.373 8.36523H223.098V5.60352H225.073V8.36523H225.812L227.356 5.60352H229.804L227.514 9.08301L229.865 13H227.438L225.969 10.2588ZM235.272 5.60352H237.248V13H235.272V8.43359L232.798 13H230.815V5.60352H232.798V10.1631L235.272 5.60352ZM238.889 13V5.60352H241.979C242.986 5.60352 243.758 5.78125 244.296 6.13672C244.834 6.49219 245.103 7.0026 245.103 7.66797C245.103 8.00977 244.989 8.31738 244.761 8.59082C244.537 8.8597 244.209 9.06706 243.776 9.21289C244.305 9.31315 244.72 9.51139 245.021 9.80762C245.326 10.0993 245.479 10.4593 245.479 10.8877C245.479 11.5758 245.219 12.0999 244.699 12.46C244.184 12.82 243.435 13 242.45 13H238.889ZM240.864 9.93066V11.4209H242.457C243.154 11.4209 243.503 11.1771 243.503 10.6895C243.503 10.1927 243.17 9.93978 242.505 9.93066H240.864ZM240.864 8.60449H242.088C242.781 8.59538 243.127 8.37207 243.127 7.93457C243.127 7.66569 243.031 7.47428 242.84 7.36035C242.653 7.24642 242.366 7.18945 241.979 7.18945H240.864V8.60449ZM250.975 13C250.883 12.8223 250.817 12.6012 250.776 12.3369C250.298 12.8701 249.676 13.1367 248.91 13.1367C248.186 13.1367 247.584 12.9271 247.105 12.5078C246.632 12.0885 246.395 11.5599 246.395 10.9219C246.395 10.138 246.684 9.53646 247.263 9.11719C247.846 8.69792 248.687 8.486 249.785 8.48145H250.694V8.05762C250.694 7.71582 250.605 7.44238 250.428 7.2373C250.255 7.03223 249.979 6.92969 249.601 6.92969C249.268 6.92969 249.006 7.00944 248.814 7.16895C248.628 7.32845 248.534 7.5472 248.534 7.8252H246.559C246.559 7.39681 246.691 7.00033 246.955 6.63574C247.219 6.27116 247.593 5.98633 248.076 5.78125C248.559 5.57161 249.102 5.4668 249.703 5.4668C250.615 5.4668 251.337 5.69694 251.87 6.15723C252.408 6.61296 252.677 7.25553 252.677 8.08496V11.291C252.681 11.9928 252.779 12.5238 252.971 12.8838V13H250.975ZM249.341 11.626C249.632 11.626 249.901 11.5622 250.147 11.4346C250.394 11.3024 250.576 11.127 250.694 10.9082V9.63672H249.956C248.967 9.63672 248.441 9.97852 248.377 10.6621L248.37 10.7783C248.37 11.0244 248.457 11.2272 248.63 11.3867C248.803 11.5462 249.04 11.626 249.341 11.626ZM260.606 13H258.624V10.1562H256.17V13H254.194V5.60352H256.17V8.57031H258.624V5.60352H260.606V13ZM266.595 5.60352H268.57V13H266.595V8.43359L264.12 13H262.138V5.60352H264.12V10.1631L266.595 5.60352ZM273.485 13.1367C272.401 13.1367 271.517 12.804 270.833 12.1387C270.154 11.4733 269.814 10.5869 269.814 9.47949V9.28809C269.814 8.54525 269.958 7.88216 270.245 7.29883C270.532 6.71094 270.938 6.25977 271.462 5.94531C271.991 5.6263 272.592 5.4668 273.267 5.4668C274.278 5.4668 275.074 5.78581 275.652 6.42383C276.236 7.06185 276.527 7.96647 276.527 9.1377V9.94434H271.817C271.881 10.4274 272.073 10.8148 272.392 11.1064C272.715 11.3981 273.123 11.5439 273.615 11.5439C274.376 11.5439 274.971 11.2682 275.399 10.7168L276.37 11.8037C276.074 12.223 275.673 12.5511 275.167 12.7881C274.661 13.0205 274.101 13.1367 273.485 13.1367ZM273.26 7.06641C272.868 7.06641 272.549 7.19857 272.303 7.46289C272.061 7.72721 271.906 8.10547 271.838 8.59766H274.586V8.44043C274.577 8.00293 274.458 7.66569 274.23 7.42871C274.003 7.18717 273.679 7.06641 273.26 7.06641Z" fill="white"/>
<path d="M42.4648 25.3564C42.4648 24.167 42.7064 23.2214 43.1895 22.5195C43.6771 21.8177 44.347 21.4668 45.1992 21.4668C45.5319 21.4668 45.835 21.5329 46.1084 21.665V18.5H48.084V21.6719C48.3665 21.5352 48.6787 21.4668 49.0205 21.4668C49.8773 21.4668 50.5472 21.8177 51.0303 22.5195C51.5179 23.2168 51.7617 24.2103 51.7617 25.5C51.7617 26.6165 51.5179 27.5029 51.0303 28.1592C50.5426 28.8109 49.8773 29.1367 49.0342 29.1367C48.6833 29.1367 48.3665 29.0729 48.084 28.9453V31.8438H46.1084V28.9521C45.835 29.0752 45.5273 29.1367 45.1855 29.1367C44.388 29.1367 43.7477 28.8382 43.2646 28.2412C42.7816 27.6442 42.5173 26.8262 42.4717 25.7871L42.4648 25.3564ZM49.7793 25.3564C49.7793 24.6182 49.6676 24.0531 49.4443 23.6611C49.221 23.2646 48.9066 23.0664 48.501 23.0664C48.3734 23.0664 48.2344 23.0824 48.084 23.1143V27.5098C48.2116 27.5371 48.3551 27.5508 48.5146 27.5508C49.2894 27.5508 49.7087 26.9629 49.7725 25.7871L49.7793 25.3564ZM44.4404 25.5C44.4404 26.8626 44.8574 27.5439 45.6914 27.5439C45.8646 27.5439 46.0036 27.5326 46.1084 27.5098V23.1143C45.958 23.0824 45.8236 23.0664 45.7051 23.0664C45.2995 23.0664 44.9873 23.2601 44.7686 23.6475C44.5498 24.0303 44.4404 24.6478 44.4404 25.5ZM57.4424 21.6035H59.418V29H57.4424V24.4336L54.9678 29H52.9854V21.6035H54.9678V26.1631L57.4424 21.6035ZM67.3613 21.6035V29H65.3857V23.2031H63.6426L63.5195 25.4863C63.4421 26.7031 63.2028 27.5895 62.8018 28.1455C62.4007 28.7015 61.8037 28.9863 61.0107 29H60.3408L60.3203 27.3936L60.5664 27.373C60.9219 27.3457 61.1816 27.1361 61.3457 26.7441C61.5098 26.3522 61.6123 25.6846 61.6533 24.7412L61.79 21.6035H67.3613ZM70.998 23.7705H72.4131C73.0511 23.7705 73.6117 23.8776 74.0947 24.0918C74.5778 24.306 74.9469 24.6136 75.2021 25.0146C75.4619 25.4111 75.5918 25.8737 75.5918 26.4023C75.5918 27.1816 75.3024 27.8105 74.7236 28.2891C74.1494 28.763 73.3656 29 72.3721 29H69.0156V21.6035H70.998V23.7705ZM70.998 25.3564V27.4209H72.3994C72.7913 27.4209 73.0921 27.3298 73.3018 27.1475C73.5114 26.9652 73.6162 26.7168 73.6162 26.4023C73.6162 26.0833 73.5137 25.8304 73.3086 25.6436C73.1035 25.4521 72.8005 25.3564 72.3994 25.3564H70.998ZM81.8193 23.1895H79.4473V29H77.4648V23.1895H75.1338V21.6035H81.8193V23.1895ZM89.4756 25.3701C89.4756 26.5094 89.2158 27.4232 88.6963 28.1113C88.1813 28.7949 87.484 29.1367 86.6045 29.1367C85.8571 29.1367 85.2533 28.877 84.793 28.3574V31.8438H82.8174V21.6035H84.6494L84.7178 22.3281C85.1963 21.7539 85.8206 21.4668 86.5908 21.4668C87.5023 21.4668 88.2109 21.804 88.7168 22.4785C89.2227 23.153 89.4756 24.0827 89.4756 25.2676V25.3701ZM87.5 25.2266C87.5 24.5384 87.377 24.0075 87.1309 23.6338C86.8893 23.2601 86.5361 23.0732 86.0713 23.0732C85.4515 23.0732 85.0254 23.3102 84.793 23.7842V26.8125C85.0345 27.3001 85.4652 27.5439 86.085 27.5439C87.0283 27.5439 87.5 26.7715 87.5 25.2266ZM90.3984 25.2334C90.3984 24.4997 90.5397 23.8457 90.8223 23.2715C91.1048 22.6973 91.5104 22.2529 92.0391 21.9385C92.5723 21.624 93.1898 21.4668 93.8916 21.4668C94.8896 21.4668 95.7031 21.7721 96.332 22.3828C96.9655 22.9935 97.3187 23.8229 97.3916 24.8711L97.4053 25.377C97.4053 26.5117 97.0885 27.4232 96.4551 28.1113C95.8216 28.7949 94.9717 29.1367 93.9053 29.1367C92.8389 29.1367 91.9867 28.7949 91.3486 28.1113C90.7152 27.4277 90.3984 26.498 90.3984 25.3223V25.2334ZM92.374 25.377C92.374 26.0788 92.5062 26.6165 92.7705 26.9902C93.0348 27.3594 93.4131 27.5439 93.9053 27.5439C94.3838 27.5439 94.7575 27.3617 95.0264 26.9971C95.2952 26.6279 95.4297 26.04 95.4297 25.2334C95.4297 24.5452 95.2952 24.012 95.0264 23.6338C94.7575 23.2555 94.3792 23.0664 93.8916 23.0664C93.4085 23.0664 93.0348 23.2555 92.7705 23.6338C92.5062 24.0075 92.374 24.5885 92.374 25.377ZM98.752 29V21.6035H101.842C102.849 21.6035 103.621 21.7812 104.159 22.1367C104.697 22.4922 104.966 23.0026 104.966 23.668C104.966 24.0098 104.852 24.3174 104.624 24.5908C104.401 24.8597 104.073 25.0671 103.64 25.2129C104.168 25.3132 104.583 25.5114 104.884 25.8076C105.189 26.0993 105.342 26.4593 105.342 26.8877C105.342 27.5758 105.082 28.0999 104.562 28.46C104.048 28.82 103.298 29 102.313 29H98.752ZM100.728 25.9307V27.4209H102.32C103.018 27.4209 103.366 27.1771 103.366 26.6895C103.366 26.1927 103.034 25.9398 102.368 25.9307H100.728ZM100.728 24.6045H101.951C102.644 24.5954 102.99 24.3721 102.99 23.9346C102.99 23.6657 102.895 23.4743 102.703 23.3604C102.516 23.2464 102.229 23.1895 101.842 23.1895H100.728V24.6045ZM110.141 27.4072C110.587 26.9333 110.89 26.4639 111.05 25.999C111.209 25.5342 111.298 24.8757 111.316 24.0234L111.371 21.6035H116.812V27.4072H117.879V31.2217H115.903V29H111.521V31.2217H109.505V27.4072H110.141ZM112.472 27.4072H114.844V23.2373H113.306L113.292 24.126C113.251 25.484 112.978 26.5778 112.472 27.4072ZM125.316 21.6035V29H123.341V23.2031H121.598L121.475 25.4863C121.397 26.7031 121.158 27.5895 120.757 28.1455C120.356 28.7015 119.759 28.9863 118.966 29H118.296L118.275 27.3936L118.521 27.373C118.877 27.3457 119.137 27.1361 119.301 26.7441C119.465 26.3522 119.567 25.6846 119.608 24.7412L119.745 21.6035H125.316ZM133.007 21.6035V29H131.038V26.4434H129.787L128.365 29H126.362L127.976 26.1084C127.534 25.9033 127.192 25.6253 126.95 25.2744C126.713 24.9235 126.595 24.5247 126.595 24.0781C126.595 23.3626 126.87 22.777 127.422 22.3213C127.978 21.861 128.721 21.6217 129.65 21.6035H133.007ZM129.685 25.0625H131.038V23.1895H129.753C129.402 23.1895 129.117 23.2829 128.898 23.4697C128.68 23.652 128.57 23.8753 128.57 24.1396C128.57 24.404 128.675 24.6227 128.885 24.7959C129.094 24.9691 129.361 25.0579 129.685 25.0625ZM138.291 29V21.6035H141.381C142.388 21.6035 143.16 21.7812 143.698 22.1367C144.236 22.4922 144.505 23.0026 144.505 23.668C144.505 24.0098 144.391 24.3174 144.163 24.5908C143.94 24.8597 143.612 25.0671 143.179 25.2129C143.707 25.3132 144.122 25.5114 144.423 25.8076C144.728 26.0993 144.881 26.4593 144.881 26.8877C144.881 27.5758 144.621 28.0999 144.102 28.46C143.587 28.82 142.837 29 141.853 29H138.291ZM140.267 25.9307V27.4209H141.859C142.557 27.4209 142.905 27.1771 142.905 26.6895C142.905 26.1927 142.573 25.9398 141.907 25.9307H140.267ZM140.267 24.6045H141.49C142.183 24.5954 142.529 24.3721 142.529 23.9346C142.529 23.6657 142.434 23.4743 142.242 23.3604C142.055 23.2464 141.768 23.1895 141.381 23.1895H140.267V24.6045ZM145.783 25.2334C145.783 24.4997 145.924 23.8457 146.207 23.2715C146.49 22.6973 146.895 22.2529 147.424 21.9385C147.957 21.624 148.575 21.4668 149.276 21.4668C150.274 21.4668 151.088 21.7721 151.717 22.3828C152.35 22.9935 152.703 23.8229 152.776 24.8711L152.79 25.377C152.79 26.5117 152.473 27.4232 151.84 28.1113C151.206 28.7949 150.356 29.1367 149.29 29.1367C148.224 29.1367 147.371 28.7949 146.733 28.1113C146.1 27.4277 145.783 26.498 145.783 25.3223V25.2334ZM147.759 25.377C147.759 26.0788 147.891 26.6165 148.155 26.9902C148.42 27.3594 148.798 27.5439 149.29 27.5439C149.769 27.5439 150.142 27.3617 150.411 26.9971C150.68 26.6279 150.814 26.04 150.814 25.2334C150.814 24.5452 150.68 24.012 150.411 23.6338C150.142 23.2555 149.764 23.0664 149.276 23.0664C148.793 23.0664 148.42 23.2555 148.155 23.6338C147.891 24.0075 147.759 24.5885 147.759 25.377ZM153.617 27.4072C154.064 26.9333 154.367 26.4639 154.526 25.999C154.686 25.5342 154.775 24.8757 154.793 24.0234L154.848 21.6035H160.289V27.4072H161.355V31.2217H159.38V29H154.998V31.2217H152.981V27.4072H153.617ZM155.948 27.4072H158.32V23.2373H156.782L156.769 24.126C156.728 25.484 156.454 26.5778 155.948 27.4072ZM164.473 23.7705H165.888C166.526 23.7705 167.086 23.8776 167.569 24.0918C168.052 24.306 168.422 24.6136 168.677 25.0146C168.937 25.4111 169.066 25.8737 169.066 26.4023C169.066 27.1816 168.777 27.8105 168.198 28.2891C167.624 28.763 166.84 29 165.847 29H162.49V21.6035H164.473V23.7705ZM172.211 29H170.235V21.6035H172.211V29ZM164.473 25.3564V27.4209H165.874C166.266 27.4209 166.567 27.3298 166.776 27.1475C166.986 26.9652 167.091 26.7168 167.091 26.4023C167.091 26.0833 166.988 25.8304 166.783 25.6436C166.578 25.4521 166.275 25.3564 165.874 25.3564H164.473Z" fill="#008EE3"/>
<path fill-rule="evenodd" clip-rule="evenodd" d="M14.893 23.3139L15.802 23.0109C16.001 22.9449 16.219 23.0099 16.35 23.1729C16.653 23.5509 16.996 23.8949 17.373 24.1989C17.525 24.3209 17.592 24.5199 17.545 24.7079C17.519 24.8119 17.491 24.9149 17.461 25.0159L17.297 25.5109L17.291 25.5269C16.21 28.4299 13.412 30.4999 10.135 30.4999C5.921 30.4999 2.5 27.0789 2.5 22.8649C2.5 16.2599 8.974 3.14795 9.691 1.76895C9.803 1.55395 10.054 1.44995 10.286 1.52295C10.518 1.59695 10.663 1.82695 10.63 2.06795C10.582 2.41895 10.816 3.09095 11.173 4.00395C12.109 6.39595 13.998 10.203 15.51 14.0259C15.581 14.207 15.542 14.412 15.408 14.5529C15.276 14.693 15.076 14.7449 14.893 14.6859C14.747 14.9109 14.612 15.144 14.49 15.3829L15.207 16.0199C15.363 16.1589 15.417 16.3809 15.341 16.575C15.163 17.0319 15.036 17.5059 14.961 17.9899C14.93 18.1969 14.773 18.3619 14.568 18.4049L13.629 18.5969C13.615 18.8659 13.615 19.1339 13.629 19.4029L14.568 19.5949C14.773 19.6379 14.93 19.8029 14.961 20.0099C15.036 20.4939 15.163 20.9679 15.341 21.4249C15.417 21.6189 15.363 21.8409 15.207 21.9799L14.49 22.6169C14.612 22.8559 14.747 23.0879 14.893 23.3139ZM9.936 3.52095C8.133 7.22595 3.5 17.3539 3.5 22.8649C3.5 26.5269 6.473 29.4999 10.135 29.4999C12.981 29.4999 15.41 27.7039 16.352 25.1849L16.492 24.7639C16.245 24.5469 16.013 24.3139 15.796 24.0669L14.85 24.3819C14.641 24.4509 14.413 24.3769 14.285 24.1979C13.949 23.7279 13.659 23.2269 13.42 22.7009C13.33 22.5009 13.379 22.2649 13.543 22.1199L14.289 21.4579C14.184 21.1469 14.099 20.8289 14.034 20.5069L13.057 20.3059C12.843 20.2619 12.682 20.0829 12.66 19.8649C12.605 19.2899 12.605 18.7099 12.66 18.1349C12.682 17.9169 12.843 17.7379 13.057 17.6939L14.034 17.4929C14.099 17.1709 14.184 16.8539 14.289 16.5419L13.543 15.8799C13.379 15.735 13.33 15.4989 13.42 15.2989C13.659 14.7729 13.949 14.2719 14.285 13.8019C14.297 13.785 14.31 13.7689 14.323 13.7539C12.86 10.1489 11.125 6.62795 10.242 4.36795C10.123 4.06495 10.021 3.78195 9.936 3.52095Z" fill="white"/>
<path fill-rule="evenodd" clip-rule="evenodd" d="M20.0534 11.4751L20.2534 10.4981C20.2974 10.2831 20.4764 10.1221 20.6954 10.1011C21.2704 10.0451 21.8494 10.0451 22.4244 10.1011C22.6424 10.1221 22.8214 10.2831 22.8654 10.4981L23.0664 11.4751C23.3884 11.5391 23.7064 11.6241 24.0174 11.7301L24.6794 10.9841C24.8254 10.8201 25.0604 10.7701 25.2604 10.8611C25.7864 11.1001 26.2874 11.3901 26.7584 11.7261C26.9364 11.8531 27.0104 12.0821 26.9414 12.2901L26.6274 13.2361C26.8734 13.4531 27.1064 13.6861 27.3234 13.9331L28.2694 13.6181C28.4774 13.5491 28.7064 13.6231 28.8344 13.8021C29.1694 14.2721 29.4594 14.7731 29.6984 15.2991C29.7894 15.4991 29.7394 15.7351 29.5754 15.8801L28.8304 16.5421C28.9354 16.8531 29.0204 17.1711 29.0844 17.4931L30.0614 17.6941C30.2764 17.7381 30.4374 17.9171 30.4584 18.1351C30.5144 18.7101 30.5144 19.2901 30.4584 19.8651C30.4374 20.0831 30.2764 20.2621 30.0614 20.3061L29.0844 20.5071C29.0204 20.8291 28.9354 21.1461 28.8304 21.4581L29.5754 22.1201C29.7394 22.2651 29.7894 22.5011 29.6984 22.7011C29.4594 23.2271 29.1694 23.7281 28.8344 24.1981C28.7064 24.3771 28.4774 24.4511 28.2694 24.3821L27.3234 24.0671C27.1064 24.3141 26.8744 24.5471 26.6274 24.7641L26.9414 25.7101C27.0104 25.9181 26.9364 26.1471 26.7584 26.2741C26.2874 26.6101 25.7864 26.9001 25.2604 27.1391C25.0604 27.2301 24.8254 27.1801 24.6794 27.0161L24.0174 26.2701C23.7064 26.3761 23.3884 26.4611 23.0664 26.5251L22.8654 27.5021C22.8214 27.7171 22.6424 27.8781 22.4244 27.8991C21.8494 27.9551 21.2704 27.9551 20.6954 27.8991C20.4764 27.8781 20.2974 27.7171 20.2534 27.5021L20.0534 26.5251C19.7304 26.4611 19.4134 26.3761 19.1024 26.2701L18.4404 27.0161C18.2944 27.1801 18.0584 27.2301 17.8594 27.1391C17.3334 26.9001 16.8314 26.6101 16.3614 26.2741C16.1834 26.1471 16.1084 25.9181 16.1774 25.7101L16.4924 24.7641C16.2454 24.5471 16.0134 24.3141 15.7964 24.0671L14.8504 24.3821C14.6414 24.4511 14.4134 24.3771 14.2854 24.1981C13.9494 23.7281 13.6594 23.2271 13.4204 22.7011C13.3304 22.5011 13.3794 22.2651 13.5434 22.1201L14.2894 21.4581C14.1844 21.1471 14.0994 20.8291 14.0344 20.5071L13.0574 20.3061C12.8434 20.2621 12.6824 20.0831 12.6604 19.8651C12.6054 19.2901 12.6054 18.7101 12.6604 18.1351C12.6824 17.9171 12.8434 17.7381 13.0574 17.6941L14.0344 17.4931C14.0994 17.1711 14.1844 16.8541 14.2894 16.5421L13.5434 15.8801C13.3794 15.7351 13.3304 15.4991 13.4204 15.2991C13.6594 14.7731 13.9494 14.2721 14.2854 13.8021C14.4134 13.6231 14.6414 13.5491 14.8504 13.6181L15.7964 13.9331C16.0124 13.6861 16.2454 13.4531 16.4924 13.2361L16.1774 12.2901C16.1084 12.0821 16.1834 11.8531 16.3614 11.7261C16.8314 11.3901 17.3334 11.1001 17.8594 10.8611C18.0584 10.7701 18.2944 10.8201 18.4404 10.9841L19.1024 11.7301C19.4134 11.6241 19.7304 11.5391 20.0534 11.4751ZM21.9624 11.0701C21.6944 11.0561 21.4254 11.0561 21.1574 11.0701L20.9644 12.0091C20.9224 12.2131 20.7564 12.3711 20.5504 12.4021C20.0664 12.4761 19.5914 12.6031 19.1354 12.7811C18.9404 12.8571 18.7184 12.8041 18.5794 12.6471L17.9434 11.9311C17.7044 12.0531 17.4714 12.1871 17.2454 12.3331L17.5484 13.2431C17.6144 13.4411 17.5494 13.6601 17.3864 13.7911C17.0044 14.0971 16.6564 14.4451 16.3504 14.8271C16.2194 14.9901 16.0014 15.0551 15.8024 14.9891L14.8934 14.6861C14.7474 14.9121 14.6124 15.1441 14.4904 15.3831L15.2074 16.0201C15.3634 16.1591 15.4174 16.3811 15.3414 16.5751C15.1634 17.0321 15.0364 17.5061 14.9614 17.9901C14.9304 18.1971 14.7734 18.3621 14.5684 18.4051L13.6294 18.5971C13.6154 18.8661 13.6154 19.1341 13.6294 19.4031L14.5684 19.5951C14.7734 19.6381 14.9304 19.8031 14.9614 20.0101C15.0364 20.4941 15.1634 20.9681 15.3414 21.4251C15.4174 21.6191 15.3634 21.8411 15.2074 21.9801L14.4904 22.6171C14.6124 22.8561 14.7474 23.0881 14.8934 23.3141L15.8024 23.0111C16.0014 22.9451 16.2194 23.0101 16.3504 23.1731C16.6564 23.5551 17.0044 23.9031 17.3864 24.2091C17.5494 24.3401 17.6144 24.5591 17.5484 24.7571L17.2454 25.6671C17.4714 25.8131 17.7044 25.9471 17.9434 26.0691L18.5794 25.3531C18.7184 25.1961 18.9404 25.1431 19.1354 25.2191C19.5914 25.3971 20.0664 25.5241 20.5504 25.5981C20.7564 25.6291 20.9224 25.7871 20.9644 25.9911L21.1574 26.9301C21.4254 26.9441 21.6944 26.9441 21.9624 26.9301L22.1554 25.9911C22.1974 25.7871 22.3624 25.6291 22.5694 25.5981C23.0534 25.5241 23.5284 25.3971 23.9844 25.2191C24.1794 25.1431 24.4004 25.1961 24.5394 25.3531L25.1764 26.0691C25.4154 25.9471 25.6484 25.8131 25.8734 25.6671L25.5714 24.7571C25.5054 24.5591 25.5694 24.3401 25.7334 24.2091C26.1154 23.9031 26.4624 23.5551 26.7684 23.1731C26.8994 23.0101 27.1184 22.9451 27.3164 23.0111L28.2264 23.3141C28.3724 23.0881 28.5064 22.8561 28.6294 22.6171L27.9124 21.9801C27.7554 21.8411 27.7024 21.6191 27.7784 21.4251C27.9564 20.9681 28.0834 20.4941 28.1574 20.0101C28.1894 19.8031 28.3464 19.6381 28.5514 19.5951L29.4904 19.4031C29.5034 19.1341 29.5034 18.8661 29.4904 18.5971L28.5514 18.4051C28.3464 18.3621 28.1894 18.1971 28.1574 17.9901C28.0834 17.5061 27.9564 17.0321 27.7784 16.5751C27.7024 16.3811 27.7554 16.1591 27.9124 16.0201L28.6294 15.3831C28.5064 15.1441 28.3724 14.9121 28.2264 14.6861L27.3164 14.9891C27.1184 15.0551 26.8994 14.9901 26.7684 14.8271C26.4624 14.4451 26.1154 14.0971 25.7334 13.7911C25.5694 13.6601 25.5054 13.4411 25.5714 13.2431L25.8734 12.3331C25.6484 12.1871 25.4154 12.0531 25.1764 11.9311L24.5394 12.6471C24.4004 12.8041 24.1794 12.8571 23.9844 12.7811C23.5284 12.6031 23.0534 12.4761 22.5694 12.4021C22.3624 12.3711 22.1974 12.2131 22.1554 12.0091L21.9624 11.0701ZM21.5594 15.4141C19.5804 15.4141 17.9734 17.0211 17.9734 19.0001C17.9734 20.9791 19.5804 22.5861 21.5594 22.5861C23.5384 22.5861 25.1454 20.9791 25.1454 19.0001C25.1454 17.0211 23.5384 15.4141 21.5594 15.4141ZM21.5594 16.4141C22.9864 16.4141 24.1454 17.5731 24.1454 19.0001C24.1454 20.4271 22.9864 21.5861 21.5594 21.5861C20.1324 21.5861 18.9734 20.4271 18.9734 19.0001C18.9734 17.5731 20.1324 16.4141 21.5594 16.4141Z" fill="white"/>
<path fill-rule="evenodd" clip-rule="evenodd" d="M5.52883 19.664C5.52883 19.664 3.34583 25.867 8.85983 27.48C9.12483 27.557 9.40183 27.405 9.47983 27.14C9.55683 26.875 9.40483 26.598 9.13983 26.52C4.56883 25.183 6.47083 20.002 6.47083 20.002C6.56383 19.742 6.42883 19.456 6.16883 19.362C5.90883 19.269 5.62283 19.404 5.52883 19.664Z" fill="white"/>
</svg>
